<svg width="1240" height="251" viewBox="0 0 1240 251" fill="none" xmlns="http://www.w3.org/2000/svg">
<path d="M654.305 25.1054C653.79 23.1595 653.121 21.2581 652.305 19.4192C651.477 17.5645 650.486 15.788 649.343 14.1111C647.024 10.7161 644.067 7.80952 640.638 5.55512C637.208 3.32646 633.406 1.73699 629.414 0.862861C625.439 -0.011772 621.348 -0.223337 617.304 0.236638C613.264 0.688626 609.318 1.76678 605.607 3.43275C601.864 5.10675 598.413 7.37531 595.388 10.1514C592.31 12.9669 589.77 16.3234 587.892 20.0558C587.417 20.9921 587 21.9595 586.619 22.9417C586.238 23.9249 585.907 24.9271 585.628 25.9443C585.481 26.4509 585.362 26.9649 585.24 27.4789C585.118 27.9929 585.017 28.5127 584.93 29.0208C584.745 30.0384 584.598 31.0649 584.498 32.0988C584.075 36.2705 584.373 40.4843 585.38 44.5538C586.395 48.6714 588.147 52.569 590.551 56.0563C592.994 59.6135 596.13 62.6357 599.768 64.9401C601.203 65.8395 604.543 67.3682 604.659 67.4169C606.299 68.0891 608.016 68.5569 609.769 68.8097C609.988 68.8407 610.21 68.8702 610.428 68.8968L610.575 68.9175L610.7 68.9264C612.093 69.0823 613.497 69.1223 614.896 69.046C616.65 68.9554 618.388 68.6675 620.078 68.1879C620.951 67.9418 621.807 67.6358 622.64 67.2722C623.494 66.9034 624.321 66.4735 625.115 65.9858C625.923 65.4846 626.691 64.9222 627.414 64.3035C628.14 63.6768 628.815 62.9928 629.432 62.258C630.642 60.8054 631.62 59.1726 632.331 57.418C632.67 56.5769 632.956 55.7146 633.185 54.8363C633.293 54.4051 633.396 53.9738 633.478 53.5425C633.527 53.3239 633.556 53.1231 633.593 52.9148C633.63 52.7066 633.661 52.5013 633.692 52.2945C633.94 50.6275 634.038 48.9414 633.986 47.2566C633.948 46.1616 633.842 45.07 633.67 43.9882C633.655 43.801 633.628 43.615 633.589 43.4314C633.141 41.4553 632.813 39.4538 632.607 37.4379C632.405 35.4339 632.364 33.4167 632.485 31.4061C632.605 29.4086 632.959 27.4323 633.537 25.5175C633.832 24.5694 634.202 23.6467 634.644 22.7586C634.865 22.3206 635.108 21.8942 635.372 21.481C635.504 21.2787 636.196 20.3984 636.196 20.3984C636.637 19.8756 636.784 19.2405 636.386 18.7206C636.193 18.4712 635.909 18.309 635.597 18.2696C635.285 18.2303 634.97 18.3171 634.722 18.5109C634.223 18.8979 633.744 19.3105 633.287 19.7471C632.873 20.17 632.481 20.6137 632.112 21.0763C631.379 21.9955 630.721 22.9725 630.145 23.9977C629.019 26.0531 628.138 28.2342 627.518 30.4963C627.458 30.709 627.402 30.9231 627.346 31.1358C626.822 30.5775 626.276 30.0473 625.709 29.5451C623.341 27.4585 620.658 25.7635 617.761 24.5235C614.996 23.3266 612.101 22.4562 609.136 21.93C608.722 21.848 608.293 21.9236 607.932 22.142C607.571 22.3605 607.304 22.7061 607.183 23.1117C607.062 23.5172 607.095 23.9536 607.276 24.3358C607.458 24.7181 607.774 25.0187 608.164 25.1793H608.182C609.458 25.7287 610.707 26.3091 611.917 26.9339C613.127 27.5586 614.295 28.2351 615.403 28.9721C617.621 30.4416 619.623 32.1209 621.237 34.0291C622.414 35.4017 623.395 36.9316 624.154 38.5752C622.99 37.9056 621.764 37.3511 620.494 36.9195C618.742 36.3205 616.916 35.9647 615.068 35.862C613.218 35.7487 611.361 35.955 609.58 36.472C607.783 36.9921 606.133 37.9302 604.765 39.2102C604.553 39.4091 604.424 39.6808 604.403 39.971C604.383 40.2612 604.472 40.5486 604.653 40.7757C604.834 41.0028 605.094 41.1529 605.38 41.1959C605.666 41.2389 605.958 41.1717 606.198 41.0077L606.218 40.9929C607.429 40.1958 608.809 39.6964 610.247 39.5352C611.693 39.3709 613.157 39.4568 614.574 39.7892C617.392 40.4276 619.983 41.8245 622.071 43.8301C623.022 44.7444 623.806 45.8185 624.389 47.0041C624.902 48.0498 625.172 49.1994 625.178 50.3656C625.177 50.598 625.163 50.8302 625.138 51.0612C625.13 51.0937 625.122 51.1277 625.113 51.1602C625.075 51.3079 625.038 51.4556 624.999 51.5811C624.927 51.8499 624.843 52.1099 624.759 52.3683C624.59 52.8659 624.389 53.3518 624.157 53.8231C623.734 54.7024 623.186 55.5149 622.529 56.235C622.212 56.5801 621.868 56.8996 621.5 57.1906C621.13 57.4907 620.737 57.7617 620.325 58.0014C618.653 58.9836 616.543 59.5714 614.298 59.7605C613.737 59.8062 613.166 59.8299 612.596 59.8313C612.026 59.8328 611.451 59.8092 610.884 59.7605C610.316 59.7117 609.753 59.6497 609.212 59.5537C608.671 59.4577 608.148 59.3484 607.678 59.2243L607.446 59.1638C607.326 59.1327 605.117 58.2289 604.178 57.6765C601.449 56.0465 599.076 53.8781 597.203 51.302C595.281 48.6684 593.851 45.7058 592.983 42.5585C592.542 40.9724 592.241 39.3503 592.082 37.7111C592.003 36.89 591.953 36.0629 591.935 35.2343C591.918 34.4058 591.946 33.5728 592 32.7412C592.055 31.9097 592.147 31.0797 592.266 30.2511C592.322 29.8302 592.401 29.4388 592.473 29.0341C592.545 28.6294 592.638 28.2351 592.741 27.8393C592.935 27.0459 593.169 26.263 593.444 25.4939C593.718 24.7244 594.02 23.9623 594.371 23.2208C595.785 20.2145 597.734 17.4931 600.121 15.1907C602.549 12.8374 605.337 10.8925 608.38 9.43062C611.447 7.95268 614.723 6.96074 618.092 6.49002C621.457 6.01299 624.878 6.09531 628.216 6.73372C631.541 7.36884 634.727 8.59416 637.624 10.3522C640.503 12.1246 643.002 14.4564 644.973 17.2112C645.968 18.605 646.836 20.0854 647.569 21.6346C648.309 23.2001 648.924 24.8225 649.408 26.4864C650.376 29.8664 650.87 33.3654 650.877 36.8826C650.898 40.4154 649.934 45.5257 649.575 47.391C647.166 56.2527 643.503 59.242 639.909 62.5415C638.313 63.8708 636.892 65.0376 635.169 66.5455C634.269 67.3334 633.422 68.1811 632.635 69.0829C631.932 69.9133 631.274 70.7816 630.665 71.6838C629.45 73.5019 628.447 75.5091 627.887 77.6817C627.601 78.7732 627.453 79.8967 627.446 81.0255C627.438 82.1802 627.638 83.3269 628.034 84.4107C628.119 84.6284 628.284 84.8052 628.495 84.9047C628.705 85.0042 628.946 85.0189 629.167 84.9458C629.388 84.8727 629.573 84.7173 629.684 84.5115C629.795 84.3057 629.823 84.0651 629.763 83.8391V83.8258C629.543 82.9418 629.482 82.0256 629.582 81.12C629.682 80.1926 629.898 79.2816 630.224 78.4084C630.878 76.636 631.907 75.0114 633.136 73.5344C633.755 72.7901 634.414 72.0801 635.11 71.4076C635.63 70.907 636.176 70.4269 636.727 69.9617C635.858 71.6942 635.129 73.5477 634.85 75.5386C634.705 76.5541 634.729 77.5866 634.919 78.5945C635.118 79.5964 635.518 80.5471 636.095 81.3888C636.161 81.4904 636.263 81.5622 636.381 81.5889C636.499 81.6157 636.622 81.5952 636.725 81.5318C636.828 81.4685 636.902 81.3674 636.932 81.2499C636.961 81.1324 636.944 81.0079 636.884 80.9029C636.47 80.1325 636.217 79.2851 636.14 78.4128C636.077 77.5447 636.156 76.672 636.374 75.8296C636.815 74.1252 637.657 72.5139 638.65 71.0015C640.75 68.1081 643.618 65.3315 645.096 64.0214C647.952 61.1739 651.896 57.4136 653.944 48.5888C654.633 46.0913 655.604 40.8615 655.677 36.9077C655.767 32.9287 655.306 28.9564 654.305 25.1054Z" fill="#5EC69D"/>
<path d="M380.083 110.867L389.927 137.023L399.747 110.867H407.412V144.992H401.505V133.742L402.091 118.695L392.013 144.992H387.771L377.716 118.718L378.302 133.742V144.992H372.396V110.867H380.083ZM428.084 144.992C427.834 144.507 427.616 143.718 427.428 142.625C425.616 144.515 423.397 145.46 420.772 145.46C418.225 145.46 416.147 144.734 414.538 143.281C412.928 141.828 412.123 140.031 412.123 137.89C412.123 135.187 413.123 133.117 415.123 131.679C417.139 130.226 420.014 129.5 423.748 129.5H427.241V127.835C427.241 126.523 426.873 125.476 426.139 124.695C425.405 123.898 424.288 123.5 422.788 123.5C421.491 123.5 420.428 123.828 419.6 124.484C418.772 125.125 418.358 125.945 418.358 126.945H412.663C412.663 125.554 413.123 124.257 414.045 123.054C414.967 121.835 416.217 120.882 417.795 120.195C419.389 119.507 421.163 119.164 423.116 119.164C426.084 119.164 428.452 119.914 430.217 121.414C431.983 122.898 432.889 124.992 432.936 127.695V139.132C432.936 141.414 433.256 143.234 433.897 144.593V144.992H428.084ZM421.827 140.89C422.952 140.89 424.006 140.617 424.991 140.07C425.991 139.523 426.741 138.789 427.241 137.867V133.085H424.17C422.061 133.085 420.475 133.453 419.413 134.187C418.35 134.921 417.819 135.96 417.819 137.304C417.819 138.398 418.178 139.273 418.897 139.929C419.631 140.57 420.608 140.89 421.827 140.89ZM446.179 134.117L443.648 136.718V144.992H437.952V108.992H443.648V129.757L445.429 127.531L452.437 119.632H459.281L449.859 130.203L460.288 144.992H453.702L446.179 134.117ZM468.117 144.992H462.422V119.632H468.117V144.992ZM462.071 113.046C462.071 112.171 462.344 111.445 462.891 110.867C463.453 110.289 464.25 110 465.282 110C466.313 110 467.11 110.289 467.672 110.867C468.235 111.445 468.516 112.171 468.516 113.046C468.516 113.906 468.235 114.625 467.672 115.203C467.11 115.765 466.313 116.046 465.282 116.046C464.25 116.046 463.453 115.765 462.891 115.203C462.344 114.625 462.071 113.906 462.071 113.046ZM478.665 119.632L478.829 122.562C480.704 120.296 483.165 119.164 486.212 119.164C491.493 119.164 494.181 122.187 494.275 128.234V144.992H488.579V128.562C488.579 126.953 488.228 125.765 487.525 125C486.837 124.218 485.704 123.828 484.126 123.828C481.829 123.828 480.118 124.867 478.993 126.945V144.992H473.298V119.632H478.665ZM498.143 132.125C498.143 128.187 499.065 125.046 500.908 122.703C502.768 120.343 505.229 119.164 508.291 119.164C511.182 119.164 513.455 120.171 515.112 122.187L515.369 119.632H520.502V144.218C520.502 147.546 519.463 150.171 517.385 152.093C515.322 154.015 512.533 154.976 509.018 154.976C507.158 154.976 505.338 154.585 503.557 153.804C501.791 153.039 500.447 152.031 499.526 150.781L502.221 147.359C503.971 149.437 506.127 150.476 508.69 150.476C510.58 150.476 512.072 149.96 513.166 148.929C514.26 147.914 514.807 146.414 514.807 144.429V142.718C513.166 144.546 510.979 145.46 508.244 145.46C505.276 145.46 502.846 144.281 500.955 141.921C499.08 139.562 498.143 136.296 498.143 132.125ZM503.815 132.617C503.815 135.164 504.33 137.171 505.362 138.64C506.408 140.093 507.854 140.82 509.697 140.82C511.994 140.82 513.697 139.835 514.807 137.867V126.71C513.729 124.789 512.041 123.828 509.744 123.828C507.869 123.828 506.408 124.57 505.362 126.054C504.33 127.539 503.815 129.726 503.815 132.617ZM558.613 132.57C558.613 136.492 557.723 139.625 555.942 141.968C554.16 144.296 551.77 145.46 548.77 145.46C545.988 145.46 543.762 144.546 542.09 142.718V154.742H536.395V119.632H541.645L541.879 122.21C543.551 120.179 545.824 119.164 548.699 119.164C551.793 119.164 554.215 120.32 555.965 122.632C557.731 124.929 558.613 128.125 558.613 132.218V132.57ZM552.942 132.078C552.942 129.546 552.434 127.539 551.418 126.054C550.418 124.57 548.981 123.828 547.106 123.828C544.777 123.828 543.106 124.789 542.09 126.71V137.96C543.121 139.929 544.809 140.914 547.152 140.914C548.965 140.914 550.379 140.187 551.395 138.734C552.426 137.265 552.942 135.046 552.942 132.078ZM573.661 145.46C570.052 145.46 567.122 144.328 564.872 142.062C562.638 139.781 561.521 136.75 561.521 132.968V132.265C561.521 129.734 562.005 127.476 562.974 125.492C563.958 123.492 565.333 121.937 567.099 120.828C568.864 119.718 570.833 119.164 573.005 119.164C576.458 119.164 579.122 120.265 580.997 122.468C582.888 124.671 583.833 127.789 583.833 131.82V134.117H567.263C567.435 136.21 568.13 137.867 569.349 139.085C570.583 140.304 572.13 140.914 573.989 140.914C576.599 140.914 578.724 139.859 580.364 137.75L583.435 140.679C582.419 142.195 581.06 143.375 579.357 144.218C577.669 145.046 575.771 145.46 573.661 145.46ZM572.982 123.734C571.419 123.734 570.153 124.281 569.185 125.375C568.232 126.468 567.622 127.992 567.357 129.945H578.208V129.523C578.083 127.617 577.575 126.179 576.685 125.21C575.794 124.226 574.56 123.734 572.982 123.734ZM598.482 145.46C594.873 145.46 591.943 144.328 589.693 142.062C587.459 139.781 586.342 136.75 586.342 132.968V132.265C586.342 129.734 586.826 127.476 587.795 125.492C588.779 123.492 590.154 121.937 591.92 120.828C593.686 119.718 595.654 119.164 597.826 119.164C601.279 119.164 603.943 120.265 605.818 122.468C607.709 124.671 608.654 127.789 608.654 131.82V134.117H592.084C592.256 136.21 592.951 137.867 594.17 139.085C595.404 140.304 596.951 140.914 598.811 140.914C601.42 140.914 603.545 139.859 605.186 137.75L608.256 140.679C607.24 142.195 605.881 143.375 604.178 144.218C602.49 145.046 600.592 145.46 598.482 145.46ZM597.803 123.734C596.24 123.734 594.975 124.281 594.006 125.375C593.053 126.468 592.443 127.992 592.178 129.945H603.029V129.523C602.904 127.617 602.397 126.179 601.506 125.21C600.615 124.226 599.381 123.734 597.803 123.734ZM625.413 124.835C624.663 124.71 623.89 124.648 623.093 124.648C620.483 124.648 618.726 125.648 617.819 127.648V144.992H612.124V119.632H617.562L617.702 122.468C619.077 120.265 620.983 119.164 623.421 119.164C624.233 119.164 624.905 119.273 625.437 119.492L625.413 124.835ZM644.399 119.632L644.563 122.281C646.345 120.203 648.782 119.164 651.876 119.164C655.267 119.164 657.587 120.46 658.837 123.054C660.681 120.46 663.274 119.164 666.618 119.164C669.415 119.164 671.493 119.937 672.853 121.484C674.228 123.031 674.931 125.312 674.962 128.328V144.992H669.267V128.492C669.267 126.882 668.915 125.703 668.212 124.953C667.509 124.203 666.345 123.828 664.72 123.828C663.423 123.828 662.36 124.179 661.532 124.882C660.72 125.57 660.149 126.476 659.821 127.601L659.845 144.992H654.149V128.304C654.071 125.32 652.548 123.828 649.579 123.828C647.298 123.828 645.681 124.757 644.728 126.617V144.992H639.032V119.632H644.399ZM691.017 145.46C687.408 145.46 684.478 144.328 682.228 142.062C679.994 139.781 678.877 136.75 678.877 132.968V132.265C678.877 129.734 679.361 127.476 680.33 125.492C681.314 123.492 682.689 121.937 684.455 120.828C686.221 119.718 688.189 119.164 690.361 119.164C693.814 119.164 696.478 120.265 698.353 122.468C700.244 124.671 701.189 127.789 701.189 131.82V134.117H684.619C684.791 136.21 685.486 137.867 686.705 139.085C687.939 140.304 689.486 140.914 691.346 140.914C693.955 140.914 696.08 139.859 697.721 137.75L700.791 140.679C699.775 142.195 698.416 143.375 696.713 144.218C695.025 145.046 693.127 145.46 691.017 145.46ZM690.338 123.734C688.775 123.734 687.51 124.281 686.541 125.375C685.588 126.468 684.978 127.992 684.713 129.945H695.564V129.523C695.439 127.617 694.932 126.179 694.041 125.21C693.15 124.226 691.916 123.734 690.338 123.734ZM709.956 119.632L710.12 122.562C711.995 120.296 714.456 119.164 717.503 119.164C722.784 119.164 725.472 122.187 725.565 128.234V144.992H719.87V128.562C719.87 126.953 719.518 125.765 718.815 125C718.128 124.218 716.995 123.828 715.417 123.828C713.12 123.828 711.409 124.867 710.284 126.945V144.992H704.589V119.632H709.956ZM737.566 113.468V119.632H742.043V123.851H737.566V138.007C737.566 138.976 737.754 139.679 738.129 140.117C738.519 140.539 739.207 140.75 740.191 140.75C740.848 140.75 741.512 140.671 742.183 140.515V144.921C740.887 145.281 739.637 145.46 738.433 145.46C734.058 145.46 731.871 143.046 731.871 138.218V123.851H727.699V119.632H731.871V113.468H737.566ZM743.684 132.078C743.684 129.593 744.177 127.359 745.161 125.375C746.145 123.375 747.528 121.843 749.309 120.781C751.091 119.703 753.138 119.164 755.45 119.164C758.872 119.164 761.645 120.265 763.77 122.468C765.911 124.671 767.067 127.593 767.239 131.234L767.263 132.57C767.263 135.07 766.778 137.304 765.809 139.273C764.856 141.242 763.481 142.765 761.684 143.843C759.903 144.921 757.841 145.46 755.497 145.46C751.919 145.46 749.052 144.273 746.895 141.898C744.755 139.507 743.684 136.328 743.684 132.359V132.078ZM749.38 132.57C749.38 135.179 749.919 137.226 750.997 138.71C752.075 140.179 753.575 140.914 755.497 140.914C757.419 140.914 758.911 140.164 759.973 138.664C761.052 137.164 761.591 134.968 761.591 132.078C761.591 129.515 761.036 127.484 759.927 125.984C758.833 124.484 757.341 123.734 755.45 123.734C753.591 123.734 752.114 124.476 751.02 125.96C749.927 127.429 749.38 129.632 749.38 132.57ZM784.396 124.835C783.646 124.71 782.873 124.648 782.076 124.648C779.467 124.648 777.709 125.648 776.802 127.648V144.992H771.107V119.632H776.545L776.685 122.468C778.06 120.265 779.967 119.164 782.404 119.164C783.217 119.164 783.888 119.273 784.42 119.492L784.396 124.835ZM801.249 138.101C801.249 137.085 800.827 136.312 799.983 135.781C799.155 135.25 797.772 134.781 795.835 134.375C793.897 133.968 792.28 133.453 790.983 132.828C788.139 131.453 786.718 129.46 786.718 126.851C786.718 124.664 787.639 122.835 789.483 121.367C791.327 119.898 793.671 119.164 796.514 119.164C799.546 119.164 801.991 119.914 803.85 121.414C805.725 122.914 806.663 124.859 806.663 127.25H800.968C800.968 126.156 800.561 125.25 799.749 124.531C798.936 123.796 797.858 123.429 796.514 123.429C795.264 123.429 794.241 123.718 793.444 124.296C792.663 124.875 792.272 125.648 792.272 126.617C792.272 127.492 792.639 128.171 793.374 128.656C794.108 129.14 795.593 129.632 797.827 130.132C800.061 130.617 801.811 131.203 803.077 131.89C804.358 132.562 805.303 133.375 805.913 134.328C806.538 135.281 806.85 136.437 806.85 137.796C806.85 140.078 805.905 141.929 804.014 143.351C802.124 144.757 799.647 145.46 796.585 145.46C794.507 145.46 792.655 145.085 791.03 144.335C789.405 143.585 788.139 142.554 787.233 141.242C786.327 139.929 785.874 138.515 785.874 137H791.405C791.483 138.343 791.991 139.382 792.928 140.117C793.866 140.835 795.108 141.195 796.655 141.195C798.155 141.195 799.296 140.914 800.077 140.351C800.858 139.773 801.249 139.023 801.249 138.101ZM816.484 122.398C818.343 120.242 820.695 119.164 823.539 119.164C828.945 119.164 831.687 122.25 831.765 128.421V144.992H826.07V128.632C826.07 126.882 825.687 125.648 824.922 124.929C824.172 124.195 823.062 123.828 821.593 123.828C819.312 123.828 817.609 124.843 816.484 126.875V144.992H810.789V108.992H816.484V122.398ZM842.641 144.992H836.946V119.632H842.641V144.992ZM836.594 113.046C836.594 112.171 836.868 111.445 837.415 110.867C837.977 110.289 838.774 110 839.805 110C840.837 110 841.633 110.289 842.196 110.867C842.758 111.445 843.04 112.171 843.04 113.046C843.04 113.906 842.758 114.625 842.196 115.203C841.633 115.765 840.837 116.046 839.805 116.046C838.774 116.046 837.977 115.765 837.415 115.203C836.868 114.625 836.594 113.906 836.594 113.046ZM870.111 132.57C870.111 136.492 869.22 139.625 867.439 141.968C865.658 144.296 863.267 145.46 860.267 145.46C857.486 145.46 855.259 144.546 853.588 142.718V154.742H847.892V119.632H853.142L853.377 122.21C855.048 120.179 857.322 119.164 860.197 119.164C863.291 119.164 865.713 120.32 867.463 122.632C869.228 124.929 870.111 128.125 870.111 132.218V132.57ZM864.439 132.078C864.439 129.546 863.931 127.539 862.916 126.054C861.916 124.57 860.478 123.828 858.603 123.828C856.275 123.828 854.603 124.789 853.588 126.71V137.96C854.619 139.929 856.306 140.914 858.65 140.914C860.463 140.914 861.877 140.187 862.892 138.734C863.923 137.265 864.439 135.046 864.439 132.078ZM402.994 192.992C402.744 192.507 402.525 191.718 402.338 190.625C400.525 192.515 398.307 193.46 395.682 193.46C393.135 193.46 391.057 192.734 389.447 191.281C387.838 189.828 387.033 188.031 387.033 185.89C387.033 183.187 388.033 181.117 390.033 179.679C392.049 178.226 394.924 177.5 398.658 177.5H402.15V175.835C402.15 174.523 401.783 173.476 401.049 172.695C400.314 171.898 399.197 171.5 397.697 171.5C396.4 171.5 395.338 171.828 394.51 172.484C393.682 173.125 393.268 173.945 393.268 174.945H387.572C387.572 173.554 388.033 172.257 388.955 171.054C389.877 169.835 391.127 168.882 392.705 168.195C394.299 167.507 396.072 167.164 398.025 167.164C400.994 167.164 403.361 167.914 405.127 169.414C406.893 170.898 407.799 172.992 407.846 175.695V187.132C407.846 189.414 408.166 191.234 408.807 192.593V192.992H402.994ZM396.736 188.89C397.861 188.89 398.916 188.617 399.9 188.07C400.9 187.523 401.65 186.789 402.15 185.867V181.085H399.08C396.971 181.085 395.385 181.453 394.322 182.187C393.26 182.921 392.728 183.96 392.728 185.304C392.728 186.398 393.088 187.273 393.807 187.929C394.541 188.57 395.518 188.89 396.736 188.89ZM423.268 188.914C424.69 188.914 425.87 188.5 426.807 187.671C427.745 186.843 428.245 185.82 428.307 184.601H433.675C433.612 186.179 433.12 187.656 432.198 189.031C431.276 190.39 430.026 191.468 428.448 192.265C426.87 193.062 425.167 193.46 423.339 193.46C419.792 193.46 416.979 192.312 414.901 190.015C412.823 187.718 411.784 184.546 411.784 180.5V179.914C411.784 176.054 412.815 172.968 414.878 170.656C416.94 168.328 419.753 167.164 423.315 167.164C426.331 167.164 428.784 168.046 430.675 169.812C432.581 171.562 433.581 173.867 433.675 176.726H428.307C428.245 175.273 427.745 174.078 426.807 173.14C425.886 172.203 424.706 171.734 423.268 171.734C421.425 171.734 420.003 172.406 419.003 173.75C418.003 175.078 417.495 177.101 417.479 179.82V180.734C417.479 183.484 417.972 185.539 418.956 186.898C419.956 188.242 421.393 188.914 423.268 188.914ZM447.433 188.914C448.855 188.914 450.035 188.5 450.973 187.671C451.91 186.843 452.41 185.82 452.473 184.601H457.84C457.777 186.179 457.285 187.656 456.363 189.031C455.441 190.39 454.191 191.468 452.613 192.265C451.035 193.062 449.332 193.46 447.504 193.46C443.957 193.46 441.144 192.312 439.066 190.015C436.988 187.718 435.949 184.546 435.949 180.5V179.914C435.949 176.054 436.98 172.968 439.043 170.656C441.105 168.328 443.918 167.164 447.48 167.164C450.496 167.164 452.949 168.046 454.84 169.812C456.746 171.562 457.746 173.867 457.84 176.726H452.473C452.41 175.273 451.91 174.078 450.973 173.14C450.051 172.203 448.871 171.734 447.433 171.734C445.59 171.734 444.168 172.406 443.168 173.75C442.168 175.078 441.66 177.101 441.644 179.82V180.734C441.644 183.484 442.137 185.539 443.121 186.898C444.121 188.242 445.558 188.914 447.433 188.914ZM472.348 193.46C468.739 193.46 465.809 192.328 463.559 190.062C461.325 187.781 460.208 184.75 460.208 180.968V180.265C460.208 177.734 460.692 175.476 461.661 173.492C462.645 171.492 464.02 169.937 465.786 168.828C467.552 167.718 469.52 167.164 471.692 167.164C475.145 167.164 477.809 168.265 479.684 170.468C481.575 172.671 482.52 175.789 482.52 179.82V182.117H465.95C466.122 184.21 466.817 185.867 468.036 187.085C469.27 188.304 470.817 188.914 472.677 188.914C475.286 188.914 477.411 187.859 479.052 185.75L482.122 188.679C481.106 190.195 479.747 191.375 478.044 192.218C476.356 193.046 474.458 193.46 472.348 193.46ZM471.669 171.734C470.106 171.734 468.841 172.281 467.872 173.375C466.919 174.468 466.309 175.992 466.044 177.945H476.895V177.523C476.77 175.617 476.263 174.179 475.372 173.21C474.481 172.226 473.247 171.734 471.669 171.734ZM500.217 186.101C500.217 185.085 499.795 184.312 498.951 183.781C498.123 183.25 496.74 182.781 494.803 182.375C492.865 181.968 491.248 181.453 489.951 180.828C487.107 179.453 485.685 177.46 485.685 174.851C485.685 172.664 486.607 170.835 488.451 169.367C490.295 167.898 492.638 167.164 495.482 167.164C498.513 167.164 500.959 167.914 502.818 169.414C504.693 170.914 505.631 172.859 505.631 175.25H499.935C499.935 174.156 499.529 173.25 498.717 172.531C497.904 171.796 496.826 171.429 495.482 171.429C494.232 171.429 493.209 171.718 492.412 172.296C491.631 172.875 491.24 173.648 491.24 174.617C491.24 175.492 491.607 176.171 492.342 176.656C493.076 177.14 494.56 177.632 496.795 178.132C499.029 178.617 500.779 179.203 502.045 179.89C503.326 180.562 504.271 181.375 504.881 182.328C505.506 183.281 505.818 184.437 505.818 185.796C505.818 188.078 504.873 189.929 502.982 191.351C501.092 192.757 498.615 193.46 495.553 193.46C493.474 193.46 491.623 193.085 489.998 192.335C488.373 191.585 487.107 190.554 486.201 189.242C485.295 187.929 484.842 186.515 484.842 185H490.373C490.451 186.343 490.959 187.382 491.896 188.117C492.834 188.835 494.076 189.195 495.623 189.195C497.123 189.195 498.263 188.914 499.045 188.351C499.826 187.773 500.217 187.023 500.217 186.101ZM524.053 186.101C524.053 185.085 523.632 184.312 522.788 183.781C521.96 183.25 520.577 182.781 518.639 182.375C516.702 181.968 515.085 181.453 513.788 180.828C510.944 179.453 509.522 177.46 509.522 174.851C509.522 172.664 510.444 170.835 512.288 169.367C514.132 167.898 516.475 167.164 519.319 167.164C522.35 167.164 524.796 167.914 526.655 169.414C528.53 170.914 529.467 172.859 529.467 175.25H523.772C523.772 174.156 523.366 173.25 522.553 172.531C521.741 171.796 520.663 171.429 519.319 171.429C518.069 171.429 517.046 171.718 516.249 172.296C515.467 172.875 515.077 173.648 515.077 174.617C515.077 175.492 515.444 176.171 516.178 176.656C516.913 177.14 518.397 177.632 520.632 178.132C522.866 178.617 524.616 179.203 525.882 179.89C527.163 180.562 528.108 181.375 528.717 182.328C529.342 183.281 529.655 184.437 529.655 185.796C529.655 188.078 528.71 189.929 526.819 191.351C524.928 192.757 522.452 193.46 519.389 193.46C517.311 193.46 515.46 193.085 513.835 192.335C512.21 191.585 510.944 190.554 510.038 189.242C509.132 187.929 508.678 186.515 508.678 185H514.21C514.288 186.343 514.796 187.382 515.733 188.117C516.671 188.835 517.913 189.195 519.46 189.195C520.96 189.195 522.1 188.914 522.882 188.351C523.663 187.773 524.053 187.023 524.053 186.101ZM539.734 192.992H534.039V167.632H539.734V192.992ZM533.687 161.046C533.687 160.171 533.961 159.445 534.508 158.867C535.07 158.289 535.867 158 536.898 158C537.929 158 538.726 158.289 539.289 158.867C539.851 159.445 540.133 160.171 540.133 161.046C540.133 161.906 539.851 162.625 539.289 163.203C538.726 163.765 537.929 164.046 536.898 164.046C535.867 164.046 535.07 163.765 534.508 163.203C533.961 162.625 533.687 161.906 533.687 161.046ZM567.251 180.57C567.251 184.507 566.368 187.64 564.602 189.968C562.852 192.296 560.438 193.46 557.36 193.46C554.391 193.46 552.079 192.39 550.422 190.25L550.141 192.992H544.985V156.992H550.68V170.07C552.321 168.132 554.532 167.164 557.313 167.164C560.407 167.164 562.837 168.312 564.602 170.609C566.368 172.906 567.251 176.117 567.251 180.242V180.57ZM561.555 180.078C561.555 177.328 561.071 175.265 560.102 173.89C559.133 172.515 557.727 171.828 555.883 171.828C553.415 171.828 551.68 172.906 550.68 175.062V185.515C551.696 187.718 553.446 188.82 555.93 188.82C557.712 188.82 559.087 188.156 560.055 186.828C561.024 185.5 561.524 183.492 561.555 180.804V180.078ZM577.142 192.992H571.447V156.992H577.142V192.992ZM593.573 193.46C589.963 193.46 587.034 192.328 584.784 190.062C582.549 187.781 581.432 184.75 581.432 180.968V180.265C581.432 177.734 581.917 175.476 582.885 173.492C583.87 171.492 585.245 169.937 587.01 168.828C588.776 167.718 590.745 167.164 592.917 167.164C596.37 167.164 599.034 168.265 600.909 170.468C602.799 172.671 603.745 175.789 603.745 179.82V182.117H587.174C587.346 184.21 588.042 185.867 589.26 187.085C590.495 188.304 592.042 188.914 593.901 188.914C596.51 188.914 598.635 187.859 600.276 185.75L603.346 188.679C602.331 190.195 600.971 191.375 599.268 192.218C597.581 193.046 595.682 193.46 593.573 193.46ZM592.893 171.734C591.331 171.734 590.065 172.281 589.096 173.375C588.143 174.468 587.534 175.992 587.268 177.945H598.12V177.523C597.995 175.617 597.487 174.179 596.596 173.21C595.706 172.226 594.471 171.734 592.893 171.734ZM625.356 161.468V167.632H629.833V171.851H625.356V186.007C625.356 186.976 625.543 187.679 625.918 188.117C626.309 188.539 626.997 188.75 627.981 188.75C628.637 188.75 629.301 188.671 629.973 188.515V192.921C628.676 193.281 627.426 193.46 626.223 193.46C621.848 193.46 619.661 191.046 619.661 186.218V171.851H615.489V167.632H619.661V161.468H625.356ZM631.474 180.078C631.474 177.593 631.966 175.359 632.951 173.375C633.935 171.375 635.318 169.843 637.099 168.781C638.88 167.703 640.927 167.164 643.24 167.164C646.662 167.164 649.435 168.265 651.56 170.468C653.701 172.671 654.857 175.593 655.029 179.234L655.052 180.57C655.052 183.07 654.568 185.304 653.599 187.273C652.646 189.242 651.271 190.765 649.474 191.843C647.693 192.921 645.63 193.46 643.287 193.46C639.708 193.46 636.841 192.273 634.685 189.898C632.544 187.507 631.474 184.328 631.474 180.359V180.078ZM637.169 180.57C637.169 183.179 637.708 185.226 638.787 186.71C639.865 188.179 641.365 188.914 643.287 188.914C645.208 188.914 646.701 188.164 647.763 186.664C648.841 185.164 649.38 182.968 649.38 180.078C649.38 177.515 648.826 175.484 647.716 173.984C646.622 172.484 645.13 171.734 643.24 171.734C641.38 171.734 639.904 172.476 638.81 173.96C637.716 175.429 637.169 177.632 637.169 180.57ZM681.07 193.46C677.46 193.46 674.531 192.328 672.281 190.062C670.046 187.781 668.929 184.75 668.929 180.968V180.265C668.929 177.734 669.413 175.476 670.382 173.492C671.367 171.492 672.742 169.937 674.507 168.828C676.273 167.718 678.242 167.164 680.413 167.164C683.867 167.164 686.531 168.265 688.406 170.468C690.296 172.671 691.242 175.789 691.242 179.82V182.117H674.671C674.843 184.21 675.538 185.867 676.757 187.085C677.992 188.304 679.538 188.914 681.398 188.914C684.007 188.914 686.132 187.859 687.773 185.75L690.843 188.679C689.828 190.195 688.468 191.375 686.765 192.218C685.078 193.046 683.179 193.46 681.07 193.46ZM680.39 171.734C678.828 171.734 677.562 172.281 676.593 173.375C675.64 174.468 675.031 175.992 674.765 177.945H685.617V177.523C685.492 175.617 684.984 174.179 684.093 173.21C683.203 172.226 681.968 171.734 680.39 171.734ZM703.336 185.773L708.703 167.632H714.586L705.797 192.992H700.852L691.992 167.632H697.899L703.336 185.773ZM728.04 193.46C724.431 193.46 721.501 192.328 719.251 190.062C717.017 187.781 715.9 184.75 715.9 180.968V180.265C715.9 177.734 716.384 175.476 717.353 173.492C718.337 171.492 719.712 169.937 721.478 168.828C723.243 167.718 725.212 167.164 727.384 167.164C730.837 167.164 733.501 168.265 735.376 170.468C737.267 172.671 738.212 175.789 738.212 179.82V182.117H721.642C721.814 184.21 722.509 185.867 723.728 187.085C724.962 188.304 726.509 188.914 728.368 188.914C730.978 188.914 733.103 187.859 734.743 185.75L737.814 188.679C736.798 190.195 735.439 191.375 733.736 192.218C732.048 193.046 730.15 193.46 728.04 193.46ZM727.361 171.734C725.798 171.734 724.533 172.281 723.564 173.375C722.611 174.468 722.001 175.992 721.736 177.945H732.587V177.523C732.462 175.617 731.954 174.179 731.064 173.21C730.173 172.226 728.939 171.734 727.361 171.734ZM754.971 172.835C754.221 172.71 753.448 172.648 752.651 172.648C750.041 172.648 748.283 173.648 747.377 175.648V192.992H741.682V167.632H747.119L747.26 170.468C748.635 168.265 750.541 167.164 752.979 167.164C753.791 167.164 754.463 167.273 754.994 167.492L754.971 172.835ZM766.902 184.835L772.058 167.632H778.128L768.05 196.835C766.503 201.101 763.878 203.234 760.175 203.234C759.347 203.234 758.433 203.093 757.433 202.812V198.406L758.511 198.476C759.948 198.476 761.027 198.21 761.745 197.679C762.48 197.164 763.058 196.289 763.48 195.054L764.3 192.875L755.394 167.632H761.534L766.902 184.835ZM779.02 180.078C779.02 177.593 779.512 175.359 780.496 173.375C781.481 171.375 782.863 169.843 784.645 168.781C786.426 167.703 788.473 167.164 790.785 167.164C794.207 167.164 796.981 168.265 799.106 170.468C801.246 172.671 802.403 175.593 802.574 179.234L802.598 180.57C802.598 183.07 802.113 185.304 801.145 187.273C800.192 189.242 798.817 190.765 797.02 191.843C795.238 192.921 793.176 193.46 790.832 193.46C787.254 193.46 784.387 192.273 782.231 189.898C780.09 187.507 779.02 184.328 779.02 180.359V180.078ZM784.715 180.57C784.715 183.179 785.254 185.226 786.332 186.71C787.41 188.179 788.91 188.914 790.832 188.914C792.754 188.914 794.246 188.164 795.309 186.664C796.387 185.164 796.926 182.968 796.926 180.078C796.926 177.515 796.371 175.484 795.262 173.984C794.168 172.484 792.676 171.734 790.785 171.734C788.926 171.734 787.449 172.476 786.356 173.96C785.262 175.429 784.715 177.632 784.715 180.57ZM811.739 167.632L811.903 170.562C813.778 168.296 816.239 167.164 819.286 167.164C824.568 167.164 827.255 170.187 827.349 176.234V192.992H821.653V176.562C821.653 174.953 821.302 173.765 820.599 173C819.911 172.218 818.778 171.828 817.2 171.828C814.903 171.828 813.193 172.867 812.068 174.945V192.992H806.372V167.632H811.739ZM843.381 193.46C839.772 193.46 836.842 192.328 834.592 190.062C832.357 187.781 831.24 184.75 831.24 180.968V180.265C831.24 177.734 831.725 175.476 832.693 173.492C833.678 171.492 835.053 169.937 836.818 168.828C838.584 167.718 840.553 167.164 842.725 167.164C846.178 167.164 848.842 168.265 850.717 170.468C852.607 172.671 853.553 175.789 853.553 179.82V182.117H836.982C837.154 184.21 837.85 185.867 839.068 187.085C840.303 188.304 841.85 188.914 843.709 188.914C846.318 188.914 848.443 187.859 850.084 185.75L853.154 188.679C852.139 190.195 850.779 191.375 849.076 192.218C847.389 193.046 845.49 193.46 843.381 193.46ZM842.701 171.734C841.139 171.734 839.873 172.281 838.904 173.375C837.951 174.468 837.342 175.992 837.076 177.945H847.928V177.523C847.803 175.617 847.295 174.179 846.404 173.21C845.514 172.226 844.279 171.734 842.701 171.734Z" fill="#101828"/>
<path d="M410.034 235.719C410.034 231.117 407.335 228.247 403.614 228.247C399.892 228.247 397.193 231.117 397.193 235.719C397.193 240.321 399.892 243.191 403.614 243.191C407.335 243.191 410.034 240.321 410.034 235.719ZM408.33 235.719C408.33 239.497 406.256 241.543 403.614 241.543C400.972 241.543 398.898 239.497 398.898 235.719C398.898 231.941 400.972 229.895 403.614 229.895C406.256 229.895 408.33 231.941 408.33 235.719ZM419.643 238.531C419.643 240.577 418.081 241.514 416.831 241.514C415.439 241.514 414.445 240.492 414.445 238.901V232.083H412.768V239.014C412.768 241.799 414.246 243.134 416.291 243.134C417.939 243.134 419.018 242.253 419.53 241.145H419.643V242.992H421.32V232.083H419.643V238.531ZM424.39 242.992H426.066V236.088C426.066 234.611 427.23 233.531 428.821 233.531C429.269 233.531 429.73 233.617 429.844 233.645V231.941C429.652 231.926 429.212 231.912 428.963 231.912C427.657 231.912 426.52 232.651 426.123 233.73H426.009V232.083H424.39V242.992ZM442.314 232.083H439.871V230.975C439.871 229.895 440.325 229.327 441.433 229.327C441.916 229.327 442.2 229.441 442.371 229.497L442.854 228.049C442.598 227.935 442.087 227.764 441.263 227.764C439.7 227.764 438.195 228.702 438.195 230.577V232.083H436.433V233.503H438.195V242.992H439.871V233.503H442.314V232.083ZM444.663 242.992H446.339V236.088C446.339 234.611 447.504 233.531 449.095 233.531C449.542 233.531 450.004 233.617 450.118 233.645V231.941C449.926 231.926 449.485 231.912 449.237 231.912C447.93 231.912 446.794 232.651 446.396 233.73H446.282V232.083H444.663V242.992ZM452.104 242.992H453.781V232.083H452.104V242.992ZM452.957 230.264C453.61 230.264 454.15 229.753 454.15 229.128C454.15 228.503 453.61 227.992 452.957 227.992C452.303 227.992 451.763 228.503 451.763 229.128C451.763 229.753 452.303 230.264 452.957 230.264ZM461.424 243.219C463.64 243.219 465.26 242.111 465.771 240.463L464.152 240.009C463.725 241.145 462.738 241.713 461.424 241.713C459.457 241.713 458.1 240.442 458.022 238.105H465.941V237.395C465.941 233.333 463.527 231.941 461.254 231.941C458.299 231.941 456.339 234.27 456.339 237.622C456.339 240.975 458.271 243.219 461.424 243.219ZM458.022 236.656C458.136 234.959 459.336 233.446 461.254 233.446C463.072 233.446 464.237 234.81 464.237 236.656H458.022ZM470.167 236.429C470.167 234.526 471.346 233.446 472.951 233.446C474.507 233.446 475.451 234.462 475.451 236.174V242.992H477.127V236.06C477.127 233.276 475.643 231.941 473.434 231.941C471.787 231.941 470.764 232.679 470.252 233.787H470.11V232.083H468.491V242.992H470.167V236.429ZM484.31 243.219C486.412 243.219 487.122 241.912 487.491 241.316H487.69V242.992H489.31V228.446H487.634V233.816H487.491C487.122 233.247 486.469 231.941 484.338 231.941C481.582 231.941 479.679 234.128 479.679 237.566C479.679 241.031 481.582 243.219 484.31 243.219ZM484.537 241.713C482.435 241.713 481.355 239.867 481.355 237.537C481.355 235.236 482.406 233.446 484.537 233.446C486.582 233.446 487.662 235.094 487.662 237.537C487.662 240.009 486.554 241.713 484.537 241.713ZM494.288 228.446H492.612V242.992H494.288V228.446ZM498.438 247.083C499.951 247.083 501.016 246.28 501.648 244.583L506.293 232.111L504.461 232.083L501.449 240.776H501.336L498.324 232.083H496.506L500.54 243.049L500.228 243.901C499.617 245.563 498.864 245.719 497.642 245.406L497.216 246.884C497.387 246.969 497.87 247.083 498.438 247.083ZM518.88 232.083H516.55V229.469H514.874V232.083H513.227V233.503H514.874V240.321C514.874 242.225 516.408 243.134 517.829 243.134C518.454 243.134 518.852 243.02 519.079 242.935L518.738 241.429C518.596 241.458 518.369 241.514 517.999 241.514C517.261 241.514 516.55 241.287 516.55 239.867V233.503H518.88V232.083ZM525.858 243.219C528.074 243.219 529.693 242.111 530.205 240.463L528.585 240.009C528.159 241.145 527.172 241.713 525.858 241.713C523.891 241.713 522.534 240.442 522.456 238.105H530.375V237.395C530.375 233.333 527.96 231.941 525.688 231.941C522.733 231.941 520.773 234.27 520.773 237.622C520.773 240.975 522.705 243.219 525.858 243.219ZM522.456 236.656C522.57 234.959 523.77 233.446 525.688 233.446C527.506 233.446 528.67 234.81 528.67 236.656H522.456ZM536.135 243.247C538.038 243.247 539.033 242.225 539.374 241.514H539.459V242.992H541.135V235.804C541.135 232.338 538.493 231.941 537.101 231.941C535.453 231.941 533.578 232.509 532.726 234.497L534.317 235.066C534.686 234.27 535.56 233.418 537.158 233.418C538.699 233.418 539.459 234.235 539.459 235.634V235.691C539.459 236.5 538.635 236.429 536.646 236.685C534.622 236.948 532.413 237.395 532.413 239.895C532.413 242.026 534.061 243.247 536.135 243.247ZM536.391 241.742C535.055 241.742 534.089 241.145 534.089 239.98C534.089 238.702 535.254 238.304 536.561 238.134C537.271 238.049 539.175 237.85 539.459 237.509V239.043C539.459 240.406 538.379 241.742 536.391 241.742ZM544.194 242.992H545.87V236.174C545.87 234.576 547.035 233.446 548.342 233.446C549.613 233.446 550.501 234.277 550.501 235.52V242.992H552.206V235.889C552.206 234.483 553.086 233.446 554.62 233.446C555.814 233.446 556.836 234.078 556.836 235.691V242.992H558.512V235.691C558.512 233.127 557.135 231.941 555.189 231.941C553.626 231.941 552.483 232.658 551.922 233.787H551.808C551.268 232.622 550.316 231.941 548.882 231.941C547.461 231.941 546.41 232.622 545.956 233.787H545.814V232.083H544.194V242.992ZM569.674 242.992H571.321L573.708 234.611H573.878L576.265 242.992H577.912L581.236 232.083H579.475L577.117 240.406H577.003L574.702 232.083H572.912L570.583 240.435H570.469L568.111 232.083H566.35L569.674 242.992ZM587.513 243.219C590.467 243.219 592.456 240.975 592.456 237.594C592.456 234.185 590.467 231.941 587.513 231.941C584.558 231.941 582.57 234.185 582.57 237.594C582.57 240.975 584.558 243.219 587.513 243.219ZM587.513 241.713C585.268 241.713 584.246 239.781 584.246 237.594C584.246 235.406 585.268 233.446 587.513 233.446C589.757 233.446 590.78 235.406 590.78 237.594C590.78 239.781 589.757 241.713 587.513 241.713ZM601.89 238.531C601.89 240.577 600.327 241.514 599.077 241.514C597.685 241.514 596.691 240.492 596.691 238.901V232.083H595.015V239.014C595.015 241.799 596.492 243.134 598.537 243.134C600.185 243.134 601.265 242.253 601.776 241.145H601.89V242.992H603.566V232.083H601.89V238.531ZM608.312 228.446H606.636V242.992H608.312V228.446ZM615.501 243.219C617.603 243.219 618.314 241.912 618.683 241.316H618.882V242.992H620.501V228.446H618.825V233.816H618.683C618.314 233.247 617.66 231.941 615.529 231.941C612.774 231.941 610.87 234.128 610.87 237.566C610.87 241.031 612.774 243.219 615.501 243.219ZM615.728 241.713C613.626 241.713 612.547 239.867 612.547 237.537C612.547 235.236 613.598 233.446 615.728 233.446C617.774 233.446 618.853 235.094 618.853 237.537C618.853 240.009 617.745 241.713 615.728 241.713ZM631.105 228.446H629.429V242.992H631.105V228.446ZM638.607 243.219C641.561 243.219 643.55 240.975 643.55 237.594C643.55 234.185 641.561 231.941 638.607 231.941C635.652 231.941 633.663 234.185 633.663 237.594C633.663 240.975 635.652 243.219 638.607 243.219ZM638.607 241.713C636.362 241.713 635.339 239.781 635.339 237.594C635.339 235.406 636.362 233.446 638.607 233.446C640.851 233.446 641.874 235.406 641.874 237.594C641.874 239.781 640.851 241.713 638.607 241.713ZM654.638 232.083H652.82L649.809 240.776H649.695L646.684 232.083H644.865L648.9 242.992H650.604L654.638 232.083ZM661.034 243.219C663.25 243.219 664.869 242.111 665.38 240.463L663.761 240.009C663.335 241.145 662.348 241.713 661.034 241.713C659.066 241.713 657.71 240.442 657.632 238.105H665.551V237.395C665.551 233.333 663.136 231.941 660.863 231.941C657.909 231.941 655.949 234.27 655.949 237.622C655.949 240.975 657.88 243.219 661.034 243.219ZM657.632 236.656C657.745 234.959 658.946 233.446 660.863 233.446C662.681 233.446 663.846 234.81 663.846 236.656H657.632ZM678.47 232.083H676.14V229.469H674.464V232.083H672.816V233.503H674.464V240.321C674.464 242.225 675.998 243.134 677.419 243.134C678.044 243.134 678.441 243.02 678.669 242.935L678.328 241.429C678.186 241.458 677.958 241.514 677.589 241.514C676.85 241.514 676.14 241.287 676.14 239.867V233.503H678.47V232.083ZM685.306 243.219C688.26 243.219 690.249 240.975 690.249 237.594C690.249 234.185 688.26 231.941 685.306 231.941C682.351 231.941 680.363 234.185 680.363 237.594C680.363 240.975 682.351 243.219 685.306 243.219ZM685.306 241.713C683.061 241.713 682.039 239.781 682.039 237.594C682.039 235.406 683.061 233.446 685.306 233.446C687.55 233.446 688.573 235.406 688.573 237.594C688.573 239.781 687.55 241.713 685.306 241.713ZM700.109 236.429C700.109 234.526 701.323 233.446 702.978 233.446C704.555 233.446 705.506 234.441 705.506 236.174V242.992H707.183V236.06C707.183 233.254 705.691 231.941 703.461 231.941C701.742 231.941 700.762 232.658 700.251 233.787H700.109V228.446H698.433V242.992H700.109V236.429ZM714.823 243.219C717.039 243.219 718.658 242.111 719.169 240.463L717.55 240.009C717.124 241.145 716.137 241.713 714.823 241.713C712.855 241.713 711.499 240.442 711.421 238.105H719.34V237.395C719.34 233.333 716.925 231.941 714.652 231.941C711.698 231.941 709.738 234.27 709.738 237.622C709.738 240.975 711.669 243.219 714.823 243.219ZM711.421 236.656C711.534 234.959 712.735 233.446 714.652 233.446C716.471 233.446 717.635 234.81 717.635 236.656H711.421ZM725.1 243.247C727.003 243.247 727.998 242.225 728.338 241.514H728.424V242.992H730.1V235.804C730.1 232.338 727.458 231.941 726.066 231.941C724.418 231.941 722.543 232.509 721.691 234.497L723.282 235.066C723.651 234.27 724.525 233.418 726.123 233.418C727.664 233.418 728.424 234.235 728.424 235.634V235.691C728.424 236.5 727.6 236.429 725.611 236.685C723.587 236.948 721.378 237.395 721.378 239.895C721.378 242.026 723.026 243.247 725.1 243.247ZM725.355 241.742C724.02 241.742 723.054 241.145 723.054 239.98C723.054 238.702 724.219 238.304 725.526 238.134C726.236 238.049 728.14 237.85 728.424 237.509V239.043C728.424 240.406 727.344 241.742 725.355 241.742ZM733.159 242.992H734.835V236.088C734.835 234.611 736 233.531 737.591 233.531C738.038 233.531 738.5 233.617 738.614 233.645V231.941C738.422 231.926 737.982 231.912 737.733 231.912C736.426 231.912 735.29 232.651 734.892 233.73H734.778V232.083H733.159V242.992ZM751.083 232.083H748.64V230.975C748.64 229.895 749.095 229.327 750.203 229.327C750.686 229.327 750.97 229.441 751.14 229.497L751.623 228.049C751.368 227.935 750.856 227.764 750.032 227.764C748.47 227.764 746.964 228.702 746.964 230.577V232.083H745.203V233.503H746.964V242.992H748.64V233.503H751.083V232.083ZM753.433 242.992H755.109V236.088C755.109 234.611 756.273 233.531 757.864 233.531C758.312 233.531 758.773 233.617 758.887 233.645V231.941C758.695 231.926 758.255 231.912 758.006 231.912C756.7 231.912 755.563 232.651 755.165 233.73H755.052V232.083H753.433V242.992ZM764.974 243.219C767.928 243.219 769.917 240.975 769.917 237.594C769.917 234.185 767.928 231.941 764.974 231.941C762.019 231.941 760.031 234.185 760.031 237.594C760.031 240.975 762.019 243.219 764.974 243.219ZM764.974 241.713C762.729 241.713 761.707 239.781 761.707 237.594C761.707 235.406 762.729 233.446 764.974 233.446C767.218 233.446 768.241 235.406 768.241 237.594C768.241 239.781 767.218 241.713 764.974 241.713ZM772.475 242.992H774.152V236.174C774.152 234.576 775.316 233.446 776.623 233.446C777.895 233.446 778.782 234.277 778.782 235.52V242.992H780.487V235.889C780.487 234.483 781.368 233.446 782.902 233.446C784.095 233.446 785.118 234.078 785.118 235.691V242.992H786.794V235.691C786.794 233.127 785.416 231.941 783.47 231.941C781.907 231.941 780.764 232.658 780.203 233.787H780.089C779.549 232.622 778.598 231.941 777.163 231.941C775.743 231.941 774.691 232.622 774.237 233.787H774.095V232.083H772.475V242.992ZM796.563 247.083C798.076 247.083 799.141 246.28 799.773 244.583L804.418 232.111L802.586 232.083L799.574 240.776H799.461L796.449 232.083H794.631L798.665 243.049L798.353 243.901C797.742 245.563 796.989 245.719 795.767 245.406L795.341 246.884C795.512 246.969 795.995 247.083 796.563 247.083ZM810.677 243.219C813.631 243.219 815.62 240.975 815.62 237.594C815.62 234.185 813.631 231.941 810.677 231.941C807.722 231.941 805.734 234.185 805.734 237.594C805.734 240.975 807.722 243.219 810.677 243.219ZM810.677 241.713C808.433 241.713 807.41 239.781 807.41 237.594C807.41 235.406 808.433 233.446 810.677 233.446C812.921 233.446 813.944 235.406 813.944 237.594C813.944 239.781 812.921 241.713 810.677 241.713ZM825.054 238.531C825.054 240.577 823.491 241.514 822.241 241.514C820.849 241.514 819.855 240.492 819.855 238.901V232.083H818.179V239.014C818.179 241.799 819.656 243.134 821.701 243.134C823.349 243.134 824.429 242.253 824.94 241.145H825.054V242.992H826.73V232.083H825.054V238.531ZM831.021 243.105C831.724 243.105 832.3 242.53 832.3 241.827C832.3 241.124 831.724 240.549 831.021 240.549C830.318 240.549 829.743 241.124 829.743 241.827C829.743 242.53 830.318 243.105 831.021 243.105Z" fill="#667085"/>
</svg>
