<svg width="1280" height="264" viewBox="0 0 1280 264" fill="none" xmlns="http://www.w3.org/2000/svg">
<path d="M291.461 114.492H282.008V68.8276L268.062 73.5933V65.5854L290.25 57.4214H291.461V114.492Z" fill="#5EC69D"/>
<path d="M244.575 140.718V152.803C244.567 154.48 244.038 155.851 242.988 156.917C241.947 157.983 240.531 158.581 238.74 158.711L238.118 158.736C236.173 158.736 234.622 158.211 233.467 157.161C232.311 156.111 231.725 154.667 231.709 152.828V140.718H234.028V152.754C234.028 154.04 234.382 155.041 235.09 155.757C235.798 156.465 236.807 156.819 238.118 156.819C239.444 156.819 240.457 156.465 241.157 155.757C241.865 155.049 242.219 154.052 242.219 152.767V140.718H244.575ZM250.056 145.284L250.129 146.944C251.139 145.674 252.457 145.04 254.084 145.04C256.876 145.04 258.284 146.614 258.308 149.764V158.492H256.05V149.751C256.042 148.799 255.822 148.095 255.391 147.64C254.967 147.184 254.304 146.956 253.401 146.956C252.668 146.956 252.026 147.151 251.472 147.542C250.919 147.933 250.487 148.445 250.178 149.08V158.492H247.92V145.284H250.056ZM264.167 158.492H261.909V145.284H264.167V158.492ZM261.726 141.78C261.726 141.414 261.836 141.105 262.056 140.853C262.284 140.6 262.617 140.474 263.057 140.474C263.496 140.474 263.83 140.6 264.058 140.853C264.285 141.105 264.399 141.414 264.399 141.78C264.399 142.146 264.285 142.452 264.058 142.696C263.83 142.94 263.496 143.062 263.057 143.062C262.617 143.062 262.284 142.94 262.056 142.696C261.836 142.452 261.726 142.146 261.726 141.78ZM272.151 155.428L275.422 145.284H277.729L272.993 158.492H271.272L266.487 145.284H268.794L272.151 155.428ZM285.212 158.736C283.422 158.736 281.965 158.15 280.842 156.978C279.719 155.798 279.158 154.223 279.158 152.254V151.839C279.158 150.529 279.406 149.361 279.902 148.335C280.407 147.302 281.107 146.496 282.002 145.918C282.905 145.333 283.882 145.04 284.932 145.04C286.649 145.04 287.983 145.605 288.936 146.736C289.888 147.868 290.364 149.487 290.364 151.595V152.535H281.416C281.449 153.837 281.827 154.891 282.551 155.696C283.284 156.494 284.211 156.893 285.334 156.893C286.132 156.893 286.807 156.73 287.361 156.404C287.914 156.079 288.398 155.647 288.813 155.11L290.193 156.185C289.086 157.885 287.426 158.736 285.212 158.736ZM284.932 146.895C284.02 146.895 283.255 147.229 282.637 147.896C282.018 148.555 281.636 149.483 281.489 150.679H288.105V150.508C288.04 149.361 287.731 148.474 287.178 147.847C286.624 147.212 285.876 146.895 284.932 146.895ZM299.373 147.31C299.031 147.253 298.66 147.225 298.262 147.225C296.781 147.225 295.776 147.855 295.247 149.117V158.492H292.988V145.284H295.186L295.222 146.81C295.963 145.63 297.013 145.04 298.372 145.04C298.811 145.04 299.145 145.097 299.373 145.21V147.31ZM309.15 154.988C309.15 154.378 308.918 153.906 308.455 153.572C307.999 153.23 307.197 152.938 306.05 152.693C304.91 152.449 304.003 152.156 303.328 151.814C302.66 151.473 302.164 151.066 301.838 150.594C301.521 150.122 301.362 149.56 301.362 148.909C301.362 147.827 301.818 146.911 302.729 146.163C303.649 145.414 304.821 145.04 306.245 145.04C307.743 145.04 308.955 145.426 309.883 146.199C310.819 146.972 311.287 147.961 311.287 149.166H309.016C309.016 148.547 308.752 148.014 308.223 147.566C307.702 147.119 307.043 146.895 306.245 146.895C305.423 146.895 304.78 147.074 304.316 147.432C303.853 147.79 303.621 148.258 303.621 148.836C303.621 149.381 303.836 149.792 304.268 150.069C304.699 150.346 305.476 150.61 306.599 150.862C307.73 151.115 308.646 151.416 309.346 151.766C310.046 152.116 310.562 152.539 310.896 153.035C311.238 153.523 311.409 154.122 311.409 154.83C311.409 156.01 310.937 156.958 309.993 157.674C309.049 158.382 307.824 158.736 306.318 158.736C305.26 158.736 304.325 158.549 303.511 158.174C302.697 157.8 302.058 157.279 301.594 156.612C301.139 155.936 300.911 155.208 300.911 154.427H303.169C303.21 155.184 303.511 155.786 304.072 156.233C304.642 156.673 305.391 156.893 306.318 156.893C307.173 156.893 307.856 156.722 308.369 156.38C308.89 156.03 309.15 155.566 309.15 154.988ZM316.804 158.492H314.546V145.284H316.804V158.492ZM314.363 141.78C314.363 141.414 314.473 141.105 314.692 140.853C314.92 140.6 315.254 140.474 315.693 140.474C316.133 140.474 316.466 140.6 316.694 140.853C316.922 141.105 317.036 141.414 317.036 141.78C317.036 142.146 316.922 142.452 316.694 142.696C316.466 142.94 316.133 143.062 315.693 143.062C315.254 143.062 314.92 142.94 314.692 142.696C314.473 142.452 314.363 142.146 314.363 141.78ZM323.494 142.085V145.284H325.959V147.029H323.494V155.22C323.494 155.749 323.604 156.148 323.823 156.417C324.043 156.677 324.417 156.807 324.946 156.807C325.207 156.807 325.565 156.758 326.021 156.661V158.492C325.426 158.654 324.849 158.736 324.287 158.736C323.278 158.736 322.517 158.431 322.004 157.82C321.492 157.21 321.235 156.343 321.235 155.22V147.029H318.831V145.284H321.235V142.085H323.494ZM332.93 155.184L336.006 145.284H338.423L333.113 160.53C332.291 162.728 330.985 163.826 329.194 163.826L328.767 163.79L327.925 163.631V161.8L328.535 161.849C329.3 161.849 329.894 161.694 330.317 161.385C330.749 161.076 331.103 160.51 331.379 159.688L331.88 158.345L327.168 145.284H329.634L332.93 155.184Z" fill="#828489"/>
<line x1="184.5" y1="211.992" x2="384.5" y2="211.992" stroke="#5EC69D" stroke-width="3"/>
<path d="M607.289 57.3433V65.1948H606.117C600.805 65.2729 596.56 66.7313 593.383 69.5698C590.206 72.4084 588.318 76.4318 587.719 81.6401C590.766 78.437 594.659 76.8354 599.398 76.8354C604.424 76.8354 608.383 78.6063 611.273 82.1479C614.19 85.6896 615.648 90.2599 615.648 95.8589C615.648 101.64 613.943 106.328 610.531 109.921C607.146 113.489 602.693 115.273 597.172 115.273C591.495 115.273 586.885 113.177 583.344 108.984C579.828 104.791 578.07 99.2964 578.07 92.4995V89.2573C578.07 79.2834 580.492 71.4709 585.336 65.8198C590.206 60.1688 597.198 57.3433 606.312 57.3433H607.289ZM597.094 84.4917C595.01 84.4917 593.096 85.0776 591.352 86.2495C589.633 87.4214 588.37 88.9839 587.562 90.937V93.8276C587.562 98.0464 588.448 101.406 590.219 103.906C591.99 106.38 594.281 107.617 597.094 107.617C599.906 107.617 602.133 106.562 603.773 104.453C605.414 102.343 606.234 99.5698 606.234 96.1323C606.234 92.6948 605.401 89.8953 603.734 87.7339C602.068 85.5724 599.854 84.4917 597.094 84.4917ZM658.697 90.5464C658.697 98.7235 657.16 104.895 654.088 109.062C651.041 113.203 646.392 115.273 640.142 115.273C633.996 115.273 629.361 113.255 626.236 109.218C623.137 105.156 621.548 99.1532 621.47 91.2104V81.3667C621.47 73.1896 622.994 67.0568 626.041 62.9683C629.114 58.8797 633.788 56.8354 640.064 56.8354C646.288 56.8354 650.923 58.8276 653.97 62.812C657.043 66.7964 658.619 72.7599 658.697 80.7026V90.5464ZM649.205 79.9214C649.205 74.5828 648.476 70.6766 647.017 68.2026C645.559 65.7026 643.241 64.4526 640.064 64.4526C636.965 64.4526 634.686 65.6375 633.228 68.0073C631.77 70.3511 631.002 74.0229 630.923 79.0229V91.9136C630.923 97.2261 631.666 101.184 633.15 103.789C634.634 106.393 636.965 107.695 640.142 107.695C643.189 107.695 645.442 106.497 646.9 104.101C648.358 101.679 649.127 97.9032 649.205 92.7729V79.9214ZM688.034 83.2026H702.878V91.8745H688.034V108.789H678.816V91.8745H663.894V83.2026H678.816V67.3823H688.034V83.2026Z" fill="#5EC69D"/>
<path d="M598.59 140.718L604.401 155.22L610.211 140.718H613.251V158.492H610.907V151.57L611.127 144.1L605.292 158.492H603.498L597.675 144.136L597.907 151.57V158.492H595.563V140.718H598.59ZM622.516 158.736C620.726 158.736 619.269 158.15 618.146 156.978C617.023 155.798 616.461 154.223 616.461 152.254V151.839C616.461 150.529 616.71 149.361 617.206 148.335C617.711 147.302 618.41 146.496 619.306 145.918C620.209 145.333 621.186 145.04 622.235 145.04C623.952 145.04 625.287 145.605 626.239 146.736C627.191 147.868 627.667 149.487 627.667 151.595V152.535H618.72C618.752 153.837 619.131 154.891 619.855 155.696C620.587 156.494 621.515 156.893 622.638 156.893C623.436 156.893 624.111 156.73 624.665 156.404C625.218 156.079 625.702 155.647 626.117 155.11L627.497 156.185C626.39 157.885 624.73 158.736 622.516 158.736ZM622.235 146.895C621.324 146.895 620.559 147.229 619.94 147.896C619.322 148.555 618.939 149.483 618.793 150.679H625.409V150.508C625.344 149.361 625.035 148.474 624.481 147.847C623.928 147.212 623.179 146.895 622.235 146.895ZM632.428 145.284L632.501 146.944C633.511 145.674 634.829 145.04 636.457 145.04C639.248 145.04 640.656 146.614 640.68 149.764V158.492H638.422V149.751C638.414 148.799 638.194 148.095 637.763 147.64C637.34 147.184 636.676 146.956 635.773 146.956C635.041 146.956 634.398 147.151 633.844 147.542C633.291 147.933 632.86 148.445 632.55 149.08V158.492H630.292V145.284H632.428ZM647.15 142.085V145.284H649.616V147.029H647.15V155.22C647.15 155.749 647.26 156.148 647.479 156.417C647.699 156.677 648.074 156.807 648.603 156.807C648.863 156.807 649.221 156.758 649.677 156.661V158.492C649.083 158.654 648.505 158.736 647.943 158.736C646.934 158.736 646.173 158.431 645.661 157.82C645.148 157.21 644.892 156.343 644.892 155.22V147.029H642.487V145.284H644.892V142.085H647.15ZM651.422 151.766C651.422 150.472 651.675 149.308 652.179 148.274C652.692 147.241 653.4 146.443 654.303 145.882C655.215 145.32 656.252 145.04 657.416 145.04C659.215 145.04 660.667 145.662 661.774 146.907C662.889 148.152 663.446 149.808 663.446 151.875V152.034C663.446 153.32 663.198 154.476 662.702 155.501C662.213 156.518 661.509 157.312 660.59 157.881C659.678 158.451 658.629 158.736 657.44 158.736C655.65 158.736 654.197 158.113 653.083 156.868C651.976 155.623 651.422 153.975 651.422 151.924V151.766ZM653.693 152.034C653.693 153.499 654.031 154.675 654.706 155.562C655.39 156.449 656.301 156.893 657.44 156.893C658.588 156.893 659.499 156.445 660.175 155.55C660.85 154.646 661.188 153.385 661.188 151.766C661.188 150.317 660.842 149.145 660.15 148.25C659.467 147.347 658.555 146.895 657.416 146.895C656.301 146.895 655.402 147.339 654.718 148.226C654.035 149.113 653.693 150.382 653.693 152.034ZM672.663 147.31C672.321 147.253 671.951 147.225 671.552 147.225C670.071 147.225 669.066 147.855 668.537 149.117V158.492H666.278V145.284H668.476L668.512 146.81C669.253 145.63 670.303 145.04 671.662 145.04C672.101 145.04 672.435 145.097 672.663 145.21V147.31ZM682.44 154.988C682.44 154.378 682.208 153.906 681.745 153.572C681.289 153.23 680.487 152.938 679.34 152.693C678.201 152.449 677.293 152.156 676.618 151.814C675.95 151.473 675.454 151.066 675.128 150.594C674.811 150.122 674.652 149.56 674.652 148.909C674.652 147.827 675.108 146.911 676.02 146.163C676.939 145.414 678.111 145.04 679.535 145.04C681.033 145.04 682.245 145.426 683.173 146.199C684.109 146.972 684.577 147.961 684.577 149.166H682.306C682.306 148.547 682.042 148.014 681.513 147.566C680.992 147.119 680.333 146.895 679.535 146.895C678.713 146.895 678.07 147.074 677.606 147.432C677.143 147.79 676.911 148.258 676.911 148.836C676.911 149.381 677.126 149.792 677.558 150.069C677.989 150.346 678.766 150.61 679.889 150.862C681.02 151.115 681.936 151.416 682.636 151.766C683.336 152.116 683.852 152.539 684.186 153.035C684.528 153.523 684.699 154.122 684.699 154.83C684.699 156.01 684.227 156.958 683.283 157.674C682.339 158.382 681.114 158.736 679.608 158.736C678.55 158.736 677.615 158.549 676.801 158.174C675.987 157.8 675.348 157.279 674.884 156.612C674.429 155.936 674.201 155.208 674.201 154.427H676.459C676.5 155.184 676.801 155.786 677.362 156.233C677.932 156.673 678.681 156.893 679.608 156.893C680.463 156.893 681.146 156.722 681.659 156.38C682.18 156.03 682.44 155.566 682.44 154.988Z" fill="#828489"/>
<line x1="540" y1="211.992" x2="740" y2="211.992" stroke="#E2EEF8" stroke-width="3"/>
<path d="M922.234 81.7183H928.016C930.932 81.6922 933.237 80.937 934.93 79.4526C936.648 77.9683 937.508 75.8198 937.508 73.0073C937.508 70.299 936.792 68.2026 935.359 66.7183C933.953 65.2078 931.792 64.4526 928.875 64.4526C926.323 64.4526 924.227 65.1948 922.586 66.6792C920.945 68.1375 920.125 70.0516 920.125 72.4214H910.633C910.633 69.5047 911.401 66.8485 912.938 64.4526C914.5 62.0568 916.661 60.1948 919.422 58.8667C922.208 57.5125 925.32 56.8354 928.758 56.8354C934.435 56.8354 938.888 58.2677 942.117 61.1323C945.372 63.9709 947 67.9292 947 73.0073C947 75.5594 946.18 77.9683 944.539 80.2339C942.924 82.4735 940.828 84.1662 938.25 85.312C941.375 86.3797 943.745 88.0594 945.359 90.3511C947 92.6427 947.82 95.3771 947.82 98.5542C947.82 103.658 946.062 107.721 942.547 110.742C939.057 113.763 934.461 115.273 928.758 115.273C923.289 115.273 918.81 113.815 915.32 110.898C911.831 107.981 910.086 104.101 910.086 99.2573H919.578C919.578 101.757 920.411 103.789 922.078 105.351C923.771 106.914 926.036 107.695 928.875 107.695C931.818 107.695 934.135 106.914 935.828 105.351C937.521 103.789 938.367 101.523 938.367 98.5542C938.367 95.5594 937.482 93.2547 935.711 91.6401C933.94 90.0256 931.31 89.2183 927.82 89.2183H922.234V81.7183ZM957.666 86.2886L960.752 57.6167H991.298V65.8198H968.642L967.08 79.4136C969.71 77.9032 972.679 77.1479 975.986 77.1479C981.403 77.1479 985.608 78.8797 988.603 82.3433C991.624 85.8068 993.134 90.4683 993.134 96.3276C993.134 102.109 991.468 106.718 988.134 110.156C984.801 113.567 980.231 115.273 974.423 115.273C969.215 115.273 964.892 113.802 961.455 110.859C958.043 107.89 956.194 103.984 955.908 99.1401H965.088C965.452 101.901 966.442 104.023 968.056 105.507C969.671 106.966 971.78 107.695 974.384 107.695C977.301 107.695 979.567 106.653 981.181 104.57C982.822 102.486 983.642 99.6479 983.642 96.0542C983.642 92.5907 982.744 89.8563 980.947 87.8511C979.15 85.8198 976.676 84.8042 973.525 84.8042C971.806 84.8042 970.348 85.0386 969.15 85.5073C967.952 85.95 966.65 86.8354 965.244 88.1636L957.666 86.2886ZM1036.07 90.5464C1036.07 98.7235 1034.53 104.895 1031.46 109.062C1028.41 113.203 1023.76 115.273 1017.51 115.273C1011.37 115.273 1006.73 113.255 1003.6 109.218C1000.51 105.156 998.917 99.1532 998.839 91.2104V81.3667C998.839 73.1896 1000.36 67.0568 1003.41 62.9683C1006.48 58.8797 1011.16 56.8354 1017.43 56.8354C1023.66 56.8354 1028.29 58.8276 1031.34 62.812C1034.41 66.7964 1035.99 72.7599 1036.07 80.7026V90.5464ZM1026.57 79.9214C1026.57 74.5828 1025.84 70.6766 1024.39 68.2026C1022.93 65.7026 1020.61 64.4526 1017.43 64.4526C1014.33 64.4526 1012.06 65.6375 1010.6 68.0073C1009.14 70.3511 1008.37 74.0229 1008.29 79.0229V91.9136C1008.29 97.2261 1009.03 101.184 1010.52 103.789C1012 106.393 1014.33 107.695 1017.51 107.695C1020.56 107.695 1022.81 106.497 1024.27 104.101C1025.73 101.679 1026.5 97.9032 1026.57 92.7729V79.9214ZM1065.4 83.2026H1080.25V91.8745H1065.4V108.789H1056.18V91.8745H1041.26V83.2026H1056.18V67.3823H1065.4V83.2026Z" fill="#5EC69D"/>
<path d="M952.8 150.569C950.79 149.992 949.325 149.284 948.405 148.445C947.494 147.599 947.038 146.557 947.038 145.32C947.038 143.921 947.596 142.765 948.71 141.854C949.833 140.934 951.29 140.474 953.081 140.474C954.301 140.474 955.388 140.71 956.34 141.182C957.3 141.654 958.041 142.305 958.562 143.135C959.09 143.965 959.355 144.873 959.355 145.857H956.999C956.999 144.783 956.657 143.941 955.974 143.331C955.29 142.712 954.326 142.403 953.081 142.403C951.925 142.403 951.022 142.659 950.371 143.172C949.728 143.676 949.406 144.38 949.406 145.284C949.406 146.008 949.711 146.622 950.322 147.127C950.94 147.623 951.986 148.079 953.459 148.494C954.94 148.909 956.096 149.369 956.926 149.874C957.764 150.37 958.382 150.952 958.781 151.619C959.188 152.286 959.392 153.072 959.392 153.975C959.392 155.416 958.83 156.571 957.707 157.442C956.584 158.305 955.083 158.736 953.203 158.736C951.982 158.736 950.843 158.504 949.785 158.04C948.727 157.568 947.909 156.925 947.331 156.111C946.761 155.298 946.477 154.374 946.477 153.34H948.833C948.833 154.415 949.227 155.265 950.017 155.892C950.814 156.51 951.876 156.819 953.203 156.819C954.44 156.819 955.388 156.567 956.047 156.062C956.706 155.558 957.036 154.87 957.036 154C957.036 153.129 956.73 152.457 956.12 151.985C955.51 151.505 954.403 151.033 952.8 150.569ZM965.117 142.085V145.284H967.583V147.029H965.117V155.22C965.117 155.749 965.227 156.148 965.446 156.417C965.666 156.677 966.04 156.807 966.569 156.807C966.83 156.807 967.188 156.758 967.644 156.661V158.492C967.049 158.654 966.472 158.736 965.91 158.736C964.901 158.736 964.14 158.431 963.627 157.82C963.115 157.21 962.858 156.343 962.858 155.22V147.029H960.454V145.284H962.858V142.085H965.117ZM978.386 157.186C977.507 158.219 976.217 158.736 974.516 158.736C973.108 158.736 972.034 158.329 971.293 157.515C970.561 156.693 970.191 155.481 970.183 153.877V145.284H972.441V153.816C972.441 155.818 973.255 156.819 974.882 156.819C976.608 156.819 977.755 156.176 978.325 154.891V145.284H980.583V158.492H978.435L978.386 157.186ZM983.476 151.778C983.476 149.751 983.956 148.124 984.917 146.895C985.877 145.658 987.134 145.04 988.688 145.04C990.235 145.04 991.459 145.569 992.363 146.626V139.742H994.621V158.492H992.546L992.436 157.076C991.533 158.182 990.275 158.736 988.664 158.736C987.134 158.736 985.885 158.109 984.917 156.856C983.956 155.603 983.476 153.967 983.476 151.949V151.778ZM985.734 152.034C985.734 153.532 986.044 154.703 986.662 155.55C987.281 156.396 988.135 156.819 989.226 156.819C990.658 156.819 991.704 156.176 992.363 154.891V148.824C991.687 147.579 990.65 146.956 989.25 146.956C988.143 146.956 987.281 147.383 986.662 148.238C986.044 149.092 985.734 150.358 985.734 152.034ZM1003.62 158.736C1001.83 158.736 1000.37 158.15 999.248 156.978C998.125 155.798 997.563 154.223 997.563 152.254V151.839C997.563 150.529 997.811 149.361 998.308 148.335C998.812 147.302 999.512 146.496 1000.41 145.918C1001.31 145.333 1002.29 145.04 1003.34 145.04C1005.05 145.04 1006.39 145.605 1007.34 146.736C1008.29 147.868 1008.77 149.487 1008.77 151.595V152.535H999.821C999.854 153.837 1000.23 154.891 1000.96 155.696C1001.69 156.494 1002.62 156.893 1003.74 156.893C1004.54 156.893 1005.21 156.73 1005.77 156.404C1006.32 156.079 1006.8 155.647 1007.22 155.11L1008.6 156.185C1007.49 157.885 1005.83 158.736 1003.62 158.736ZM1003.34 146.895C1002.43 146.895 1001.66 147.229 1001.04 147.896C1000.42 148.555 1000.04 149.483 999.895 150.679H1006.51V150.508C1006.45 149.361 1006.14 148.474 1005.58 147.847C1005.03 147.212 1004.28 146.895 1003.34 146.895ZM1013.53 145.284L1013.6 146.944C1014.61 145.674 1015.93 145.04 1017.56 145.04C1020.35 145.04 1021.76 146.614 1021.78 149.764V158.492H1019.52V149.751C1019.52 148.799 1019.3 148.095 1018.86 147.64C1018.44 147.184 1017.78 146.956 1016.87 146.956C1016.14 146.956 1015.5 147.151 1014.95 147.542C1014.39 147.933 1013.96 148.445 1013.65 149.08V158.492H1011.39V145.284H1013.53ZM1028.25 142.085V145.284H1030.72V147.029H1028.25V155.22C1028.25 155.749 1028.36 156.148 1028.58 156.417C1028.8 156.677 1029.18 156.807 1029.7 156.807C1029.96 156.807 1030.32 156.758 1030.78 156.661V158.492C1030.18 158.654 1029.61 158.736 1029.04 158.736C1028.04 158.736 1027.27 158.431 1026.76 157.82C1026.25 157.21 1025.99 156.343 1025.99 155.22V147.029H1023.59V145.284H1025.99V142.085H1028.25ZM1041.06 154.988C1041.06 154.378 1040.82 153.906 1040.36 153.572C1039.91 153.23 1039.1 152.938 1037.96 152.693C1036.82 152.449 1035.91 152.156 1035.23 151.814C1034.57 151.473 1034.07 151.066 1033.74 150.594C1033.43 150.122 1033.27 149.56 1033.27 148.909C1033.27 147.827 1033.72 146.911 1034.64 146.163C1035.56 145.414 1036.73 145.04 1038.15 145.04C1039.65 145.04 1040.86 145.426 1041.79 146.199C1042.72 146.972 1043.19 147.961 1043.19 149.166H1040.92C1040.92 148.547 1040.66 148.014 1040.13 147.566C1039.61 147.119 1038.95 146.895 1038.15 146.895C1037.33 146.895 1036.69 147.074 1036.22 147.432C1035.76 147.79 1035.53 148.258 1035.53 148.836C1035.53 149.381 1035.74 149.792 1036.17 150.069C1036.61 150.346 1037.38 150.61 1038.51 150.862C1039.64 151.115 1040.55 151.416 1041.25 151.766C1041.95 152.116 1042.47 152.539 1042.8 153.035C1043.14 153.523 1043.31 154.122 1043.31 154.83C1043.31 156.01 1042.84 156.958 1041.9 157.674C1040.95 158.382 1039.73 158.736 1038.22 158.736C1037.17 158.736 1036.23 158.549 1035.42 158.174C1034.6 157.8 1033.96 157.279 1033.5 156.612C1033.04 155.936 1032.82 155.208 1032.82 154.427H1035.08C1035.12 155.184 1035.42 155.786 1035.98 156.233C1036.55 156.673 1037.3 156.893 1038.22 156.893C1039.08 156.893 1039.76 156.722 1040.28 156.38C1040.8 156.03 1041.06 155.566 1041.06 154.988Z" fill="#828489"/>
<line x1="895.5" y1="211.992" x2="1095.5" y2="211.992" stroke="#E2EEF8" stroke-width="3"/>
</svg>
