<svg width="22" height="24" viewBox="0 0 22 24" fill="none" xmlns="http://www.w3.org/2000/svg">
<path opacity="0.5" d="M15.9568 15.3928H14.9595L14.606 15.0253C16.121 13.1197 16.9037 10.52 16.4745 7.75692C15.8811 3.97303 12.9521 0.951363 9.41709 0.488585C4.07672 -0.219193 -0.417781 4.62636 0.23872 10.3839C0.66797 14.195 3.47072 17.3528 6.98047 17.9925C9.54335 18.4553 11.9547 17.6114 13.7222 15.978L14.0631 16.3591V17.4344L19.4287 23.2191C19.9463 23.7772 20.7922 23.7772 21.3098 23.2191C21.8275 22.6611 21.8275 21.7491 21.3098 21.1911L15.9568 15.3928ZM8.38184 15.3928C5.23822 15.3928 2.70059 12.6569 2.70059 9.26775C2.70059 5.87859 5.23822 3.14275 8.38184 3.14275C11.5255 3.14275 14.0631 5.87859 14.0631 9.26775C14.0631 12.6569 11.5255 15.3928 8.38184 15.3928Z" fill="#828489"/>
</svg>
