<svg width="1216" height="213" viewBox="0 0 1216 213" fill="none" xmlns="http://www.w3.org/2000/svg">
<rect y="0.244629" width="1216" height="212" rx="16" fill="#8ED7BA" fill-opacity="0.15"/>
<path d="M74.7599 72.4264V87.7674C74.7493 90.0685 73.6839 91.2936 71.7876 91.2936C70.0192 91.2936 68.8366 90.2176 68.8047 88.4492H64.8736C64.8736 92.4762 67.8139 94.5429 71.6385 94.5429C75.8466 94.5429 78.6697 91.9861 78.6804 87.7674V72.4264H74.7599ZM89.9357 94.5642C94.7298 94.5642 97.7766 91.1871 97.7766 86.1267C97.7766 81.0557 94.7298 77.6679 89.9357 77.6679C85.1417 77.6679 82.0948 81.0557 82.0948 86.1267C82.0948 91.1871 85.1417 94.5642 89.9357 94.5642ZM89.957 91.4747C87.3043 91.4747 86.0046 89.1097 86.0046 86.1161C86.0046 83.1225 87.3043 80.7255 89.957 80.7255C92.5671 80.7255 93.8668 83.1225 93.8668 86.1161C93.8668 89.1097 92.5671 91.4747 89.957 91.4747ZM101.05 94.2446H104.906V77.881H101.05V94.2446ZM102.989 75.5585C104.214 75.5585 105.215 74.621 105.215 73.4705C105.215 72.3093 104.214 71.3718 102.989 71.3718C101.753 71.3718 100.752 72.3093 100.752 73.4705C100.752 74.621 101.753 75.5585 102.989 75.5585ZM112.729 84.6566C112.729 82.2915 114.156 80.9279 116.191 80.9279C118.183 80.9279 119.376 82.2382 119.376 84.4222V94.2446H123.233V83.8256C123.244 79.9051 121.006 77.6679 117.629 77.6679C115.179 77.6679 113.496 78.8398 112.75 80.6615H112.558V77.881H108.872V94.2446H112.729V84.6566ZM142.766 77.881H139.538V73.9605H135.681V77.881H133.359V80.8639H135.681V89.962C135.66 93.0408 137.897 94.5536 140.795 94.4684C141.892 94.4364 142.649 94.2233 143.064 94.0848L142.414 91.0699C142.201 91.1232 141.765 91.2191 141.285 91.2191C140.316 91.2191 139.538 90.8782 139.538 89.3228V80.8639H142.766V77.881ZM150.199 84.6566C150.199 82.2915 151.67 80.9279 153.736 80.9279C155.76 80.9279 156.954 82.2169 156.954 84.4222V94.2446H160.81V83.8256C160.81 79.8732 158.573 77.6679 155.175 77.6679C152.66 77.6679 151.062 78.8078 150.306 80.6615H150.114V72.4264H146.343V94.2446H150.199V84.6566ZM171.986 94.5642C175.8 94.5642 178.42 92.6999 179.102 89.8554L175.501 89.4506C174.979 90.8355 173.701 91.56 172.039 91.56C169.546 91.56 167.895 89.9193 167.863 87.1175H179.262V85.935C179.262 80.1928 175.81 77.6679 171.783 77.6679C167.096 77.6679 164.038 81.109 164.038 86.1587C164.038 91.2936 167.053 94.5642 171.986 94.5642ZM167.873 84.5181C167.991 82.43 169.535 80.6722 171.836 80.6722C174.052 80.6722 175.544 82.2915 175.565 84.5181H167.873ZM190.136 94.2446H194.089V86.2546H198.116L202.398 94.2446H206.809L202.089 85.5941C204.657 84.5607 206.01 82.3661 206.01 79.4044C206.01 75.2389 203.325 72.4264 198.318 72.4264H190.136V94.2446ZM194.089 82.9733V75.729H197.711C200.662 75.729 201.983 77.082 201.983 79.4044C201.983 81.7269 200.662 82.9733 197.732 82.9733H194.089ZM213.334 84.6566C213.334 82.2915 214.804 80.9279 216.871 80.9279C218.895 80.9279 220.088 82.2169 220.088 84.4222V94.2446H223.945V83.8256C223.945 79.8732 221.708 77.6679 218.309 77.6679C215.795 77.6679 214.197 78.8078 213.441 80.6615H213.249V72.4264H209.478V94.2446H213.334V84.6566ZM227.876 94.2446H231.733V77.881H227.876V94.2446ZM229.815 75.5585C231.04 75.5585 232.042 74.621 232.042 73.4705C232.042 72.3093 231.04 71.3718 229.815 71.3718C228.579 71.3718 227.578 72.3093 227.578 73.4705C227.578 74.621 228.579 75.5585 229.815 75.5585ZM235.485 94.2446H248.919V91.0486H240.61V90.9101L248.642 80.5124V77.881H235.762V81.077H243.923V81.2155L235.485 91.7943V94.2446ZM259.213 94.5642C264.007 94.5642 267.054 91.1871 267.054 86.1267C267.054 81.0557 264.007 77.6679 259.213 77.6679C254.419 77.6679 251.372 81.0557 251.372 86.1267C251.372 91.1871 254.419 94.5642 259.213 94.5642ZM259.234 91.4747C256.582 91.4747 255.282 89.1097 255.282 86.1161C255.282 83.1225 256.582 80.7255 259.234 80.7255C261.844 80.7255 263.144 83.1225 263.144 86.1161C263.144 89.1097 261.844 91.4747 259.234 91.4747ZM284.906 94.5642C289.019 94.5642 291.639 92.1246 291.916 88.6516H288.23C287.9 90.4094 286.632 91.4215 284.938 91.4215C282.531 91.4215 280.975 89.408 280.975 86.0628C280.975 82.7603 282.563 80.7787 284.938 80.7787C286.792 80.7787 287.932 81.9719 288.23 83.5486H291.916C291.65 80.001 288.88 77.6679 284.885 77.6679C280.091 77.6679 277.066 81.1303 277.066 86.1267C277.066 91.0806 280.017 94.5642 284.906 94.5642ZM302.221 94.5642C307.015 94.5642 310.062 91.1871 310.062 86.1267C310.062 81.0557 307.015 77.6679 302.221 77.6679C297.427 77.6679 294.38 81.0557 294.38 86.1267C294.38 91.1871 297.427 94.5642 302.221 94.5642ZM302.242 91.4747C299.589 91.4747 298.29 89.1097 298.29 86.1161C298.29 83.1225 299.589 80.7255 302.242 80.7255C304.852 80.7255 306.152 83.1225 306.152 86.1161C306.152 89.1097 304.852 91.4747 302.242 91.4747ZM313.335 94.2446H317.192V84.2943C317.192 82.2809 318.534 80.9172 320.196 80.9172C321.826 80.9172 322.944 82.0145 322.944 83.6978V94.2446H326.726V84.0387C326.726 82.1956 327.824 80.9172 329.688 80.9172C331.243 80.9172 332.479 81.8334 332.479 83.8576V94.2446H336.346V83.261C336.346 79.6068 334.237 77.6679 331.233 77.6679C328.857 77.6679 327.046 78.8398 326.322 80.6615H326.151C325.523 78.8078 323.935 77.6679 321.73 77.6679C319.535 77.6679 317.895 78.7972 317.213 80.6615H317.021V77.881H313.335V94.2446ZM340.259 94.2446H344.115V84.2943C344.115 82.2809 345.458 80.9172 347.12 80.9172C348.75 80.9172 349.868 82.0145 349.868 83.6978V94.2446H353.65V84.0387C353.65 82.1956 354.748 80.9172 356.612 80.9172C358.167 80.9172 359.403 81.8334 359.403 83.8576V94.2446H363.27V83.261C363.27 79.6068 361.161 77.6679 358.157 77.6679C355.781 77.6679 353.97 78.8398 353.245 80.6615H353.075C352.446 78.8078 350.859 77.6679 348.654 77.6679C346.459 77.6679 344.819 78.7972 344.137 80.6615H343.945V77.881H340.259V94.2446ZM377.612 87.3625C377.612 89.8554 375.833 91.0912 374.129 91.0912C372.275 91.0912 371.039 89.7809 371.039 87.7034V77.881H367.183V88.3C367.183 92.2311 369.42 94.4577 372.637 94.4577C375.088 94.4577 376.813 93.1686 377.559 91.3362H377.73V94.2446H381.469V77.881H377.612V87.3625ZM389.291 84.6566C389.291 82.2915 390.719 80.9279 392.754 80.9279C394.746 80.9279 395.939 82.2382 395.939 84.4222V94.2446H399.795V83.8256C399.806 79.9051 397.569 77.6679 394.192 77.6679C391.741 77.6679 390.058 78.8398 389.312 80.6615H389.121V77.881H385.435V94.2446H389.291V84.6566ZM403.716 94.2446H407.572V77.881H403.716V94.2446ZM405.655 75.5585C406.88 75.5585 407.881 74.621 407.881 73.4705C407.881 72.3093 406.88 71.3718 405.655 71.3718C404.419 71.3718 403.418 72.3093 403.418 73.4705C403.418 74.621 404.419 75.5585 405.655 75.5585ZM419.709 77.881H416.481V73.9605H412.625V77.881H410.302V80.8639H412.625V89.962C412.604 93.0408 414.841 94.5536 417.738 94.4684C418.836 94.4364 419.592 94.2233 420.008 94.0848L419.358 91.0699C419.145 91.1232 418.708 91.2191 418.229 91.2191C417.259 91.2191 416.481 90.8782 416.481 89.3228V80.8639H419.709V77.881ZM425.332 100.381C428.336 100.381 430.072 98.8362 430.999 96.2262L437.572 77.9023L433.45 77.881L429.668 90.2389H429.497L425.726 77.881H421.635L427.569 94.5855L427.239 95.4698C426.525 97.3341 425.396 97.462 423.712 96.9719L422.817 99.9762C423.339 100.189 424.277 100.381 425.332 100.381ZM455.862 77.881H452.634V73.9605H448.777V77.881H446.455V80.8639H448.777V89.962C448.756 93.0408 450.993 94.5536 453.891 94.4684C454.988 94.4364 455.744 94.2233 456.16 94.0848L455.51 91.0699C455.297 91.1232 454.86 91.2191 454.381 91.2191C453.411 91.2191 452.634 90.8782 452.634 89.3228V80.8639H455.862V77.881ZM466.049 94.5642C470.843 94.5642 473.89 91.1871 473.89 86.1267C473.89 81.0557 470.843 77.6679 466.049 77.6679C461.255 77.6679 458.208 81.0557 458.208 86.1267C458.208 91.1871 461.255 94.5642 466.049 94.5642ZM466.07 91.4747C463.418 91.4747 462.118 89.1097 462.118 86.1161C462.118 83.1225 463.418 80.7255 466.07 80.7255C468.68 80.7255 469.98 83.1225 469.98 86.1161C469.98 89.1097 468.68 91.4747 466.07 91.4747ZM483.236 94.5323C486.048 94.5323 487.316 92.8597 487.923 91.6665H488.157V94.2446H491.95V72.4264H488.083V80.587H487.923C487.337 79.4044 486.133 77.6679 483.246 77.6679C479.464 77.6679 476.492 80.6296 476.492 86.0841C476.492 91.4747 479.379 94.5323 483.236 94.5323ZM484.312 91.3682C481.765 91.3682 480.423 89.131 480.423 86.0628C480.423 83.0159 481.744 80.832 484.312 80.832C486.794 80.832 488.157 82.8881 488.157 86.0628C488.157 89.2375 486.773 91.3682 484.312 91.3682ZM500.768 94.5749C503.336 94.5749 504.87 93.371 505.573 91.9968H505.701V94.2446H509.408V83.2929C509.408 78.9676 505.882 77.6679 502.761 77.6679C499.32 77.6679 496.678 79.202 495.825 82.185L499.426 82.6963C499.81 81.5777 500.896 80.6189 502.782 80.6189C504.572 80.6189 505.552 81.5351 505.552 83.1438V83.2077C505.552 84.3157 504.391 84.3689 501.504 84.6779C498.329 85.0188 495.293 85.9669 495.293 89.653C495.293 92.8703 497.647 94.5749 500.768 94.5749ZM501.77 91.7411C500.161 91.7411 499.011 91.006 499.011 89.5891C499.011 88.1083 500.3 87.4904 502.026 87.2453C503.038 87.1068 505.062 86.8512 505.562 86.4463V88.3746C505.562 90.1963 504.092 91.7411 501.77 91.7411ZM515.097 100.381C518.102 100.381 519.838 98.8362 520.765 96.2262L527.338 77.9023L523.215 77.881L519.433 90.2389H519.263L515.491 77.881H511.401L517.335 94.5855L517.004 95.4698C516.29 97.3341 515.161 97.462 513.478 96.9719L512.583 99.9762C513.105 100.189 514.043 100.381 515.097 100.381Z" fill="#5EC69D"/>
<path d="M65.7614 140.245H67.5227V134.563H70.7045C70.8324 134.563 70.9531 134.563 71.0739 134.556L74.142 140.245H76.1875L72.8991 134.236C74.7528 133.604 75.6193 132.091 75.6193 130.159C75.6193 127.588 74.0852 125.699 70.6761 125.699H65.7614V140.245ZM67.5227 132.972V127.262H70.6193C72.9773 127.262 73.8864 128.412 73.8864 130.159C73.8864 131.907 72.9773 132.972 70.6477 132.972H67.5227ZM82.7837 140.472C84.9996 140.472 86.619 139.364 87.1303 137.716L85.511 137.262C85.0849 138.398 84.0977 138.966 82.7837 138.966C80.8164 138.966 79.4599 137.695 79.3817 135.358H87.3008V134.648C87.3008 130.586 84.886 129.193 82.6133 129.193C79.6587 129.193 77.6985 131.523 77.6985 134.875C77.6985 138.228 79.6303 140.472 82.7837 140.472ZM79.3817 133.909C79.4954 132.212 80.6957 130.699 82.6133 130.699C84.4315 130.699 85.5962 132.063 85.5962 133.909H79.3817ZM94.2539 144.563C96.8675 144.563 98.9698 143.37 98.9698 140.557V129.336H97.3505V131.068H97.18C96.8107 130.5 96.1289 129.193 93.9982 129.193C91.2425 129.193 89.3391 131.381 89.3391 134.733C89.3391 138.142 91.3278 140.074 93.9698 140.074C96.1005 140.074 96.7823 138.824 97.1516 138.228H97.2937V140.443C97.2937 142.262 96.0153 143.086 94.2539 143.086C92.2724 143.086 91.5763 142.042 91.1289 141.438L89.7937 142.375C90.4755 143.519 91.8178 144.563 94.2539 144.563ZM94.1971 138.568C92.0948 138.568 91.0153 136.978 91.0153 134.705C91.0153 132.489 92.0664 130.699 94.1971 130.699C96.2425 130.699 97.3221 132.347 97.3221 134.705C97.3221 137.12 96.2141 138.568 94.1971 138.568ZM102.038 140.245H103.714V129.336H102.038V140.245ZM102.89 127.517C103.544 127.517 104.083 127.006 104.083 126.381C104.083 125.756 103.544 125.245 102.89 125.245C102.237 125.245 101.697 125.756 101.697 126.381C101.697 127.006 102.237 127.517 102.89 127.517ZM114.511 131.779C113.986 130.23 112.807 129.193 110.648 129.193C108.347 129.193 106.642 130.5 106.642 132.347C106.642 133.853 107.537 134.861 109.54 135.33L111.358 135.756C112.459 136.012 112.977 136.537 112.977 137.29C112.977 138.228 111.983 138.995 110.42 138.995C109.05 138.995 108.19 138.405 107.892 137.233L106.301 137.631C106.692 139.485 108.219 140.472 110.449 140.472C112.984 140.472 114.71 139.087 114.71 137.205C114.71 135.685 113.759 134.726 111.812 134.25L110.193 133.853C108.901 133.533 108.318 133.1 108.318 132.262C108.318 131.324 109.312 130.642 110.648 130.642C112.111 130.642 112.714 131.452 113.006 132.205L114.511 131.779ZM121.978 129.336H119.648V126.722H117.972V129.336H116.324V130.756H117.972V137.574C117.972 139.478 119.506 140.387 120.926 140.387C121.551 140.387 121.949 140.273 122.176 140.188L121.836 138.682C121.694 138.711 121.466 138.767 121.097 138.767C120.358 138.767 119.648 138.54 119.648 137.12V130.756H121.978V129.336ZM128.956 140.472C131.172 140.472 132.791 139.364 133.302 137.716L131.683 137.262C131.257 138.398 130.27 138.966 128.956 138.966C126.988 138.966 125.632 137.695 125.554 135.358H133.473V134.648C133.473 130.586 131.058 129.193 128.785 129.193C125.831 129.193 123.87 131.523 123.87 134.875C123.87 138.228 125.802 140.472 128.956 140.472ZM125.554 133.909C125.667 132.212 126.868 130.699 128.785 130.699C130.603 130.699 131.768 132.063 131.768 133.909H125.554ZM136.022 140.245H137.699V133.341C137.699 131.864 138.863 130.784 140.454 130.784C140.902 130.784 141.363 130.87 141.477 130.898V129.193C141.285 129.179 140.845 129.165 140.596 129.165C139.289 129.165 138.153 129.904 137.755 130.983H137.642V129.336H136.022V140.245ZM152.299 140.5C154.202 140.5 155.197 139.478 155.538 138.767H155.623V140.245H157.299V133.057C157.299 129.591 154.657 129.193 153.265 129.193C151.617 129.193 149.742 129.762 148.89 131.75L150.481 132.318C150.85 131.523 151.724 130.671 153.322 130.671C154.863 130.671 155.623 131.488 155.623 132.887V132.943C155.623 133.753 154.799 133.682 152.81 133.938C150.786 134.201 148.577 134.648 148.577 137.148C148.577 139.279 150.225 140.5 152.299 140.5ZM152.555 138.995C151.219 138.995 150.254 138.398 150.254 137.233C150.254 135.955 151.418 135.557 152.725 135.387C153.435 135.301 155.339 135.103 155.623 134.762V136.296C155.623 137.659 154.543 138.995 152.555 138.995ZM168.086 131.779C167.56 130.23 166.381 129.193 164.222 129.193C161.921 129.193 160.216 130.5 160.216 132.347C160.216 133.853 161.111 134.861 163.114 135.33L164.932 135.756C166.033 136.012 166.551 136.537 166.551 137.29C166.551 138.228 165.557 138.995 163.995 138.995C162.624 138.995 161.765 138.405 161.466 137.233L159.875 137.631C160.266 139.485 161.793 140.472 164.023 140.472C166.559 140.472 168.284 139.087 168.284 137.205C168.284 135.685 167.333 134.726 165.387 134.25L163.767 133.853C162.475 133.533 161.892 133.1 161.892 132.262C161.892 131.324 162.887 130.642 164.222 130.642C165.685 130.642 166.289 131.452 166.58 132.205L168.086 131.779ZM179.643 140.5C181.546 140.5 182.54 139.478 182.881 138.767H182.967V140.245H184.643V133.057C184.643 129.591 182.001 129.193 180.609 129.193C178.961 129.193 177.086 129.762 176.234 131.75L177.825 132.318C178.194 131.523 179.067 130.671 180.665 130.671C182.207 130.671 182.967 131.488 182.967 132.887V132.943C182.967 133.753 182.143 133.682 180.154 133.938C178.13 134.201 175.921 134.648 175.921 137.148C175.921 139.279 177.569 140.5 179.643 140.5ZM179.898 138.995C178.563 138.995 177.597 138.398 177.597 137.233C177.597 135.955 178.762 135.557 180.069 135.387C180.779 135.301 182.683 135.103 182.967 134.762V136.296C182.967 137.659 181.887 138.995 179.898 138.995ZM193.327 140.245H195.003V133.426C195.003 131.828 196.168 130.699 197.475 130.699C198.746 130.699 199.634 131.53 199.634 132.773V140.245H201.338V133.142C201.338 131.736 202.219 130.699 203.753 130.699C204.946 130.699 205.969 131.331 205.969 132.943V140.245H207.645V132.943C207.645 130.38 206.267 129.193 204.321 129.193C202.759 129.193 201.615 129.911 201.054 131.04H200.941C200.401 129.875 199.449 129.193 198.015 129.193C196.594 129.193 195.543 129.875 195.088 131.04H194.946V129.336H193.327V140.245ZM215.284 140.472C217.5 140.472 219.119 139.364 219.63 137.716L218.011 137.262C217.585 138.398 216.598 138.966 215.284 138.966C213.316 138.966 211.96 137.695 211.882 135.358H219.801V134.648C219.801 130.586 217.386 129.193 215.113 129.193C212.159 129.193 210.199 131.523 210.199 134.875C210.199 138.228 212.13 140.472 215.284 140.472ZM211.882 133.909C211.995 132.212 213.196 130.699 215.113 130.699C216.931 130.699 218.096 132.063 218.096 133.909H211.882ZM224.027 133.682C224.027 131.779 225.206 130.699 226.811 130.699C228.366 130.699 229.311 131.715 229.311 133.426V140.245H230.987V133.313C230.987 130.529 229.502 129.193 227.294 129.193C225.646 129.193 224.623 129.932 224.112 131.04H223.97V129.336H222.35V140.245H224.027V133.682ZM238.794 129.336H236.464V126.722H234.788V129.336H233.141V130.756H234.788V137.574C234.788 139.478 236.322 140.387 237.743 140.387C238.368 140.387 238.766 140.273 238.993 140.188L238.652 138.682C238.51 138.711 238.283 138.767 237.913 138.767C237.175 138.767 236.464 138.54 236.464 137.12V130.756H238.794V129.336ZM245.63 140.472C248.585 140.472 250.573 138.228 250.573 134.847C250.573 131.438 248.585 129.193 245.63 129.193C242.675 129.193 240.687 131.438 240.687 134.847C240.687 138.228 242.675 140.472 245.63 140.472ZM245.63 138.966C243.386 138.966 242.363 137.034 242.363 134.847C242.363 132.659 243.386 130.699 245.63 130.699C247.874 130.699 248.897 132.659 248.897 134.847C248.897 137.034 247.874 138.966 245.63 138.966ZM253.132 140.245H254.808V133.341C254.808 131.864 255.973 130.784 257.564 130.784C258.011 130.784 258.473 130.87 258.586 130.898V129.193C258.395 129.179 257.954 129.165 257.706 129.165C256.399 129.165 255.262 129.904 254.865 130.983H254.751V129.336H253.132V140.245ZM269.408 140.5C271.312 140.5 272.306 139.478 272.647 138.767H272.732V140.245H274.408V133.057C274.408 129.591 271.766 129.193 270.374 129.193C268.727 129.193 266.852 129.762 265.999 131.75L267.59 132.318C267.96 131.523 268.833 130.671 270.431 130.671C271.972 130.671 272.732 131.488 272.732 132.887V132.943C272.732 133.753 271.908 133.682 269.92 133.938C267.896 134.201 265.687 134.648 265.687 137.148C265.687 139.279 267.335 140.5 269.408 140.5ZM269.664 138.995C268.329 138.995 267.363 138.398 267.363 137.233C267.363 135.955 268.528 135.557 269.835 135.387C270.545 135.301 272.448 135.103 272.732 134.762V136.296C272.732 137.659 271.653 138.995 269.664 138.995ZM279.144 133.682C279.144 131.779 280.323 130.699 281.928 130.699C283.483 130.699 284.428 131.715 284.428 133.426V140.245H286.104V133.313C286.104 130.529 284.62 129.193 282.411 129.193C280.763 129.193 279.74 129.932 279.229 131.04H279.087V129.336H277.468V140.245H279.144V133.682ZM293.286 140.472C295.388 140.472 296.099 139.165 296.468 138.568H296.667V140.245H298.286V125.699H296.61V131.068H296.468C296.099 130.5 295.445 129.193 293.315 129.193C290.559 129.193 288.656 131.381 288.656 134.818C288.656 138.284 290.559 140.472 293.286 140.472ZM293.513 138.966C291.411 138.966 290.332 137.12 290.332 134.79C290.332 132.489 291.383 130.699 293.513 130.699C295.559 130.699 296.638 132.347 296.638 134.79C296.638 137.262 295.531 138.966 293.513 138.966ZM311.617 144.563C314.231 144.563 316.333 143.37 316.333 140.557V129.336H314.714V131.068H314.543C314.174 130.5 313.492 129.193 311.362 129.193C308.606 129.193 306.702 131.381 306.702 134.733C306.702 138.142 308.691 140.074 311.333 140.074C313.464 140.074 314.146 138.824 314.515 138.228H314.657V140.443C314.657 142.262 313.379 143.086 311.617 143.086C309.636 143.086 308.94 142.042 308.492 141.438L307.157 142.375C307.839 143.519 309.181 144.563 311.617 144.563ZM311.56 138.568C309.458 138.568 308.379 136.978 308.379 134.705C308.379 132.489 309.43 130.699 311.56 130.699C313.606 130.699 314.685 132.347 314.685 134.705C314.685 137.12 313.577 138.568 311.56 138.568ZM319.401 140.245H321.077V133.341C321.077 131.864 322.242 130.784 323.833 130.784C324.281 130.784 324.742 130.87 324.856 130.898V129.193C324.664 129.179 324.224 129.165 323.975 129.165C322.668 129.165 321.532 129.904 321.134 130.983H321.021V129.336H319.401V140.245ZM330.942 140.472C333.897 140.472 335.886 138.228 335.886 134.847C335.886 131.438 333.897 129.193 330.942 129.193C327.988 129.193 325.999 131.438 325.999 134.847C325.999 138.228 327.988 140.472 330.942 140.472ZM330.942 138.966C328.698 138.966 327.675 137.034 327.675 134.847C327.675 132.659 328.698 130.699 330.942 130.699C333.187 130.699 334.21 132.659 334.21 134.847C334.21 137.034 333.187 138.966 330.942 138.966ZM340.545 140.245H342.192L344.579 131.864H344.749L347.136 140.245H348.783L352.107 129.336H350.346L347.988 137.659H347.874L345.573 129.336H343.783L341.454 137.688H341.34L338.982 129.336H337.221L340.545 140.245ZM359.067 129.336H356.738V126.722H355.062V129.336H353.414V130.756H355.062V137.574C355.062 139.478 356.596 140.387 358.016 140.387C358.641 140.387 359.039 140.273 359.266 140.188L358.925 138.682C358.783 138.711 358.556 138.767 358.187 138.767C357.448 138.767 356.738 138.54 356.738 137.12V130.756H359.067V129.336ZM363.499 133.682C363.499 131.779 364.714 130.699 366.369 130.699C367.945 130.699 368.897 131.693 368.897 133.426V140.245H370.573V133.313C370.573 130.507 369.082 129.193 366.852 129.193C365.133 129.193 364.153 129.911 363.641 131.04H363.499V125.699H361.823V140.245H363.499V133.682ZM381.736 140.245H383.384L385.77 131.864H385.941L388.327 140.245H389.975L393.299 129.336H391.537L389.179 137.659H389.066L386.765 129.336H384.975L382.645 137.688H382.532L380.174 129.336H378.412L381.736 140.245ZM395.515 140.245H397.191V129.336H395.515V140.245ZM396.367 127.517C397.02 127.517 397.56 127.006 397.56 126.381C397.56 125.756 397.02 125.245 396.367 125.245C395.713 125.245 395.174 125.756 395.174 126.381C395.174 127.006 395.713 127.517 396.367 127.517ZM405.005 129.336H402.675V126.722H400.999V129.336H399.352V130.756H400.999V137.574C400.999 139.478 402.533 140.387 403.954 140.387C404.579 140.387 404.977 140.273 405.204 140.188L404.863 138.682C404.721 138.711 404.494 138.767 404.124 138.767C403.386 138.767 402.675 138.54 402.675 137.12V130.756H405.005V129.336ZM409.437 133.682C409.437 131.779 410.651 130.699 412.306 130.699C413.883 130.699 414.835 131.693 414.835 133.426V140.245H416.511V133.313C416.511 130.507 415.019 129.193 412.789 129.193C411.07 129.193 410.09 129.911 409.579 131.04H409.437V125.699H407.761V140.245H409.437V133.682ZM420.799 140.358C421.502 140.358 422.077 139.783 422.077 139.08C422.077 138.377 421.502 137.801 420.799 137.801C420.096 137.801 419.52 138.377 419.52 139.08C419.52 139.783 420.096 140.358 420.799 140.358Z" fill="#5EC69D" fill-opacity="0.7"/>
<g filter="url(#filter0_d_2_39867)">
<path d="M885 72.2446C885 67.8264 888.582 64.2446 893 64.2446H1004C1008.42 64.2446 1012 67.8264 1012 72.2446V104.245C1012 108.663 1008.42 112.245 1004 112.245H893C888.582 112.245 885 108.663 885 104.245V72.2446Z" fill="white"/>
<path d="M906.278 94.2446H913.307V92.7333H908.034V82.6083H906.278V94.2446ZM918.935 94.4208C920.838 94.4208 922.185 93.4833 922.571 92.0628L920.963 91.773C920.656 92.5969 919.918 93.0174 918.952 93.0174C917.497 93.0174 916.52 92.0742 916.474 90.3924H922.679V89.7901C922.679 86.6367 920.793 85.4037 918.815 85.4037C916.384 85.4037 914.781 87.256 914.781 89.9378C914.781 92.648 916.361 94.4208 918.935 94.4208ZM916.48 89.1196C916.548 87.881 917.446 86.8071 918.827 86.8071C920.145 86.8071 921.009 87.7844 921.014 89.1196H916.48ZM927.104 94.4378C928.547 94.4378 929.359 93.7049 929.683 93.0514H929.751V94.2446H931.411V88.4492C931.411 85.9094 929.411 85.4037 928.024 85.4037C926.445 85.4037 924.99 86.0401 924.422 87.631L926.018 87.9946C926.268 87.3753 926.905 86.7787 928.047 86.7787C929.143 86.7787 929.706 87.3526 929.706 88.3412V88.381C929.706 89.0003 929.07 88.9889 927.501 89.1708C925.848 89.3639 924.155 89.7958 924.155 91.7787C924.155 93.4946 925.445 94.4378 927.104 94.4378ZM927.473 93.0742C926.513 93.0742 925.82 92.6424 925.82 91.8014C925.82 90.8924 926.626 90.5685 927.609 90.4378C928.161 90.3639 929.467 90.2162 929.712 89.9719V91.0969C929.712 92.131 928.888 93.0742 927.473 93.0742ZM933.673 94.2446H935.372V88.9151C935.372 87.773 936.253 86.9492 937.457 86.9492C937.81 86.9492 938.207 87.0117 938.344 87.0514V85.4264C938.173 85.4037 937.838 85.3867 937.622 85.3867C936.599 85.3867 935.724 85.9662 935.406 86.9037H935.315V85.5174H933.673V94.2446ZM941.513 89.0628C941.513 87.6708 942.365 86.8753 943.547 86.8753C944.7 86.8753 945.399 87.631 945.399 88.898V94.2446H947.098V88.6935C947.098 86.5344 945.911 85.4037 944.126 85.4037C942.814 85.4037 941.956 86.0117 941.553 86.9378H941.445V85.5174H939.814V94.2446H941.513V89.0628ZM953.611 94.2446H955.31V88.8639C955.31 87.6878 956.134 86.8696 957.099 86.8696C958.043 86.8696 958.696 87.4946 958.696 88.4435V94.2446H960.389V88.6821C960.389 87.631 961.031 86.8696 962.139 86.8696C963.037 86.8696 963.776 87.3696 963.776 88.5514V94.2446H965.474V88.3924C965.474 86.398 964.361 85.4037 962.781 85.4037C961.526 85.4037 960.582 86.006 960.162 86.9378H960.071C959.69 85.9833 958.889 85.4037 957.724 85.4037C956.571 85.4037 955.713 85.9776 955.349 86.9378H955.241V85.5174H953.611V94.2446ZM971.428 94.4208C973.888 94.4208 975.496 92.6196 975.496 89.9208C975.496 87.2049 973.888 85.4037 971.428 85.4037C968.967 85.4037 967.359 87.2049 967.359 89.9208C967.359 92.6196 968.967 94.4208 971.428 94.4208ZM971.433 92.9946C969.825 92.9946 969.075 91.5912 969.075 89.9151C969.075 88.2446 969.825 86.8242 971.433 86.8242C973.03 86.8242 973.78 88.2446 973.78 89.9151C973.78 91.5912 973.03 92.9946 971.433 92.9946ZM977.392 94.2446H979.091V88.9151C979.091 87.773 979.972 86.9492 981.176 86.9492C981.528 86.9492 981.926 87.0117 982.062 87.0514V85.4264C981.892 85.4037 981.557 85.3867 981.341 85.3867C980.318 85.3867 979.443 85.9662 979.125 86.9037H979.034V85.5174H977.392V94.2446ZM986.982 94.4208C988.885 94.4208 990.232 93.4833 990.618 92.0628L989.01 91.773C988.703 92.5969 987.964 93.0174 986.999 93.0174C985.544 93.0174 984.567 92.0742 984.521 90.3924H990.726V89.7901C990.726 86.6367 988.839 85.4037 986.862 85.4037C984.43 85.4037 982.828 87.256 982.828 89.9378C982.828 92.648 984.408 94.4208 986.982 94.4208ZM984.527 89.1196C984.595 87.881 985.493 86.8071 986.874 86.8071C988.192 86.8071 989.055 87.7844 989.061 89.1196H984.527Z" fill="#344054"/>
<path d="M893 65.2446H1004V63.2446H893V65.2446ZM1011 72.2446V104.245H1013V72.2446H1011ZM1004 111.245H893V113.245H1004V111.245ZM886 104.245V72.2446H884V104.245H886ZM893 111.245C889.134 111.245 886 108.111 886 104.245H884C884 109.215 888.029 113.245 893 113.245V111.245ZM1011 104.245C1011 108.111 1007.87 111.245 1004 111.245V113.245C1008.97 113.245 1013 109.215 1013 104.245H1011ZM1004 65.2446C1007.87 65.2446 1011 68.3786 1011 72.2446H1013C1013 67.2741 1008.97 63.2446 1004 63.2446V65.2446ZM893 63.2446C888.029 63.2446 884 67.2741 884 72.2446H886C886 68.3786 889.134 65.2446 893 65.2446V63.2446Z" fill="#D0D5DD"/>
</g>
<g filter="url(#filter1_d_2_39867)">
<path d="M1024 72.2446C1024 67.8264 1027.58 64.2446 1032 64.2446H1144C1148.42 64.2446 1152 67.8264 1152 72.2446V104.245C1152 108.663 1148.42 112.245 1144 112.245H1032C1027.58 112.245 1024 108.663 1024 104.245V72.2446Z" fill="#5EC69D"/>
<path d="M1053.15 86.2844H1054.95C1054.56 84.0174 1052.62 82.4492 1050.11 82.4492C1047.1 82.4492 1044.9 84.7162 1044.9 88.4321C1044.9 92.1139 1047.04 94.4037 1050.19 94.4037C1053.02 94.4037 1055.03 92.5514 1055.03 89.6139V88.2901H1050.46V89.7389H1053.34C1053.3 91.6139 1052.06 92.8014 1050.19 92.8014C1048.14 92.8014 1046.65 91.2503 1046.65 88.4208C1046.65 85.6026 1048.15 84.0514 1050.12 84.0514C1051.67 84.0514 1052.72 84.9037 1053.15 86.2844ZM1060.89 94.4208C1062.79 94.4208 1064.14 93.4833 1064.52 92.0628L1062.92 91.773C1062.61 92.5969 1061.87 93.0174 1060.9 93.0174C1059.45 93.0174 1058.47 92.0742 1058.43 90.3924H1064.63V89.7901C1064.63 86.6367 1062.75 85.4037 1060.77 85.4037C1058.34 85.4037 1056.73 87.256 1056.73 89.9378C1056.73 92.648 1058.31 94.4208 1060.89 94.4208ZM1058.43 89.1196C1058.5 87.881 1059.4 86.8071 1060.78 86.8071C1062.1 86.8071 1062.96 87.7844 1062.97 89.1196H1058.43ZM1070.59 85.5174H1068.8V83.4264H1067.1V85.5174H1065.82V86.881H1067.1V92.0344C1067.1 93.6196 1068.31 94.3867 1069.65 94.3583C1070.19 94.3526 1070.55 94.2503 1070.75 94.1764L1070.44 92.773C1070.33 92.7958 1070.12 92.8469 1069.85 92.8469C1069.3 92.8469 1068.8 92.6651 1068.8 91.6821V86.881H1070.59V85.5174ZM1083.24 87.648C1082.89 86.2901 1081.83 85.4037 1079.94 85.4037C1077.97 85.4037 1076.57 86.4435 1076.57 87.9889C1076.57 89.2276 1077.32 90.0514 1078.96 90.4151L1080.44 90.7389C1081.28 90.9264 1081.67 91.3014 1081.67 91.8469C1081.67 92.523 1080.95 93.0514 1079.84 93.0514C1078.82 93.0514 1078.16 92.6139 1077.96 91.756L1076.32 92.006C1076.6 93.5514 1077.89 94.4208 1079.85 94.4208C1081.95 94.4208 1083.41 93.3014 1083.41 91.7219C1083.41 90.4889 1082.63 89.7276 1081.03 89.3583L1079.64 89.0401C1078.68 88.8128 1078.27 88.4889 1078.27 87.898C1078.27 87.2276 1078.99 86.7503 1079.96 86.7503C1081.02 86.7503 1081.51 87.3355 1081.7 87.9208L1083.24 87.648ZM1089.36 85.5174H1087.57V83.4264H1085.87V85.5174H1084.59V86.881H1085.87V92.0344C1085.86 93.6196 1087.07 94.3867 1088.41 94.3583C1088.95 94.3526 1089.32 94.2503 1089.52 94.1764L1089.21 92.773C1089.1 92.7958 1088.88 92.8469 1088.61 92.8469C1088.06 92.8469 1087.57 92.6651 1087.57 91.6821V86.881H1089.36V85.5174ZM1093.78 94.4378C1095.22 94.4378 1096.03 93.7049 1096.36 93.0514H1096.42V94.2446H1098.08V88.4492C1098.08 85.9094 1096.08 85.4037 1094.7 85.4037C1093.12 85.4037 1091.66 86.0401 1091.09 87.631L1092.69 87.9946C1092.94 87.3753 1093.58 86.7787 1094.72 86.7787C1095.82 86.7787 1096.38 87.3526 1096.38 88.3412V88.381C1096.38 89.0003 1095.74 88.9889 1094.17 89.1708C1092.52 89.3639 1090.83 89.7958 1090.83 91.7787C1090.83 93.4946 1092.12 94.4378 1093.78 94.4378ZM1094.14 93.0742C1093.18 93.0742 1092.49 92.6424 1092.49 91.8014C1092.49 90.8924 1093.3 90.5685 1094.28 90.4378C1094.83 90.3639 1096.14 90.2162 1096.38 89.9719V91.0969C1096.38 92.131 1095.56 93.0742 1094.14 93.0742ZM1100.35 94.2446H1102.04V88.9151C1102.04 87.773 1102.92 86.9492 1104.13 86.9492C1104.48 86.9492 1104.88 87.0117 1105.02 87.0514V85.4264C1104.85 85.4037 1104.51 85.3867 1104.29 85.3867C1103.27 85.3867 1102.4 85.9662 1102.08 86.9037H1101.99V85.5174H1100.35V94.2446ZM1111.08 85.5174H1109.29V83.4264H1107.59V85.5174H1106.31V86.881H1107.59V92.0344C1107.58 93.6196 1108.79 94.3867 1110.13 94.3583C1110.67 94.3526 1111.04 94.2503 1111.23 94.1764L1110.93 92.773C1110.81 92.7958 1110.6 92.8469 1110.33 92.8469C1109.78 92.8469 1109.29 92.6651 1109.29 91.6821V86.881H1111.08V85.5174ZM1116.62 94.4208C1118.53 94.4208 1119.87 93.4833 1120.26 92.0628L1118.65 91.773C1118.34 92.5969 1117.61 93.0174 1116.64 93.0174C1115.18 93.0174 1114.21 92.0742 1114.16 90.3924H1120.37V89.7901C1120.37 86.6367 1118.48 85.4037 1116.5 85.4037C1114.07 85.4037 1112.47 87.256 1112.47 89.9378C1112.47 92.648 1114.05 94.4208 1116.62 94.4208ZM1114.17 89.1196C1114.24 87.881 1115.13 86.8071 1116.51 86.8071C1117.83 86.8071 1118.7 87.7844 1118.7 89.1196H1114.17ZM1125.52 94.4151C1127.11 94.4151 1127.73 93.4435 1128.04 92.8867H1128.18V94.2446H1129.84V82.6083H1128.14V86.9321H1128.04C1127.73 86.3924 1127.15 85.4037 1125.53 85.4037C1123.42 85.4037 1121.87 87.0685 1121.87 89.898C1121.87 92.7219 1123.4 94.4151 1125.52 94.4151ZM1125.89 92.9662C1124.38 92.9662 1123.59 91.631 1123.59 89.881C1123.59 88.148 1124.36 86.8469 1125.89 86.8469C1127.38 86.8469 1128.17 88.0571 1128.17 89.881C1128.17 91.7162 1127.36 92.9662 1125.89 92.9662Z" fill="white"/>
<path d="M1032 65.2446H1144V63.2446H1032V65.2446ZM1151 72.2446V104.245H1153V72.2446H1151ZM1144 111.245H1032V113.245H1144V111.245ZM1025 104.245V72.2446H1023V104.245H1025ZM1032 111.245C1028.13 111.245 1025 108.111 1025 104.245H1023C1023 109.215 1027.03 113.245 1032 113.245V111.245ZM1151 104.245C1151 108.111 1147.87 111.245 1144 111.245V113.245C1148.97 113.245 1153 109.215 1153 104.245H1151ZM1144 65.2446C1147.87 65.2446 1151 68.3786 1151 72.2446H1153C1153 67.2741 1148.97 63.2446 1144 63.2446V65.2446ZM1032 63.2446C1027.03 63.2446 1023 67.2741 1023 72.2446H1025C1025 68.3786 1028.13 65.2446 1032 65.2446V63.2446Z" fill="#5EC69D"/>
</g>
<defs>
<filter id="filter0_d_2_39867" x="883" y="63.2446" width="131" height="52" filterUnits="userSpaceOnUse" color-interpolation-filters="sRGB">
<feFlood flood-opacity="0" result="BackgroundImageFix"/>
<feColorMatrix in="SourceAlpha" type="matrix" values="0 0 0 0 0 0 0 0 0 0 0 0 0 0 0 0 0 0 127 0" result="hardAlpha"/>
<feOffset dy="1"/>
<feGaussianBlur stdDeviation="1"/>
<feColorMatrix type="matrix" values="0 0 0 0 0.0627451 0 0 0 0 0.0941176 0 0 0 0 0.156863 0 0 0 0.05 0"/>
<feBlend mode="normal" in2="BackgroundImageFix" result="effect1_dropShadow_2_39867"/>
<feBlend mode="normal" in="SourceGraphic" in2="effect1_dropShadow_2_39867" result="shape"/>
</filter>
<filter id="filter1_d_2_39867" x="1022" y="63.2446" width="132" height="52" filterUnits="userSpaceOnUse" color-interpolation-filters="sRGB">
<feFlood flood-opacity="0" result="BackgroundImageFix"/>
<feColorMatrix in="SourceAlpha" type="matrix" values="0 0 0 0 0 0 0 0 0 0 0 0 0 0 0 0 0 0 127 0" result="hardAlpha"/>
<feOffset dy="1"/>
<feGaussianBlur stdDeviation="1"/>
<feColorMatrix type="matrix" values="0 0 0 0 0.0627451 0 0 0 0 0.0941176 0 0 0 0 0.156863 0 0 0 0.05 0"/>
<feBlend mode="normal" in2="BackgroundImageFix" result="effect1_dropShadow_2_39867"/>
<feBlend mode="normal" in="SourceGraphic" in2="effect1_dropShadow_2_39867" result="shape"/>
</filter>
</defs>
</svg>
