<svg width="1287" height="517" viewBox="0 0 1287 517" fill="none" xmlns="http://www.w3.org/2000/svg">
<g filter="url(#filter0_d_2_39467)">
<path d="M104 90.1704C104 84.6476 108.477 80.1704 114 80.1704H1173C1178.52 80.1704 1183 84.6476 1183 90.1704V398.17C1183 403.693 1178.52 408.17 1173 408.17H114C108.477 408.17 104 403.693 104 398.17V90.1704Z" fill="white"/>
<rect x="154" y="106.17" width="48" height="48" rx="24" fill="#5EC69D" fill-opacity="0.1"/>
<path d="M181.5 132.17H180.71L180.43 131.9C181.63 130.5 182.25 128.59 181.91 126.56C181.44 123.78 179.12 121.56 176.32 121.22C172.09 120.7 168.53 124.26 169.05 128.49C169.39 131.29 171.61 133.61 174.39 134.08C176.42 134.42 178.33 133.8 179.73 132.6L180 132.88V133.67L184.25 137.92C184.66 138.33 185.33 138.33 185.74 137.92C186.15 137.51 186.15 136.84 185.74 136.43L181.5 132.17ZM175.5 132.17C173.01 132.17 171 130.16 171 127.67C171 125.18 173.01 123.17 175.5 123.17C177.99 123.17 180 125.18 180 127.67C180 130.16 177.99 132.17 175.5 132.17Z" fill="#5EC69D"/>
<path d="M163.458 187.132H154.874V196.17H151.168V174.842H164.718V177.831H154.874V184.173H163.458V187.132ZM171.404 196.17H167.845V180.321H171.404V196.17ZM167.625 176.205C167.625 175.658 167.796 175.204 168.138 174.842C168.489 174.481 168.987 174.3 169.632 174.3C170.277 174.3 170.775 174.481 171.126 174.842C171.478 175.204 171.654 175.658 171.654 176.205C171.654 176.742 171.478 177.191 171.126 177.552C170.775 177.904 170.277 178.08 169.632 178.08C168.987 178.08 168.489 177.904 168.138 177.552C167.796 177.191 167.625 176.742 167.625 176.205ZM178.897 180.321L178.999 182.152C180.171 180.736 181.709 180.028 183.614 180.028C186.914 180.028 188.594 181.917 188.653 185.697V196.17H185.093V185.902C185.093 184.896 184.873 184.154 184.434 183.675C184.004 183.187 183.296 182.943 182.31 182.943C180.874 182.943 179.805 183.592 179.102 184.891V196.17H175.542V180.321H178.897ZM191.926 188.128C191.926 185.687 192.493 183.729 193.626 182.254C194.758 180.77 196.277 180.028 198.181 180.028C199.861 180.028 201.218 180.614 202.254 181.786V173.67H205.813V196.17H202.59L202.415 194.53C201.35 195.819 199.929 196.463 198.152 196.463C196.296 196.463 194.793 195.716 193.64 194.222C192.498 192.728 191.926 190.697 191.926 188.128ZM195.486 188.436C195.486 190.047 195.794 191.307 196.409 192.215C197.034 193.114 197.918 193.563 199.06 193.563C200.515 193.563 201.58 192.914 202.254 191.615V184.847C201.599 183.578 200.545 182.943 199.089 182.943C197.937 182.943 197.048 183.402 196.423 184.32C195.798 185.228 195.486 186.6 195.486 188.436ZM223.142 191.073L226.364 180.321H230.158L223.859 198.573C222.893 201.239 221.252 202.572 218.938 202.572C218.42 202.572 217.849 202.484 217.224 202.308V199.554L217.897 199.598C218.796 199.598 219.47 199.432 219.919 199.1C220.378 198.778 220.739 198.231 221.003 197.459L221.516 196.097L215.949 180.321H219.787L223.142 191.073ZM231.615 188.099C231.615 186.546 231.923 185.15 232.538 183.91C233.154 182.66 234.018 181.703 235.131 181.039C236.244 180.365 237.524 180.028 238.969 180.028C241.108 180.028 242.841 180.716 244.169 182.093C245.507 183.47 246.23 185.296 246.337 187.572L246.352 188.407C246.352 189.969 246.049 191.366 245.444 192.596C244.848 193.827 243.988 194.779 242.865 195.453C241.752 196.126 240.463 196.463 238.998 196.463C236.762 196.463 234.97 195.721 233.622 194.237C232.284 192.743 231.615 190.755 231.615 188.275V188.099ZM235.175 188.407C235.175 190.038 235.512 191.317 236.186 192.245C236.86 193.163 237.797 193.622 238.998 193.622C240.199 193.622 241.132 193.153 241.796 192.215C242.47 191.278 242.807 189.906 242.807 188.099C242.807 186.498 242.46 185.228 241.767 184.291C241.083 183.353 240.151 182.884 238.969 182.884C237.807 182.884 236.884 183.348 236.2 184.276C235.517 185.194 235.175 186.571 235.175 188.407ZM259.264 194.618C258.219 195.848 256.735 196.463 254.811 196.463C253.092 196.463 251.788 195.96 250.9 194.955C250.021 193.949 249.581 192.494 249.581 190.589V180.321H253.141V190.545C253.141 192.557 253.976 193.563 255.646 193.563C257.374 193.563 258.541 192.943 259.147 191.703V180.321H262.706V196.17H259.352L259.264 194.618ZM274.93 183.573C274.462 183.495 273.978 183.456 273.48 183.456C271.849 183.456 270.751 184.081 270.184 185.331V196.17H266.625V180.321H270.023L270.111 182.093C270.97 180.716 272.162 180.028 273.685 180.028C274.193 180.028 274.613 180.096 274.945 180.233L274.93 183.573ZM291.761 193.622C292.649 193.622 293.387 193.363 293.973 192.845C294.559 192.328 294.871 191.688 294.91 190.926H298.265C298.226 191.913 297.918 192.835 297.342 193.695C296.766 194.544 295.984 195.218 294.998 195.716C294.012 196.214 292.947 196.463 291.805 196.463C289.588 196.463 287.83 195.746 286.531 194.31C285.232 192.875 284.583 190.892 284.583 188.363V187.997C284.583 185.584 285.228 183.656 286.517 182.21C287.806 180.755 289.563 180.028 291.79 180.028C293.675 180.028 295.208 180.58 296.39 181.683C297.581 182.777 298.206 184.217 298.265 186.004H294.91C294.871 185.096 294.559 184.349 293.973 183.763C293.396 183.177 292.659 182.884 291.761 182.884C290.608 182.884 289.72 183.304 289.095 184.144C288.47 184.974 288.152 186.239 288.143 187.938V188.509C288.143 190.228 288.45 191.512 289.065 192.362C289.69 193.202 290.589 193.622 291.761 193.622ZM300.586 188.099C300.586 186.546 300.894 185.15 301.509 183.91C302.124 182.66 302.988 181.703 304.102 181.039C305.215 180.365 306.494 180.028 307.94 180.028C310.078 180.028 311.812 180.716 313.14 182.093C314.478 183.47 315.2 185.296 315.308 187.572L315.322 188.407C315.322 189.969 315.02 191.366 314.414 192.596C313.819 193.827 312.959 194.779 311.836 195.453C310.723 196.126 309.434 196.463 307.969 196.463C305.733 196.463 303.941 195.721 302.593 194.237C301.255 192.743 300.586 190.755 300.586 188.275V188.099ZM304.146 188.407C304.146 190.038 304.483 191.317 305.156 192.245C305.83 193.163 306.768 193.622 307.969 193.622C309.17 193.622 310.103 193.153 310.767 192.215C311.441 191.278 311.778 189.906 311.778 188.099C311.778 186.498 311.431 185.228 310.738 184.291C310.054 183.353 309.121 182.884 307.94 182.884C306.778 182.884 305.855 183.348 305.171 184.276C304.488 185.194 304.146 186.571 304.146 188.407ZM328.235 194.618C327.19 195.848 325.705 196.463 323.782 196.463C322.063 196.463 320.759 195.96 319.871 194.955C318.992 193.949 318.552 192.494 318.552 190.589V180.321H322.112V190.545C322.112 192.557 322.947 193.563 324.617 193.563C326.345 193.563 327.512 192.943 328.118 191.703V180.321H331.677V196.17H328.323L328.235 194.618ZM343.901 183.573C343.432 183.495 342.949 183.456 342.451 183.456C340.82 183.456 339.721 184.081 339.155 185.331V196.17H335.595V180.321H338.994L339.082 182.093C339.941 180.716 341.132 180.028 342.656 180.028C343.164 180.028 343.584 180.096 343.916 180.233L343.901 183.573ZM355.334 191.864C355.334 191.229 355.07 190.746 354.543 190.414C354.025 190.082 353.161 189.789 351.95 189.535C350.739 189.281 349.728 188.958 348.918 188.568C347.14 187.708 346.252 186.463 346.252 184.833C346.252 183.465 346.828 182.323 347.98 181.405C349.133 180.487 350.597 180.028 352.375 180.028C354.269 180.028 355.798 180.497 356.96 181.434C358.132 182.372 358.718 183.587 358.718 185.082H355.158C355.158 184.398 354.904 183.832 354.396 183.382C353.888 182.923 353.215 182.694 352.375 182.694C351.594 182.694 350.954 182.875 350.456 183.236C349.968 183.597 349.723 184.081 349.723 184.686C349.723 185.233 349.953 185.658 350.412 185.96C350.871 186.263 351.799 186.571 353.195 186.883C354.592 187.186 355.685 187.552 356.476 187.982C357.277 188.402 357.868 188.91 358.249 189.505C358.639 190.101 358.835 190.824 358.835 191.673C358.835 193.099 358.244 194.256 357.062 195.145C355.881 196.024 354.333 196.463 352.419 196.463C351.12 196.463 349.963 196.229 348.947 195.76C347.931 195.292 347.14 194.647 346.574 193.827C346.008 193.006 345.724 192.123 345.724 191.175H349.181C349.23 192.015 349.548 192.665 350.134 193.124C350.72 193.573 351.496 193.797 352.463 193.797C353.4 193.797 354.113 193.622 354.601 193.27C355.09 192.909 355.334 192.44 355.334 191.864ZM369.228 196.463C366.972 196.463 365.141 195.755 363.734 194.339C362.338 192.914 361.64 191.019 361.64 188.656V188.216C361.64 186.634 361.942 185.223 362.548 183.983C363.163 182.733 364.022 181.761 365.126 181.068C366.229 180.375 367.46 180.028 368.817 180.028C370.976 180.028 372.641 180.716 373.812 182.093C374.994 183.47 375.585 185.418 375.585 187.938V189.374H365.229C365.336 190.682 365.771 191.717 366.532 192.479C367.304 193.241 368.271 193.622 369.433 193.622C371.063 193.622 372.392 192.962 373.417 191.644L375.336 193.475C374.701 194.422 373.852 195.16 372.787 195.687C371.732 196.205 370.546 196.463 369.228 196.463ZM368.803 182.884C367.826 182.884 367.035 183.226 366.43 183.91C365.834 184.593 365.453 185.545 365.287 186.766H372.069V186.502C371.991 185.311 371.674 184.413 371.117 183.807C370.561 183.192 369.789 182.884 368.803 182.884Z" fill="black"/>
<path d="M161.119 230.17C160.634 227.486 158.486 225.901 155.852 225.901C152.503 225.901 150.074 228.483 150.074 232.625C150.074 236.767 152.503 239.349 155.852 239.349C158.486 239.349 160.634 237.764 161.119 235.08H159.534C159.151 236.895 157.591 237.866 155.852 237.866C153.474 237.866 151.608 236.026 151.608 232.625C151.608 229.224 153.474 227.383 155.852 227.383C157.591 227.383 159.151 228.355 159.534 230.17H161.119ZM164.985 233.264C164.985 231.551 166.078 230.58 167.567 230.58C168.986 230.58 169.843 231.474 169.843 233.034V239.17H171.351V232.932C171.351 230.407 170.009 229.224 168.002 229.224C166.455 229.224 165.573 229.87 165.113 230.886H164.985V226.08H163.476V239.17H164.985V233.264ZM178.228 239.375C180.222 239.375 181.679 238.378 182.14 236.895L180.682 236.486C180.299 237.508 179.41 238.02 178.228 238.02C176.457 238.02 175.236 236.876 175.166 234.773H182.293V234.133C182.293 230.477 180.12 229.224 178.074 229.224C175.415 229.224 173.651 231.321 173.651 234.338C173.651 237.355 175.39 239.375 178.228 239.375ZM175.166 233.469C175.268 231.941 176.348 230.58 178.074 230.58C179.711 230.58 180.759 231.807 180.759 233.469H175.166ZM188.576 239.375C190.75 239.375 192.181 238.045 192.437 236.307H190.929C190.647 237.381 189.752 238.02 188.576 238.02C186.787 238.02 185.636 236.537 185.636 234.261C185.636 232.037 186.812 230.58 188.576 230.58C189.906 230.58 190.699 231.398 190.929 232.293H192.437C192.181 230.452 190.622 229.224 188.551 229.224C185.892 229.224 184.127 231.321 184.127 234.312C184.127 237.253 185.815 239.375 188.576 239.375ZM194.642 239.17H196.151V235.495L197.206 234.517L200.881 239.17H202.799L198.343 233.545L202.492 229.352H200.625L196.33 233.724H196.151V226.08H194.642V239.17ZM213.766 229.352H211.669V227H210.161V229.352H208.678V230.631H210.161V236.767C210.161 238.48 211.541 239.298 212.82 239.298C213.382 239.298 213.74 239.196 213.945 239.119L213.638 237.764C213.51 237.79 213.306 237.841 212.973 237.841C212.308 237.841 211.669 237.636 211.669 236.358V230.631H213.766V229.352ZM219.918 239.375C222.577 239.375 224.367 237.355 224.367 234.312C224.367 231.244 222.577 229.224 219.918 229.224C217.259 229.224 215.469 231.244 215.469 234.312C215.469 237.355 217.259 239.375 219.918 239.375ZM219.918 238.02C217.898 238.02 216.978 236.281 216.978 234.312C216.978 232.344 217.898 230.58 219.918 230.58C221.938 230.58 222.858 232.344 222.858 234.312C222.858 236.281 221.938 238.02 219.918 238.02ZM238.687 231.551C238.214 230.158 237.153 229.224 235.21 229.224C233.138 229.224 231.604 230.401 231.604 232.062C231.604 233.418 232.41 234.325 234.212 234.747L235.849 235.131C236.839 235.361 237.306 235.834 237.306 236.511C237.306 237.355 236.411 238.045 235.005 238.045C233.771 238.045 232.998 237.515 232.729 236.46L231.298 236.818C231.649 238.486 233.023 239.375 235.031 239.375C237.312 239.375 238.866 238.129 238.866 236.435C238.866 235.067 238.009 234.204 236.258 233.776L234.8 233.418C233.637 233.13 233.113 232.74 233.113 231.986C233.113 231.142 234.008 230.528 235.21 230.528C236.526 230.528 237.07 231.257 237.332 231.935L238.687 231.551ZM245.253 239.375C247.247 239.375 248.705 238.378 249.165 236.895L247.708 236.486C247.324 237.508 246.436 238.02 245.253 238.02C243.482 238.02 242.262 236.876 242.191 234.773H249.318V234.133C249.318 230.477 247.145 229.224 245.1 229.224C242.441 229.224 240.676 231.321 240.676 234.338C240.676 237.355 242.415 239.375 245.253 239.375ZM242.191 233.469C242.294 231.941 243.374 230.58 245.1 230.58C246.736 230.58 247.784 231.807 247.784 233.469H242.191ZM255.73 239.375C257.724 239.375 259.181 238.378 259.642 236.895L258.184 236.486C257.801 237.508 256.912 238.02 255.73 238.02C253.959 238.02 252.738 236.876 252.668 234.773H259.795V234.133C259.795 230.477 257.622 229.224 255.576 229.224C252.917 229.224 251.153 231.321 251.153 234.338C251.153 237.355 252.892 239.375 255.73 239.375ZM252.668 233.469C252.77 231.941 253.85 230.58 255.576 230.58C257.213 230.58 258.261 231.807 258.261 233.469H252.668ZM267.152 239.17H268.661V229.352H267.152V239.17ZM267.919 227.716C268.507 227.716 268.993 227.256 268.993 226.693C268.993 226.131 268.507 225.67 267.919 225.67C267.331 225.67 266.845 226.131 266.845 226.693C266.845 227.256 267.331 227.716 267.919 227.716ZM275.796 229.352H273.597V228.355C273.597 227.383 274.006 226.872 275.003 226.872C275.438 226.872 275.694 226.974 275.847 227.026L276.282 225.722C276.051 225.619 275.591 225.466 274.85 225.466C273.444 225.466 272.088 226.31 272.088 227.997V229.352H270.503V230.631H272.088V239.17H273.597V230.631H275.796V229.352ZM285.862 239.401C287.575 239.401 288.47 238.48 288.776 237.841H288.853V239.17H290.362V232.702C290.362 229.582 287.984 229.224 286.731 229.224C285.248 229.224 283.561 229.736 282.794 231.526L284.225 232.037C284.558 231.321 285.344 230.554 286.782 230.554C288.169 230.554 288.853 231.289 288.853 232.548V232.599C288.853 233.328 288.112 233.264 286.322 233.494C284.5 233.731 282.512 234.133 282.512 236.383C282.512 238.301 283.995 239.401 285.862 239.401ZM286.092 238.045C284.89 238.045 284.021 237.508 284.021 236.46C284.021 235.31 285.069 234.952 286.245 234.798C286.884 234.722 288.597 234.543 288.853 234.236V235.616C288.853 236.844 287.882 238.045 286.092 238.045ZM294.624 233.264C294.624 231.551 295.685 230.58 297.129 230.58C298.529 230.58 299.379 231.494 299.379 233.034V239.17H300.888V232.932C300.888 230.426 299.552 229.224 297.564 229.224C296.081 229.224 295.161 229.889 294.7 230.886H294.572V229.352H293.115V239.17H294.624V233.264ZM304.264 242.852C305.626 242.852 306.585 242.13 307.154 240.602L311.334 229.378L309.685 229.352L306.975 237.176H306.872L304.162 229.352H302.526L306.156 239.222L305.875 239.989C305.325 241.484 304.648 241.625 303.548 241.344L303.165 242.673C303.318 242.75 303.753 242.852 304.264 242.852ZM325.347 231.551C324.874 230.158 323.813 229.224 321.87 229.224C319.799 229.224 318.265 230.401 318.265 232.062C318.265 233.418 319.07 234.325 320.873 234.747L322.509 235.131C323.5 235.361 323.966 235.834 323.966 236.511C323.966 237.355 323.071 238.045 321.665 238.045C320.431 238.045 319.658 237.515 319.39 236.46L317.958 236.818C318.309 238.486 319.684 239.375 321.691 239.375C323.973 239.375 325.526 238.129 325.526 236.435C325.526 235.067 324.669 234.204 322.918 233.776L321.461 233.418C320.297 233.13 319.773 232.74 319.773 231.986C319.773 231.142 320.668 230.528 321.87 230.528C323.186 230.528 323.73 231.257 323.992 231.935L325.347 231.551ZM332.067 229.352H329.97V227H328.461V229.352H326.979V230.631H328.461V236.767C328.461 238.48 329.842 239.298 331.121 239.298C331.683 239.298 332.041 239.196 332.246 239.119L331.939 237.764C331.811 237.79 331.606 237.841 331.274 237.841C330.609 237.841 329.97 237.636 329.97 236.358V230.631H332.067V229.352ZM340.523 235.156C340.523 236.997 339.117 237.841 337.992 237.841C336.739 237.841 335.844 236.92 335.844 235.489V229.352H334.336V235.591C334.336 238.097 335.665 239.298 337.506 239.298C338.989 239.298 339.961 238.506 340.421 237.508H340.523V239.17H342.032V229.352H340.523V235.156ZM348.502 239.375C350.394 239.375 351.033 238.199 351.366 237.662H351.545V239.17H353.002V226.08H351.494V230.912H351.366C351.033 230.401 350.445 229.224 348.528 229.224C346.048 229.224 344.335 231.193 344.335 234.287C344.335 237.406 346.048 239.375 348.502 239.375ZM348.707 238.02C346.815 238.02 345.843 236.358 345.843 234.261C345.843 232.19 346.789 230.58 348.707 230.58C350.548 230.58 351.519 232.062 351.519 234.261C351.519 236.486 350.522 238.02 348.707 238.02ZM360.091 239.375C362.085 239.375 363.543 238.378 364.003 236.895L362.545 236.486C362.162 237.508 361.273 238.02 360.091 238.02C358.32 238.02 357.099 236.876 357.029 234.773H364.156V234.133C364.156 230.477 361.983 229.224 359.938 229.224C357.278 229.224 355.514 231.321 355.514 234.338C355.514 237.355 357.253 239.375 360.091 239.375ZM357.029 233.469C357.131 231.941 358.212 230.58 359.938 230.58C361.574 230.58 362.622 231.807 362.622 233.469H357.029ZM367.96 233.264C367.96 231.551 369.021 230.58 370.465 230.58C371.865 230.58 372.715 231.494 372.715 233.034V239.17H374.224V232.932C374.224 230.426 372.888 229.224 370.9 229.224C369.417 229.224 368.496 229.889 368.036 230.886H367.908V229.352H366.451V239.17H367.96V233.264ZM381.25 229.352H379.154V227H377.645V229.352H376.162V230.631H377.645V236.767C377.645 238.48 379.026 239.298 380.304 239.298C380.867 239.298 381.225 239.196 381.429 239.119L381.122 237.764C380.994 237.79 380.79 237.841 380.458 237.841C379.793 237.841 379.154 237.636 379.154 236.358V230.631H381.25V229.352ZM390.298 231.551C389.825 230.158 388.764 229.224 386.821 229.224C384.75 229.224 383.216 230.401 383.216 232.062C383.216 233.418 384.021 234.325 385.824 234.747L387.46 235.131C388.451 235.361 388.917 235.834 388.917 236.511C388.917 237.355 388.023 238.045 386.616 238.045C385.383 238.045 384.609 237.515 384.341 236.46L382.909 236.818C383.26 238.486 384.635 239.375 386.642 239.375C388.924 239.375 390.477 238.129 390.477 236.435C390.477 235.067 389.621 234.204 387.869 233.776L386.412 233.418C385.248 233.13 384.724 232.74 384.724 231.986C384.724 231.142 385.619 230.528 386.821 230.528C388.138 230.528 388.681 231.257 388.943 231.935L390.298 231.551ZM400.7 239.401C402.413 239.401 403.308 238.48 403.614 237.841H403.691V239.17H405.2V232.702C405.2 229.582 402.822 229.224 401.569 229.224C400.086 229.224 398.398 229.736 397.631 231.526L399.063 232.037C399.396 231.321 400.182 230.554 401.62 230.554C403.007 230.554 403.691 231.289 403.691 232.548V232.599C403.691 233.328 402.95 233.264 401.16 233.494C399.338 233.731 397.35 234.133 397.35 236.383C397.35 238.301 398.833 239.401 400.7 239.401ZM400.93 238.045C399.728 238.045 398.859 237.508 398.859 236.46C398.859 235.31 399.907 234.952 401.083 234.798C401.722 234.722 403.435 234.543 403.691 234.236V235.616C403.691 236.844 402.719 238.045 400.93 238.045ZM407.953 239.17H409.461V232.957C409.461 231.628 410.51 230.656 411.942 230.656C412.344 230.656 412.76 230.733 412.862 230.758V229.224C412.689 229.212 412.293 229.199 412.069 229.199C410.893 229.199 409.871 229.864 409.513 230.835H409.41V229.352H407.953V239.17ZM418.468 239.375C420.462 239.375 421.92 238.378 422.38 236.895L420.922 236.486C420.539 237.508 419.65 238.02 418.468 238.02C416.697 238.02 415.476 236.876 415.406 234.773H422.533V234.133C422.533 230.477 420.36 229.224 418.314 229.224C415.655 229.224 413.891 231.321 413.891 234.338C413.891 237.355 415.63 239.375 418.468 239.375ZM415.406 233.469C415.508 231.941 416.589 230.58 418.314 230.58C419.951 230.58 420.999 231.807 420.999 233.469H415.406ZM429.89 239.17H431.399V233.034C431.399 231.596 432.447 230.58 433.623 230.58C434.768 230.58 435.567 231.327 435.567 232.446V239.17H437.101V232.778C437.101 231.513 437.893 230.58 439.274 230.58C440.348 230.58 441.268 231.148 441.268 232.599V239.17H442.777V232.599C442.777 230.292 441.537 229.224 439.785 229.224C438.379 229.224 437.35 229.87 436.845 230.886H436.743C436.257 229.838 435.4 229.224 434.109 229.224C432.831 229.224 431.885 229.838 431.476 230.886H431.348V229.352H429.89V239.17ZM449.651 239.375C451.646 239.375 453.103 238.378 453.563 236.895L452.106 236.486C451.722 237.508 450.834 238.02 449.651 238.02C447.881 238.02 446.66 236.876 446.59 234.773H453.717V234.133C453.717 230.477 451.544 229.224 449.498 229.224C446.839 229.224 445.075 231.321 445.075 234.338C445.075 237.355 446.813 239.375 449.651 239.375ZM446.59 233.469C446.692 231.941 447.772 230.58 449.498 230.58C451.134 230.58 452.183 231.807 452.183 233.469H446.59ZM457.52 233.264C457.52 231.551 458.581 230.58 460.026 230.58C461.426 230.58 462.276 231.494 462.276 233.034V239.17H463.784V232.932C463.784 230.426 462.448 229.224 460.46 229.224C458.977 229.224 458.057 229.889 457.597 230.886H457.469V229.352H456.012V239.17H457.52V233.264ZM470.811 229.352H468.714V227H467.206V229.352H465.723V230.631H467.206V236.767C467.206 238.48 468.586 239.298 469.865 239.298C470.427 239.298 470.785 239.196 470.99 239.119L470.683 237.764C470.555 237.79 470.35 237.841 470.018 237.841C469.353 237.841 468.714 237.636 468.714 236.358V230.631H470.811V229.352ZM476.963 239.375C479.622 239.375 481.412 237.355 481.412 234.312C481.412 231.244 479.622 229.224 476.963 229.224C474.304 229.224 472.514 231.244 472.514 234.312C472.514 237.355 474.304 239.375 476.963 239.375ZM476.963 238.02C474.943 238.02 474.023 236.281 474.023 234.312C474.023 232.344 474.943 230.58 476.963 230.58C478.983 230.58 479.903 232.344 479.903 234.312C479.903 236.281 478.983 238.02 476.963 238.02ZM483.715 239.17H485.223V232.957C485.223 231.628 486.271 230.656 487.703 230.656C488.106 230.656 488.521 230.733 488.624 230.758V229.224C488.451 229.212 488.055 229.199 487.831 229.199C486.655 229.199 485.632 229.864 485.274 230.835H485.172V229.352H483.715V239.17ZM490.412 239.17H491.92V229.352H490.412V239.17ZM491.179 227.716C491.767 227.716 492.253 227.256 492.253 226.693C492.253 226.131 491.767 225.67 491.179 225.67C490.591 225.67 490.105 226.131 490.105 226.693C490.105 227.256 490.591 227.716 491.179 227.716ZM496.192 233.264C496.192 231.551 497.253 230.58 498.698 230.58C500.097 230.58 500.948 231.494 500.948 233.034V239.17H502.456V232.932C502.456 230.426 501.12 229.224 499.132 229.224C497.649 229.224 496.729 229.889 496.269 230.886H496.141V229.352H494.683V239.17H496.192V233.264ZM509.176 243.057C511.528 243.057 513.42 241.983 513.42 239.452V229.352H511.963V230.912H511.809C511.477 230.401 510.863 229.224 508.946 229.224C506.466 229.224 504.752 231.193 504.752 234.21C504.752 237.278 506.542 239.017 508.92 239.017C510.838 239.017 511.451 237.892 511.784 237.355H511.912V239.349C511.912 240.986 510.761 241.727 509.176 241.727C507.392 241.727 506.766 240.788 506.363 240.244L505.162 241.088C505.775 242.117 506.983 243.057 509.176 243.057ZM509.125 237.662C507.233 237.662 506.261 236.23 506.261 234.185C506.261 232.19 507.207 230.58 509.125 230.58C510.966 230.58 511.937 232.062 511.937 234.185C511.937 236.358 510.94 237.662 509.125 237.662ZM522.216 242.852C523.577 242.852 524.536 242.13 525.105 240.602L529.285 229.378L527.636 229.352L524.926 237.176H524.824L522.113 229.352H520.477L524.108 239.222L523.826 239.989C523.277 241.484 522.599 241.625 521.5 241.344L521.116 242.673C521.27 242.75 521.704 242.852 522.216 242.852ZM534.918 239.375C537.577 239.375 539.367 237.355 539.367 234.312C539.367 231.244 537.577 229.224 534.918 229.224C532.259 229.224 530.469 231.244 530.469 234.312C530.469 237.355 532.259 239.375 534.918 239.375ZM534.918 238.02C532.898 238.02 531.978 236.281 531.978 234.312C531.978 232.344 532.898 230.58 534.918 230.58C536.938 230.58 537.858 232.344 537.858 234.312C537.858 236.281 536.938 238.02 534.918 238.02ZM547.857 235.156C547.857 236.997 546.451 237.841 545.326 237.841C544.073 237.841 543.178 236.92 543.178 235.489V229.352H541.67V235.591C541.67 238.097 542.999 239.298 544.84 239.298C546.323 239.298 547.295 238.506 547.755 237.508H547.857V239.17H549.366V229.352H547.857V235.156ZM552.129 239.17H553.637V232.957C553.637 231.628 554.686 230.656 556.117 230.656C556.52 230.656 556.936 230.733 557.038 230.758V229.224C556.865 229.212 556.469 229.199 556.245 229.199C555.069 229.199 554.046 229.864 553.688 230.835H553.586V229.352H552.129V239.17ZM567.877 239.375C570.05 239.375 571.482 238.045 571.738 236.307H570.229C569.948 237.381 569.053 238.02 567.877 238.02C566.087 238.02 564.937 236.537 564.937 234.261C564.937 232.037 566.113 230.58 567.877 230.58C569.207 230.58 569.999 231.398 570.229 232.293H571.738C571.482 230.452 569.923 229.224 567.852 229.224C565.192 229.224 563.428 231.321 563.428 234.312C563.428 237.253 565.116 239.375 567.877 239.375ZM577.932 239.375C580.591 239.375 582.381 237.355 582.381 234.312C582.381 231.244 580.591 229.224 577.932 229.224C575.273 229.224 573.483 231.244 573.483 234.312C573.483 237.355 575.273 239.375 577.932 239.375ZM577.932 238.02C575.912 238.02 574.991 236.281 574.991 234.312C574.991 232.344 575.912 230.58 577.932 230.58C579.952 230.58 580.872 232.344 580.872 234.312C580.872 236.281 579.952 238.02 577.932 238.02ZM590.871 235.156C590.871 236.997 589.465 237.841 588.34 237.841C587.087 237.841 586.192 236.92 586.192 235.489V229.352H584.683V235.591C584.683 238.097 586.013 239.298 587.854 239.298C589.337 239.298 590.308 238.506 590.769 237.508H590.871V239.17H592.379V229.352H590.871V235.156ZM595.142 239.17H596.651V232.957C596.651 231.628 597.699 230.656 599.131 230.656C599.534 230.656 599.949 230.733 600.051 230.758V229.224C599.879 229.212 599.483 229.199 599.259 229.199C598.083 229.199 597.06 229.864 596.702 230.835H596.6V229.352H595.142V239.17ZM608.794 231.551C608.321 230.158 607.26 229.224 605.317 229.224C603.246 229.224 601.712 230.401 601.712 232.062C601.712 233.418 602.517 234.325 604.32 234.747L605.956 235.131C606.947 235.361 607.414 235.834 607.414 236.511C607.414 237.355 606.519 238.045 605.112 238.045C603.879 238.045 603.105 237.515 602.837 236.46L601.405 236.818C601.757 238.486 603.131 239.375 605.138 239.375C607.42 239.375 608.973 238.129 608.973 236.435C608.973 235.067 608.117 234.204 606.365 233.776L604.908 233.418C603.744 233.13 603.22 232.74 603.22 231.986C603.22 231.142 604.115 230.528 605.317 230.528C606.634 230.528 607.177 231.257 607.439 231.935L608.794 231.551ZM615.36 239.375C617.355 239.375 618.812 238.378 619.272 236.895L617.815 236.486C617.431 237.508 616.543 238.02 615.36 238.02C613.59 238.02 612.369 236.876 612.299 234.773H619.426V234.133C619.426 230.477 617.252 229.224 615.207 229.224C612.548 229.224 610.784 231.321 610.784 234.338C610.784 237.355 612.522 239.375 615.36 239.375ZM612.299 233.469C612.401 231.941 613.481 230.58 615.207 230.58C616.843 230.58 617.892 231.807 617.892 233.469H612.299ZM630.772 239.375C633.431 239.375 635.221 237.355 635.221 234.312C635.221 231.244 633.431 229.224 630.772 229.224C628.113 229.224 626.323 231.244 626.323 234.312C626.323 237.355 628.113 239.375 630.772 239.375ZM630.772 238.02C628.752 238.02 627.831 236.281 627.831 234.312C627.831 232.344 628.752 230.58 630.772 230.58C632.792 230.58 633.712 232.344 633.712 234.312C633.712 236.281 632.792 238.02 630.772 238.02ZM637.523 239.17H639.032V232.957C639.032 231.628 640.08 230.656 641.512 230.656C641.915 230.656 642.33 230.733 642.432 230.758V229.224C642.26 229.212 641.863 229.199 641.64 229.199C640.464 229.199 639.441 229.864 639.083 230.835H638.981V229.352H637.523V239.17ZM656.238 231.551C655.765 230.158 654.703 229.224 652.76 229.224C650.689 229.224 649.155 230.401 649.155 232.062C649.155 233.418 649.961 234.325 651.763 234.747L653.4 235.131C654.39 235.361 654.857 235.834 654.857 236.511C654.857 237.355 653.962 238.045 652.556 238.045C651.322 238.045 650.549 237.515 650.28 236.46L648.848 236.818C649.2 238.486 650.574 239.375 652.581 239.375C654.863 239.375 656.417 238.129 656.417 236.435C656.417 235.067 655.56 234.204 653.809 233.776L652.351 233.418C651.188 233.13 650.664 232.74 650.664 231.986C650.664 231.142 651.559 230.528 652.76 230.528C654.077 230.528 654.62 231.257 654.882 231.935L656.238 231.551ZM664.875 235.156C664.875 236.997 663.469 237.841 662.344 237.841C661.091 237.841 660.196 236.92 660.196 235.489V229.352H658.687V235.591C658.687 238.097 660.017 239.298 661.858 239.298C663.341 239.298 664.312 238.506 664.773 237.508H664.875V239.17H666.383V229.352H664.875V235.156ZM669.351 239.17H670.808V237.662H670.987C671.32 238.199 671.959 239.375 673.851 239.375C676.305 239.375 678.018 237.406 678.018 234.287C678.018 231.193 676.305 229.224 673.825 229.224C671.908 229.224 671.32 230.401 670.987 230.912H670.859V226.08H669.351V239.17ZM670.834 234.261C670.834 232.062 671.805 230.58 673.646 230.58C675.564 230.58 676.51 232.19 676.51 234.261C676.51 236.358 675.538 238.02 673.646 238.02C671.831 238.02 670.834 236.486 670.834 234.261ZM680.326 229.352V239.886C680.326 240.883 679.917 241.446 678.996 241.446H678.715V242.852H679.022C680.914 242.852 681.835 241.702 681.835 239.886V229.352H680.326ZM681.067 227.716C681.656 227.716 682.141 227.256 682.141 226.693C682.141 226.131 681.656 225.67 681.067 225.67C680.479 225.67 679.994 226.131 679.994 226.693C679.994 227.256 680.479 227.716 681.067 227.716ZM688.714 239.375C690.708 239.375 692.166 238.378 692.626 236.895L691.169 236.486C690.785 237.508 689.896 238.02 688.714 238.02C686.943 238.02 685.722 236.876 685.652 234.773H692.779V234.133C692.779 230.477 690.606 229.224 688.561 229.224C685.901 229.224 684.137 231.321 684.137 234.338C684.137 237.355 685.876 239.375 688.714 239.375ZM685.652 233.469C685.754 231.941 686.835 230.58 688.561 230.58C690.197 230.58 691.245 231.807 691.245 233.469H685.652ZM699.063 239.375C701.236 239.375 702.668 238.045 702.923 236.307H701.415C701.134 237.381 700.239 238.02 699.063 238.02C697.273 238.02 696.122 236.537 696.122 234.261C696.122 232.037 697.298 230.58 699.063 230.58C700.392 230.58 701.185 231.398 701.415 232.293H702.923C702.668 230.452 701.108 229.224 699.037 229.224C696.378 229.224 694.614 231.321 694.614 234.312C694.614 237.253 696.301 239.375 699.063 239.375ZM709.399 229.352H707.302V227H705.794V229.352H704.311V230.631H705.794V236.767C705.794 238.48 707.174 239.298 708.453 239.298C709.015 239.298 709.373 239.196 709.578 239.119L709.271 237.764C709.143 237.79 708.938 237.841 708.606 237.841C707.941 237.841 707.302 237.636 707.302 236.358V230.631H709.399V229.352Z" fill="#667085"/>
<path d="M866.253 376.567H955.067" stroke="#2D2D2D" stroke-width="0.663417" stroke-linecap="round" stroke-linejoin="round"/>
<path d="M970.154 376.492H1117.67" stroke="#2D2D2D" stroke-width="0.663417" stroke-linecap="round" stroke-linejoin="round"/>
<path d="M853 364.155H1033.58" stroke="#2D2D2D" stroke-width="0.663417" stroke-linecap="round" stroke-linejoin="round"/>
<rect width="7.54113" height="189.721" rx="3.77056" transform="matrix(0.95808 0.286501 -0.283543 0.95896 983.125 193.375)" fill="white" stroke="#2D2D2D" stroke-width="0.663417" stroke-linecap="round" stroke-linejoin="round"/>
<rect width="7.54113" height="189.721" rx="3.77056" transform="matrix(-0.95808 0.286501 -0.283543 -0.95896 1080.8 375.321)" fill="white" stroke="#2D2D2D" stroke-width="0.663417" stroke-linecap="round" stroke-linejoin="round"/>
<rect x="1001.42" y="258.134" width="7.31255" height="106.021" rx="3.65628" fill="#2D2D2D"/>
<rect x="927.476" y="181.55" width="155.205" height="111.379" rx="22.9874" fill="white" stroke="#2D2D2D" stroke-width="0.663417" stroke-linecap="round" stroke-linejoin="round"/>
<path d="M937.337 259.649L948.914 250.635L958.127 253.339L971.771 242.812" stroke="#2D2D2D" stroke-width="0.663417" stroke-linecap="round" stroke-linejoin="round"/>
<path d="M971.77 245.881V242.812H968.538" stroke="#2D2D2D" stroke-width="0.663417" stroke-linecap="round" stroke-linejoin="round"/>
<rect x="941.854" y="266.928" width="4.9584" height="14.12" fill="#2D2D2D"/>
<rect x="949.614" y="259.395" width="4.9584" height="21.6532" fill="#2D2D2D"/>
<rect x="957.373" y="261.07" width="4.9584" height="19.9774" fill="#2D2D2D"/>
<rect x="965.133" y="252.914" width="4.9584" height="28.1331" fill="#5EC69D"/>
<path d="M1010 231.585C1015.28 228.008 1018.45 222.021 1018.44 215.616H999.945L1010 231.585Z" fill="#5EC69D"/>
<path d="M998.945 234.933C988.337 234.932 979.739 226.282 979.74 215.614C979.741 204.946 988.341 196.298 998.949 196.299C1009.56 196.3 1018.16 204.948 1018.16 215.616C1018.16 215.79 1018.02 215.931 1017.84 215.931H1000.15L1009.77 231.208C1009.86 231.351 1009.82 231.541 1009.68 231.635C1006.51 233.792 1002.77 234.941 998.945 234.933V234.933Z" fill="white"/>
<path fill-rule="evenodd" clip-rule="evenodd" d="M980.454 209.332C983.134 201.355 990.573 195.986 998.946 195.985H998.949C1009.72 195.997 1018.46 204.779 1018.47 215.616C1018.47 215.964 1018.19 216.245 1017.84 216.245H1000.72L1010.03 231.038C1010.22 231.325 1010.14 231.706 1009.86 231.896C1002.91 236.601 993.761 236.33 987.105 231.223C980.449 226.115 977.774 217.308 980.454 209.332ZM1012.31 202.178C1008.76 198.614 1003.96 196.613 998.945 196.614C990.841 196.615 983.641 201.813 981.047 209.534C978.453 217.255 981.044 225.78 987.486 230.724C993.929 235.667 1002.79 235.929 1009.51 231.374L999.586 215.616H1017.84C1017.84 210.576 1015.85 205.742 1012.31 202.178Z" fill="#2D2D2D"/>
<path d="M999.583 196.629V215.616H1017.84C1017.84 205.372 1009.76 196.973 999.583 196.629Z" fill="#2D2D2D"/>
<path d="M1011.3 201.245H1050.08" stroke="#2D2D2D" stroke-width="0.663417" stroke-linecap="round" stroke-linejoin="round"/>
<path d="M1038.45 203.961H1050.08" stroke="#2D2D2D" stroke-width="0.663417" stroke-linecap="round" stroke-linejoin="round"/>
<path d="M1014.77 226.511H1037.63" stroke="#2D2D2D" stroke-width="0.663417" stroke-linecap="round" stroke-linejoin="round"/>
<path d="M1037.63 229.029H1029.52" stroke="#2D2D2D" stroke-width="0.663417" stroke-linecap="round" stroke-linejoin="round"/>
<path d="M992.457 224.156H945.38" stroke="#2D2D2D" stroke-width="0.663417" stroke-linecap="round" stroke-linejoin="round"/>
<path d="M945.378 227.683H960.663" stroke="#2D2D2D" stroke-width="0.663417" stroke-linecap="round" stroke-linejoin="round"/>
<path d="M945.378 230.865H952.278" stroke="#2D2D2D" stroke-width="0.663417" stroke-linecap="round" stroke-linejoin="round"/>
<rect x="979.208" y="252.915" width="10.3795" height="10.4383" fill="white" stroke="#2D2D2D" stroke-width="0.663417" stroke-linecap="round" stroke-linejoin="round"/>
<rect x="997.042" y="252.914" width="10.3795" height="10.4383" fill="white" stroke="#2D2D2D" stroke-width="0.663417" stroke-linecap="round" stroke-linejoin="round"/>
<rect x="1014.87" y="252.914" width="10.3795" height="10.4383" fill="#5EC69D"/>
<rect x="1032.71" y="252.914" width="10.3795" height="10.4383" fill="white" stroke="#2D2D2D" stroke-width="0.663417" stroke-linecap="round" stroke-linejoin="round"/>
<path d="M979.208 269.251H1043.18" stroke="#2D2D2D" stroke-width="0.663417" stroke-linecap="round" stroke-linejoin="round"/>
<path d="M979.208 275.149H1043.18" stroke="#2D2D2D" stroke-width="0.663417" stroke-linecap="round" stroke-linejoin="round"/>
<path d="M979.208 281.048H1007.42" stroke="#2D2D2D" stroke-width="0.663417" stroke-linecap="round" stroke-linejoin="round"/>
<path d="M899.188 265.597C899.96 271.691 890.784 287.228 890.784 287.228C890.784 287.228 878.023 274.504 877.247 268.414C876.745 264.473 878.371 260.561 881.514 258.153C884.657 255.744 888.839 255.205 892.484 256.738C896.13 258.271 898.685 261.643 899.188 265.585V265.597Z" fill="#5EC69D"/>
<path d="M914.242 282.406C912.91 287.886 899.979 298.157 899.979 298.157C899.979 298.157 893.207 283.034 894.539 277.561C895.365 273.981 898.041 271.124 901.544 270.081C905.048 269.038 908.838 269.97 911.469 272.52C914.099 275.071 915.163 278.846 914.254 282.406H914.242Z" fill="#5EC69D"/>
<path d="M888.968 264.286L894.567 329.526Z" fill="white"/>
<path d="M888.968 264.286L894.567 329.526" stroke="#2D2D2D" stroke-width="0.663417" stroke-linecap="round" stroke-linejoin="round"/>
<path d="M874.118 274.583C878.745 277.139 884.879 291.492 884.879 291.492C884.879 291.492 869.56 293.988 864.917 291.435C860.29 288.88 858.598 283.036 861.139 278.383C863.679 273.729 869.49 272.028 874.118 274.583V274.583Z" fill="#5EC69D"/>
<path d="M891.484 296.29L866.383 279.871Z" fill="white"/>
<path d="M891.484 296.29L866.383 279.871" stroke="#2D2D2D" stroke-width="0.663417" stroke-linecap="round" stroke-linejoin="round"/>
<path d="M889.885 340.291L906.98 271.43Z" fill="white"/>
<path d="M889.885 340.291L906.98 271.43" stroke="#2D2D2D" stroke-width="0.663417" stroke-linecap="round" stroke-linejoin="round"/>
<path d="M874.709 285.317L875.053 277.325Z" fill="white"/>
<path d="M874.709 285.317L875.053 277.325" stroke="#2D2D2D" stroke-width="0.663417" stroke-linecap="round" stroke-linejoin="round"/>
<path d="M880.226 289.068L866.251 289.234Z" fill="white"/>
<path d="M880.226 289.068L866.251 289.234" stroke="#2D2D2D" stroke-width="0.663417" stroke-linecap="round" stroke-linejoin="round"/>
<path d="M885.067 303.178C887.546 306.121 888.006 317.462 888.006 317.462C888.006 317.462 876.954 315.157 874.475 312.214C871.993 309.273 872.353 304.865 875.278 302.37C878.203 299.875 882.586 300.237 885.067 303.178Z" fill="#5EC69D"/>
<path d="M891.25 322.442L878.451 304.751Z" fill="white"/>
<path d="M891.25 322.442L878.451 304.751" stroke="#2D2D2D" stroke-width="0.663417" stroke-linecap="round" stroke-linejoin="round"/>
<path d="M882.697 310.617L884.992 305.282Z" fill="white"/>
<path d="M882.697 310.617L884.992 305.282" stroke="#2D2D2D" stroke-width="0.663417" stroke-linecap="round" stroke-linejoin="round"/>
<path d="M885.472 314.604L875.946 311.07Z" fill="white"/>
<path d="M885.472 314.604L875.946 311.07" stroke="#2D2D2D" stroke-width="0.663417" stroke-linecap="round" stroke-linejoin="round"/>
<path d="M897.285 281.101L902.815 288.213Z" fill="white"/>
<path d="M897.285 281.101L902.815 288.213" stroke="#2D2D2D" stroke-width="0.663417" stroke-linecap="round" stroke-linejoin="round"/>
<path d="M904.09 283.063L913.041 280.198Z" fill="white"/>
<path d="M904.09 283.063L913.041 280.198" stroke="#2D2D2D" stroke-width="0.663417" stroke-linecap="round" stroke-linejoin="round"/>
<path d="M902.746 273.734L905.6 276.982Z" fill="white"/>
<path d="M902.746 273.734L905.6 276.982" stroke="#2D2D2D" stroke-width="0.663417" stroke-linecap="round" stroke-linejoin="round"/>
<path d="M890.268 279.444L883.209 276.077Z" fill="white"/>
<path d="M890.268 279.444L883.209 276.077" stroke="#2D2D2D" stroke-width="0.663417" stroke-linecap="round" stroke-linejoin="round"/>
<path d="M889.724 273.112L896.011 266.474Z" fill="white"/>
<path d="M889.724 273.112L896.011 266.474" stroke="#2D2D2D" stroke-width="0.663417" stroke-linecap="round" stroke-linejoin="round"/>
<path d="M874.79 321.052H910.894C911.304 321.053 911.693 321.232 911.962 321.544C912.23 321.856 912.35 322.27 912.291 322.678L905.129 372.813C904.819 374.967 902.984 376.566 900.82 376.567H884.876C882.712 376.566 880.877 374.967 880.568 372.813L873.405 322.678C873.348 322.272 873.467 321.861 873.732 321.55C873.997 321.239 874.383 321.057 874.79 321.052Z" fill="white" stroke="#2D2D2D" stroke-width="0.663417" stroke-linecap="round" stroke-linejoin="round"/>
<path d="M874.368 329.526H911.312L912.29 322.678C912.349 322.27 912.229 321.856 911.961 321.544C911.693 321.232 911.303 321.053 910.893 321.052H874.79C874.38 321.053 873.99 321.232 873.721 321.544C873.452 321.856 873.331 322.27 873.389 322.678L874.368 329.526Z" fill="#2D2D2D"/>
<g filter="url(#filter1_b_2_39467)">
<rect x="1067.02" y="163.714" width="67.2073" height="57.9703" rx="14.1242" transform="rotate(-180 1067.02 163.714)" fill="white" fill-opacity="0.8"/>
<rect x="1067.02" y="163.714" width="67.2073" height="57.9703" rx="14.1242" transform="rotate(-180 1067.02 163.714)" stroke="#2D2D2D" stroke-width="0.663417" stroke-linecap="round" stroke-linejoin="round"/>
</g>
<path d="M1030.69 124.196L1050.21 119.87C1050.21 119.87 1050.88 104.549 1041.36 98.7105C1031.47 92.6393 1024.1 99.3581 1024.1 99.3581C1024.1 99.3581 1018.99 98.9274 1019.21 106.395C1019.43 113.862 1030.69 124.196 1030.69 124.196Z" fill="#2D2D2D"/>
<path d="M1016.57 143.095C1016.57 143.095 1008.99 151.943 1000.31 147.44C991.623 142.938 985.927 138.706 985.543 138.565C985.158 138.423 983.22 139.348 982.901 138.983C982.582 138.618 984.802 136.565 984.802 136.565C984.802 136.565 980.534 135.858 980.459 135.471C980.384 135.084 984.267 134.933 984.267 134.933C984.267 134.933 981.209 134.411 981.141 133.908C981.072 133.405 985.696 133.236 985.696 133.236C985.696 133.236 983.004 131.928 982.982 131.522C982.96 131.116 1000.14 137.618 1003.83 139.225L1010.42 135.546L1016.57 143.095Z" fill="white" stroke="#2D2D2D" stroke-width="0.663417" stroke-linecap="round" stroke-linejoin="round"/>
<path d="M1015.17 146.717C1015.17 146.717 1023 142.944 1027.28 137.54C1030.54 133.452 1027.43 124.47 1020.21 127.504C1012.16 130.887 1006.31 134.826 1006.69 136.706C1007.29 139.722 1010.91 145.73 1013.06 146.978C1013.84 147.425 1015.17 146.717 1015.17 146.717Z" fill="#5EC69D"/>
<path d="M1004.49 141.655C1004.49 141.655 1004.68 140.643 1003.84 139.225" stroke="#2D2D2D" stroke-width="0.663417" stroke-linecap="round" stroke-linejoin="round"/>
<path d="M1051.06 135.131C1050.79 128.214 1040.88 126.925 1040.88 126.925L1025.45 126.252C1025.45 126.252 1013.86 126.089 1015.43 138.989C1016.02 143.809 1018.11 163.396 1018.11 163.396H1049.06C1049.06 163.396 1051.5 146.824 1051.06 135.131Z" fill="#5EC69D"/>
<path d="M1038.06 124.46L1037.52 114.962L1028.61 115.632V123.662C1028.61 125.017 1027.62 126.165 1026.29 126.356L1025.51 126.466C1025.51 126.466 1026.31 131.459 1032.47 131.459C1039.42 131.459 1040.84 127.139 1040.84 127.139L1040.06 126.928C1038.93 126.627 1038.12 125.632 1038.06 124.46V124.46Z" fill="white" stroke="#2D2D2D" stroke-width="0.663417"/>
<path d="M1015.97 143.733L1015.28 133.219" stroke="#2D2D2D" stroke-width="0.663417" stroke-linecap="round" stroke-linejoin="round"/>
<path d="M1040.08 155.54L1040.57 144.947L1051.49 145.01C1051.49 145.01 1051.73 149.534 1051.8 152.826C1051.87 156.118 1051.76 161.63 1042.72 164.61C1034.8 167.21 1028.19 168.814 1028.19 168.814C1028.19 168.814 1025.26 172.502 1024.8 172.543C1024.35 172.584 1025.74 168.635 1025.74 168.635C1025.74 168.635 1023.48 172.408 1023.28 172.143C1023.08 171.879 1024.41 168.327 1024.41 168.327C1024.41 168.327 1022.72 171.304 1021.71 171.433C1020.69 171.562 1023.21 167.031 1023.21 167.031C1023.21 167.031 1020.22 168.578 1019.61 168.289C1018.99 168 1023.72 164.815 1024.2 164.67C1024.68 164.525 1040.08 155.54 1040.08 155.54Z" fill="white" stroke="#2D2D2D" stroke-width="0.663417" stroke-linecap="round" stroke-linejoin="round"/>
<path d="M1053.31 149.408C1053.31 149.408 1054.45 134.892 1049.12 130.544C1043.78 126.196 1040.34 131.33 1039.45 140.058C1038.56 148.786 1038.61 149.786 1040.42 150.399C1043.31 151.383 1050.76 151.48 1052.42 150.525C1052.86 150.295 1053.18 149.889 1053.31 149.408Z" fill="#5EC69D"/>
<path d="M1044.01 155.665C1044.01 155.665 1042.5 154.741 1040.07 155.539" stroke="#2D2D2D" stroke-width="0.663417" stroke-linecap="round" stroke-linejoin="round"/>
<path d="M1039.91 136.914L1038.77 146.538" stroke="#2D2D2D" stroke-width="0.663417" stroke-linecap="round" stroke-linejoin="round"/>
<path d="M1038.23 109.108C1038.23 109.108 1041.46 106.907 1042.57 109.954C1043.17 111.57 1042.06 114.896 1039.1 114.255C1038.79 116.735 1037.45 120.254 1034.01 122.043C1027.59 125.382 1021.22 120.87 1021.33 114.412C1021.39 110.548 1022.22 106.736 1023.78 103.203C1023.78 103.203 1025.95 108.988 1038.23 109.108Z" fill="white" stroke="#2D2D2D" stroke-width="0.663417"/>
<ellipse cx="1031.46" cy="112.089" rx="0.690925" ry="0.694839" fill="#2D2D2D"/>
<ellipse cx="1024.75" cy="111.391" rx="0.690925" ry="0.694839" fill="#2D2D2D"/>
<path d="M1027.85 111.592C1027.72 112.123 1027.43 112.601 1027.02 112.963C1026.39 113.466 1025.77 113.906 1027.09 115.296" stroke="#2D2D2D" stroke-width="0.663417" stroke-linecap="round" stroke-linejoin="round"/>
<path d="M1026.56 108.24C1026.56 108.24 1025.39 107.435 1024.22 108.108" stroke="#2D2D2D" stroke-width="0.663417" stroke-linecap="round" stroke-linejoin="round"/>
<path d="M1033.42 109.108C1033.42 109.108 1032.25 108.306 1031.08 108.979" stroke="#2D2D2D" stroke-width="0.663417" stroke-linecap="round" stroke-linejoin="round"/>
<ellipse cx="1032.67" cy="116.276" rx="1.43187" ry="1.43998" fill="#FFB967"/>
<ellipse cx="1021.96" cy="115.563" rx="1.63196" ry="1.6412" fill="#FFB967"/>
<path d="M1027.07 119.631C1027.07 119.631 1029.3 119.631 1030.08 117.937" stroke="#2D2D2D" stroke-width="0.663417" stroke-linecap="round" stroke-linejoin="round"/>
<path d="M1037.65 110.422C1037.65 110.422 1037.84 109.397 1038.56 108.91" stroke="#2D2D2D" stroke-width="0.663417" stroke-linecap="round" stroke-linejoin="round"/>
<path d="M1041.08 110.303C1039.89 110.26 1038.87 111.162 1038.77 112.356" stroke="#2D2D2D" stroke-width="0.663417" stroke-linecap="round" stroke-linejoin="round"/>
<path d="M1040.74 111.391C1040.23 111.089 1039.6 111.089 1039.09 111.391" stroke="#2D2D2D" stroke-width="0.663417" stroke-linecap="round" stroke-linejoin="round"/>
<g filter="url(#filter2_b_2_39467)">
<rect x="873.862" y="150.125" width="66.2444" height="57.1403" rx="13.9185" fill="white" fill-opacity="0.8"/>
<rect x="873.862" y="150.125" width="66.2444" height="57.1403" rx="13.9185" stroke="#2D2D2D" stroke-width="0.663417" stroke-linecap="round" stroke-linejoin="round"/>
</g>
<path d="M904.575 154.37C901.934 154.269 898.282 150.911 896.969 145.434C893.842 132.383 902.402 127.828 910.218 127.909C915.83 127.96 918.259 129.481 919.4 133.273C920.579 135.505 921.123 139.851 919.713 143.74C918.694 146.538 917.084 154.841 904.575 154.37Z" fill="#2D2D2D"/>
<path d="M925.769 161.579C922.755 160.504 919.085 160.369 917.259 166.295C915.433 172.222 937.411 186.399 942.414 189.587C948.266 193.316 952.38 187.873 952.033 184.371C951.474 178.702 928.783 162.655 925.769 161.579Z" fill="white" stroke="#2D2D2D" stroke-width="0.663417" stroke-linecap="round" stroke-linejoin="round"/>
<path d="M933.929 166.28C933.929 166.28 924.862 159.221 919.747 159.897C914.061 160.649 911.331 167.157 916.186 171.845C921.042 176.532 925.134 179.001 926.435 179.494C928.345 180.217 931.906 177.152 934.119 173.206C936.333 169.26 935.789 167.713 933.929 166.28Z" fill="#5EC69D"/>
<path d="M886.324 168.905C885.583 160.221 899.574 159.158 899.574 159.158L916.581 158.492C918.806 158.707 920.991 159.224 923.078 160.029C926.698 161.488 927.946 161.975 927.624 169.461C927.42 174.202 924.532 199.581 924.153 203.54C923.972 205.426 922.59 207.033 919.948 207.033H892.933C891.033 207.033 889.716 205.587 889.413 202.854C888.613 195.614 887.434 181.931 886.324 168.905Z" fill="#5EC69D"/>
<path d="M902.7 156.464L903.325 146.007L913.139 146.786L913.111 155.634C913.104 157.126 914.191 158.395 915.659 158.611L916.515 158.74C916.515 158.74 918.079 165.261 908.921 165.22C901.259 165.185 899.614 159.4 899.614 159.4L900.477 159.174C901.723 158.849 902.62 157.755 902.7 156.464V156.464Z" fill="white" stroke="#2D2D2D" stroke-width="0.663417"/>
<path d="M927.493 170.873C927.493 170.873 926.695 180.519 926.283 183.239" stroke="white" stroke-width="0.663417" stroke-linecap="round" stroke-linejoin="round"/>
<path d="M919.257 146.088C919.257 146.088 921.251 145.774 921.533 142.753C921.783 140.058 919.61 139.923 918.431 140.866L919.257 146.088Z" fill="white" stroke="#2D2D2D" stroke-width="0.663417"/>
<path d="M903.566 142.866C903.566 142.866 900.024 138.873 898.582 141.963C897.644 143.972 898.848 147.736 901.984 147.211C902.184 149.814 903.503 152.807 906.83 155.112C911.657 158.457 918.994 157.699 919.863 147.695C920.445 140.976 918.494 136.424 918.494 136.424C918.494 136.424 915.758 138.184 908.065 138.184C906.029 138.184 906.292 142.573 903.566 142.866Z" fill="white" stroke="#2D2D2D" stroke-width="0.663417"/>
<path d="M914.408 145.258L915.265 148.773C915.338 149.068 915.256 149.38 915.046 149.599C914.836 149.818 914.529 149.912 914.233 149.849C914.08 149.812 913.93 149.761 913.786 149.698" stroke="#2D2D2D" stroke-width="0.663417" stroke-linecap="round" stroke-linejoin="round"/>
<path d="M915.653 143.007C915.653 143.007 916.638 142.765 918.07 142.529" stroke="#2D2D2D" stroke-width="0.663417" stroke-linecap="round" stroke-linejoin="round"/>
<path d="M908.457 143.573L910.895 143.548" stroke="#2D2D2D" stroke-width="0.663417" stroke-linecap="round" stroke-linejoin="round"/>
<ellipse cx="908.669" cy="150.823" rx="1.4944" ry="1.50286" fill="#FFB967"/>
<ellipse cx="919.267" cy="149.877" rx="1.70387" ry="1.71352" fill="#FFB967"/>
<path d="M914.361 154.596C914.361 154.596 912.039 154.489 911.31 152.684" stroke="#2D2D2D" stroke-width="0.663417" stroke-linecap="round" stroke-linejoin="round"/>
<ellipse cx="910.895" cy="146.472" rx="0.744073" ry="0.748288" fill="#2D2D2D"/>
<ellipse cx="917.563" cy="146.082" rx="0.744073" ry="0.748288" fill="#2D2D2D"/>
<path d="M903.866 143.797C903.644 143.167 903.268 142.603 902.772 142.158" stroke="#2D2D2D" stroke-width="0.663417" stroke-linecap="round" stroke-linejoin="round"/>
<path d="M900.095 142.991C901.339 143.007 902.354 143.996 902.409 145.246" stroke="#2D2D2D" stroke-width="0.663417" stroke-linecap="round" stroke-linejoin="round"/>
<path d="M900.399 144.145C900.943 143.853 901.603 143.883 902.118 144.224" stroke="#2D2D2D" stroke-width="0.663417" stroke-linecap="round" stroke-linejoin="round"/>
<path d="M896.362 138.897L901.751 139.183C901.751 139.183 903.43 132.977 912.459 132.426C919.806 131.983 920.366 136.401 920.366 136.401C920.366 136.401 920.678 128.367 912.691 127.21C903.73 125.912 895.755 130.002 896.362 138.897Z" fill="#5EC69D"/>
<path d="M915.77 132.641C915.77 132.641 920.031 132.726 920.525 137.882C920.525 137.882 921.526 137.621 921.995 136.939C922.845 135.713 923.467 132.883 915.77 132.641Z" fill="white" stroke="#2D2D2D" stroke-width="0.663417" stroke-linecap="round" stroke-linejoin="round"/>
<path d="M901.751 139.171C901.751 139.171 906.306 139.574 907.35 139.59C907.976 139.59 909.667 140.008 910.395 138.115C911.627 134.921 918.036 131.028 922.21 134.578C922.21 134.578 919.024 130.387 912.134 131.572C905.243 132.757 903.067 136.137 901.751 139.171Z" fill="white" stroke="#2D2D2D" stroke-width="0.663417" stroke-linecap="round" stroke-linejoin="round"/>
<path d="M898.922 139.033C898.922 139.033 897.941 129.249 909.111 126.771" stroke="#2D2D2D" stroke-width="0.663417" stroke-linecap="round" stroke-linejoin="round"/>
<path d="M931.666 187.933H905.607C905.124 187.945 904.663 187.732 904.357 187.356C904.051 186.98 903.936 186.482 904.044 186.009L907.202 167.999C907.417 166.91 908.349 166.112 909.453 166.072H935.511C935.995 166.06 936.457 166.273 936.763 166.65C937.069 167.027 937.184 167.525 937.074 167.999L933.917 186.018C933.697 187.103 932.766 187.895 931.666 187.933V187.933Z" fill="#2D2D2D"/>
<path d="M923.468 177.699C923.071 177.713 922.691 177.541 922.439 177.233C922.187 176.924 922.092 176.515 922.183 176.127C922.246 175.792 922.398 175.481 922.624 175.228C922.308 175.079 921.963 175.002 921.614 175.004C920.108 175.059 918.837 176.147 918.541 177.633C918.392 178.282 918.552 178.964 918.973 179.479C919.394 179.993 920.03 180.281 920.692 180.258C922.184 180.205 923.448 179.136 923.756 177.667C923.661 177.686 923.565 177.696 923.468 177.699V177.699Z" fill="white" stroke="#2D2D2D" stroke-width="0.663417" stroke-linecap="round" stroke-linejoin="round"/>
<path d="M948.644 180.044C953.959 182.799 953.052 190.137 947.91 191.127C941.11 192.438 925.697 175.998 925.697 175.998C925.697 175.998 920.613 175.133 919.988 174.329C919.363 173.524 923.427 173.854 923.427 173.854C923.427 173.854 918.084 173.898 918.069 172.911C918.053 171.923 922.549 172.156 922.549 172.156C922.549 172.156 917.199 171.974 916.977 170.798C916.755 169.622 922.524 170.298 922.524 170.298C922.524 170.298 917.459 167.817 917.693 166.871C917.928 165.924 940.256 175.696 948.644 180.044Z" fill="white" stroke="#2D2D2D" stroke-width="0.663417" stroke-linecap="round" stroke-linejoin="round"/>
<path d="M884.148 183.427C884.148 183.427 882.841 190.086 883.035 194.431C883.229 198.777 886.049 203.656 894.915 200.72C903.516 197.871 916.156 191.602 917.209 191.357C918.263 191.111 922.837 191.574 924.359 190.728C925.882 189.882 927.348 187.483 926.657 186.839C926.657 186.839 925.204 188.552 923.415 189.017C923.415 189.017 926.942 187.713 927.126 185.622C927.126 185.622 924.597 187.414 922.693 187.508C922.693 187.508 928.264 185.839 927.614 184.264C927.014 182.811 925.376 184.635 922.612 185.207C919.589 185.817 920.139 184.927 922.746 184.018C923.8 183.654 923.831 182.132 922.193 182.352C919.67 182.695 895.659 189.898 895.659 189.898L897.032 183.009L884.148 183.427Z" fill="white" stroke="#2D2D2D" stroke-width="0.663417" stroke-linecap="round" stroke-linejoin="round"/>
<path d="M897.728 185.578C897.728 185.578 901.327 169.122 898.354 164.884C894.827 159.853 888.012 161.337 885.673 167.679C883.335 174.02 881.906 182.349 881.975 183.745C882.075 185.795 886.814 187.471 891.3 187.499C895.787 187.527 897.166 187.864 897.728 185.578Z" fill="#5EC69D"/>
<path d="M892.604 193.249C892.604 193.249 893.567 191.03 895.659 189.879" stroke="#2D2D2D" stroke-width="0.663417" stroke-linecap="round" stroke-linejoin="round"/>
<path d="M899.279 173.91L898.032 184.088" stroke="#2D2D2D" stroke-width="0.663417" stroke-linecap="round" stroke-linejoin="round"/>
<ellipse rx="4.97948" ry="1.84717" transform="matrix(0.497883 -0.867244 0.864798 0.50212 1058.27 245.556)" fill="white" stroke="#2D2D2D" stroke-width="0.663417" stroke-linecap="round" stroke-linejoin="round"/>
<path d="M1062.71 243.976C1060.6 242.661 1058.6 241.177 1056.73 239.536C1055.3 238.279 1054.08 235.914 1052.71 235.087C1051.54 234.383 1050.42 235.421 1050.42 235.421C1050.42 235.421 1048.8 234.342 1048.42 234.163C1047.02 233.515 1040.05 233.921 1039.35 235.235C1038.79 236.292 1040.53 236.98 1044.6 236.493C1044.6 236.493 1043.31 237.669 1044.29 238.775C1043.95 239.078 1043.77 239.522 1043.8 239.978C1043.84 240.433 1044.08 240.846 1044.46 241.096C1044.27 241.833 1044.6 242.603 1045.26 242.982C1046.41 243.69 1049.03 243.661 1050.35 244.457C1051.66 245.252 1057.97 249.299 1057.97 249.299L1062.71 243.976Z" fill="white" stroke="#2D2D2D" stroke-width="0.663417" stroke-linecap="round" stroke-linejoin="round"/>
<path d="M1050.42 235.421C1050.42 235.421 1048.26 237.716 1048.39 238.662C1048.49 239.385 1049.88 239.86 1051.63 238.002C1051.63 238.002 1050.58 240.464 1052.72 242.089" stroke="#2D2D2D" stroke-width="0.663417" stroke-linecap="round" stroke-linejoin="round"/>
<rect width="1.39823" height="32.9105" rx="0.699113" transform="matrix(0.951517 -0.307597 0.304464 0.952524 1038.91 213.63)" fill="white" stroke="#2D2D2D" stroke-width="0.663417" stroke-linecap="round" stroke-linejoin="round"/>
<path d="M1070.43 246.818C1070.43 246.818 1079.31 230.327 1080.68 228.598C1082.83 225.875 1092.21 227.281 1089.88 235.578C1088.08 241.982 1080.26 255.584 1077.87 257.731C1075.48 259.878 1070.97 260.218 1067.16 257.916C1063.35 255.615 1055.56 250.009 1055.56 250.009C1055.56 250.009 1056.78 250.113 1058.26 248.547C1060.06 246.661 1062.08 242.838 1060.86 241.086L1070.43 246.818Z" fill="#5EC69D"/>
<path d="M1044.28 238.791C1044.28 238.791 1048.69 239.574 1049.54 239.382C1050.2 239.235 1050.93 238.052 1049.25 237.524C1047.78 237.106 1046.3 236.778 1044.8 236.54C1043.53 236.323 1042.75 238.294 1044.28 238.791Z" fill="white" stroke="#2D2D2D" stroke-width="0.663417" stroke-linecap="round" stroke-linejoin="round"/>
<path d="M1044.44 241.039C1044.44 241.039 1048.27 241.791 1049.11 241.605C1049.76 241.457 1050.48 240.294 1048.82 239.775C1047.16 239.256 1045.46 238.939 1044.75 238.788C1043.48 238.524 1042.96 240.58 1044.44 241.039Z" fill="white" stroke="#2D2D2D" stroke-width="0.663417" stroke-linecap="round" stroke-linejoin="round"/>
<path d="M1044.98 243.051C1045.79 243.297 1047.83 243.501 1048.52 243.366C1049.06 243.259 1049.69 242.319 1048.33 241.847C1047.19 241.475 1046.02 241.228 1044.83 241.108C1044.02 241.011 1043.64 242.652 1044.98 243.051Z" fill="white" stroke="#2D2D2D" stroke-width="0.663417" stroke-linecap="round" stroke-linejoin="round"/>
<path d="M1087.22 210.806C1087.22 210.806 1081.83 203.53 1088.11 200.311C1088.11 200.311 1090.57 196.035 1098.43 196.689C1105.51 197.28 1112.83 203.817 1109.88 214.239C1104.78 232.311 1080.37 221.546 1087.22 210.806Z" fill="#2D2D2D"/>
<ellipse cx="1109.4" cy="196.623" rx="6.26835" ry="6.30385" fill="#2D2D2D"/>
<path d="M1089.33 379.114C1089.33 379.114 1094.81 384.302 1091.2 387.678C1087.59 391.055 1067.21 392.288 1065.49 390.147C1063.64 387.839 1077.77 381.463 1080.97 380.06L1089.33 379.114Z" fill="#2D2D2D"/>
<path d="M1079.99 363.944C1079.99 363.944 1081.53 379.507 1080.98 380.06C1080.42 380.614 1072.81 384.302 1072.81 384.302C1072.81 384.302 1090.27 384.714 1090.27 380.431V363.944H1079.99Z" fill="white" stroke="#2D2D2D" stroke-width="0.663417" stroke-linecap="round" stroke-linejoin="round"/>
<path d="M1080.28 273.219C1080.28 273.219 1072.97 280.026 1072.83 310.353C1072.71 337.229 1077.45 361.425 1078.25 366.601C1078.34 367.292 1078.77 367.895 1079.38 368.217C1080.36 368.707 1082.1 369.317 1084.7 369.317C1087.47 369.317 1089.35 368.748 1090.45 368.267C1091.18 367.928 1091.67 367.206 1091.7 366.396L1097.74 273.219L1080.28 273.219Z" fill="#2D2D2D"/>
<path d="M1112.45 379.114C1112.45 379.114 1117.94 384.301 1114.33 387.678C1110.72 391.055 1090.34 392.287 1088.62 390.146C1086.76 387.838 1100.9 381.462 1104.09 380.06L1112.45 379.114Z" fill="#2D2D2D"/>
<path d="M1103.12 363.943C1103.12 363.943 1104.65 379.507 1104.1 380.06C1103.55 380.613 1095.93 384.301 1095.93 384.301C1095.93 384.301 1113.39 384.713 1113.39 380.431V363.943H1103.12Z" fill="white" stroke="#2D2D2D" stroke-width="0.663417" stroke-linecap="round" stroke-linejoin="round"/>
<path d="M1092.29 273.219L1100.96 365.887C1101.03 367.001 1101.74 367.972 1102.77 368.377C1104.59 369.017 1106.51 369.337 1108.45 369.32C1110.46 369.346 1112.47 369.028 1114.39 368.377C1115.42 367.974 1116.14 367.001 1116.21 365.884C1117.21 354.354 1123.71 295.969 1111.62 271.996L1092.29 273.219Z" fill="#2D2D2D"/>
<path d="M1088.46 288.559L1094.9 296.268L1096.12 310.183" stroke="white" stroke-width="0.663417" stroke-linecap="round" stroke-linejoin="round"/>
<path d="M1118.08 236.078C1118.86 227.762 1106.04 226.557 1106.04 226.557L1089.16 225.875C1087.05 225.868 1084.95 226.247 1082.97 226.991C1079.49 228.359 1080.62 229.45 1078.5 236.314C1073.57 252.244 1086.7 248.157 1076.74 277.947C1076.16 279.676 1078.43 280.852 1081.11 281.475C1090.4 283.619 1102.93 283.717 1112.02 281.651C1115.7 280.811 1115.48 279.5 1114.98 277.74C1106.87 249.261 1116.92 248.547 1118.08 236.078Z" fill="#5EC69D"/>
<path d="M1078.82 235.339C1078.51 236.505 1078.18 237.757 1077.84 238.851C1076.86 241.995 1076.44 245.101 1078.05 248.516C1078.3 249.042 1078.52 249.526 1078.72 249.968" stroke="#2D2D2D" stroke-width="0.663417" stroke-linecap="round" stroke-linejoin="round"/>
<path d="M1102.48 224.03L1101.94 214L1092.54 214.676L1092.51 223.165C1092.51 224.596 1091.39 225.52 1089.98 225.715L1087.42 226.105L1091.91 244.787L1107.31 226.913L1104.56 226.495C1103.4 226.237 1102.55 225.228 1102.48 224.03Z" fill="white" stroke="#2D2D2D" stroke-width="0.663417" stroke-linecap="round" stroke-linejoin="round"/>
<path d="M1091.92 244.78L1101.21 233.993H1089.32L1091.92 244.78V244.78Z" fill="#2D2D2D"/>
<path d="M1078.51 265.585L1090.99 260.187L1085.31 238.886L1072.83 244.284L1078.51 265.585V265.585Z" fill="#2D2D2D"/>
<path d="M1078.51 265.585L1071.95 262.368L1066.27 241.067L1072.83 244.284L1078.51 265.585V265.585Z" fill="#2D2D2D"/>
<path d="M1072.83 244.284L1078.51 265.585" stroke="white" stroke-width="0.663417" stroke-linecap="round" stroke-linejoin="round"/>
<path d="M1076.67 246.535L1083.32 243.539" stroke="white" stroke-width="0.663417" stroke-linecap="round" stroke-linejoin="round"/>
<path d="M1078.78 248.038L1082.37 246.416" stroke="white" stroke-width="0.663417" stroke-linecap="round" stroke-linejoin="round"/>
<path d="M1117 232.987C1119.5 238.172 1121.15 252.745 1121.46 256.882C1121.77 261.02 1119.36 265.176 1110.58 263.397C1102.07 261.674 1090.48 258.19 1089.45 258.09C1088.42 257.989 1084.13 258.942 1082.57 258.319C1081.01 257.697 1079.36 255.574 1079.94 254.883C1079.94 254.883 1081.52 256.345 1083.27 256.581C1083.27 256.581 1079.77 255.747 1079.36 253.776C1079.36 253.776 1081.97 255.194 1083.79 255.056C1083.79 255.056 1078.3 254.112 1078.74 252.54C1079.15 251.088 1080.93 252.635 1083.61 252.855C1086.55 253.091 1085.93 252.305 1083.34 251.742C1082.3 251.512 1082.09 250.066 1083.69 250.091C1086.12 250.129 1109.78 254.232 1109.78 254.232C1109.78 254.232 1108.26 244.8 1107.06 236.6C1106.11 230.155 1114.15 227.064 1117 232.987Z" fill="white" stroke="#2D2D2D" stroke-width="0.663417" stroke-linecap="round" stroke-linejoin="round"/>
<path d="M1098.29 251.254C1098.89 254.696 1098.08 258.237 1096.04 261.064C1096.04 261.064 1108.45 264.768 1113.73 264.768C1119.02 264.768 1122.07 262.721 1122 257.404C1121.93 252.088 1121.06 229.394 1112.72 229.394C1104.37 229.394 1106.68 237.641 1107.56 242.206C1108.45 246.771 1109.68 253.65 1109.68 253.65L1098.29 251.254Z" fill="#5EC69D"/>
<ellipse rx="5.02587" ry="0.985098" transform="matrix(0.228653 -0.973508 0.972927 0.231113 1097.02 256.108)" stroke="white" stroke-width="0.663417" stroke-linecap="round" stroke-linejoin="round"/>
<path d="M1098.19 251.232L1109.79 254.222L1107.31 238.851" stroke="#2D2D2D" stroke-width="0.663417" stroke-linecap="round" stroke-linejoin="round"/>
<path d="M1086.69 213.966C1086.69 213.966 1084.79 213.651 1084.54 210.755C1084.32 208.168 1086.42 208.064 1087.53 208.979L1086.69 213.966Z" fill="white" stroke="#2D2D2D" stroke-width="0.663417"/>
<path d="M1101.75 210.997C1101.75 210.997 1105.19 207.199 1106.53 210.174C1107.42 212.104 1106.24 215.701 1103.24 215.176C1103.03 217.666 1101.74 220.521 1098.55 222.706C1093.89 225.875 1086.87 225.095 1086.11 215.503C1085.85 211.411 1086.34 207.304 1087.56 203.392C1087.56 203.392 1092.59 211.268 1101.75 210.997Z" fill="white" stroke="#2D2D2D" stroke-width="0.663417"/>
<path d="M1091.35 212.607L1090.51 215.968C1090.44 216.25 1090.51 216.549 1090.71 216.76C1090.91 216.971 1091.2 217.064 1091.49 217.006C1091.64 216.974 1091.78 216.926 1091.92 216.864" stroke="#2D2D2D" stroke-width="0.663417" stroke-linecap="round" stroke-linejoin="round"/>
<ellipse cx="1096.42" cy="217.198" rx="1.43187" ry="1.43998" fill="#FFB967"/>
<ellipse cx="1086.7" cy="217.402" rx="1.63196" ry="1.6412" fill="#FFB967"/>
<path d="M1091.34 221.546C1091.34 221.546 1093.57 221.461 1094.28 219.735" stroke="#2D2D2D" stroke-width="0.663417" stroke-linecap="round" stroke-linejoin="round"/>
<ellipse cx="1094.71" cy="213.799" rx="0.71281" ry="0.716847" fill="#2D2D2D"/>
<ellipse cx="1088.32" cy="213.375" rx="0.71281" ry="0.716847" fill="#2D2D2D"/>
<path d="M1095.95 211.108C1095.21 210.657 1094.28 210.657 1093.54 211.108" stroke="#2D2D2D" stroke-width="0.663417" stroke-linecap="round" stroke-linejoin="round"/>
<path d="M1089.53 210.501C1088.79 210.05 1087.86 210.05 1087.12 210.501" stroke="#2D2D2D" stroke-width="0.663417" stroke-linecap="round" stroke-linejoin="round"/>
<path d="M1101.46 211.887C1101.68 211.281 1102.04 210.74 1102.52 210.315" stroke="#2D2D2D" stroke-width="0.663417" stroke-linecap="round" stroke-linejoin="round"/>
<path d="M1105.07 211.145C1103.88 211.15 1102.9 212.092 1102.84 213.29" stroke="#2D2D2D" stroke-width="0.663417" stroke-linecap="round" stroke-linejoin="round"/>
<path d="M1104.78 212.249C1104.26 211.965 1103.63 211.989 1103.13 212.312" stroke="#2D2D2D" stroke-width="0.663417" stroke-linecap="round" stroke-linejoin="round"/>
<path d="M1087.61 203.392C1087.61 203.392 1087.61 207.124 1091.55 208.869" stroke="#2D2D2D" stroke-width="0.663417" stroke-linecap="round" stroke-linejoin="round"/>
<rect x="154" y="265.17" width="182" height="49" rx="6" fill="#5EC69D" fill-opacity="0.1"/>
<path d="M181 284.67V282.67C181 281.57 180.1 280.67 179 280.67H173C171.9 280.67 171 281.57 171 282.67V296.67C171 297.77 171.9 298.67 173 298.67H189C190.1 298.67 191 297.77 191 296.67V286.67C191 285.57 190.1 284.67 189 284.67H181ZM175 296.67H173V294.67H175V296.67ZM175 292.67H173V290.67H175V292.67ZM175 288.67H173V286.67H175V288.67ZM175 284.67H173V282.67H175V284.67ZM179 296.67H177V294.67H179V296.67ZM179 292.67H177V290.67H179V292.67ZM179 288.67H177V286.67H179V288.67ZM179 284.67H177V282.67H179V284.67ZM188 296.67H181V294.67H183V292.67H181V290.67H183V288.67H181V286.67H188C188.55 286.67 189 287.12 189 287.67V295.67C189 296.22 188.55 296.67 188 296.67ZM187 288.67H185V290.67H187V288.67ZM187 292.67H185V294.67H187V292.67Z" fill="#5EC69D"/>
<path d="M211.914 294.67H210.191V290.248H205.741V294.67H204.012V284.717H205.741V288.86H210.191V284.717H211.914V294.67ZM218.364 294.67C218.291 294.529 218.227 294.299 218.172 293.98C217.644 294.531 216.996 294.807 216.231 294.807C215.488 294.807 214.882 294.595 214.412 294.171C213.943 293.748 213.708 293.223 213.708 292.599C213.708 291.811 214 291.207 214.583 290.788C215.171 290.364 216.01 290.152 217.099 290.152H218.118V289.667C218.118 289.284 218.01 288.978 217.796 288.75C217.582 288.518 217.256 288.402 216.819 288.402C216.44 288.402 216.131 288.498 215.889 288.689C215.647 288.876 215.527 289.115 215.527 289.407H213.866C213.866 289.001 214 288.623 214.269 288.272C214.538 287.917 214.902 287.639 215.363 287.438C215.828 287.237 216.345 287.137 216.914 287.137C217.78 287.137 218.471 287.356 218.986 287.793C219.501 288.226 219.765 288.837 219.779 289.625V292.961C219.779 293.627 219.872 294.158 220.059 294.554V294.67H218.364ZM216.538 293.474C216.867 293.474 217.174 293.394 217.461 293.235C217.753 293.075 217.972 292.861 218.118 292.592V291.198H217.222C216.607 291.198 216.144 291.305 215.834 291.519C215.524 291.733 215.369 292.036 215.369 292.428C215.369 292.747 215.474 293.002 215.684 293.194C215.898 293.381 216.183 293.474 216.538 293.474ZM225.531 288.792C225.312 288.755 225.087 288.737 224.854 288.737C224.093 288.737 223.58 289.028 223.316 289.612V294.67H221.655V287.274H223.241L223.282 288.101C223.683 287.458 224.239 287.137 224.95 287.137C225.187 287.137 225.383 287.169 225.538 287.233L225.531 288.792ZM229.451 292.565L231.017 287.274H232.733L230.169 294.67H228.727L226.143 287.274H227.865L229.451 292.565ZM238.225 294.67C238.152 294.529 238.088 294.299 238.034 293.98C237.505 294.531 236.858 294.807 236.092 294.807C235.349 294.807 234.743 294.595 234.274 294.171C233.804 293.748 233.57 293.223 233.57 292.599C233.57 291.811 233.861 291.207 234.445 290.788C235.033 290.364 235.871 290.152 236.96 290.152H237.979V289.667C237.979 289.284 237.872 288.978 237.658 288.75C237.443 288.518 237.118 288.402 236.68 288.402C236.302 288.402 235.992 288.498 235.75 288.689C235.509 288.876 235.388 289.115 235.388 289.407H233.727C233.727 289.001 233.861 288.623 234.13 288.272C234.399 287.917 234.764 287.639 235.224 287.438C235.689 287.237 236.206 287.137 236.776 287.137C237.642 287.137 238.332 287.356 238.847 287.793C239.362 288.226 239.626 288.837 239.64 289.625V292.961C239.64 293.627 239.734 294.158 239.92 294.554V294.67H238.225ZM236.4 293.474C236.728 293.474 237.036 293.394 237.323 293.235C237.614 293.075 237.833 292.861 237.979 292.592V291.198H237.083C236.468 291.198 236.006 291.305 235.696 291.519C235.386 291.733 235.231 292.036 235.231 292.428C235.231 292.747 235.336 293.002 235.545 293.194C235.76 293.381 236.044 293.474 236.4 293.474ZM245.392 288.792C245.174 288.755 244.948 288.737 244.716 288.737C243.955 288.737 243.442 289.028 243.178 289.612V294.67H241.516V287.274H243.102L243.143 288.101C243.544 287.458 244.1 287.137 244.811 287.137C245.048 287.137 245.244 287.169 245.399 287.233L245.392 288.792ZM246.134 290.917C246.134 289.778 246.398 288.864 246.927 288.176C247.456 287.484 248.164 287.137 249.053 287.137C249.837 287.137 250.47 287.411 250.953 287.958V284.17H252.614V294.67H251.111L251.028 293.905C250.532 294.506 249.869 294.807 249.039 294.807C248.173 294.807 247.472 294.458 246.934 293.761C246.401 293.064 246.134 292.116 246.134 290.917ZM247.795 291.061C247.795 291.813 247.939 292.401 248.226 292.825C248.517 293.244 248.93 293.454 249.463 293.454C250.142 293.454 250.639 293.151 250.953 292.544V289.386C250.648 288.794 250.156 288.498 249.477 288.498C248.939 288.498 248.524 288.712 248.233 289.14C247.941 289.564 247.795 290.204 247.795 291.061ZM265.555 284.717V291.369C265.555 292.426 265.215 293.264 264.536 293.884C263.862 294.5 262.961 294.807 261.836 294.807C260.696 294.807 259.792 294.504 259.122 293.898C258.452 293.287 258.117 292.442 258.117 291.362V284.717H259.84V291.375C259.84 292.041 260.008 292.549 260.346 292.9C260.683 293.251 261.18 293.426 261.836 293.426C263.167 293.426 263.832 292.724 263.832 291.321V284.717H265.555ZM268.928 287.274L268.976 288.128C269.523 287.468 270.24 287.137 271.129 287.137C272.67 287.137 273.453 288.019 273.481 289.783V294.67H271.82V289.878C271.82 289.409 271.717 289.063 271.512 288.839C271.311 288.611 270.981 288.498 270.521 288.498C269.851 288.498 269.352 288.801 269.024 289.407V294.67H267.363V287.274H268.928ZM277.087 294.67H275.425V287.274H277.087V294.67ZM275.323 285.353C275.323 285.098 275.403 284.886 275.562 284.717C275.726 284.549 275.959 284.464 276.259 284.464C276.56 284.464 276.793 284.549 276.957 284.717C277.121 284.886 277.203 285.098 277.203 285.353C277.203 285.604 277.121 285.813 276.957 285.982C276.793 286.146 276.56 286.228 276.259 286.228C275.959 286.228 275.726 286.146 275.562 285.982C275.403 285.813 275.323 285.604 275.323 285.353ZM281.649 292.565L283.215 287.274H284.931L282.367 294.67H280.925L278.341 287.274H280.063L281.649 292.565ZM289.275 294.807C288.222 294.807 287.368 294.477 286.711 293.816C286.06 293.151 285.734 292.266 285.734 291.164V290.958C285.734 290.22 285.875 289.562 286.158 288.983C286.445 288.4 286.846 287.946 287.361 287.623C287.876 287.299 288.45 287.137 289.083 287.137C290.09 287.137 290.868 287.458 291.414 288.101C291.966 288.744 292.242 289.653 292.242 290.829V291.499H287.409C287.459 292.109 287.661 292.592 288.017 292.948C288.377 293.303 288.828 293.481 289.37 293.481C290.131 293.481 290.751 293.173 291.23 292.558L292.125 293.413C291.829 293.855 291.433 294.199 290.936 294.445C290.444 294.686 289.89 294.807 289.275 294.807ZM289.076 288.47C288.621 288.47 288.252 288.63 287.969 288.949C287.691 289.268 287.513 289.712 287.436 290.282H290.601V290.159C290.564 289.603 290.416 289.183 290.157 288.901C289.897 288.614 289.537 288.47 289.076 288.47ZM297.549 288.792C297.331 288.755 297.105 288.737 296.873 288.737C296.112 288.737 295.599 289.028 295.335 289.612V294.67H293.674V287.274H295.259L295.3 288.101C295.702 287.458 296.257 287.137 296.968 287.137C297.205 287.137 297.401 287.169 297.556 287.233L297.549 288.792ZM302.885 292.661C302.885 292.364 302.762 292.139 302.516 291.984C302.274 291.829 301.871 291.692 301.306 291.574C300.741 291.455 300.269 291.305 299.891 291.123C299.061 290.722 298.647 290.14 298.647 289.379C298.647 288.741 298.915 288.208 299.453 287.78C299.991 287.351 300.675 287.137 301.504 287.137C302.388 287.137 303.101 287.356 303.644 287.793C304.19 288.231 304.464 288.798 304.464 289.496H302.803C302.803 289.177 302.684 288.912 302.447 288.703C302.21 288.488 301.896 288.381 301.504 288.381C301.139 288.381 300.841 288.466 300.608 288.634C300.381 288.803 300.267 289.028 300.267 289.311C300.267 289.566 300.374 289.764 300.588 289.906C300.802 290.047 301.235 290.191 301.887 290.336C302.538 290.478 303.049 290.649 303.418 290.849C303.792 291.045 304.067 291.282 304.245 291.56C304.427 291.838 304.519 292.175 304.519 292.572C304.519 293.237 304.243 293.777 303.691 294.192C303.14 294.602 302.418 294.807 301.524 294.807C300.918 294.807 300.378 294.698 299.904 294.479C299.43 294.26 299.061 293.959 298.797 293.577C298.533 293.194 298.4 292.781 298.4 292.339H300.014C300.036 292.731 300.185 293.034 300.458 293.249C300.731 293.458 301.094 293.563 301.545 293.563C301.982 293.563 302.315 293.481 302.543 293.317C302.771 293.148 302.885 292.93 302.885 292.661ZM307.878 294.67H306.217V287.274H307.878V294.67ZM306.115 285.353C306.115 285.098 306.194 284.886 306.354 284.717C306.518 284.549 306.75 284.464 307.051 284.464C307.352 284.464 307.584 284.549 307.748 284.717C307.912 284.886 307.995 285.098 307.995 285.353C307.995 285.604 307.912 285.813 307.748 285.982C307.584 286.146 307.352 286.228 307.051 286.228C306.75 286.228 306.518 286.146 306.354 285.982C306.194 285.813 306.115 285.604 306.115 285.353ZM311.915 285.476V287.274H313.22V288.504H311.915V292.633C311.915 292.916 311.969 293.121 312.079 293.249C312.193 293.372 312.393 293.433 312.68 293.433C312.872 293.433 313.066 293.41 313.261 293.365V294.65C312.883 294.755 312.519 294.807 312.168 294.807C310.892 294.807 310.254 294.103 310.254 292.695V288.504H309.037V287.274H310.254V285.476H311.915ZM317.223 292.292L318.727 287.274H320.497L317.558 295.792C317.107 297.036 316.341 297.658 315.261 297.658C315.019 297.658 314.753 297.617 314.461 297.535V296.25L314.776 296.27C315.195 296.27 315.509 296.193 315.719 296.038C315.933 295.887 316.102 295.632 316.225 295.272L316.464 294.636L313.866 287.274H315.657L317.223 292.292Z" fill="#5EC69D"/>
<rect x="351.5" y="265.67" width="403" height="48" rx="7.66667" fill="white" stroke="#E2EEF8"/>
<path opacity="0.5" d="M378.413 286.261H379.805C379.741 284.469 378.088 283.129 375.791 283.129C373.518 283.129 371.731 284.452 371.731 286.447C371.731 288.048 372.891 288.999 374.747 289.533L376.209 289.95C377.462 290.298 378.576 290.739 378.576 291.922C378.576 293.222 377.323 294.08 375.675 294.08C374.26 294.08 373.007 293.454 372.891 292.108H371.407C371.546 294.057 373.123 295.379 375.675 295.379C378.413 295.379 379.968 293.871 379.968 291.946C379.968 289.718 377.856 288.999 376.627 288.674L375.42 288.349C374.539 288.117 373.123 287.653 373.123 286.377C373.123 285.24 374.167 284.405 375.745 284.405C377.184 284.405 378.274 285.09 378.413 286.261ZM386.046 295.356C387.855 295.356 389.178 294.451 389.595 293.106L388.273 292.734C387.925 293.662 387.119 294.126 386.046 294.126C384.439 294.126 383.331 293.088 383.267 291.18H389.735V290.6C389.735 287.282 387.763 286.145 385.906 286.145C383.494 286.145 381.893 288.048 381.893 290.785C381.893 293.523 383.47 295.356 386.046 295.356ZM383.267 289.997C383.36 288.61 384.34 287.375 385.906 287.375C387.391 287.375 388.343 288.489 388.343 289.997H383.267ZM394.602 295.379C396.156 295.379 396.968 294.544 397.247 293.964H397.316V295.17H398.685V289.301C398.685 286.47 396.528 286.145 395.391 286.145C394.045 286.145 392.514 286.609 391.818 288.233L393.117 288.697C393.419 288.048 394.132 287.352 395.437 287.352C396.696 287.352 397.316 288.019 397.316 289.161V289.208C397.316 289.869 396.644 289.811 395.02 290.02C393.366 290.234 391.563 290.6 391.563 292.642C391.563 294.382 392.908 295.379 394.602 295.379ZM394.811 294.15C393.72 294.15 392.931 293.662 392.931 292.711C392.931 291.667 393.883 291.342 394.95 291.203C395.53 291.133 397.084 290.971 397.316 290.693V291.946C397.316 293.059 396.435 294.15 394.811 294.15ZM401.347 295.17H402.716V289.533C402.716 288.326 403.667 287.445 404.966 287.445C405.332 287.445 405.709 287.514 405.802 287.537V286.145C405.645 286.134 405.285 286.122 405.082 286.122C404.015 286.122 403.087 286.725 402.762 287.607H402.669V286.261H401.347V295.17ZM410.936 295.356C412.908 295.356 414.207 294.15 414.439 292.572H413.07C412.815 293.546 412.003 294.126 410.936 294.126C409.312 294.126 408.268 292.781 408.268 290.716C408.268 288.697 409.335 287.375 410.936 287.375C412.142 287.375 412.861 288.117 413.07 288.929H414.439C414.207 287.259 412.792 286.145 410.912 286.145C408.5 286.145 406.899 288.048 406.899 290.762C406.899 293.43 408.43 295.356 410.936 295.356ZM417.972 289.811C417.972 288.257 418.964 287.375 420.315 287.375C421.603 287.375 422.38 288.187 422.38 289.602V295.17H423.749V289.509C423.749 287.218 422.531 286.145 420.71 286.145C419.306 286.145 418.506 286.731 418.088 287.653H417.972V283.292H416.603V295.17H417.972V289.811ZM435.141 286.261H433.146V285.356C433.146 284.475 433.517 284.011 434.422 284.011C434.816 284.011 435.048 284.104 435.188 284.15L435.582 282.967C435.373 282.874 434.956 282.735 434.283 282.735C433.007 282.735 431.777 283.5 431.777 285.032V286.261H430.339V287.421H431.777V295.17H433.146V287.421H435.141V286.261ZM440.475 295.356C442.888 295.356 444.512 293.523 444.512 290.762C444.512 287.978 442.888 286.145 440.475 286.145C438.062 286.145 436.438 287.978 436.438 290.762C436.438 293.523 438.062 295.356 440.475 295.356ZM440.475 294.126C438.643 294.126 437.807 292.549 437.807 290.762C437.807 288.976 438.643 287.375 440.475 287.375C442.308 287.375 443.143 288.976 443.143 290.762C443.143 292.549 442.308 294.126 440.475 294.126ZM446.765 295.17H448.134V289.533C448.134 288.326 449.085 287.445 450.384 287.445C450.75 287.445 451.127 287.514 451.22 287.537V286.145C451.063 286.134 450.703 286.122 450.5 286.122C449.433 286.122 448.505 286.725 448.18 287.607H448.088V286.261H446.765V295.17ZM460.384 295.379C461.939 295.379 462.751 294.544 463.029 293.964H463.099V295.17H464.468V289.301C464.468 286.47 462.31 286.145 461.173 286.145C459.828 286.145 458.296 286.609 457.6 288.233L458.9 288.697C459.201 288.048 459.915 287.352 461.22 287.352C462.478 287.352 463.099 288.019 463.099 289.161V289.208C463.099 289.869 462.426 289.811 460.802 290.02C459.149 290.234 457.345 290.6 457.345 292.642C457.345 294.382 458.691 295.379 460.384 295.379ZM460.593 294.15C459.503 294.15 458.714 293.662 458.714 292.711C458.714 291.667 459.665 291.342 460.732 291.203C461.312 291.133 462.867 290.971 463.099 290.693V291.946C463.099 293.059 462.217 294.15 460.593 294.15ZM475.506 295.356C477.478 295.356 478.777 294.15 479.009 292.572H477.64C477.385 293.546 476.573 294.126 475.506 294.126C473.882 294.126 472.838 292.781 472.838 290.716C472.838 288.697 473.905 287.375 475.506 287.375C476.712 287.375 477.432 288.117 477.64 288.929H479.009C478.777 287.259 477.362 286.145 475.483 286.145C473.07 286.145 471.469 288.048 471.469 290.762C471.469 293.43 473 295.356 475.506 295.356ZM484.793 295.356C487.206 295.356 488.83 293.523 488.83 290.762C488.83 287.978 487.206 286.145 484.793 286.145C482.38 286.145 480.756 287.978 480.756 290.762C480.756 293.523 482.38 295.356 484.793 295.356ZM484.793 294.126C482.96 294.126 482.125 292.549 482.125 290.762C482.125 288.976 482.96 287.375 484.793 287.375C486.626 287.375 487.461 288.976 487.461 290.762C487.461 292.549 486.626 294.126 484.793 294.126ZM496.697 291.528C496.697 293.198 495.421 293.964 494.4 293.964C493.264 293.964 492.452 293.129 492.452 291.83V286.261H491.083V291.922C491.083 294.196 492.289 295.286 493.96 295.286C495.305 295.286 496.187 294.567 496.605 293.662H496.697V295.17H498.066V286.261H496.697V291.528ZM500.737 295.17H502.105V289.533C502.105 288.326 503.057 287.445 504.356 287.445C504.721 287.445 505.098 287.514 505.191 287.537V286.145C505.035 286.134 504.675 286.122 504.472 286.122C503.405 286.122 502.477 286.725 502.152 287.607H502.059V286.261H500.737V295.17ZM513.288 288.257C512.858 286.992 511.896 286.145 510.132 286.145C508.253 286.145 506.861 287.213 506.861 288.721C506.861 289.95 507.592 290.774 509.228 291.157L510.712 291.505C511.611 291.713 512.035 292.143 512.035 292.758C512.035 293.523 511.223 294.15 509.947 294.15C508.827 294.15 508.126 293.668 507.882 292.711L506.583 293.036C506.902 294.55 508.149 295.356 509.97 295.356C512.041 295.356 513.45 294.225 513.45 292.688C513.45 291.447 512.673 290.664 511.084 290.275L509.761 289.95C508.706 289.689 508.23 289.335 508.23 288.651C508.23 287.885 509.042 287.329 510.132 287.329C511.327 287.329 511.82 287.99 512.058 288.605L513.288 288.257ZM519.409 295.356C521.219 295.356 522.541 294.451 522.959 293.106L521.637 292.734C521.289 293.662 520.482 294.126 519.409 294.126C517.803 294.126 516.695 293.088 516.631 291.18H523.098V290.6C523.098 287.282 521.126 286.145 519.27 286.145C516.857 286.145 515.256 288.048 515.256 290.785C515.256 293.523 516.834 295.356 519.409 295.356ZM516.631 289.997C516.724 288.61 517.704 287.375 519.27 287.375C520.755 287.375 521.706 288.489 521.706 289.997H516.631ZM526.341 295.263C526.916 295.263 527.385 294.793 527.385 294.219C527.385 293.645 526.916 293.175 526.341 293.175C525.767 293.175 525.297 293.645 525.297 294.219C525.297 294.793 525.767 295.263 526.341 295.263ZM531.003 295.263C531.577 295.263 532.047 294.793 532.047 294.219C532.047 293.645 531.577 293.175 531.003 293.175C530.429 293.175 529.959 293.645 529.959 294.219C529.959 294.793 530.429 295.263 531.003 295.263ZM535.664 295.263C536.238 295.263 536.708 294.793 536.708 294.219C536.708 293.645 536.238 293.175 535.664 293.175C535.09 293.175 534.62 293.645 534.62 294.219C534.62 294.793 535.09 295.263 535.664 295.263Z" fill="#828489"/>
<g clip-path="url(#clip0_2_39467)">
<path opacity="0.5" d="M737.957 292.393H736.959L736.606 292.025C738.121 290.12 738.904 287.52 738.474 284.757C737.881 280.973 734.952 277.951 731.417 277.489C726.077 276.781 721.582 281.626 722.239 287.384C722.668 291.195 725.471 294.353 728.98 294.992C731.543 295.455 733.955 294.611 735.722 292.978L736.063 293.359V294.434L741.429 300.219C741.946 300.777 742.792 300.777 743.31 300.219C743.827 299.661 743.827 298.749 743.31 298.191L737.957 292.393ZM730.382 292.393C727.238 292.393 724.701 289.657 724.701 286.268C724.701 282.879 727.238 280.143 730.382 280.143C733.525 280.143 736.063 282.879 736.063 286.268C736.063 289.657 733.525 292.393 730.382 292.393Z" fill="#828489"/>
</g>
</g>
<defs>
<filter id="filter0_d_2_39467" x="0" y="0.17041" width="1287" height="536" filterUnits="userSpaceOnUse" color-interpolation-filters="sRGB">
<feFlood flood-opacity="0" result="BackgroundImageFix"/>
<feColorMatrix in="SourceAlpha" type="matrix" values="0 0 0 0 0 0 0 0 0 0 0 0 0 0 0 0 0 0 127 0" result="hardAlpha"/>
<feMorphology radius="20" operator="erode" in="SourceAlpha" result="effect1_dropShadow_2_39467"/>
<feOffset dy="24"/>
<feGaussianBlur stdDeviation="62"/>
<feComposite in2="hardAlpha" operator="out"/>
<feColorMatrix type="matrix" values="0 0 0 0 0.478431 0 0 0 0 0.537255 0 0 0 0 0.580392 0 0 0 0.27 0"/>
<feBlend mode="normal" in2="BackgroundImageFix" result="effect1_dropShadow_2_39467"/>
<feBlend mode="normal" in="SourceGraphic" in2="effect1_dropShadow_2_39467" result="shape"/>
</filter>
<filter id="filter1_b_2_39467" x="996.165" y="102.095" width="74.5048" height="65.2678" filterUnits="userSpaceOnUse" color-interpolation-filters="sRGB">
<feFlood flood-opacity="0" result="BackgroundImageFix"/>
<feGaussianBlur in="BackgroundImage" stdDeviation="1.65854"/>
<feComposite in2="SourceAlpha" operator="in" result="effect1_backgroundBlur_2_39467"/>
<feBlend mode="normal" in="SourceGraphic" in2="effect1_backgroundBlur_2_39467" result="shape"/>
</filter>
<filter id="filter2_b_2_39467" x="870.214" y="146.477" width="73.5419" height="64.4379" filterUnits="userSpaceOnUse" color-interpolation-filters="sRGB">
<feFlood flood-opacity="0" result="BackgroundImageFix"/>
<feGaussianBlur in="BackgroundImage" stdDeviation="1.65854"/>
<feComposite in2="SourceAlpha" operator="in" result="effect1_backgroundBlur_2_39467"/>
<feBlend mode="normal" in="SourceGraphic" in2="effect1_backgroundBlur_2_39467" result="shape"/>
</filter>
<clipPath id="clip0_2_39467">
<rect width="30.3" height="32.6667" fill="white" transform="translate(718.388 273.337)"/>
</clipPath>
</defs>
</svg>
