<svg width="1440" height="379" viewBox="0 0 1440 379" fill="none" xmlns="http://www.w3.org/2000/svg">
<rect width="1440" height="377.318" transform="translate(0 0.70166)" fill="#F9FAFB"/>
<path d="M156.733 80.7464C156.403 79.5028 155.976 78.2876 155.454 77.1124C154.925 75.9271 154.292 74.7917 153.561 73.72C152.079 71.5502 150.19 69.6927 147.998 68.2519C145.806 66.8276 143.376 65.8118 140.825 65.2531C138.284 64.6941 135.67 64.5589 133.085 64.8529C130.503 65.1418 127.982 65.8308 125.61 66.8955C123.218 67.9654 121.012 69.4152 119.079 71.1894C117.112 72.9887 115.488 75.1338 114.288 77.5192C113.985 78.1176 113.718 78.7359 113.475 79.3636C113.231 79.9919 113.02 80.6324 112.841 81.2826C112.748 81.6063 112.671 81.9348 112.593 82.2633C112.516 82.5918 112.451 82.924 112.395 83.2487C112.277 83.8991 112.183 84.5551 112.119 85.2158C111.849 87.882 112.039 90.575 112.683 93.1758C113.332 95.8073 114.451 98.2983 115.988 100.527C117.549 102.8 119.553 104.732 121.878 106.205C122.795 106.779 124.93 107.756 125.004 107.788C126.052 108.217 127.149 108.516 128.27 108.678C128.41 108.697 128.552 108.716 128.691 108.733L128.785 108.747L128.865 108.752C129.755 108.852 130.652 108.877 131.547 108.829C132.667 108.771 133.778 108.587 134.858 108.28C135.416 108.123 135.963 107.927 136.495 107.695C137.042 107.459 137.57 107.185 138.077 106.873C138.593 106.553 139.085 106.193 139.546 105.798C140.01 105.397 140.442 104.96 140.836 104.49C141.61 103.562 142.235 102.519 142.689 101.397C142.906 100.86 143.088 100.309 143.235 99.7473C143.304 99.4717 143.37 99.1961 143.422 98.9204C143.453 98.7808 143.472 98.6524 143.496 98.5193C143.519 98.3862 143.539 98.255 143.559 98.1229C143.717 97.0575 143.78 95.9799 143.746 94.9032C143.722 94.2034 143.655 93.5057 143.545 92.8143C143.535 92.6947 143.518 92.5758 143.493 92.4585C143.207 91.1956 142.997 89.9164 142.865 88.6281C142.736 87.3473 142.71 86.0581 142.787 84.7731C142.864 83.4966 143.09 82.2335 143.46 81.0098C143.648 80.4038 143.885 79.8142 144.167 79.2466C144.308 78.9666 144.464 78.6941 144.632 78.4301C144.717 78.3008 145.159 77.7382 145.159 77.7382C145.441 77.4041 145.535 76.9982 145.281 76.6659C145.157 76.5065 144.976 76.4028 144.776 76.3777C144.577 76.3526 144.376 76.408 144.217 76.5319C143.898 76.7792 143.592 77.0429 143.3 77.3219C143.036 77.5922 142.785 77.8758 142.549 78.1714C142.081 78.7589 141.66 79.3833 141.292 80.0385C140.572 81.3521 140.009 82.746 139.613 84.1917C139.575 84.3276 139.539 84.4645 139.503 84.6004C139.168 84.2436 138.819 83.9048 138.457 83.5838C136.944 82.2503 135.229 81.167 133.377 80.3745C131.61 79.6096 129.76 79.0533 127.865 78.717C127.601 78.6646 127.327 78.7129 127.096 78.8525C126.865 78.9921 126.695 79.2131 126.617 79.4722C126.54 79.7314 126.561 80.0103 126.677 80.2546C126.793 80.4989 126.995 80.691 127.244 80.7936H127.255C128.071 81.1448 128.869 81.5157 129.642 81.915C130.416 82.3143 131.162 82.7466 131.871 83.2176C133.288 84.1568 134.568 85.23 135.599 86.4495C136.351 87.3268 136.978 88.3045 137.463 89.3549C136.719 88.927 135.936 88.5726 135.124 88.2968C134.004 87.9139 132.838 87.6866 131.657 87.6209C130.474 87.5485 129.287 87.6803 128.149 88.0108C127.001 88.3432 125.946 88.9427 125.071 89.7608C124.936 89.8878 124.854 90.0615 124.841 90.247C124.827 90.4324 124.884 90.6161 125 90.7613C125.116 90.9064 125.282 91.0023 125.465 91.0298C125.648 91.0573 125.834 91.0143 125.987 90.9095L126 90.9001C126.774 90.3906 127.656 90.0715 128.575 89.9684C129.5 89.8634 130.435 89.9183 131.341 90.1308C133.142 90.5388 134.798 91.4315 136.132 92.7133C136.739 93.2976 137.241 93.9841 137.613 94.7418C137.942 95.4101 138.114 96.1448 138.118 96.8901C138.117 97.0386 138.108 97.187 138.092 97.3347C138.087 97.3555 138.082 97.3772 138.076 97.3979C138.052 97.4923 138.028 97.5867 138.003 97.6669C137.957 97.8387 137.903 98.0049 137.85 98.17C137.742 98.488 137.613 98.7986 137.465 99.0998C137.195 99.6617 136.844 100.181 136.425 100.641C136.222 100.862 136.002 101.066 135.767 101.252C135.53 101.444 135.279 101.617 135.016 101.77C133.948 102.398 132.599 102.773 131.164 102.894C130.805 102.924 130.441 102.939 130.076 102.94C129.712 102.941 129.345 102.925 128.982 102.894C128.619 102.863 128.26 102.824 127.914 102.762C127.568 102.701 127.234 102.631 126.933 102.552L126.785 102.513C126.709 102.493 125.297 101.915 124.697 101.562C122.952 100.521 121.436 99.1349 120.239 97.4885C119.011 95.8054 118.097 93.912 117.542 91.9006C117.26 90.8869 117.068 89.8503 116.966 88.8027C116.916 88.2779 116.884 87.7493 116.872 87.2198C116.861 86.6902 116.879 86.1579 116.914 85.6264C116.949 85.095 117.008 84.5645 117.084 84.035C117.119 83.766 117.17 83.5159 117.216 83.2572C117.262 82.9986 117.321 82.7466 117.387 82.4936C117.511 81.9865 117.661 81.4862 117.836 80.9947C118.012 80.5029 118.204 80.0158 118.429 79.542C119.333 77.6206 120.578 75.8814 122.104 74.41C123.655 72.906 125.437 71.663 127.382 70.7287C129.342 69.7842 131.436 69.1502 133.589 68.8494C135.74 68.5445 137.926 68.5971 140.059 69.0051C142.184 69.4111 144.22 70.1942 146.071 71.3177C147.912 72.4504 149.509 73.9407 150.768 75.7012C151.404 76.592 151.959 77.5381 152.427 78.5282C152.901 79.5288 153.294 80.5656 153.603 81.629C154.221 83.7891 154.537 86.0253 154.542 88.2732C154.555 90.531 153.939 93.7969 153.71 94.9891C152.17 100.653 149.829 102.563 147.532 104.672C146.512 105.521 145.604 106.267 144.503 107.231C143.927 107.734 143.386 108.276 142.883 108.852C142.434 109.383 142.014 109.938 141.624 110.514C140.848 111.676 140.207 112.959 139.849 114.348C139.666 115.045 139.571 115.763 139.567 116.485C139.562 117.223 139.69 117.955 139.943 118.648C139.997 118.787 140.103 118.9 140.237 118.964C140.372 119.028 140.526 119.037 140.667 118.99C140.808 118.943 140.927 118.844 140.997 118.713C141.068 118.581 141.086 118.427 141.048 118.283V118.274C140.907 117.709 140.868 117.124 140.932 116.545C140.996 115.952 141.134 115.37 141.343 114.812C141.761 113.679 142.418 112.641 143.204 111.697C143.599 111.222 144.02 110.768 144.465 110.338C144.798 110.018 145.146 109.711 145.498 109.414C144.943 110.521 144.477 111.706 144.299 112.978C144.206 113.627 144.221 114.287 144.343 114.931C144.47 115.571 144.726 116.179 145.095 116.717C145.137 116.782 145.202 116.828 145.277 116.845C145.353 116.862 145.431 116.849 145.497 116.808C145.563 116.768 145.61 116.703 145.629 116.628C145.648 116.553 145.637 116.473 145.599 116.406V116.406C145.334 115.914 145.172 115.372 145.124 114.815C145.083 114.26 145.134 113.702 145.273 113.164C145.555 112.075 146.093 111.045 146.727 110.078C148.07 108.229 149.902 106.455 150.847 105.617C152.673 103.798 155.193 101.394 156.502 95.7546C156.942 94.1584 157.563 90.816 157.609 88.2892C157.667 85.7462 157.372 83.2075 156.733 80.7464V80.7464Z" fill="#5EC69D"/>
<path d="M221.331 76.6668C222.02 78.2634 220.739 79.8813 219.156 79.8813C218.538 79.8802 217.945 79.6376 217.504 79.2054C217.062 78.7731 216.807 78.1855 216.793 77.5678C216.784 76.9521 217.019 76.3577 217.446 75.914C217.873 75.4703 218.458 75.2132 219.074 75.1985C219.553 75.1915 220.024 75.3273 220.426 75.5888C220.828 75.8503 221.143 76.2256 221.331 76.6668V76.6668Z" fill="#5EC69D"/>
<path d="M221.168 85.7268V105.604C221.168 106.951 219.805 108.039 218.439 107.487C218.048 107.316 217.717 107.034 217.487 106.676C217.257 106.317 217.138 105.898 217.146 105.472V85.8008C217.146 84.737 217.931 83.7932 218.991 83.6995C219.271 83.6735 219.553 83.7069 219.819 83.7975C220.085 83.8881 220.328 84.0339 220.534 84.2254C220.74 84.4168 220.902 84.6495 221.012 84.9083C221.121 85.1671 221.174 85.446 221.168 85.7268Z" fill="#5EC69D"/>
<path d="M245.871 105.648C245.871 105.913 245.818 106.175 245.715 106.419C245.612 106.663 245.462 106.884 245.272 107.069C245.083 107.254 244.858 107.399 244.612 107.497C244.365 107.594 244.102 107.64 243.837 107.634H227.737C227.472 107.64 227.209 107.593 226.963 107.496C226.717 107.399 226.492 107.254 226.303 107.069C226.113 106.884 225.963 106.663 225.86 106.419C225.757 106.175 225.703 105.913 225.703 105.648C225.715 105.157 225.864 104.679 226.132 104.267L226.264 104.06L239.541 87.5746H227.934C227.419 87.5746 226.925 87.37 226.561 87.0058C226.197 86.6417 225.993 86.1478 225.993 85.6328C225.993 85.1178 226.197 84.6238 226.561 84.2597C226.925 83.8955 227.419 83.6909 227.934 83.6909H243.321C244.636 83.6909 245.546 84.6906 245.546 85.5884C245.56 86.1958 245.339 86.7853 244.928 87.2326L231.708 103.716H243.844C244.96 103.709 245.871 104.578 245.871 105.648Z" fill="#5EC69D"/>
<path d="M212.609 95.1712V105.604C212.614 105.872 212.565 106.139 212.465 106.389C212.365 106.638 212.215 106.864 212.025 107.054C211.834 107.244 211.608 107.393 211.358 107.493C211.109 107.593 210.842 107.641 210.573 107.634C210.041 107.628 209.533 107.41 209.161 107.029C208.788 106.649 208.582 106.136 208.587 105.604V95.1712C208.587 90.6331 205.627 87.3413 201.556 87.3413C197.332 87.3413 194.106 90.6676 194.106 95.0791V96.0738V105.61C194.106 106.957 192.75 108.046 191.382 107.495C190.989 107.325 190.655 107.041 190.424 106.681C190.192 106.321 190.073 105.9 190.081 105.472V77.3082C190.081 76.2427 190.867 75.2989 191.929 75.2052C192.208 75.1787 192.49 75.2116 192.756 75.3017C193.021 75.3919 193.265 75.5373 193.47 75.7284C193.675 75.9194 193.838 76.1518 193.947 76.4102C194.056 76.6686 194.109 76.9472 194.103 77.2276V86.4074L194.469 86.0785C196.425 84.35 198.946 83.3987 201.556 83.405C207.857 83.4116 212.609 88.4643 212.609 95.1712Z" fill="#5EC69D"/>
<path d="M259.668 83.4116C252.846 83.4116 247.293 88.9198 247.293 95.6891C247.293 102.458 252.846 107.97 259.668 107.97C266.49 107.97 272 102.458 272 95.6891C272 88.8047 266.589 83.4116 259.668 83.4116ZM259.668 103.993C254.987 103.993 251.315 100.342 251.315 95.6891C251.315 91.1264 255.12 87.3331 259.683 87.3413C264.331 87.3413 267.968 91.0096 267.971 95.6825C267.957 97.881 267.078 99.9854 265.524 101.541C263.97 103.096 261.866 103.977 259.668 103.993V103.993Z" fill="#5EC69D"/>
<path d="M185.322 87.3318L185.258 87.4501C185.057 87.8194 184.742 88.113 184.359 88.2866C183.976 88.4602 183.547 88.5042 183.137 88.412C182.641 88.3058 182.135 88.2507 181.628 88.2476C180.276 88.2423 178.949 88.612 177.794 89.3156C176.64 90.0192 175.703 91.0292 175.089 92.2332C174.303 93.7722 174.199 95.5135 174.176 97.2333C174.166 97.9683 174.176 98.6983 174.146 99.4087L174.166 106.364C174.255 107.582 173.155 108.666 171.946 108.509C171.457 108.444 171.007 108.206 170.677 107.838C170.348 107.469 170.161 106.996 170.151 106.502V97.2646C170.151 92.8251 171.557 89.4183 174.169 87.2676C176.271 85.4228 178.801 84.3228 181.628 84.3228C182.46 84.3204 183.291 84.4103 184.104 84.5908C185.307 84.8654 185.894 86.235 185.322 87.3318Z" fill="#5EC69D"/>
<path d="M119.805 140.941H115.133V144.441H120.594V146.02H113.156V134.645H120.539V136.238H115.133V139.379H119.805V140.941ZM123.805 137.566L123.859 138.449C124.453 137.757 125.266 137.41 126.297 137.41C127.427 137.41 128.201 137.842 128.617 138.707C129.232 137.842 130.096 137.41 131.211 137.41C132.143 137.41 132.836 137.668 133.289 138.184C133.747 138.699 133.982 139.46 133.992 140.465V146.02H132.094V140.52C132.094 139.983 131.977 139.59 131.742 139.34C131.508 139.09 131.12 138.965 130.578 138.965C130.146 138.965 129.792 139.082 129.516 139.316C129.245 139.546 129.055 139.848 128.945 140.223L128.953 146.02H127.055V140.457C127.029 139.462 126.521 138.965 125.531 138.965C124.771 138.965 124.232 139.275 123.914 139.895V146.02H122.016V137.566H123.805ZM143.344 141.879C143.344 143.186 143.047 144.23 142.453 145.012C141.859 145.788 141.062 146.176 140.062 146.176C139.135 146.176 138.393 145.871 137.836 145.262V149.27H135.938V137.566H137.688L137.766 138.426C138.323 137.749 139.081 137.41 140.039 137.41C141.07 137.41 141.878 137.796 142.461 138.566C143.049 139.332 143.344 140.397 143.344 141.762V141.879ZM141.453 141.715C141.453 140.871 141.284 140.202 140.945 139.707C140.612 139.212 140.133 138.965 139.508 138.965C138.732 138.965 138.174 139.285 137.836 139.926V143.676C138.18 144.332 138.742 144.66 139.523 144.66C140.128 144.66 140.599 144.418 140.938 143.934C141.281 143.444 141.453 142.704 141.453 141.715ZM144.602 141.715C144.602 140.887 144.766 140.142 145.094 139.48C145.422 138.814 145.883 138.303 146.477 137.949C147.07 137.59 147.753 137.41 148.523 137.41C149.664 137.41 150.589 137.777 151.297 138.512C152.01 139.246 152.396 140.22 152.453 141.434L152.461 141.879C152.461 142.712 152.299 143.457 151.977 144.113C151.659 144.77 151.201 145.277 150.602 145.637C150.008 145.996 149.32 146.176 148.539 146.176C147.346 146.176 146.391 145.78 145.672 144.988C144.958 144.191 144.602 143.132 144.602 141.809V141.715ZM146.5 141.879C146.5 142.749 146.68 143.431 147.039 143.926C147.398 144.415 147.898 144.66 148.539 144.66C149.18 144.66 149.677 144.41 150.031 143.91C150.391 143.41 150.57 142.678 150.57 141.715C150.57 140.861 150.385 140.184 150.016 139.684C149.651 139.184 149.154 138.934 148.523 138.934C147.904 138.934 147.411 139.181 147.047 139.676C146.682 140.165 146.5 140.9 146.5 141.879ZM161.492 143.402L162.836 137.566H164.688L162.383 146.02H160.82L159.008 140.215L157.227 146.02H155.664L153.352 137.566H155.203L156.57 143.34L158.305 137.566H159.734L161.492 143.402ZM169.68 146.176C168.477 146.176 167.5 145.798 166.75 145.043C166.005 144.283 165.633 143.272 165.633 142.012V141.777C165.633 140.934 165.794 140.181 166.117 139.52C166.445 138.853 166.904 138.335 167.492 137.965C168.081 137.595 168.737 137.41 169.461 137.41C170.612 137.41 171.5 137.777 172.125 138.512C172.755 139.246 173.07 140.285 173.07 141.629V142.395H167.547C167.604 143.092 167.836 143.645 168.242 144.051C168.654 144.457 169.169 144.66 169.789 144.66C170.659 144.66 171.367 144.309 171.914 143.605L172.938 144.582C172.599 145.087 172.146 145.48 171.578 145.762C171.016 146.038 170.383 146.176 169.68 146.176ZM169.453 138.934C168.932 138.934 168.51 139.116 168.188 139.48C167.87 139.845 167.667 140.353 167.578 141.004H171.195V140.863C171.154 140.228 170.984 139.749 170.688 139.426C170.391 139.098 169.979 138.934 169.453 138.934ZM178.977 139.301C178.727 139.259 178.469 139.238 178.203 139.238C177.333 139.238 176.747 139.572 176.445 140.238V146.02H174.547V137.566H176.359L176.406 138.512C176.865 137.777 177.5 137.41 178.312 137.41C178.583 137.41 178.807 137.447 178.984 137.52L178.977 139.301ZM182.195 146.02H180.297V137.566H182.195V146.02ZM180.18 135.371C180.18 135.079 180.271 134.837 180.453 134.645C180.641 134.452 180.906 134.355 181.25 134.355C181.594 134.355 181.859 134.452 182.047 134.645C182.234 134.837 182.328 135.079 182.328 135.371C182.328 135.658 182.234 135.897 182.047 136.09C181.859 136.277 181.594 136.371 181.25 136.371C180.906 136.371 180.641 136.277 180.453 136.09C180.271 135.897 180.18 135.658 180.18 135.371ZM186.031 137.566L186.086 138.543C186.711 137.788 187.531 137.41 188.547 137.41C190.307 137.41 191.203 138.418 191.234 140.434V146.02H189.336V140.543C189.336 140.007 189.219 139.611 188.984 139.355C188.755 139.095 188.378 138.965 187.852 138.965C187.086 138.965 186.516 139.311 186.141 140.004V146.02H184.242V137.566H186.031ZM192.844 141.73C192.844 140.418 193.151 139.371 193.766 138.59C194.385 137.803 195.206 137.41 196.227 137.41C197.19 137.41 197.948 137.746 198.5 138.418L198.586 137.566H200.297V145.762C200.297 146.871 199.951 147.746 199.258 148.387C198.57 149.027 197.641 149.348 196.469 149.348C195.849 149.348 195.242 149.217 194.648 148.957C194.06 148.702 193.612 148.366 193.305 147.949L194.203 146.809C194.786 147.501 195.505 147.848 196.359 147.848C196.99 147.848 197.487 147.676 197.852 147.332C198.216 146.993 198.398 146.493 198.398 145.832V145.262C197.852 145.871 197.122 146.176 196.211 146.176C195.221 146.176 194.411 145.783 193.781 144.996C193.156 144.21 192.844 143.121 192.844 141.73ZM194.734 141.895C194.734 142.743 194.906 143.413 195.25 143.902C195.599 144.387 196.081 144.629 196.695 144.629C197.461 144.629 198.029 144.301 198.398 143.645V139.926C198.039 139.285 197.477 138.965 196.711 138.965C196.086 138.965 195.599 139.212 195.25 139.707C194.906 140.202 194.734 140.931 194.734 141.895ZM210.977 143.723C210.977 143.384 210.836 143.126 210.555 142.949C210.279 142.772 209.818 142.616 209.172 142.48C208.526 142.345 207.987 142.173 207.555 141.965C206.607 141.507 206.133 140.842 206.133 139.973C206.133 139.243 206.44 138.634 207.055 138.145C207.669 137.655 208.451 137.41 209.398 137.41C210.409 137.41 211.224 137.66 211.844 138.16C212.469 138.66 212.781 139.309 212.781 140.105H210.883C210.883 139.741 210.747 139.439 210.477 139.199C210.206 138.954 209.846 138.832 209.398 138.832C208.982 138.832 208.641 138.928 208.375 139.121C208.115 139.314 207.984 139.572 207.984 139.895C207.984 140.186 208.107 140.413 208.352 140.574C208.596 140.736 209.091 140.9 209.836 141.066C210.581 141.228 211.164 141.423 211.586 141.652C212.013 141.876 212.328 142.147 212.531 142.465C212.74 142.783 212.844 143.168 212.844 143.621C212.844 144.382 212.529 144.999 211.898 145.473C211.268 145.941 210.443 146.176 209.422 146.176C208.729 146.176 208.112 146.051 207.57 145.801C207.029 145.551 206.607 145.207 206.305 144.77C206.003 144.332 205.852 143.861 205.852 143.355H207.695C207.721 143.803 207.891 144.15 208.203 144.395C208.516 144.634 208.93 144.754 209.445 144.754C209.945 144.754 210.326 144.66 210.586 144.473C210.846 144.28 210.977 144.03 210.977 143.723ZM216.883 135.512V137.566H218.375V138.973H216.883V143.691C216.883 144.014 216.945 144.249 217.07 144.395C217.201 144.535 217.43 144.605 217.758 144.605C217.977 144.605 218.198 144.579 218.422 144.527V145.996C217.99 146.116 217.573 146.176 217.172 146.176C215.714 146.176 214.984 145.371 214.984 143.762V138.973H213.594V137.566H214.984V135.512H216.883ZM224.953 145.191C224.396 145.848 223.604 146.176 222.578 146.176C221.661 146.176 220.966 145.908 220.492 145.371C220.023 144.835 219.789 144.059 219.789 143.043V137.566H221.688V143.02C221.688 144.092 222.133 144.629 223.023 144.629C223.945 144.629 224.568 144.298 224.891 143.637V137.566H226.789V146.02H225L224.953 145.191ZM228.367 141.73C228.367 140.428 228.669 139.384 229.273 138.598C229.878 137.806 230.688 137.41 231.703 137.41C232.599 137.41 233.323 137.723 233.875 138.348V134.02H235.773V146.02H234.055L233.961 145.145C233.393 145.832 232.635 146.176 231.688 146.176C230.698 146.176 229.896 145.777 229.281 144.98C228.672 144.184 228.367 143.1 228.367 141.73ZM230.266 141.895C230.266 142.754 230.43 143.426 230.758 143.91C231.091 144.389 231.562 144.629 232.172 144.629C232.948 144.629 233.516 144.283 233.875 143.59V139.98C233.526 139.303 232.964 138.965 232.188 138.965C231.573 138.965 231.099 139.21 230.766 139.699C230.432 140.184 230.266 140.915 230.266 141.895ZM241.477 146.176C240.273 146.176 239.297 145.798 238.547 145.043C237.802 144.283 237.43 143.272 237.43 142.012V141.777C237.43 140.934 237.591 140.181 237.914 139.52C238.242 138.853 238.701 138.335 239.289 137.965C239.878 137.595 240.534 137.41 241.258 137.41C242.409 137.41 243.297 137.777 243.922 138.512C244.552 139.246 244.867 140.285 244.867 141.629V142.395H239.344C239.401 143.092 239.633 143.645 240.039 144.051C240.451 144.457 240.966 144.66 241.586 144.66C242.456 144.66 243.164 144.309 243.711 143.605L244.734 144.582C244.396 145.087 243.943 145.48 243.375 145.762C242.812 146.038 242.18 146.176 241.477 146.176ZM241.25 138.934C240.729 138.934 240.307 139.116 239.984 139.48C239.667 139.845 239.464 140.353 239.375 141.004H242.992V140.863C242.951 140.228 242.781 139.749 242.484 139.426C242.188 139.098 241.776 138.934 241.25 138.934ZM248.109 137.566L248.164 138.543C248.789 137.788 249.609 137.41 250.625 137.41C252.385 137.41 253.281 138.418 253.312 140.434V146.02H251.414V140.543C251.414 140.007 251.297 139.611 251.062 139.355C250.833 139.095 250.456 138.965 249.93 138.965C249.164 138.965 248.594 139.311 248.219 140.004V146.02H246.32V137.566H248.109ZM257.633 135.512V137.566H259.125V138.973H257.633V143.691C257.633 144.014 257.695 144.249 257.82 144.395C257.951 144.535 258.18 144.605 258.508 144.605C258.727 144.605 258.948 144.579 259.172 144.527V145.996C258.74 146.116 258.323 146.176 257.922 146.176C256.464 146.176 255.734 145.371 255.734 143.762V138.973H254.344V137.566H255.734V135.512H257.633ZM265.32 143.723C265.32 143.384 265.18 143.126 264.898 142.949C264.622 142.772 264.161 142.616 263.516 142.48C262.87 142.345 262.331 142.173 261.898 141.965C260.951 141.507 260.477 140.842 260.477 139.973C260.477 139.243 260.784 138.634 261.398 138.145C262.013 137.655 262.794 137.41 263.742 137.41C264.753 137.41 265.568 137.66 266.188 138.16C266.812 138.66 267.125 139.309 267.125 140.105H265.227C265.227 139.741 265.091 139.439 264.82 139.199C264.549 138.954 264.19 138.832 263.742 138.832C263.326 138.832 262.984 138.928 262.719 139.121C262.458 139.314 262.328 139.572 262.328 139.895C262.328 140.186 262.451 140.413 262.695 140.574C262.94 140.736 263.435 140.9 264.18 141.066C264.924 141.228 265.508 141.423 265.93 141.652C266.357 141.876 266.672 142.147 266.875 142.465C267.083 142.783 267.188 143.168 267.188 143.621C267.188 144.382 266.872 144.999 266.242 145.473C265.612 145.941 264.786 146.176 263.766 146.176C263.073 146.176 262.456 146.051 261.914 145.801C261.372 145.551 260.951 145.207 260.648 144.77C260.346 144.332 260.195 143.861 260.195 143.355H262.039C262.065 143.803 262.234 144.15 262.547 144.395C262.859 144.634 263.273 144.754 263.789 144.754C264.289 144.754 264.669 144.66 264.93 144.473C265.19 144.28 265.32 144.03 265.32 143.723ZM270.031 144.02C270.385 144.02 270.659 144.121 270.852 144.324C271.044 144.522 271.141 144.772 271.141 145.074C271.141 145.371 271.044 145.618 270.852 145.816C270.659 146.009 270.385 146.105 270.031 146.105C269.693 146.105 269.424 146.009 269.227 145.816C269.029 145.624 268.93 145.376 268.93 145.074C268.93 144.772 269.026 144.522 269.219 144.324C269.411 144.121 269.682 144.02 270.031 144.02Z" fill="#545454"/>
<path d="M114.261 203.02L115.33 199.94H119.875L120.938 203.02H122.801L118.614 191.383H116.585L112.398 203.02H114.261ZM115.841 198.463L117.557 193.497H117.648L119.364 198.463H115.841ZM124.482 203.02H126.141V201.662H126.283C126.589 202.218 127.214 203.19 128.805 203.19C130.919 203.19 132.453 201.497 132.453 198.673C132.453 195.843 130.896 194.179 128.788 194.179C127.169 194.179 126.584 195.167 126.283 195.707H126.18V191.383H124.482V203.02ZM126.146 198.656C126.146 196.832 126.942 195.622 128.425 195.622C129.964 195.622 130.737 196.923 130.737 198.656C130.737 200.406 129.942 201.741 128.425 201.741C126.964 201.741 126.146 200.491 126.146 198.656ZM138.037 203.196C140.497 203.196 142.105 201.395 142.105 198.696C142.105 195.98 140.497 194.179 138.037 194.179C135.577 194.179 133.969 195.98 133.969 198.696C133.969 201.395 135.577 203.196 138.037 203.196ZM138.043 201.77C136.435 201.77 135.685 200.366 135.685 198.69C135.685 197.02 136.435 195.599 138.043 195.599C139.639 195.599 140.389 197.02 140.389 198.69C140.389 200.366 139.639 201.77 138.043 201.77ZM149.53 199.4C149.536 200.883 148.433 201.588 147.479 201.588C146.428 201.588 145.7 200.826 145.7 199.639V194.292H144.001V199.843C144.001 202.008 145.189 203.133 146.865 203.133C148.178 203.133 149.07 202.44 149.473 201.508H149.564V203.02H151.234V194.292H149.53V199.4ZM157.591 194.292H155.801V192.201H154.102V194.292H152.824V195.656H154.102V200.809C154.097 202.395 155.307 203.162 156.648 203.133C157.188 203.127 157.551 203.025 157.75 202.951L157.443 201.548C157.33 201.571 157.119 201.622 156.847 201.622C156.295 201.622 155.801 201.44 155.801 200.457V195.656H157.591V194.292ZM169.233 199.4C169.239 200.883 168.136 201.588 167.182 201.588C166.131 201.588 165.403 200.826 165.403 199.639V194.292H163.705V199.843C163.705 202.008 164.892 203.133 166.568 203.133C167.881 203.133 168.773 202.44 169.176 201.508H169.267V203.02H170.938V194.292H169.233V199.4ZM179.76 196.423C179.408 195.065 178.345 194.179 176.459 194.179C174.487 194.179 173.089 195.218 173.089 196.764C173.089 198.002 173.839 198.826 175.476 199.19L176.953 199.514C177.794 199.701 178.186 200.076 178.186 200.622C178.186 201.298 177.464 201.826 176.351 201.826C175.334 201.826 174.68 201.389 174.476 200.531L172.834 200.781C173.118 202.326 174.402 203.196 176.362 203.196C178.47 203.196 179.93 202.076 179.93 200.497C179.93 199.264 179.146 198.502 177.544 198.133L176.158 197.815C175.197 197.588 174.783 197.264 174.788 196.673C174.783 196.002 175.51 195.525 176.476 195.525C177.533 195.525 178.021 196.11 178.22 196.696L179.76 196.423Z" fill="#667085"/>
<path d="M214.278 203.02H216.034V197.946H221.835V203.02H223.597V191.383H221.835V196.44H216.034V191.383H214.278V203.02ZM229.693 203.196C232.153 203.196 233.761 201.395 233.761 198.696C233.761 195.98 232.153 194.179 229.693 194.179C227.233 194.179 225.625 195.98 225.625 198.696C225.625 201.395 227.233 203.196 229.693 203.196ZM229.699 201.77C228.091 201.77 227.341 200.366 227.341 198.69C227.341 197.02 228.091 195.599 229.699 195.599C231.295 195.599 232.045 197.02 232.045 198.69C232.045 200.366 231.295 201.77 229.699 201.77ZM237.284 203.02H239.011L240.784 196.718H240.915L242.688 203.02H244.42L246.983 194.292H245.227L243.528 200.673H243.443L241.739 194.292H239.983L238.267 200.701H238.182L236.472 194.292H234.716L237.284 203.02ZM252.83 203.02H254.528V194.292H252.83V203.02ZM253.688 192.946C254.273 192.946 254.761 192.491 254.761 191.934C254.761 191.377 254.273 190.917 253.688 190.917C253.097 190.917 252.614 191.377 252.614 191.934C252.614 192.491 253.097 192.946 253.688 192.946ZM260.888 194.292H259.098V192.201H257.399V194.292H256.121V195.656H257.399V200.809C257.393 202.395 258.604 203.162 259.945 203.133C260.484 203.127 260.848 203.025 261.047 202.951L260.74 201.548C260.626 201.571 260.416 201.622 260.143 201.622C259.592 201.622 259.098 201.44 259.098 200.457V195.656H260.888V194.292ZM268.893 203.02H270.621L272.393 196.718H272.524L274.297 203.02H276.03L278.592 194.292H276.837L275.138 200.673H275.053L273.348 194.292H271.592L269.876 200.701H269.791L268.081 194.292H266.325L268.893 203.02ZM283.615 203.196C286.075 203.196 287.683 201.395 287.683 198.696C287.683 195.98 286.075 194.179 283.615 194.179C281.155 194.179 279.547 195.98 279.547 198.696C279.547 201.395 281.155 203.196 283.615 203.196ZM283.621 201.77C282.013 201.77 281.263 200.366 281.263 198.69C281.263 197.02 282.013 195.599 283.621 195.599C285.217 195.599 285.967 197.02 285.967 198.69C285.967 200.366 285.217 201.77 283.621 201.77ZM289.58 203.02H291.278V197.69C291.278 196.548 292.159 195.724 293.364 195.724C293.716 195.724 294.114 195.787 294.25 195.826V194.201C294.08 194.179 293.744 194.162 293.528 194.162C292.506 194.162 291.631 194.741 291.312 195.679H291.222V194.292H289.58V203.02ZM295.72 203.02H297.419V199.923L298.266 199.076L301.232 203.02H303.317L299.544 198.037L303.078 194.292H301.044L297.567 197.985H297.419V191.383H295.72V203.02ZM311.166 196.423C310.814 195.065 309.751 194.179 307.865 194.179C305.893 194.179 304.496 195.218 304.496 196.764C304.496 198.002 305.246 198.826 306.882 199.19L308.359 199.514C309.2 199.701 309.592 200.076 309.592 200.622C309.592 201.298 308.871 201.826 307.757 201.826C306.74 201.826 306.087 201.389 305.882 200.531L304.24 200.781C304.524 202.326 305.808 203.196 307.768 203.196C309.876 203.196 311.337 202.076 311.337 200.497C311.337 199.264 310.553 198.502 308.95 198.133L307.564 197.815C306.604 197.588 306.189 197.264 306.195 196.673C306.189 196.002 306.916 195.525 307.882 195.525C308.939 195.525 309.428 196.11 309.626 196.696L311.166 196.423Z" fill="#667085"/>
<path d="M346.278 203.02H348.034V197.946H353.835V203.02H355.597V191.383H353.835V196.44H348.034V191.383H346.278V203.02ZM361.778 203.196C363.682 203.196 365.028 202.258 365.415 200.838L363.807 200.548C363.5 201.372 362.761 201.792 361.795 201.792C360.341 201.792 359.364 200.849 359.318 199.167H365.523V198.565C365.523 195.412 363.636 194.179 361.659 194.179C359.227 194.179 357.625 196.031 357.625 198.713C357.625 201.423 359.205 203.196 361.778 203.196ZM359.324 197.895C359.392 196.656 360.29 195.582 361.67 195.582C362.989 195.582 363.852 196.559 363.858 197.895H359.324ZM369.107 191.383H367.408V203.02H369.107V191.383ZM371.392 206.292H373.091V201.662H373.193C373.5 202.218 374.125 203.19 375.716 203.19C377.83 203.19 379.364 201.497 379.364 198.673C379.364 195.843 377.807 194.179 375.699 194.179C374.08 194.179 373.494 195.167 373.193 195.707H373.051V194.292H371.392V206.292ZM373.057 198.656C373.057 196.832 373.852 195.622 375.335 195.622C376.875 195.622 377.648 196.923 377.648 198.656C377.648 200.406 376.852 201.741 375.335 201.741C373.875 201.741 373.057 200.491 373.057 198.656Z" fill="#667085"/>
<path d="M414.278 203.02H416.034V198.929H418.42C421.119 198.929 422.455 197.298 422.455 195.15C422.455 193.008 421.131 191.383 418.426 191.383H414.278V203.02ZM416.034 197.44V192.889H418.239C419.977 192.889 420.688 193.832 420.688 195.15C420.688 196.468 419.977 197.44 418.261 197.44H416.034ZM424.376 203.02H426.075V197.69C426.075 196.548 426.956 195.724 428.161 195.724C428.513 195.724 428.911 195.787 429.047 195.826V194.201C428.876 194.179 428.541 194.162 428.325 194.162C427.303 194.162 426.428 194.741 426.109 195.679H426.018V194.292H424.376V203.02ZM430.517 203.02H432.216V194.292H430.517V203.02ZM431.375 192.946C431.96 192.946 432.449 192.491 432.449 191.934C432.449 191.377 431.96 190.917 431.375 190.917C430.784 190.917 430.301 191.377 430.301 191.934C430.301 192.491 430.784 192.946 431.375 192.946ZM441.967 194.292H440.143L437.939 201.008H437.848L435.638 194.292H433.814L436.984 203.02H438.803L441.967 194.292ZM445.838 203.213C447.281 203.213 448.094 202.48 448.418 201.826H448.486V203.02H450.145V197.224C450.145 194.684 448.145 194.179 446.759 194.179C445.179 194.179 443.724 194.815 443.156 196.406L444.753 196.77C445.003 196.15 445.639 195.554 446.781 195.554C447.878 195.554 448.44 196.127 448.44 197.116V197.156C448.44 197.775 447.804 197.764 446.236 197.946C444.582 198.139 442.889 198.571 442.889 200.554C442.889 202.27 444.179 203.213 445.838 203.213ZM446.207 201.849C445.247 201.849 444.554 201.417 444.554 200.576C444.554 199.667 445.361 199.343 446.344 199.213C446.895 199.139 448.202 198.991 448.446 198.747V199.872C448.446 200.906 447.622 201.849 446.207 201.849ZM456.084 203.196C458.146 203.196 459.482 201.957 459.669 200.258H458.016C457.8 201.201 457.067 201.758 456.095 201.758C454.658 201.758 453.732 200.559 453.732 198.656C453.732 196.787 454.675 195.61 456.095 195.61C457.175 195.61 457.834 196.292 458.016 197.11H459.669C459.487 195.349 458.05 194.179 456.067 194.179C453.607 194.179 452.016 196.031 452.016 198.696C452.016 201.326 453.55 203.196 456.084 203.196ZM462.56 206.292C463.963 206.292 464.849 205.559 465.355 204.184L468.963 194.309L467.128 194.292L464.918 201.065H464.827L462.616 194.292H460.798L463.991 203.133L463.781 203.713C463.349 204.872 462.741 204.968 461.81 204.713L461.401 206.105C461.605 206.196 462.048 206.292 462.56 206.292Z" fill="#667085"/>
<path d="M502.705 192.895H506.33V203.02H508.08V192.895H511.71V191.383H502.705V192.895ZM516.06 203.196C517.963 203.196 519.31 202.258 519.696 200.838L518.088 200.548C517.781 201.372 517.043 201.792 516.077 201.792C514.622 201.792 513.645 200.849 513.599 199.167H519.804V198.565C519.804 195.412 517.918 194.179 515.94 194.179C513.509 194.179 511.906 196.031 511.906 198.713C511.906 201.423 513.486 203.196 516.06 203.196ZM513.605 197.895C513.673 196.656 514.571 195.582 515.952 195.582C517.27 195.582 518.134 196.559 518.139 197.895H513.605ZM521.689 203.02H523.388V197.69C523.388 196.548 524.268 195.724 525.473 195.724C525.825 195.724 526.223 195.787 526.359 195.826V194.201C526.189 194.179 525.854 194.162 525.638 194.162C524.615 194.162 523.74 194.741 523.422 195.679H523.331V194.292H521.689V203.02ZM527.83 203.02H529.528V197.639C529.528 196.463 530.352 195.645 531.318 195.645C532.261 195.645 532.915 196.27 532.915 197.218V203.02H534.608V197.457C534.608 196.406 535.25 195.645 536.358 195.645C537.256 195.645 537.994 196.145 537.994 197.326V203.02H539.693V197.167C539.693 195.173 538.58 194.179 537 194.179C535.744 194.179 534.801 194.781 534.381 195.713H534.29C533.909 194.758 533.108 194.179 531.943 194.179C530.79 194.179 529.932 194.752 529.568 195.713H529.46V194.292H527.83V203.02ZM548.51 196.423C548.158 195.065 547.095 194.179 545.209 194.179C543.237 194.179 541.839 195.218 541.839 196.764C541.839 198.002 542.589 198.826 544.226 199.19L545.703 199.514C546.544 199.701 546.936 200.076 546.936 200.622C546.936 201.298 546.214 201.826 545.101 201.826C544.084 201.826 543.43 201.389 543.226 200.531L541.584 200.781C541.868 202.326 543.152 203.196 545.112 203.196C547.22 203.196 548.68 202.076 548.68 200.497C548.68 199.264 547.896 198.502 546.294 198.133L544.908 197.815C543.947 197.588 543.533 197.264 543.538 196.673C543.533 196.002 544.26 195.525 545.226 195.525C546.283 195.525 546.771 196.11 546.97 196.696L548.51 196.423ZM557.322 203.213C558.766 203.213 559.578 202.48 559.902 201.826H559.97V203.02H561.629V197.224C561.629 194.684 559.629 194.179 558.243 194.179C556.663 194.179 555.209 194.815 554.641 196.406L556.237 196.77C556.487 196.15 557.124 195.554 558.266 195.554C559.362 195.554 559.925 196.127 559.925 197.116V197.156C559.925 197.775 559.288 197.764 557.72 197.946C556.067 198.139 554.374 198.571 554.374 200.554C554.374 202.27 555.663 203.213 557.322 203.213ZM557.692 201.849C556.732 201.849 556.038 201.417 556.038 200.576C556.038 199.667 556.845 199.343 557.828 199.213C558.379 199.139 559.686 198.991 559.93 198.747V199.872C559.93 200.906 559.107 201.849 557.692 201.849ZM565.591 197.838C565.591 196.446 566.443 195.65 567.625 195.65C568.778 195.65 569.477 196.406 569.477 197.673V203.02H571.176V197.468C571.176 195.309 569.989 194.179 568.205 194.179C566.892 194.179 566.034 194.787 565.631 195.713H565.523V194.292H563.892V203.02H565.591V197.838ZM576.722 203.19C578.312 203.19 578.938 202.218 579.244 201.662H579.386V203.02H581.045V191.383H579.347V195.707H579.244C578.938 195.167 578.358 194.179 576.733 194.179C574.625 194.179 573.074 195.843 573.074 198.673C573.074 201.497 574.602 203.19 576.722 203.19ZM577.097 201.741C575.58 201.741 574.79 200.406 574.79 198.656C574.79 196.923 575.562 195.622 577.097 195.622C578.58 195.622 579.375 196.832 579.375 198.656C579.375 200.491 578.562 201.741 577.097 201.741ZM591.381 203.196C593.443 203.196 594.778 201.957 594.966 200.258H593.312C593.097 201.201 592.364 201.758 591.392 201.758C589.955 201.758 589.028 200.559 589.028 198.656C589.028 196.787 589.972 195.61 591.392 195.61C592.472 195.61 593.131 196.292 593.312 197.11H594.966C594.784 195.349 593.347 194.179 591.364 194.179C588.903 194.179 587.312 196.031 587.312 198.696C587.312 201.326 588.847 203.196 591.381 203.196ZM600.459 203.196C602.919 203.196 604.527 201.395 604.527 198.696C604.527 195.98 602.919 194.179 600.459 194.179C597.999 194.179 596.391 195.98 596.391 198.696C596.391 201.395 597.999 203.196 600.459 203.196ZM600.464 201.77C598.857 201.77 598.107 200.366 598.107 198.69C598.107 197.02 598.857 195.599 600.464 195.599C602.061 195.599 602.811 197.02 602.811 198.69C602.811 200.366 602.061 201.77 600.464 201.77ZM608.122 197.838C608.122 196.446 608.974 195.65 610.156 195.65C611.31 195.65 612.009 196.406 612.009 197.673V203.02H613.707V197.468C613.707 195.309 612.52 194.179 610.736 194.179C609.423 194.179 608.565 194.787 608.162 195.713H608.054V194.292H606.423V203.02H608.122V197.838ZM619.253 203.19C620.844 203.19 621.469 202.218 621.776 201.662H621.918V203.02H623.577V191.383H621.878V195.707H621.776C621.469 195.167 620.889 194.179 619.264 194.179C617.156 194.179 615.605 195.843 615.605 198.673C615.605 201.497 617.134 203.19 619.253 203.19ZM619.628 201.741C618.111 201.741 617.321 200.406 617.321 198.656C617.321 196.923 618.094 195.622 619.628 195.622C621.111 195.622 621.906 196.832 621.906 198.656C621.906 200.491 621.094 201.741 619.628 201.741ZM626.001 203.02H627.7V194.292H626.001V203.02ZM626.859 192.946C627.445 192.946 627.933 192.491 627.933 191.934C627.933 191.377 627.445 190.917 626.859 190.917C626.268 190.917 625.786 191.377 625.786 191.934C625.786 192.491 626.268 192.946 626.859 192.946ZM634.06 194.292H632.27V192.201H630.571V194.292H629.293V195.656H630.571V200.809C630.565 202.395 631.776 203.162 633.116 203.133C633.656 203.127 634.02 203.025 634.219 202.951L633.912 201.548C633.798 201.571 633.588 201.622 633.315 201.622C632.764 201.622 632.27 201.44 632.27 200.457V195.656H634.06V194.292ZM635.939 203.02H637.638V194.292H635.939V203.02ZM636.797 192.946C637.382 192.946 637.871 192.491 637.871 191.934C637.871 191.377 637.382 190.917 636.797 190.917C636.206 190.917 635.723 191.377 635.723 191.934C635.723 192.491 636.206 192.946 636.797 192.946ZM643.599 203.196C646.06 203.196 647.668 201.395 647.668 198.696C647.668 195.98 646.06 194.179 643.599 194.179C641.139 194.179 639.531 195.98 639.531 198.696C639.531 201.395 641.139 203.196 643.599 203.196ZM643.605 201.77C641.997 201.77 641.247 200.366 641.247 198.69C641.247 197.02 641.997 195.599 643.605 195.599C645.202 195.599 645.952 197.02 645.952 198.69C645.952 200.366 645.202 201.77 643.605 201.77ZM651.263 197.838C651.263 196.446 652.115 195.65 653.297 195.65C654.45 195.65 655.149 196.406 655.149 197.673V203.02H656.848V197.468C656.848 195.309 655.661 194.179 653.876 194.179C652.564 194.179 651.706 194.787 651.303 195.713H651.195V194.292H649.564V203.02H651.263V197.838ZM665.666 196.423C665.314 195.065 664.251 194.179 662.365 194.179C660.393 194.179 658.996 195.218 658.996 196.764C658.996 198.002 659.746 198.826 661.382 199.19L662.859 199.514C663.7 199.701 664.092 200.076 664.092 200.622C664.092 201.298 663.371 201.826 662.257 201.826C661.24 201.826 660.587 201.389 660.382 200.531L658.74 200.781C659.024 202.326 660.308 203.196 662.268 203.196C664.376 203.196 665.837 202.076 665.837 200.497C665.837 199.264 665.053 198.502 663.45 198.133L662.064 197.815C661.104 197.588 660.689 197.264 660.695 196.673C660.689 196.002 661.416 195.525 662.382 195.525C663.439 195.525 663.928 196.11 664.126 196.696L665.666 196.423Z" fill="#667085"/>
<rect x="112" y="273.02" width="1216" height="1" fill="#E4E7EC"/>
<path d="M119.318 324.201C122.642 324.201 125.33 321.514 125.318 318.201C125.307 314.889 122.642 312.201 119.318 312.201C116.017 312.201 113.33 314.889 113.318 318.201C113.307 321.514 116.017 324.201 119.318 324.201ZM119.318 322.883C116.733 322.883 114.625 320.775 114.636 318.207C114.648 315.622 116.744 313.52 119.318 313.52C121.903 313.52 123.989 315.61 124 318.207C124.011 320.787 121.915 322.883 119.318 322.883ZM116 318.201C116 320.065 117.511 321.576 119.375 321.576C120.989 321.576 122.227 320.44 122.443 318.929H121.068C120.909 319.707 120.25 320.258 119.375 320.258C118.239 320.258 117.318 319.338 117.318 318.201C117.318 317.065 118.239 316.145 119.375 316.145C120.25 316.145 121.028 316.696 121.182 317.474H122.557C122.341 315.963 120.989 314.826 119.375 314.826C117.511 314.826 116 316.338 116 318.201ZM132.345 324.02H139.686V322.77H134.277V322.679L136.891 319.883C138.891 317.741 139.482 316.741 139.482 315.451C139.482 313.656 138.027 312.224 135.982 312.224C133.942 312.224 132.391 313.61 132.391 315.656H133.732C133.732 314.332 134.589 313.451 135.936 313.451C137.197 313.451 138.163 314.224 138.163 315.451C138.163 316.525 137.533 317.321 136.186 318.792L132.345 322.997V324.02ZM145.828 324.179C148.396 324.179 149.874 322.002 149.874 318.201C149.874 314.429 148.374 312.224 145.828 312.224C143.283 312.224 141.783 314.429 141.783 318.201C141.783 322.002 143.26 324.179 145.828 324.179ZM145.828 322.929C144.135 322.929 143.146 321.23 143.146 318.201C143.146 315.179 144.146 313.451 145.828 313.451C147.51 313.451 148.51 315.179 148.51 318.201C148.51 321.23 147.521 322.929 145.828 322.929ZM152.033 324.02H159.374V322.77H153.964V322.679L156.578 319.883C158.578 317.741 159.169 316.741 159.169 315.451C159.169 313.656 157.714 312.224 155.669 312.224C153.629 312.224 152.078 313.61 152.078 315.656H153.419C153.419 314.332 154.277 313.451 155.624 313.451C156.885 313.451 157.851 314.224 157.851 315.451C157.851 316.525 157.22 317.321 155.874 318.792L152.033 322.997V324.02ZM165.811 312.383H164.402L161.493 314.315V315.747L164.334 313.86H164.402V324.02H165.811V312.383ZM173.862 324.02H175.271V319.474H177.817C177.919 319.474 178.016 319.474 178.112 319.468L180.567 324.02H182.203L179.572 319.213C181.055 318.707 181.749 317.497 181.749 315.951C181.749 313.895 180.521 312.383 177.794 312.383H173.862V324.02ZM175.271 318.201V313.633H177.749C179.635 313.633 180.362 314.554 180.362 315.951C180.362 317.349 179.635 318.201 177.771 318.201H175.271ZM185.256 318.77C185.256 317.247 186.227 316.383 187.551 316.383C188.812 316.383 189.574 317.179 189.574 318.565V324.02H190.915V318.474C190.915 316.23 189.722 315.179 187.938 315.179C186.562 315.179 185.778 315.752 185.369 316.656H185.256V312.383H183.915V324.02H185.256V318.77ZM193.368 324.02H194.709V315.292H193.368V324.02ZM194.05 313.838C194.572 313.838 195.004 313.429 195.004 312.929C195.004 312.429 194.572 312.02 194.05 312.02C193.527 312.02 193.095 312.429 193.095 312.929C193.095 313.429 193.527 313.838 194.05 313.838ZM196.915 324.02H203.756V322.77H198.778V322.679L203.597 316.36V315.292H197.074V316.542H201.869V316.633L196.915 322.997V324.02ZM209.116 324.201C211.48 324.201 213.071 322.406 213.071 319.701C213.071 316.974 211.48 315.179 209.116 315.179C206.753 315.179 205.162 316.974 205.162 319.701C205.162 322.406 206.753 324.201 209.116 324.201ZM209.116 322.997C207.321 322.997 206.503 321.451 206.503 319.701C206.503 317.951 207.321 316.383 209.116 316.383C210.912 316.383 211.73 317.951 211.73 319.701C211.73 321.451 210.912 322.997 209.116 322.997ZM221.209 312.383H219.8V324.02H221.209V312.383ZM225.193 318.77C225.193 317.247 226.136 316.383 227.42 316.383C228.665 316.383 229.42 317.196 229.42 318.565V324.02H230.761V318.474C230.761 316.247 229.574 315.179 227.807 315.179C226.489 315.179 225.67 315.77 225.261 316.656H225.148V315.292H223.852V324.02H225.193V318.77ZM236.757 324.201C238.689 324.201 239.962 323.02 240.189 321.474H238.848C238.598 322.429 237.803 322.997 236.757 322.997C235.166 322.997 234.143 321.679 234.143 319.656C234.143 317.679 235.189 316.383 236.757 316.383C237.939 316.383 238.643 317.11 238.848 317.906H240.189C239.962 316.27 238.575 315.179 236.734 315.179C234.371 315.179 232.803 317.042 232.803 319.701C232.803 322.315 234.303 324.201 236.757 324.201ZM243.126 324.11C243.689 324.11 244.149 323.65 244.149 323.088C244.149 322.525 243.689 322.065 243.126 322.065C242.564 322.065 242.104 322.525 242.104 323.088C242.104 323.65 242.564 324.11 243.126 324.11ZM251.714 324.02L252.885 320.724H257.589L258.76 324.02H260.237L255.964 312.383H254.51L250.237 324.02H251.714ZM253.328 319.474L255.192 314.224H255.283L257.146 319.474H253.328ZM263.209 312.383H261.868V324.02H263.209V312.383ZM267.006 312.383H265.665V324.02H267.006V312.383ZM273.962 324.02H275.303V318.497C275.303 317.315 276.234 316.451 277.507 316.451C277.865 316.451 278.234 316.52 278.325 316.542V315.179C278.172 315.167 277.82 315.156 277.621 315.156C276.575 315.156 275.666 315.747 275.348 316.61H275.257V315.292H273.962V324.02ZM279.915 324.02H281.256V315.292H279.915V324.02ZM280.597 313.838C281.119 313.838 281.551 313.429 281.551 312.929C281.551 312.429 281.119 312.02 280.597 312.02C280.074 312.02 279.642 312.429 279.642 312.929C279.642 313.429 280.074 313.838 280.597 313.838ZM287.234 327.474C289.325 327.474 291.007 326.52 291.007 324.27V315.292H289.712V316.679H289.575C289.28 316.224 288.734 315.179 287.03 315.179C284.825 315.179 283.303 316.929 283.303 319.61C283.303 322.338 284.893 323.883 287.007 323.883C288.712 323.883 289.257 322.883 289.553 322.406H289.666V324.179C289.666 325.633 288.643 326.292 287.234 326.292C285.649 326.292 285.092 325.457 284.734 324.974L283.666 325.724C284.212 326.639 285.286 327.474 287.234 327.474ZM287.189 322.679C285.507 322.679 284.643 321.406 284.643 319.588C284.643 317.815 285.484 316.383 287.189 316.383C288.825 316.383 289.689 317.701 289.689 319.588C289.689 321.52 288.803 322.679 287.189 322.679ZM294.803 318.77C294.803 317.247 295.774 316.383 297.098 316.383C298.359 316.383 299.121 317.179 299.121 318.565V324.02H300.462V318.474C300.462 316.23 299.268 315.179 297.484 315.179C296.109 315.179 295.325 315.752 294.916 316.656H294.803V312.383H293.462V324.02H294.803V318.77ZM306.71 315.292H304.847V313.201H303.506V315.292H302.188V316.429H303.506V321.883C303.506 323.406 304.733 324.133 305.869 324.133C306.369 324.133 306.688 324.042 306.869 323.974L306.597 322.77C306.483 322.792 306.301 322.838 306.006 322.838C305.415 322.838 304.847 322.656 304.847 321.52V316.429H306.71V315.292ZM314.753 317.247C314.332 316.008 313.389 315.179 311.662 315.179C309.821 315.179 308.457 316.224 308.457 317.701C308.457 318.906 309.173 319.713 310.776 320.088L312.23 320.429C313.111 320.633 313.526 321.054 313.526 321.656C313.526 322.406 312.73 323.02 311.48 323.02C310.384 323.02 309.696 322.548 309.457 321.61L308.185 321.929C308.497 323.412 309.719 324.201 311.503 324.201C313.531 324.201 314.912 323.093 314.912 321.588C314.912 320.372 314.151 319.605 312.594 319.224L311.298 318.906C310.264 318.65 309.798 318.304 309.798 317.633C309.798 316.883 310.594 316.338 311.662 316.338C312.832 316.338 313.315 316.985 313.548 317.588L314.753 317.247ZM321.43 324.02H322.771V318.497C322.771 317.315 323.703 316.451 324.976 316.451C325.334 316.451 325.703 316.52 325.794 316.542V315.179C325.641 315.167 325.288 315.156 325.089 315.156C324.044 315.156 323.135 315.747 322.817 316.61H322.726V315.292H321.43V324.02ZM330.777 324.201C332.55 324.201 333.845 323.315 334.254 321.997L332.959 321.633C332.618 322.542 331.828 322.997 330.777 322.997C329.203 322.997 328.118 321.98 328.055 320.11H334.391V319.542C334.391 316.292 332.459 315.179 330.641 315.179C328.277 315.179 326.709 317.042 326.709 319.724C326.709 322.406 328.254 324.201 330.777 324.201ZM328.055 318.951C328.146 317.593 329.107 316.383 330.641 316.383C332.095 316.383 333.027 317.474 333.027 318.951H328.055ZM342.612 317.247C342.192 316.008 341.249 315.179 339.521 315.179C337.68 315.179 336.317 316.224 336.317 317.701C336.317 318.906 337.033 319.713 338.635 320.088L340.089 320.429C340.97 320.633 341.385 321.054 341.385 321.656C341.385 322.406 340.589 323.02 339.339 323.02C338.243 323.02 337.555 322.548 337.317 321.61L336.044 321.929C336.357 323.412 337.578 324.201 339.362 324.201C341.391 324.201 342.771 323.093 342.771 321.588C342.771 320.372 342.01 319.605 340.453 319.224L339.158 318.906C338.124 318.65 337.658 318.304 337.658 317.633C337.658 316.883 338.453 316.338 339.521 316.338C340.692 316.338 341.175 316.985 341.408 317.588L342.612 317.247ZM348.449 324.201C350.222 324.201 351.517 323.315 351.926 321.997L350.631 321.633C350.29 322.542 349.5 322.997 348.449 322.997C346.875 322.997 345.79 321.98 345.727 320.11H352.062V319.542C352.062 316.292 350.131 315.179 348.312 315.179C345.949 315.179 344.381 317.042 344.381 319.724C344.381 322.406 345.926 324.201 348.449 324.201ZM345.727 318.951C345.818 317.593 346.778 316.383 348.312 316.383C349.767 316.383 350.699 317.474 350.699 318.951H345.727ZM354.102 324.02H355.443V318.497C355.443 317.315 356.375 316.451 357.648 316.451C358.006 316.451 358.375 316.52 358.466 316.542V315.179C358.312 315.167 357.96 315.156 357.761 315.156C356.716 315.156 355.807 315.747 355.489 316.61H355.398V315.292H354.102V324.02ZM367.457 315.292H366.003L363.594 322.247H363.503L361.094 315.292H359.639L362.866 324.02H364.23L367.457 315.292ZM372.574 324.201C374.347 324.201 375.642 323.315 376.051 321.997L374.756 321.633C374.415 322.542 373.625 322.997 372.574 322.997C371 322.997 369.915 321.98 369.852 320.11H376.188V319.542C376.188 316.292 374.256 315.179 372.438 315.179C370.074 315.179 368.506 317.042 368.506 319.724C368.506 322.406 370.051 324.201 372.574 324.201ZM369.852 318.951C369.943 317.593 370.903 316.383 372.438 316.383C373.892 316.383 374.824 317.474 374.824 318.951H369.852ZM381.523 324.201C383.205 324.201 383.773 323.156 384.068 322.679H384.227V324.02H385.523V312.383H384.182V316.679H384.068C383.773 316.224 383.25 315.179 381.545 315.179C379.341 315.179 377.818 316.929 377.818 319.679C377.818 322.451 379.341 324.201 381.523 324.201ZM381.705 322.997C380.023 322.997 379.159 321.52 379.159 319.656C379.159 317.815 380 316.383 381.705 316.383C383.341 316.383 384.205 317.701 384.205 319.656C384.205 321.633 383.318 322.997 381.705 322.997ZM389.142 324.11C389.705 324.11 390.165 323.65 390.165 323.088C390.165 322.525 389.705 322.065 389.142 322.065C388.58 322.065 388.119 322.525 388.119 323.088C388.119 323.65 388.58 324.11 389.142 324.11Z" fill="#98A2B3"/>
<path d="M1215.55 327.77C1224.6 327.77 1229.56 320.266 1229.56 313.762C1229.56 313.551 1229.55 313.335 1229.54 313.124C1230.51 312.427 1231.34 311.564 1232 310.575C1231.1 310.974 1230.15 311.235 1229.17 311.349C1230.2 310.733 1230.97 309.765 1231.34 308.626C1230.37 309.198 1229.32 309.602 1228.21 309.82C1227.47 309.031 1226.49 308.509 1225.42 308.334C1224.35 308.159 1223.25 308.341 1222.3 308.852C1221.34 309.363 1220.58 310.174 1220.13 311.161C1219.69 312.148 1219.58 313.254 1219.82 314.31C1217.86 314.212 1215.95 313.703 1214.2 312.818C1212.45 311.932 1210.91 310.689 1209.67 309.169C1209.04 310.253 1208.85 311.535 1209.14 312.756C1209.42 313.976 1210.16 315.043 1211.2 315.74C1210.41 315.715 1209.65 315.504 1208.97 315.126V315.187C1208.96 316.324 1209.36 317.426 1210.08 318.307C1210.8 319.187 1211.8 319.79 1212.92 320.015C1212.19 320.213 1211.43 320.242 1210.69 320.099C1211.01 321.077 1211.62 321.933 1212.45 322.546C1213.27 323.16 1214.27 323.5 1215.29 323.521C1213.55 324.891 1211.39 325.634 1209.18 325.63C1208.78 325.63 1208.39 325.606 1208 325.558C1210.25 327.004 1212.87 327.771 1215.55 327.77Z" fill="#5EC69D"/>
<g clip-path="url(#clip0_2_39765)">
<path d="M1278.22 306.02H1257.77C1256.79 306.02 1256 306.793 1256 307.749V328.285C1256 329.241 1256.79 330.02 1257.77 330.02H1278.22C1279.2 330.02 1280 329.241 1280 328.29V307.749C1280 306.793 1279.2 306.02 1278.22 306.02ZM1263.12 326.471H1259.56V315.015H1263.12V326.471ZM1261.34 313.454C1260.2 313.454 1259.27 312.53 1259.27 311.391C1259.27 310.252 1260.2 309.329 1261.34 309.329C1262.48 309.329 1263.4 310.252 1263.4 311.391C1263.4 312.526 1262.48 313.454 1261.34 313.454ZM1276.45 326.471H1272.89V320.902C1272.89 319.576 1272.87 317.865 1271.04 317.865C1269.19 317.865 1268.91 319.313 1268.91 320.809V326.471H1265.36V315.015H1268.77V316.58H1268.82C1269.29 315.68 1270.45 314.729 1272.18 314.729C1275.79 314.729 1276.45 317.101 1276.45 320.185V326.471V326.471Z" fill="#5EC69D"/>
</g>
<g clip-path="url(#clip1_2_39765)">
<path d="M1328 318.02C1328 311.392 1322.63 306.02 1316 306.02C1309.37 306.02 1304 311.392 1304 318.02C1304 324.009 1308.39 328.974 1314.12 329.874V321.488H1311.08V318.02H1314.12V315.376C1314.12 312.368 1315.92 310.707 1318.66 310.707C1319.97 310.707 1321.34 310.941 1321.34 310.941V313.895H1319.83C1318.34 313.895 1317.88 314.82 1317.88 315.77V318.02H1321.2L1320.67 321.488H1317.88V329.874C1323.61 328.974 1328 324.009 1328 318.02Z" fill="#5EC69D"/>
</g>
<defs>
<clipPath id="clip0_2_39765">
<rect width="24" height="24" fill="white" transform="translate(1256 306.02)"/>
</clipPath>
<clipPath id="clip1_2_39765">
<rect width="24" height="24" fill="white" transform="translate(1304 306.02)"/>
</clipPath>
</defs>
</svg>
