<svg width="33" height="40" viewBox="0 0 33 40" fill="none" xmlns="http://www.w3.org/2000/svg">
<path d="M32.1178 12.0201C31.8815 11.1272 31.5745 10.2547 31.1999 9.41085C30.8202 8.55979 30.3653 7.74462 29.8408 6.97512C28.7769 5.41726 27.42 4.08354 25.8465 3.04907C24.2724 2.02641 22.5278 1.29705 20.6962 0.89594C18.8721 0.494598 16.9947 0.397518 15.1392 0.608586C13.2854 0.815989 11.4748 1.31072 9.7717 2.07518C8.05418 2.84333 6.47093 3.8843 5.08273 5.15814C3.67038 6.45008 2.50466 7.99027 1.64289 9.70295C1.42503 10.1326 1.23348 10.5765 1.05879 11.0272C0.883873 11.4784 0.732141 11.9382 0.604192 12.405C0.536745 12.6375 0.482112 12.8733 0.42613 13.1092C0.370148 13.345 0.323609 13.5836 0.283815 13.8167C0.198831 14.2837 0.131383 14.7547 0.0855183 15.2291C-0.108586 17.1434 0.0283279 19.077 0.490205 20.9443C0.956012 22.8338 1.76004 24.6223 2.86302 26.2225C3.984 27.8548 5.42291 29.2416 7.09267 30.299C7.75096 30.7117 9.28338 31.4131 9.33666 31.4355C10.0895 31.7439 10.8771 31.9586 11.6818 32.0746C11.7823 32.0888 11.8842 32.1024 11.984 32.1146L12.0514 32.1241L12.1088 32.1281C12.7481 32.1997 13.3921 32.218 14.0344 32.183C14.8391 32.1414 15.6366 32.0094 16.4119 31.7893C16.8129 31.6763 17.2057 31.5359 17.5876 31.3691C17.9797 31.1998 18.3593 31.0026 18.7234 30.7788C19.094 30.5488 19.4467 30.2907 19.7783 30.0069C20.1114 29.7193 20.421 29.4054 20.7043 29.0682C21.2596 28.4017 21.7083 27.6524 22.0344 26.8473C22.1904 26.4614 22.3213 26.0656 22.4263 25.6627C22.4762 25.4648 22.5234 25.2669 22.5612 25.069C22.5834 24.9687 22.5969 24.8765 22.6138 24.7809C22.6306 24.6854 22.6448 24.5912 22.659 24.4963C22.7728 23.7313 22.818 22.9577 22.7939 22.1846C22.7765 21.6821 22.728 21.1812 22.6488 20.6848C22.6421 20.5989 22.6297 20.5135 22.6117 20.4293C22.4064 19.5225 22.2559 18.6041 22.1612 17.6791C22.0684 16.7595 22.0497 15.8339 22.1052 14.9113C22.1605 13.9947 22.3226 13.0878 22.5881 12.2092C22.7232 11.7741 22.893 11.3507 23.096 10.9432C23.1973 10.7422 23.3088 10.5465 23.4299 10.357C23.4906 10.2641 23.8083 9.86018 23.8083 9.86018C24.0106 9.62027 24.0781 9.32885 23.8953 9.09029C23.8067 8.97584 23.6765 8.90141 23.5334 8.88336C23.3902 8.86532 23.2457 8.90513 23.1318 8.99405C22.9028 9.17166 22.6831 9.361 22.4735 9.56131C22.2835 9.75539 22.1035 9.95897 21.9339 10.1713C21.5978 10.5931 21.296 11.0414 21.0314 11.5118C20.5149 12.4549 20.1104 13.4558 19.8262 14.4938C19.7985 14.5914 19.7729 14.6896 19.7472 14.7872C19.5067 14.5311 19.2562 14.2877 18.9959 14.0573C17.9095 13.0998 16.6785 12.322 15.349 11.7531C14.08 11.2038 12.7518 10.8044 11.3911 10.563C11.2014 10.5254 11.0045 10.56 10.8389 10.6603C10.6732 10.7605 10.5506 10.9191 10.495 11.1052C10.4393 11.2913 10.4546 11.4916 10.5379 11.667C10.6211 11.8423 10.7663 11.9803 10.9453 12.054H10.9534C11.5388 12.3061 12.1121 12.5724 12.6672 12.8591C13.2223 13.1458 13.7585 13.4562 14.2671 13.7944C15.2849 14.4687 16.2035 15.2393 16.9441 16.1149C17.484 16.7447 17.9343 17.4468 18.2823 18.2009C17.7482 17.8937 17.1858 17.6392 16.6028 17.4412C15.7988 17.1663 14.9613 17.0031 14.1133 16.9559C13.2641 16.9039 12.4122 16.9986 11.5948 17.2358C10.7703 17.4745 10.0133 17.905 9.38523 18.4923C9.2882 18.5836 9.22901 18.7082 9.21951 18.8414C9.21 18.9746 9.25088 19.1065 9.33397 19.2107C9.41705 19.3149 9.53622 19.3838 9.66765 19.4035C9.79907 19.4232 9.93307 19.3924 10.0428 19.3171L10.0523 19.3104C10.6077 18.9446 11.2411 18.7154 11.901 18.6414C12.5647 18.5661 13.2363 18.6055 13.8867 18.758C15.1795 19.0509 16.3687 19.6919 17.3265 20.6123C17.7628 21.0318 18.1227 21.5247 18.3902 22.0687C18.6259 22.5486 18.7498 23.0761 18.7524 23.6112C18.7517 23.7178 18.7457 23.8244 18.7342 23.9304C18.7301 23.9453 18.7268 23.9609 18.7227 23.9758C18.7052 24.0436 18.6883 24.1113 18.6701 24.169C18.637 24.2923 18.5986 24.4116 18.5602 24.5302C18.4824 24.7585 18.3901 24.9815 18.2836 25.1977C18.0897 25.6012 17.8382 25.9741 17.537 26.3045C17.3913 26.4628 17.2334 26.6094 17.0648 26.7429C16.8947 26.8806 16.7143 27.005 16.5253 27.115C15.7584 27.5657 14.7898 27.8354 13.7599 27.9222C13.5022 27.9432 13.2405 27.954 12.9788 27.9547C12.7171 27.9554 12.4534 27.9445 12.1931 27.9222C11.9327 27.8998 11.6744 27.8714 11.4262 27.8273C11.178 27.7832 10.9379 27.7331 10.722 27.6762L10.6155 27.6484C10.5608 27.6341 9.5471 27.2194 9.11611 26.9659C7.86375 26.218 6.77508 25.2229 5.91571 24.0409C5.03372 22.8324 4.37758 21.4729 3.97928 20.0287C3.77681 19.3009 3.63846 18.5566 3.56583 17.8045C3.52941 17.4276 3.50647 17.0481 3.49838 16.6679C3.49029 16.2877 3.5031 15.9055 3.52806 15.5239C3.55301 15.1424 3.5955 14.7615 3.65014 14.3813C3.67577 14.1881 3.71219 14.0085 3.74524 13.8228C3.77829 13.6371 3.82078 13.4562 3.86799 13.2746C3.95699 12.9105 4.0646 12.5513 4.19039 12.1983C4.31652 11.8452 4.45479 11.4955 4.61599 11.1553C5.26475 9.77579 6.15896 8.52701 7.25455 7.47053C8.36838 6.39069 9.64807 5.49822 11.0444 4.82741C12.4517 4.14923 13.9549 3.69406 15.5007 3.47807C17.045 3.25917 18.6145 3.29695 20.1465 3.58989C21.6722 3.88133 23.1339 4.44359 24.4632 5.25031C25.7845 6.0636 26.931 7.1336 27.8356 8.39766C28.292 9.03724 28.6906 9.71654 29.0267 10.4274C29.3665 11.1458 29.6486 11.8903 29.8705 12.6538C30.3147 14.2047 30.5417 15.8103 30.545 17.4243C30.5544 19.0454 30.1119 21.3903 29.9474 22.2463C28.8419 26.3126 27.1611 27.6843 25.512 29.1983C24.7795 29.8083 24.1273 30.3437 23.3368 31.0356C22.9237 31.3972 22.5353 31.7862 22.174 32.2C21.8514 32.581 21.5497 32.9794 21.2702 33.3934C20.7124 34.2277 20.2524 35.1487 19.9954 36.1457C19.864 36.6465 19.7961 37.1621 19.7931 37.68C19.7896 38.2099 19.881 38.7361 20.0629 39.2334C20.1019 39.3333 20.1776 39.4144 20.2743 39.4601C20.371 39.5058 20.4814 39.5125 20.5829 39.4789C20.6843 39.4454 20.7692 39.3741 20.82 39.2796C20.8708 39.1852 20.8837 39.0748 20.8561 38.9711V38.965C20.7552 38.5594 20.7271 38.1389 20.7731 37.7234C20.819 37.2979 20.918 36.8798 21.0679 36.4791C21.368 35.6658 21.8401 34.9204 22.404 34.2426C22.6882 33.9011 22.9905 33.5753 23.3098 33.2667C23.5486 33.037 23.7988 32.8167 24.0518 32.6032C23.6531 33.3982 23.3186 34.2487 23.1904 35.1623C23.1241 35.6283 23.1348 36.102 23.2222 36.5645C23.3136 37.0243 23.4972 37.4605 23.7617 37.8468C23.7919 37.8934 23.839 37.9263 23.893 37.9386C23.947 37.9508 24.0036 37.9414 24.0508 37.9124C24.098 37.8833 24.1321 37.8369 24.1457 37.783C24.1594 37.7291 24.1516 37.672 24.1239 37.6238V37.6238C23.9338 37.2703 23.8177 36.8814 23.7826 36.4812C23.7537 36.0828 23.7899 35.6824 23.8899 35.2958C24.0922 34.5137 24.4787 33.7743 24.934 33.0803C25.8978 31.7527 27.2137 30.4786 27.8922 29.8774C29.2028 28.5708 31.0124 26.8453 31.9519 22.7959C32.2683 21.6499 32.7141 19.25 32.7471 17.4358C32.7889 15.6099 32.5771 13.7872 32.1178 12.0201V12.0201Z" fill="#5EC69D"/>
</svg>
