<svg width="1440" height="378" viewBox="0 0 1440 378" fill="none" xmlns="http://www.w3.org/2000/svg">
<rect width="1440" height="377.318" transform="translate(0 0.244629)" fill="#F9FAFB"/>
<path d="M156.733 80.2894C156.403 79.0458 155.976 77.8306 155.454 76.6554C154.925 75.47 154.292 74.3347 153.561 73.2629C152.079 71.0932 150.19 69.2357 147.998 67.7949C145.806 66.3706 143.376 65.3547 140.825 64.7961C138.284 64.2371 135.67 64.1019 133.085 64.3959C130.503 64.6847 127.982 65.3738 125.61 66.4385C123.218 67.5083 121.012 68.9582 119.079 70.7323C117.112 72.5317 115.488 74.6768 114.288 77.0622C113.985 77.6606 113.718 78.2789 113.475 78.9066C113.231 79.5349 113.02 80.1754 112.841 80.8255C112.748 81.1493 112.671 81.4778 112.593 81.8063C112.516 82.1347 112.451 82.467 112.395 82.7917C112.277 83.4421 112.183 84.0981 112.119 84.7588C111.849 87.4249 112.039 90.118 112.683 92.7188C113.332 95.3503 114.451 97.8413 115.988 100.07C117.549 102.343 119.553 104.275 121.878 105.748C122.795 106.322 124.93 107.299 125.004 107.33C126.052 107.76 127.149 108.059 128.27 108.221C128.41 108.24 128.552 108.259 128.691 108.276L128.785 108.29L128.865 108.295C129.755 108.395 130.652 108.42 131.547 108.372C132.667 108.314 133.778 108.13 134.858 107.823C135.416 107.666 135.963 107.47 136.495 107.238C137.042 107.002 137.57 106.728 138.077 106.416C138.593 106.096 139.085 105.736 139.546 105.341C140.01 104.94 140.442 104.503 140.836 104.033C141.61 103.105 142.235 102.062 142.689 100.94C142.906 100.403 143.088 99.8516 143.235 99.2903C143.304 99.0147 143.37 98.739 143.422 98.4634C143.453 98.3237 143.472 98.1953 143.496 98.0623C143.519 97.9292 143.539 97.798 143.559 97.6658C143.717 96.6004 143.78 95.5229 143.746 94.4461C143.722 93.7463 143.655 93.0487 143.545 92.3573C143.535 92.2376 143.518 92.1188 143.493 92.0014C143.207 90.7386 142.997 89.4594 142.865 88.171C142.736 86.8903 142.71 85.6011 142.787 84.3161C142.864 83.0396 143.09 81.7765 143.46 80.5527C143.648 79.9468 143.885 79.3571 144.167 78.7895C144.308 78.5096 144.464 78.2371 144.632 77.9731C144.717 77.8437 145.159 77.2812 145.159 77.2812C145.441 76.947 145.535 76.5411 145.281 76.2089C145.157 76.0495 144.976 75.9458 144.776 75.9207C144.577 75.8955 144.376 75.951 144.217 76.0748C143.898 76.3222 143.592 76.5859 143.3 76.8649C143.036 77.1352 142.785 77.4187 142.549 77.7144C142.081 78.3019 141.66 78.9263 141.292 79.5815C140.572 80.8951 140.009 82.289 139.613 83.7347C139.575 83.8706 139.539 84.0075 139.503 84.1434C139.168 83.7866 138.819 83.4477 138.457 83.1268C136.944 81.7932 135.229 80.71 133.377 79.9175C131.61 79.1525 129.76 78.5963 127.865 78.26C127.601 78.2076 127.327 78.2559 127.096 78.3955C126.865 78.5351 126.695 78.756 126.617 79.0152C126.54 79.2744 126.561 79.5533 126.677 79.7976C126.793 80.0418 126.995 80.234 127.244 80.3366H127.255C128.071 80.6877 128.869 81.0587 129.642 81.458C130.416 81.8572 131.162 82.2895 131.871 82.7606C133.288 83.6997 134.568 84.773 135.599 85.9925C136.351 86.8697 136.978 87.8475 137.463 88.8979C136.719 88.4699 135.936 88.1156 135.124 87.8397C134.004 87.4569 132.838 87.2295 131.657 87.1639C130.474 87.0915 129.287 87.2233 128.149 87.5537C127.001 87.8861 125.946 88.4857 125.071 89.3037C124.936 89.4308 124.854 89.6044 124.841 89.7899C124.827 89.9754 124.884 90.1591 125 90.3042C125.116 90.4494 125.282 90.5453 125.465 90.5727C125.648 90.6002 125.834 90.5573 125.987 90.4525L126 90.443C126.774 89.9336 127.656 89.6144 128.575 89.5114C129.5 89.4064 130.435 89.4613 131.341 89.6737C133.142 90.0817 134.798 90.9745 136.132 92.2563C136.739 92.8406 137.241 93.5271 137.613 94.2847C137.942 94.9531 138.114 95.6878 138.118 96.4331C138.117 96.5816 138.108 96.73 138.092 96.8777C138.087 96.8984 138.082 96.9201 138.076 96.9409C138.052 97.0353 138.028 97.1297 138.003 97.2099C137.957 97.3817 137.903 97.5478 137.85 97.713C137.742 98.031 137.613 98.3415 137.465 98.6428C137.195 99.2047 136.844 99.724 136.425 100.184C136.222 100.405 136.002 100.609 135.767 100.795C135.53 100.987 135.279 101.16 135.016 101.313C133.948 101.941 132.599 102.316 131.164 102.437C130.805 102.467 130.441 102.482 130.076 102.483C129.712 102.484 129.345 102.468 128.982 102.437C128.619 102.406 128.26 102.366 127.914 102.305C127.568 102.244 127.234 102.174 126.933 102.095L126.785 102.056C126.709 102.036 125.297 101.458 124.697 101.105C122.952 100.064 121.436 98.6779 120.239 97.0315C119.011 95.3484 118.097 93.455 117.542 91.4436C117.26 90.4299 117.068 89.3933 116.966 88.3457C116.916 87.8208 116.884 87.2923 116.872 86.7627C116.861 86.2332 116.879 85.7008 116.914 85.1694C116.949 84.638 117.008 84.1075 117.084 83.578C117.119 83.309 117.17 83.0588 117.216 82.8002C117.262 82.5416 117.321 82.2895 117.387 82.0366C117.511 81.5295 117.661 81.0292 117.836 80.5376C118.012 80.0459 118.204 79.5588 118.429 79.085C119.333 77.1636 120.578 75.4244 122.104 73.9529C123.655 72.449 125.437 71.206 127.382 70.2717C129.342 69.3272 131.436 68.6932 133.589 68.3924C135.74 68.0875 137.926 68.1401 140.059 68.5481C142.184 68.954 144.22 69.7371 146.071 70.8607C147.912 71.9934 149.509 73.4837 150.768 75.2442C151.404 76.135 151.959 77.0811 152.427 78.0712C152.901 79.0717 153.294 80.1086 153.603 81.172C154.221 83.3321 154.537 85.5683 154.542 87.8161C154.555 90.074 153.939 93.3399 153.71 94.532C152.17 100.195 149.829 102.106 147.532 104.215C146.512 105.064 145.604 105.81 144.503 106.774C143.927 107.277 143.386 107.819 142.883 108.395C142.434 108.926 142.014 109.481 141.624 110.057C140.848 111.219 140.207 112.502 139.849 113.891C139.666 114.588 139.571 115.306 139.567 116.028C139.562 116.766 139.69 117.498 139.943 118.191C139.997 118.33 140.103 118.443 140.237 118.507C140.372 118.57 140.526 118.58 140.667 118.533C140.808 118.486 140.927 118.387 140.997 118.256C141.068 118.124 141.086 117.97 141.048 117.826V117.817C140.907 117.252 140.868 116.667 140.932 116.088C140.996 115.495 141.134 114.913 141.343 114.355C141.761 113.222 142.418 112.184 143.204 111.24C143.599 110.764 144.02 110.311 144.465 109.881C144.798 109.561 145.146 109.254 145.498 108.957C144.943 110.064 144.477 111.249 144.299 112.521C144.206 113.17 144.221 113.83 144.343 114.474C144.47 115.114 144.726 115.722 145.095 116.26C145.137 116.325 145.202 116.371 145.277 116.388C145.353 116.405 145.431 116.392 145.497 116.351C145.563 116.311 145.61 116.246 145.629 116.171C145.648 116.096 145.637 116.016 145.599 115.949C145.334 115.457 145.172 114.915 145.124 114.358C145.083 113.803 145.134 113.245 145.273 112.707C145.555 111.618 146.093 110.588 146.727 109.621C148.07 107.772 149.902 105.998 150.847 105.16C152.673 103.341 155.193 100.937 156.502 95.2976C156.942 93.7014 157.563 90.359 157.609 87.8322C157.667 85.2892 157.372 82.7505 156.733 80.2894Z" fill="#5EC69D"/>
<path d="M221.331 76.21C222.02 77.8066 220.739 79.4245 219.156 79.4245C218.538 79.4234 217.945 79.1808 217.504 78.7486C217.062 78.3164 216.807 77.7287 216.793 77.1111C216.784 76.4953 217.019 75.9009 217.446 75.4572C217.873 75.0135 218.458 74.7564 219.074 74.7417C219.553 74.7347 220.024 74.8706 220.426 75.132C220.828 75.3935 221.143 75.7688 221.331 76.21Z" fill="#5EC69D"/>
<path d="M221.168 85.27V105.147C221.168 106.494 219.805 107.582 218.439 107.03C218.048 106.86 217.717 106.577 217.487 106.219C217.257 105.86 217.138 105.442 217.146 105.016V85.344C217.146 84.2802 217.931 83.3364 218.991 83.2427C219.271 83.2167 219.553 83.2501 219.819 83.3407C220.085 83.4313 220.328 83.5772 220.534 83.7686C220.74 83.96 220.902 84.1927 221.012 84.4515C221.121 84.7103 221.174 84.9892 221.168 85.27Z" fill="#5EC69D"/>
<path d="M245.871 105.191C245.871 105.456 245.818 105.718 245.715 105.962C245.612 106.206 245.462 106.427 245.272 106.612C245.083 106.797 244.858 106.943 244.612 107.04C244.365 107.137 244.102 107.184 243.837 107.177H227.737C227.472 107.183 227.209 107.136 226.963 107.039C226.717 106.942 226.492 106.797 226.303 106.612C226.113 106.427 225.963 106.206 225.86 105.962C225.757 105.718 225.703 105.456 225.703 105.191C225.715 104.7 225.864 104.222 226.132 103.81L226.264 103.603L239.541 87.1178H227.934C227.419 87.1178 226.925 86.9132 226.561 86.5491C226.197 86.1849 225.993 85.691 225.993 85.176C225.993 84.661 226.197 84.1671 226.561 83.8029C226.925 83.4387 227.419 83.2341 227.934 83.2341H243.321C244.636 83.2341 245.546 84.2338 245.546 85.1316C245.56 85.739 245.339 86.3285 244.928 86.7758L231.708 103.259H243.844C244.96 103.253 245.871 104.121 245.871 105.191Z" fill="#5EC69D"/>
<path d="M212.609 94.7144V105.147C212.614 105.416 212.565 105.683 212.465 105.932C212.365 106.181 212.215 106.407 212.025 106.597C211.834 106.787 211.608 106.936 211.358 107.036C211.109 107.136 210.842 107.184 210.573 107.178C210.041 107.171 209.533 106.953 209.161 106.573C208.788 106.192 208.582 105.679 208.587 105.147V94.7144C208.587 90.1763 205.627 86.8845 201.556 86.8845C197.332 86.8845 194.106 90.2108 194.106 94.6223V95.617V105.154C194.106 106.5 192.75 107.589 191.382 107.038C190.989 106.868 190.655 106.585 190.424 106.225C190.192 105.864 190.073 105.444 190.081 105.015V76.8514C190.081 75.7859 190.867 74.8421 191.929 74.7484C192.208 74.7219 192.49 74.7548 192.756 74.8449C193.021 74.9351 193.265 75.0805 193.47 75.2716C193.675 75.4626 193.838 75.695 193.947 75.9534C194.056 76.2118 194.109 76.4904 194.103 76.7708V85.9506L194.469 85.6217C196.425 83.8932 198.946 82.942 201.556 82.9482C207.857 82.9548 212.609 88.0075 212.609 94.7144Z" fill="#5EC69D"/>
<path d="M259.668 82.9546C252.846 82.9546 247.293 88.4628 247.293 95.2321C247.293 102.001 252.846 107.513 259.668 107.513C266.49 107.513 272 102.001 272 95.2321C272 88.3477 266.589 82.9546 259.668 82.9546ZM259.668 103.535C254.987 103.535 251.315 99.8853 251.315 95.2321C251.315 90.6693 255.12 86.8761 259.683 86.8843C264.331 86.8843 267.968 90.5526 267.971 95.2255C267.957 97.4239 267.078 99.5284 265.524 101.084C263.97 102.639 261.866 103.52 259.668 103.535Z" fill="#5EC69D"/>
<path d="M185.322 86.875L185.258 86.9933C185.057 87.3626 184.742 87.6562 184.359 87.8298C183.976 88.0034 183.547 88.0474 183.137 87.9552C182.641 87.8491 182.135 87.794 181.628 87.7908C180.276 87.7855 178.949 88.1552 177.794 88.8588C176.64 89.5625 175.703 90.5724 175.089 91.7764C174.303 93.3154 174.199 95.0567 174.176 96.7765C174.166 97.5115 174.176 98.2416 174.146 98.9519L174.166 105.907C174.255 107.125 173.155 108.209 171.946 108.053C171.457 107.987 171.007 107.749 170.677 107.381C170.348 107.013 170.161 106.539 170.151 106.045V96.8078C170.151 92.3684 171.557 88.9615 174.169 86.8108C176.271 84.966 178.801 83.866 181.628 83.866C182.46 83.8636 183.291 83.9535 184.104 84.134C185.307 84.4086 185.894 85.7783 185.322 86.875Z" fill="#5EC69D"/>
<path d="M119.805 140.484H115.133V143.984H120.594V145.562H113.156V134.188H120.539V135.781H115.133V138.922H119.805V140.484ZM123.805 137.109L123.859 137.992C124.453 137.299 125.266 136.953 126.297 136.953C127.427 136.953 128.201 137.385 128.617 138.25C129.232 137.385 130.096 136.953 131.211 136.953C132.143 136.953 132.836 137.211 133.289 137.727C133.747 138.242 133.982 139.003 133.992 140.008V145.562H132.094V140.062C132.094 139.526 131.977 139.133 131.742 138.883C131.508 138.633 131.12 138.508 130.578 138.508C130.146 138.508 129.792 138.625 129.516 138.859C129.245 139.089 129.055 139.391 128.945 139.766L128.953 145.562H127.055V140C127.029 139.005 126.521 138.508 125.531 138.508C124.771 138.508 124.232 138.818 123.914 139.438V145.562H122.016V137.109H123.805ZM143.344 141.422C143.344 142.729 143.047 143.773 142.453 144.555C141.859 145.331 141.062 145.719 140.062 145.719C139.135 145.719 138.393 145.414 137.836 144.805V148.812H135.938V137.109H137.688L137.766 137.969C138.323 137.292 139.081 136.953 140.039 136.953C141.07 136.953 141.878 137.339 142.461 138.109C143.049 138.875 143.344 139.94 143.344 141.305V141.422ZM141.453 141.258C141.453 140.414 141.284 139.745 140.945 139.25C140.612 138.755 140.133 138.508 139.508 138.508C138.732 138.508 138.174 138.828 137.836 139.469V143.219C138.18 143.875 138.742 144.203 139.523 144.203C140.128 144.203 140.599 143.961 140.938 143.477C141.281 142.987 141.453 142.247 141.453 141.258ZM144.602 141.258C144.602 140.43 144.766 139.685 145.094 139.023C145.422 138.357 145.883 137.846 146.477 137.492C147.07 137.133 147.753 136.953 148.523 136.953C149.664 136.953 150.589 137.32 151.297 138.055C152.01 138.789 152.396 139.763 152.453 140.977L152.461 141.422C152.461 142.255 152.299 143 151.977 143.656C151.659 144.312 151.201 144.82 150.602 145.18C150.008 145.539 149.32 145.719 148.539 145.719C147.346 145.719 146.391 145.323 145.672 144.531C144.958 143.734 144.602 142.674 144.602 141.352V141.258ZM146.5 141.422C146.5 142.292 146.68 142.974 147.039 143.469C147.398 143.958 147.898 144.203 148.539 144.203C149.18 144.203 149.677 143.953 150.031 143.453C150.391 142.953 150.57 142.221 150.57 141.258C150.57 140.404 150.385 139.727 150.016 139.227C149.651 138.727 149.154 138.477 148.523 138.477C147.904 138.477 147.411 138.724 147.047 139.219C146.682 139.708 146.5 140.443 146.5 141.422ZM161.492 142.945L162.836 137.109H164.688L162.383 145.562H160.82L159.008 139.758L157.227 145.562H155.664L153.352 137.109H155.203L156.57 142.883L158.305 137.109H159.734L161.492 142.945ZM169.68 145.719C168.477 145.719 167.5 145.341 166.75 144.586C166.005 143.826 165.633 142.815 165.633 141.555V141.32C165.633 140.477 165.794 139.724 166.117 139.062C166.445 138.396 166.904 137.878 167.492 137.508C168.081 137.138 168.737 136.953 169.461 136.953C170.612 136.953 171.5 137.32 172.125 138.055C172.755 138.789 173.07 139.828 173.07 141.172V141.938H167.547C167.604 142.635 167.836 143.188 168.242 143.594C168.654 144 169.169 144.203 169.789 144.203C170.659 144.203 171.367 143.852 171.914 143.148L172.938 144.125C172.599 144.63 172.146 145.023 171.578 145.305C171.016 145.581 170.383 145.719 169.68 145.719ZM169.453 138.477C168.932 138.477 168.51 138.659 168.188 139.023C167.87 139.388 167.667 139.896 167.578 140.547H171.195V140.406C171.154 139.771 170.984 139.292 170.688 138.969C170.391 138.641 169.979 138.477 169.453 138.477ZM178.977 138.844C178.727 138.802 178.469 138.781 178.203 138.781C177.333 138.781 176.747 139.115 176.445 139.781V145.562H174.547V137.109H176.359L176.406 138.055C176.865 137.32 177.5 136.953 178.312 136.953C178.583 136.953 178.807 136.99 178.984 137.062L178.977 138.844ZM182.195 145.562H180.297V137.109H182.195V145.562ZM180.18 134.914C180.18 134.622 180.271 134.38 180.453 134.188C180.641 133.995 180.906 133.898 181.25 133.898C181.594 133.898 181.859 133.995 182.047 134.188C182.234 134.38 182.328 134.622 182.328 134.914C182.328 135.201 182.234 135.44 182.047 135.633C181.859 135.82 181.594 135.914 181.25 135.914C180.906 135.914 180.641 135.82 180.453 135.633C180.271 135.44 180.18 135.201 180.18 134.914ZM186.031 137.109L186.086 138.086C186.711 137.331 187.531 136.953 188.547 136.953C190.307 136.953 191.203 137.961 191.234 139.977V145.562H189.336V140.086C189.336 139.549 189.219 139.154 188.984 138.898C188.755 138.638 188.378 138.508 187.852 138.508C187.086 138.508 186.516 138.854 186.141 139.547V145.562H184.242V137.109H186.031ZM192.844 141.273C192.844 139.961 193.151 138.914 193.766 138.133C194.385 137.346 195.206 136.953 196.227 136.953C197.19 136.953 197.948 137.289 198.5 137.961L198.586 137.109H200.297V145.305C200.297 146.414 199.951 147.289 199.258 147.93C198.57 148.57 197.641 148.891 196.469 148.891C195.849 148.891 195.242 148.76 194.648 148.5C194.06 148.245 193.612 147.909 193.305 147.492L194.203 146.352C194.786 147.044 195.505 147.391 196.359 147.391C196.99 147.391 197.487 147.219 197.852 146.875C198.216 146.536 198.398 146.036 198.398 145.375V144.805C197.852 145.414 197.122 145.719 196.211 145.719C195.221 145.719 194.411 145.326 193.781 144.539C193.156 143.753 192.844 142.664 192.844 141.273ZM194.734 141.438C194.734 142.286 194.906 142.956 195.25 143.445C195.599 143.93 196.081 144.172 196.695 144.172C197.461 144.172 198.029 143.844 198.398 143.188V139.469C198.039 138.828 197.477 138.508 196.711 138.508C196.086 138.508 195.599 138.755 195.25 139.25C194.906 139.745 194.734 140.474 194.734 141.438ZM210.977 143.266C210.977 142.927 210.836 142.669 210.555 142.492C210.279 142.315 209.818 142.159 209.172 142.023C208.526 141.888 207.987 141.716 207.555 141.508C206.607 141.049 206.133 140.385 206.133 139.516C206.133 138.786 206.44 138.177 207.055 137.688C207.669 137.198 208.451 136.953 209.398 136.953C210.409 136.953 211.224 137.203 211.844 137.703C212.469 138.203 212.781 138.852 212.781 139.648H210.883C210.883 139.284 210.747 138.982 210.477 138.742C210.206 138.497 209.846 138.375 209.398 138.375C208.982 138.375 208.641 138.471 208.375 138.664C208.115 138.857 207.984 139.115 207.984 139.438C207.984 139.729 208.107 139.956 208.352 140.117C208.596 140.279 209.091 140.443 209.836 140.609C210.581 140.771 211.164 140.966 211.586 141.195C212.013 141.419 212.328 141.69 212.531 142.008C212.74 142.326 212.844 142.711 212.844 143.164C212.844 143.924 212.529 144.542 211.898 145.016C211.268 145.484 210.443 145.719 209.422 145.719C208.729 145.719 208.112 145.594 207.57 145.344C207.029 145.094 206.607 144.75 206.305 144.312C206.003 143.875 205.852 143.404 205.852 142.898H207.695C207.721 143.346 207.891 143.693 208.203 143.938C208.516 144.177 208.93 144.297 209.445 144.297C209.945 144.297 210.326 144.203 210.586 144.016C210.846 143.823 210.977 143.573 210.977 143.266ZM216.883 135.055V137.109H218.375V138.516H216.883V143.234C216.883 143.557 216.945 143.792 217.07 143.938C217.201 144.078 217.43 144.148 217.758 144.148C217.977 144.148 218.198 144.122 218.422 144.07V145.539C217.99 145.659 217.573 145.719 217.172 145.719C215.714 145.719 214.984 144.914 214.984 143.305V138.516H213.594V137.109H214.984V135.055H216.883ZM224.953 144.734C224.396 145.391 223.604 145.719 222.578 145.719C221.661 145.719 220.966 145.451 220.492 144.914C220.023 144.378 219.789 143.602 219.789 142.586V137.109H221.688V142.562C221.688 143.635 222.133 144.172 223.023 144.172C223.945 144.172 224.568 143.841 224.891 143.18V137.109H226.789V145.562H225L224.953 144.734ZM228.367 141.273C228.367 139.971 228.669 138.927 229.273 138.141C229.878 137.349 230.688 136.953 231.703 136.953C232.599 136.953 233.323 137.266 233.875 137.891V133.562H235.773V145.562H234.055L233.961 144.688C233.393 145.375 232.635 145.719 231.688 145.719C230.698 145.719 229.896 145.32 229.281 144.523C228.672 143.727 228.367 142.643 228.367 141.273ZM230.266 141.438C230.266 142.297 230.43 142.969 230.758 143.453C231.091 143.932 231.562 144.172 232.172 144.172C232.948 144.172 233.516 143.826 233.875 143.133V139.523C233.526 138.846 232.964 138.508 232.188 138.508C231.573 138.508 231.099 138.753 230.766 139.242C230.432 139.727 230.266 140.458 230.266 141.438ZM241.477 145.719C240.273 145.719 239.297 145.341 238.547 144.586C237.802 143.826 237.43 142.815 237.43 141.555V141.32C237.43 140.477 237.591 139.724 237.914 139.062C238.242 138.396 238.701 137.878 239.289 137.508C239.878 137.138 240.534 136.953 241.258 136.953C242.409 136.953 243.297 137.32 243.922 138.055C244.552 138.789 244.867 139.828 244.867 141.172V141.938H239.344C239.401 142.635 239.633 143.188 240.039 143.594C240.451 144 240.966 144.203 241.586 144.203C242.456 144.203 243.164 143.852 243.711 143.148L244.734 144.125C244.396 144.63 243.943 145.023 243.375 145.305C242.812 145.581 242.18 145.719 241.477 145.719ZM241.25 138.477C240.729 138.477 240.307 138.659 239.984 139.023C239.667 139.388 239.464 139.896 239.375 140.547H242.992V140.406C242.951 139.771 242.781 139.292 242.484 138.969C242.188 138.641 241.776 138.477 241.25 138.477ZM248.109 137.109L248.164 138.086C248.789 137.331 249.609 136.953 250.625 136.953C252.385 136.953 253.281 137.961 253.312 139.977V145.562H251.414V140.086C251.414 139.549 251.297 139.154 251.062 138.898C250.833 138.638 250.456 138.508 249.93 138.508C249.164 138.508 248.594 138.854 248.219 139.547V145.562H246.32V137.109H248.109ZM257.633 135.055V137.109H259.125V138.516H257.633V143.234C257.633 143.557 257.695 143.792 257.82 143.938C257.951 144.078 258.18 144.148 258.508 144.148C258.727 144.148 258.948 144.122 259.172 144.07V145.539C258.74 145.659 258.323 145.719 257.922 145.719C256.464 145.719 255.734 144.914 255.734 143.305V138.516H254.344V137.109H255.734V135.055H257.633ZM265.32 143.266C265.32 142.927 265.18 142.669 264.898 142.492C264.622 142.315 264.161 142.159 263.516 142.023C262.87 141.888 262.331 141.716 261.898 141.508C260.951 141.049 260.477 140.385 260.477 139.516C260.477 138.786 260.784 138.177 261.398 137.688C262.013 137.198 262.794 136.953 263.742 136.953C264.753 136.953 265.568 137.203 266.188 137.703C266.812 138.203 267.125 138.852 267.125 139.648H265.227C265.227 139.284 265.091 138.982 264.82 138.742C264.549 138.497 264.19 138.375 263.742 138.375C263.326 138.375 262.984 138.471 262.719 138.664C262.458 138.857 262.328 139.115 262.328 139.438C262.328 139.729 262.451 139.956 262.695 140.117C262.94 140.279 263.435 140.443 264.18 140.609C264.924 140.771 265.508 140.966 265.93 141.195C266.357 141.419 266.672 141.69 266.875 142.008C267.083 142.326 267.188 142.711 267.188 143.164C267.188 143.924 266.872 144.542 266.242 145.016C265.612 145.484 264.786 145.719 263.766 145.719C263.073 145.719 262.456 145.594 261.914 145.344C261.372 145.094 260.951 144.75 260.648 144.312C260.346 143.875 260.195 143.404 260.195 142.898H262.039C262.065 143.346 262.234 143.693 262.547 143.938C262.859 144.177 263.273 144.297 263.789 144.297C264.289 144.297 264.669 144.203 264.93 144.016C265.19 143.823 265.32 143.573 265.32 143.266ZM270.031 143.562C270.385 143.562 270.659 143.664 270.852 143.867C271.044 144.065 271.141 144.315 271.141 144.617C271.141 144.914 271.044 145.161 270.852 145.359C270.659 145.552 270.385 145.648 270.031 145.648C269.693 145.648 269.424 145.552 269.227 145.359C269.029 145.167 268.93 144.919 268.93 144.617C268.93 144.315 269.026 144.065 269.219 143.867C269.411 143.664 269.682 143.562 270.031 143.562Z" fill="#545454"/>
<path d="M114.261 202.562L115.33 199.483H119.875L120.938 202.562H122.801L118.614 190.926H116.585L112.398 202.562H114.261ZM115.841 198.006L117.557 193.04H117.648L119.364 198.006H115.841ZM124.482 202.562H126.141V201.205H126.283C126.589 201.761 127.214 202.733 128.805 202.733C130.919 202.733 132.453 201.04 132.453 198.216C132.453 195.386 130.896 193.722 128.788 193.722C127.169 193.722 126.584 194.71 126.283 195.25H126.18V190.926H124.482V202.562ZM126.146 198.199C126.146 196.375 126.942 195.165 128.425 195.165C129.964 195.165 130.737 196.466 130.737 198.199C130.737 199.949 129.942 201.284 128.425 201.284C126.964 201.284 126.146 200.034 126.146 198.199ZM138.037 202.739C140.497 202.739 142.105 200.938 142.105 198.239C142.105 195.523 140.497 193.722 138.037 193.722C135.577 193.722 133.969 195.523 133.969 198.239C133.969 200.938 135.577 202.739 138.037 202.739ZM138.043 201.312C136.435 201.312 135.685 199.909 135.685 198.233C135.685 196.562 136.435 195.142 138.043 195.142C139.639 195.142 140.389 196.562 140.389 198.233C140.389 199.909 139.639 201.312 138.043 201.312ZM149.53 198.943C149.536 200.426 148.433 201.131 147.479 201.131C146.428 201.131 145.7 200.369 145.7 199.182V193.835H144.001V199.386C144.001 201.551 145.189 202.676 146.865 202.676C148.178 202.676 149.07 201.983 149.473 201.051H149.564V202.562H151.234V193.835H149.53V198.943ZM157.591 193.835H155.801V191.744H154.102V193.835H152.824V195.199H154.102V200.352C154.097 201.938 155.307 202.705 156.648 202.676C157.188 202.67 157.551 202.568 157.75 202.494L157.443 201.091C157.33 201.114 157.119 201.165 156.847 201.165C156.295 201.165 155.801 200.983 155.801 200V195.199H157.591V193.835ZM169.233 198.943C169.239 200.426 168.136 201.131 167.182 201.131C166.131 201.131 165.403 200.369 165.403 199.182V193.835H163.705V199.386C163.705 201.551 164.892 202.676 166.568 202.676C167.881 202.676 168.773 201.983 169.176 201.051H169.267V202.562H170.938V193.835H169.233V198.943ZM179.76 195.966C179.408 194.608 178.345 193.722 176.459 193.722C174.487 193.722 173.089 194.761 173.089 196.307C173.089 197.545 173.839 198.369 175.476 198.733L176.953 199.057C177.794 199.244 178.186 199.619 178.186 200.165C178.186 200.841 177.464 201.369 176.351 201.369C175.334 201.369 174.68 200.932 174.476 200.074L172.834 200.324C173.118 201.869 174.402 202.739 176.362 202.739C178.47 202.739 179.93 201.619 179.93 200.04C179.93 198.807 179.146 198.045 177.544 197.676L176.158 197.358C175.197 197.131 174.783 196.807 174.788 196.216C174.783 195.545 175.51 195.068 176.476 195.068C177.533 195.068 178.021 195.653 178.22 196.239L179.76 195.966Z" fill="#667085"/>
<path d="M214.278 202.562H216.034V197.489H221.835V202.562H223.597V190.926H221.835V195.983H216.034V190.926H214.278V202.562ZM229.693 202.739C232.153 202.739 233.761 200.938 233.761 198.239C233.761 195.523 232.153 193.722 229.693 193.722C227.233 193.722 225.625 195.523 225.625 198.239C225.625 200.938 227.233 202.739 229.693 202.739ZM229.699 201.312C228.091 201.312 227.341 199.909 227.341 198.233C227.341 196.562 228.091 195.142 229.699 195.142C231.295 195.142 232.045 196.562 232.045 198.233C232.045 199.909 231.295 201.312 229.699 201.312ZM237.284 202.562H239.011L240.784 196.261H240.915L242.688 202.562H244.42L246.983 193.835H245.227L243.528 200.216H243.443L241.739 193.835H239.983L238.267 200.244H238.182L236.472 193.835H234.716L237.284 202.562ZM252.83 202.562H254.528V193.835H252.83V202.562ZM253.688 192.489C254.273 192.489 254.761 192.034 254.761 191.477C254.761 190.92 254.273 190.46 253.688 190.46C253.097 190.46 252.614 190.92 252.614 191.477C252.614 192.034 253.097 192.489 253.688 192.489ZM260.888 193.835H259.098V191.744H257.399V193.835H256.121V195.199H257.399V200.352C257.393 201.938 258.604 202.705 259.945 202.676C260.484 202.67 260.848 202.568 261.047 202.494L260.74 201.091C260.626 201.114 260.416 201.165 260.143 201.165C259.592 201.165 259.098 200.983 259.098 200V195.199H260.888V193.835ZM268.893 202.562H270.621L272.393 196.261H272.524L274.297 202.562H276.03L278.592 193.835H276.837L275.138 200.216H275.053L273.348 193.835H271.592L269.876 200.244H269.791L268.081 193.835H266.325L268.893 202.562ZM283.615 202.739C286.075 202.739 287.683 200.938 287.683 198.239C287.683 195.523 286.075 193.722 283.615 193.722C281.155 193.722 279.547 195.523 279.547 198.239C279.547 200.938 281.155 202.739 283.615 202.739ZM283.621 201.312C282.013 201.312 281.263 199.909 281.263 198.233C281.263 196.562 282.013 195.142 283.621 195.142C285.217 195.142 285.967 196.562 285.967 198.233C285.967 199.909 285.217 201.312 283.621 201.312ZM289.58 202.562H291.278V197.233C291.278 196.091 292.159 195.267 293.364 195.267C293.716 195.267 294.114 195.33 294.25 195.369V193.744C294.08 193.722 293.744 193.705 293.528 193.705C292.506 193.705 291.631 194.284 291.312 195.222H291.222V193.835H289.58V202.562ZM295.72 202.562H297.419V199.466L298.266 198.619L301.232 202.562H303.317L299.544 197.58L303.078 193.835H301.044L297.567 197.528H297.419V190.926H295.72V202.562ZM311.166 195.966C310.814 194.608 309.751 193.722 307.865 193.722C305.893 193.722 304.496 194.761 304.496 196.307C304.496 197.545 305.246 198.369 306.882 198.733L308.359 199.057C309.2 199.244 309.592 199.619 309.592 200.165C309.592 200.841 308.871 201.369 307.757 201.369C306.74 201.369 306.087 200.932 305.882 200.074L304.24 200.324C304.524 201.869 305.808 202.739 307.768 202.739C309.876 202.739 311.337 201.619 311.337 200.04C311.337 198.807 310.553 198.045 308.95 197.676L307.564 197.358C306.604 197.131 306.189 196.807 306.195 196.216C306.189 195.545 306.916 195.068 307.882 195.068C308.939 195.068 309.428 195.653 309.626 196.239L311.166 195.966Z" fill="#667085"/>
<path d="M346.278 202.562H348.034V197.489H353.835V202.562H355.597V190.926H353.835V195.983H348.034V190.926H346.278V202.562ZM361.778 202.739C363.682 202.739 365.028 201.801 365.415 200.381L363.807 200.091C363.5 200.915 362.761 201.335 361.795 201.335C360.341 201.335 359.364 200.392 359.318 198.71H365.523V198.108C365.523 194.955 363.636 193.722 361.659 193.722C359.227 193.722 357.625 195.574 357.625 198.256C357.625 200.966 359.205 202.739 361.778 202.739ZM359.324 197.438C359.392 196.199 360.29 195.125 361.67 195.125C362.989 195.125 363.852 196.102 363.858 197.438H359.324ZM369.107 190.926H367.408V202.562H369.107V190.926ZM371.392 205.835H373.091V201.205H373.193C373.5 201.761 374.125 202.733 375.716 202.733C377.83 202.733 379.364 201.04 379.364 198.216C379.364 195.386 377.807 193.722 375.699 193.722C374.08 193.722 373.494 194.71 373.193 195.25H373.051V193.835H371.392V205.835ZM373.057 198.199C373.057 196.375 373.852 195.165 375.335 195.165C376.875 195.165 377.648 196.466 377.648 198.199C377.648 199.949 376.852 201.284 375.335 201.284C373.875 201.284 373.057 200.034 373.057 198.199Z" fill="#667085"/>
<path d="M414.278 202.562H416.034V198.472H418.42C421.119 198.472 422.455 196.841 422.455 194.693C422.455 192.551 421.131 190.926 418.426 190.926H414.278V202.562ZM416.034 196.983V192.432H418.239C419.977 192.432 420.688 193.375 420.688 194.693C420.688 196.011 419.977 196.983 418.261 196.983H416.034ZM424.376 202.562H426.075V197.233C426.075 196.091 426.956 195.267 428.161 195.267C428.513 195.267 428.911 195.33 429.047 195.369V193.744C428.876 193.722 428.541 193.705 428.325 193.705C427.303 193.705 426.428 194.284 426.109 195.222H426.018V193.835H424.376V202.562ZM430.517 202.562H432.216V193.835H430.517V202.562ZM431.375 192.489C431.96 192.489 432.449 192.034 432.449 191.477C432.449 190.92 431.96 190.46 431.375 190.46C430.784 190.46 430.301 190.92 430.301 191.477C430.301 192.034 430.784 192.489 431.375 192.489ZM441.967 193.835H440.143L437.939 200.551H437.848L435.638 193.835H433.814L436.984 202.562H438.803L441.967 193.835ZM445.838 202.756C447.281 202.756 448.094 202.023 448.418 201.369H448.486V202.562H450.145V196.767C450.145 194.227 448.145 193.722 446.759 193.722C445.179 193.722 443.724 194.358 443.156 195.949L444.753 196.312C445.003 195.693 445.639 195.097 446.781 195.097C447.878 195.097 448.44 195.67 448.44 196.659V196.699C448.44 197.318 447.804 197.307 446.236 197.489C444.582 197.682 442.889 198.114 442.889 200.097C442.889 201.812 444.179 202.756 445.838 202.756ZM446.207 201.392C445.247 201.392 444.554 200.96 444.554 200.119C444.554 199.21 445.361 198.886 446.344 198.756C446.895 198.682 448.202 198.534 448.446 198.29V199.415C448.446 200.449 447.622 201.392 446.207 201.392ZM456.084 202.739C458.146 202.739 459.482 201.5 459.669 199.801H458.016C457.8 200.744 457.067 201.301 456.095 201.301C454.658 201.301 453.732 200.102 453.732 198.199C453.732 196.33 454.675 195.153 456.095 195.153C457.175 195.153 457.834 195.835 458.016 196.653H459.669C459.487 194.892 458.05 193.722 456.067 193.722C453.607 193.722 452.016 195.574 452.016 198.239C452.016 200.869 453.55 202.739 456.084 202.739ZM462.56 205.835C463.963 205.835 464.849 205.102 465.355 203.727L468.963 193.852L467.128 193.835L464.918 200.608H464.827L462.616 193.835H460.798L463.991 202.676L463.781 203.256C463.349 204.415 462.741 204.511 461.81 204.256L461.401 205.648C461.605 205.739 462.048 205.835 462.56 205.835Z" fill="#667085"/>
<path d="M502.705 192.438H506.33V202.562H508.08V192.438H511.71V190.926H502.705V192.438ZM516.06 202.739C517.963 202.739 519.31 201.801 519.696 200.381L518.088 200.091C517.781 200.915 517.043 201.335 516.077 201.335C514.622 201.335 513.645 200.392 513.599 198.71H519.804V198.108C519.804 194.955 517.918 193.722 515.94 193.722C513.509 193.722 511.906 195.574 511.906 198.256C511.906 200.966 513.486 202.739 516.06 202.739ZM513.605 197.438C513.673 196.199 514.571 195.125 515.952 195.125C517.27 195.125 518.134 196.102 518.139 197.438H513.605ZM521.689 202.562H523.388V197.233C523.388 196.091 524.268 195.267 525.473 195.267C525.825 195.267 526.223 195.33 526.359 195.369V193.744C526.189 193.722 525.854 193.705 525.638 193.705C524.615 193.705 523.74 194.284 523.422 195.222H523.331V193.835H521.689V202.562ZM527.83 202.562H529.528V197.182C529.528 196.006 530.352 195.188 531.318 195.188C532.261 195.188 532.915 195.812 532.915 196.761V202.562H534.608V197C534.608 195.949 535.25 195.188 536.358 195.188C537.256 195.188 537.994 195.688 537.994 196.869V202.562H539.693V196.71C539.693 194.716 538.58 193.722 537 193.722C535.744 193.722 534.801 194.324 534.381 195.256H534.29C533.909 194.301 533.108 193.722 531.943 193.722C530.79 193.722 529.932 194.295 529.568 195.256H529.46V193.835H527.83V202.562ZM548.51 195.966C548.158 194.608 547.095 193.722 545.209 193.722C543.237 193.722 541.839 194.761 541.839 196.307C541.839 197.545 542.589 198.369 544.226 198.733L545.703 199.057C546.544 199.244 546.936 199.619 546.936 200.165C546.936 200.841 546.214 201.369 545.101 201.369C544.084 201.369 543.43 200.932 543.226 200.074L541.584 200.324C541.868 201.869 543.152 202.739 545.112 202.739C547.22 202.739 548.68 201.619 548.68 200.04C548.68 198.807 547.896 198.045 546.294 197.676L544.908 197.358C543.947 197.131 543.533 196.807 543.538 196.216C543.533 195.545 544.26 195.068 545.226 195.068C546.283 195.068 546.771 195.653 546.97 196.239L548.51 195.966ZM557.322 202.756C558.766 202.756 559.578 202.023 559.902 201.369H559.97V202.562H561.629V196.767C561.629 194.227 559.629 193.722 558.243 193.722C556.663 193.722 555.209 194.358 554.641 195.949L556.237 196.312C556.487 195.693 557.124 195.097 558.266 195.097C559.362 195.097 559.925 195.67 559.925 196.659V196.699C559.925 197.318 559.288 197.307 557.72 197.489C556.067 197.682 554.374 198.114 554.374 200.097C554.374 201.812 555.663 202.756 557.322 202.756ZM557.692 201.392C556.732 201.392 556.038 200.96 556.038 200.119C556.038 199.21 556.845 198.886 557.828 198.756C558.379 198.682 559.686 198.534 559.93 198.29V199.415C559.93 200.449 559.107 201.392 557.692 201.392ZM565.591 197.381C565.591 195.989 566.443 195.193 567.625 195.193C568.778 195.193 569.477 195.949 569.477 197.216V202.562H571.176V197.011C571.176 194.852 569.989 193.722 568.205 193.722C566.892 193.722 566.034 194.33 565.631 195.256H565.523V193.835H563.892V202.562H565.591V197.381ZM576.722 202.733C578.312 202.733 578.938 201.761 579.244 201.205H579.386V202.562H581.045V190.926H579.347V195.25H579.244C578.938 194.71 578.358 193.722 576.733 193.722C574.625 193.722 573.074 195.386 573.074 198.216C573.074 201.04 574.602 202.733 576.722 202.733ZM577.097 201.284C575.58 201.284 574.79 199.949 574.79 198.199C574.79 196.466 575.562 195.165 577.097 195.165C578.58 195.165 579.375 196.375 579.375 198.199C579.375 200.034 578.562 201.284 577.097 201.284ZM591.381 202.739C593.443 202.739 594.778 201.5 594.966 199.801H593.312C593.097 200.744 592.364 201.301 591.392 201.301C589.955 201.301 589.028 200.102 589.028 198.199C589.028 196.33 589.972 195.153 591.392 195.153C592.472 195.153 593.131 195.835 593.312 196.653H594.966C594.784 194.892 593.347 193.722 591.364 193.722C588.903 193.722 587.312 195.574 587.312 198.239C587.312 200.869 588.847 202.739 591.381 202.739ZM600.459 202.739C602.919 202.739 604.527 200.938 604.527 198.239C604.527 195.523 602.919 193.722 600.459 193.722C597.999 193.722 596.391 195.523 596.391 198.239C596.391 200.938 597.999 202.739 600.459 202.739ZM600.464 201.312C598.857 201.312 598.107 199.909 598.107 198.233C598.107 196.562 598.857 195.142 600.464 195.142C602.061 195.142 602.811 196.562 602.811 198.233C602.811 199.909 602.061 201.312 600.464 201.312ZM608.122 197.381C608.122 195.989 608.974 195.193 610.156 195.193C611.31 195.193 612.009 195.949 612.009 197.216V202.562H613.707V197.011C613.707 194.852 612.52 193.722 610.736 193.722C609.423 193.722 608.565 194.33 608.162 195.256H608.054V193.835H606.423V202.562H608.122V197.381ZM619.253 202.733C620.844 202.733 621.469 201.761 621.776 201.205H621.918V202.562H623.577V190.926H621.878V195.25H621.776C621.469 194.71 620.889 193.722 619.264 193.722C617.156 193.722 615.605 195.386 615.605 198.216C615.605 201.04 617.134 202.733 619.253 202.733ZM619.628 201.284C618.111 201.284 617.321 199.949 617.321 198.199C617.321 196.466 618.094 195.165 619.628 195.165C621.111 195.165 621.906 196.375 621.906 198.199C621.906 200.034 621.094 201.284 619.628 201.284ZM626.001 202.562H627.7V193.835H626.001V202.562ZM626.859 192.489C627.445 192.489 627.933 192.034 627.933 191.477C627.933 190.92 627.445 190.46 626.859 190.46C626.268 190.46 625.786 190.92 625.786 191.477C625.786 192.034 626.268 192.489 626.859 192.489ZM634.06 193.835H632.27V191.744H630.571V193.835H629.293V195.199H630.571V200.352C630.565 201.938 631.776 202.705 633.116 202.676C633.656 202.67 634.02 202.568 634.219 202.494L633.912 201.091C633.798 201.114 633.588 201.165 633.315 201.165C632.764 201.165 632.27 200.983 632.27 200V195.199H634.06V193.835ZM635.939 202.562H637.638V193.835H635.939V202.562ZM636.797 192.489C637.382 192.489 637.871 192.034 637.871 191.477C637.871 190.92 637.382 190.46 636.797 190.46C636.206 190.46 635.723 190.92 635.723 191.477C635.723 192.034 636.206 192.489 636.797 192.489ZM643.599 202.739C646.06 202.739 647.668 200.938 647.668 198.239C647.668 195.523 646.06 193.722 643.599 193.722C641.139 193.722 639.531 195.523 639.531 198.239C639.531 200.938 641.139 202.739 643.599 202.739ZM643.605 201.312C641.997 201.312 641.247 199.909 641.247 198.233C641.247 196.562 641.997 195.142 643.605 195.142C645.202 195.142 645.952 196.562 645.952 198.233C645.952 199.909 645.202 201.312 643.605 201.312ZM651.263 197.381C651.263 195.989 652.115 195.193 653.297 195.193C654.45 195.193 655.149 195.949 655.149 197.216V202.562H656.848V197.011C656.848 194.852 655.661 193.722 653.876 193.722C652.564 193.722 651.706 194.33 651.303 195.256H651.195V193.835H649.564V202.562H651.263V197.381ZM665.666 195.966C665.314 194.608 664.251 193.722 662.365 193.722C660.393 193.722 658.996 194.761 658.996 196.307C658.996 197.545 659.746 198.369 661.382 198.733L662.859 199.057C663.7 199.244 664.092 199.619 664.092 200.165C664.092 200.841 663.371 201.369 662.257 201.369C661.24 201.369 660.587 200.932 660.382 200.074L658.74 200.324C659.024 201.869 660.308 202.739 662.268 202.739C664.376 202.739 665.837 201.619 665.837 200.04C665.837 198.807 665.053 198.045 663.45 197.676L662.064 197.358C661.104 197.131 660.689 196.807 660.695 196.216C660.689 195.545 661.416 195.068 662.382 195.068C663.439 195.068 663.928 195.653 664.126 196.239L665.666 195.966Z" fill="#667085"/>
<rect x="112" y="272.562" width="1216" height="1" fill="#E4E7EC"/>
<path d="M119.318 323.744C122.642 323.744 125.33 321.057 125.318 317.744C125.307 314.432 122.642 311.744 119.318 311.744C116.017 311.744 113.33 314.432 113.318 317.744C113.307 321.057 116.017 323.744 119.318 323.744ZM119.318 322.426C116.733 322.426 114.625 320.318 114.636 317.75C114.648 315.165 116.744 313.062 119.318 313.062C121.903 313.062 123.989 315.153 124 317.75C124.011 320.33 121.915 322.426 119.318 322.426ZM116 317.744C116 319.608 117.511 321.119 119.375 321.119C120.989 321.119 122.227 319.983 122.443 318.472H121.068C120.909 319.25 120.25 319.801 119.375 319.801C118.239 319.801 117.318 318.881 117.318 317.744C117.318 316.608 118.239 315.688 119.375 315.688C120.25 315.688 121.028 316.239 121.182 317.017H122.557C122.341 315.506 120.989 314.369 119.375 314.369C117.511 314.369 116 315.881 116 317.744ZM132.345 323.562H139.686V322.312H134.277V322.222L136.891 319.426C138.891 317.284 139.482 316.284 139.482 314.994C139.482 313.199 138.027 311.767 135.982 311.767C133.942 311.767 132.391 313.153 132.391 315.199H133.732C133.732 313.875 134.589 312.994 135.936 312.994C137.197 312.994 138.163 313.767 138.163 314.994C138.163 316.068 137.533 316.864 136.186 318.335L132.345 322.54V323.562ZM145.828 323.722C148.396 323.722 149.874 321.545 149.874 317.744C149.874 313.972 148.374 311.767 145.828 311.767C143.283 311.767 141.783 313.972 141.783 317.744C141.783 321.545 143.26 323.722 145.828 323.722ZM145.828 322.472C144.135 322.472 143.146 320.773 143.146 317.744C143.146 314.722 144.146 312.994 145.828 312.994C147.51 312.994 148.51 314.722 148.51 317.744C148.51 320.773 147.521 322.472 145.828 322.472ZM152.033 323.562H159.374V322.312H153.964V322.222L156.578 319.426C158.578 317.284 159.169 316.284 159.169 314.994C159.169 313.199 157.714 311.767 155.669 311.767C153.629 311.767 152.078 313.153 152.078 315.199H153.419C153.419 313.875 154.277 312.994 155.624 312.994C156.885 312.994 157.851 313.767 157.851 314.994C157.851 316.068 157.22 316.864 155.874 318.335L152.033 322.54V323.562ZM165.811 311.926H164.402L161.493 313.858V315.29L164.334 313.403H164.402V323.562H165.811V311.926ZM173.862 323.562H175.271V319.017H177.817C177.919 319.017 178.016 319.017 178.112 319.011L180.567 323.562H182.203L179.572 318.756C181.055 318.25 181.749 317.04 181.749 315.494C181.749 313.438 180.521 311.926 177.794 311.926H173.862V323.562ZM175.271 317.744V313.176H177.749C179.635 313.176 180.362 314.097 180.362 315.494C180.362 316.892 179.635 317.744 177.771 317.744H175.271ZM185.256 318.312C185.256 316.79 186.227 315.926 187.551 315.926C188.812 315.926 189.574 316.722 189.574 318.108V323.562H190.915V318.017C190.915 315.773 189.722 314.722 187.938 314.722C186.562 314.722 185.778 315.295 185.369 316.199H185.256V311.926H183.915V323.562H185.256V318.312ZM193.368 323.562H194.709V314.835H193.368V323.562ZM194.05 313.381C194.572 313.381 195.004 312.972 195.004 312.472C195.004 311.972 194.572 311.562 194.05 311.562C193.527 311.562 193.095 311.972 193.095 312.472C193.095 312.972 193.527 313.381 194.05 313.381ZM196.915 323.562H203.756V322.312H198.778V322.222L203.597 315.903V314.835H197.074V316.085H201.869V316.176L196.915 322.54V323.562ZM209.116 323.744C211.48 323.744 213.071 321.949 213.071 319.244C213.071 316.517 211.48 314.722 209.116 314.722C206.753 314.722 205.162 316.517 205.162 319.244C205.162 321.949 206.753 323.744 209.116 323.744ZM209.116 322.54C207.321 322.54 206.503 320.994 206.503 319.244C206.503 317.494 207.321 315.926 209.116 315.926C210.912 315.926 211.73 317.494 211.73 319.244C211.73 320.994 210.912 322.54 209.116 322.54ZM221.209 311.926H219.8V323.562H221.209V311.926ZM225.193 318.312C225.193 316.79 226.136 315.926 227.42 315.926C228.665 315.926 229.42 316.739 229.42 318.108V323.562H230.761V318.017C230.761 315.79 229.574 314.722 227.807 314.722C226.489 314.722 225.67 315.312 225.261 316.199H225.148V314.835H223.852V323.562H225.193V318.312ZM236.757 323.744C238.689 323.744 239.962 322.562 240.189 321.017H238.848C238.598 321.972 237.803 322.54 236.757 322.54C235.166 322.54 234.143 321.222 234.143 319.199C234.143 317.222 235.189 315.926 236.757 315.926C237.939 315.926 238.643 316.653 238.848 317.449H240.189C239.962 315.812 238.575 314.722 236.734 314.722C234.371 314.722 232.803 316.585 232.803 319.244C232.803 321.858 234.303 323.744 236.757 323.744ZM243.126 323.653C243.689 323.653 244.149 323.193 244.149 322.631C244.149 322.068 243.689 321.608 243.126 321.608C242.564 321.608 242.104 322.068 242.104 322.631C242.104 323.193 242.564 323.653 243.126 323.653ZM251.714 323.562L252.885 320.267H257.589L258.76 323.562H260.237L255.964 311.926H254.51L250.237 323.562H251.714ZM253.328 319.017L255.192 313.767H255.283L257.146 319.017H253.328ZM263.209 311.926H261.868V323.562H263.209V311.926ZM267.006 311.926H265.665V323.562H267.006V311.926ZM273.962 323.562H275.303V318.04C275.303 316.858 276.234 315.994 277.507 315.994C277.865 315.994 278.234 316.062 278.325 316.085V314.722C278.172 314.71 277.82 314.699 277.621 314.699C276.575 314.699 275.666 315.29 275.348 316.153H275.257V314.835H273.962V323.562ZM279.915 323.562H281.256V314.835H279.915V323.562ZM280.597 313.381C281.119 313.381 281.551 312.972 281.551 312.472C281.551 311.972 281.119 311.562 280.597 311.562C280.074 311.562 279.642 311.972 279.642 312.472C279.642 312.972 280.074 313.381 280.597 313.381ZM287.234 327.017C289.325 327.017 291.007 326.062 291.007 323.812V314.835H289.712V316.222H289.575C289.28 315.767 288.734 314.722 287.03 314.722C284.825 314.722 283.303 316.472 283.303 319.153C283.303 321.881 284.893 323.426 287.007 323.426C288.712 323.426 289.257 322.426 289.553 321.949H289.666V323.722C289.666 325.176 288.643 325.835 287.234 325.835C285.649 325.835 285.092 325 284.734 324.517L283.666 325.267C284.212 326.182 285.286 327.017 287.234 327.017ZM287.189 322.222C285.507 322.222 284.643 320.949 284.643 319.131C284.643 317.358 285.484 315.926 287.189 315.926C288.825 315.926 289.689 317.244 289.689 319.131C289.689 321.062 288.803 322.222 287.189 322.222ZM294.803 318.312C294.803 316.79 295.774 315.926 297.098 315.926C298.359 315.926 299.121 316.722 299.121 318.108V323.562H300.462V318.017C300.462 315.773 299.268 314.722 297.484 314.722C296.109 314.722 295.325 315.295 294.916 316.199H294.803V311.926H293.462V323.562H294.803V318.312ZM306.71 314.835H304.847V312.744H303.506V314.835H302.188V315.972H303.506V321.426C303.506 322.949 304.733 323.676 305.869 323.676C306.369 323.676 306.688 323.585 306.869 323.517L306.597 322.312C306.483 322.335 306.301 322.381 306.006 322.381C305.415 322.381 304.847 322.199 304.847 321.062V315.972H306.71V314.835ZM314.753 316.79C314.332 315.551 313.389 314.722 311.662 314.722C309.821 314.722 308.457 315.767 308.457 317.244C308.457 318.449 309.173 319.256 310.776 319.631L312.23 319.972C313.111 320.176 313.526 320.597 313.526 321.199C313.526 321.949 312.73 322.562 311.48 322.562C310.384 322.562 309.696 322.091 309.457 321.153L308.185 321.472C308.497 322.955 309.719 323.744 311.503 323.744C313.531 323.744 314.912 322.636 314.912 321.131C314.912 319.915 314.151 319.148 312.594 318.767L311.298 318.449C310.264 318.193 309.798 317.847 309.798 317.176C309.798 316.426 310.594 315.881 311.662 315.881C312.832 315.881 313.315 316.528 313.548 317.131L314.753 316.79ZM321.43 323.562H322.771V318.04C322.771 316.858 323.703 315.994 324.976 315.994C325.334 315.994 325.703 316.062 325.794 316.085V314.722C325.641 314.71 325.288 314.699 325.089 314.699C324.044 314.699 323.135 315.29 322.817 316.153H322.726V314.835H321.43V323.562ZM330.777 323.744C332.55 323.744 333.845 322.858 334.254 321.54L332.959 321.176C332.618 322.085 331.828 322.54 330.777 322.54C329.203 322.54 328.118 321.523 328.055 319.653H334.391V319.085C334.391 315.835 332.459 314.722 330.641 314.722C328.277 314.722 326.709 316.585 326.709 319.267C326.709 321.949 328.254 323.744 330.777 323.744ZM328.055 318.494C328.146 317.136 329.107 315.926 330.641 315.926C332.095 315.926 333.027 317.017 333.027 318.494H328.055ZM342.612 316.79C342.192 315.551 341.249 314.722 339.521 314.722C337.68 314.722 336.317 315.767 336.317 317.244C336.317 318.449 337.033 319.256 338.635 319.631L340.089 319.972C340.97 320.176 341.385 320.597 341.385 321.199C341.385 321.949 340.589 322.562 339.339 322.562C338.243 322.562 337.555 322.091 337.317 321.153L336.044 321.472C336.357 322.955 337.578 323.744 339.362 323.744C341.391 323.744 342.771 322.636 342.771 321.131C342.771 319.915 342.01 319.148 340.453 318.767L339.158 318.449C338.124 318.193 337.658 317.847 337.658 317.176C337.658 316.426 338.453 315.881 339.521 315.881C340.692 315.881 341.175 316.528 341.408 317.131L342.612 316.79ZM348.449 323.744C350.222 323.744 351.517 322.858 351.926 321.54L350.631 321.176C350.29 322.085 349.5 322.54 348.449 322.54C346.875 322.54 345.79 321.523 345.727 319.653H352.062V319.085C352.062 315.835 350.131 314.722 348.312 314.722C345.949 314.722 344.381 316.585 344.381 319.267C344.381 321.949 345.926 323.744 348.449 323.744ZM345.727 318.494C345.818 317.136 346.778 315.926 348.312 315.926C349.767 315.926 350.699 317.017 350.699 318.494H345.727ZM354.102 323.562H355.443V318.04C355.443 316.858 356.375 315.994 357.648 315.994C358.006 315.994 358.375 316.062 358.466 316.085V314.722C358.312 314.71 357.96 314.699 357.761 314.699C356.716 314.699 355.807 315.29 355.489 316.153H355.398V314.835H354.102V323.562ZM367.457 314.835H366.003L363.594 321.79H363.503L361.094 314.835H359.639L362.866 323.562H364.23L367.457 314.835ZM372.574 323.744C374.347 323.744 375.642 322.858 376.051 321.54L374.756 321.176C374.415 322.085 373.625 322.54 372.574 322.54C371 322.54 369.915 321.523 369.852 319.653H376.188V319.085C376.188 315.835 374.256 314.722 372.438 314.722C370.074 314.722 368.506 316.585 368.506 319.267C368.506 321.949 370.051 323.744 372.574 323.744ZM369.852 318.494C369.943 317.136 370.903 315.926 372.438 315.926C373.892 315.926 374.824 317.017 374.824 318.494H369.852ZM381.523 323.744C383.205 323.744 383.773 322.699 384.068 322.222H384.227V323.562H385.523V311.926H384.182V316.222H384.068C383.773 315.767 383.25 314.722 381.545 314.722C379.341 314.722 377.818 316.472 377.818 319.222C377.818 321.994 379.341 323.744 381.523 323.744ZM381.705 322.54C380.023 322.54 379.159 321.062 379.159 319.199C379.159 317.358 380 315.926 381.705 315.926C383.341 315.926 384.205 317.244 384.205 319.199C384.205 321.176 383.318 322.54 381.705 322.54ZM389.142 323.653C389.705 323.653 390.165 323.193 390.165 322.631C390.165 322.068 389.705 321.608 389.142 321.608C388.58 321.608 388.119 322.068 388.119 322.631C388.119 323.193 388.58 323.653 389.142 323.653Z" fill="#98A2B3"/>
<path d="M1215.55 327.312C1224.6 327.312 1229.56 319.809 1229.56 313.304C1229.56 313.093 1229.55 312.878 1229.54 312.667C1230.51 311.97 1231.34 311.107 1232 310.118C1231.1 310.517 1230.15 310.778 1229.17 310.891C1230.2 310.275 1230.97 309.308 1231.34 308.168C1230.37 308.741 1229.32 309.145 1228.21 309.363C1227.47 308.574 1226.49 308.052 1225.42 307.877C1224.35 307.701 1223.25 307.884 1222.3 308.395C1221.34 308.906 1220.58 309.717 1220.13 310.704C1219.69 311.69 1219.58 312.797 1219.82 313.853C1217.86 313.755 1215.95 313.246 1214.2 312.361C1212.45 311.475 1210.91 310.232 1209.67 308.712C1209.04 309.796 1208.85 311.078 1209.14 312.299C1209.42 313.519 1210.16 314.586 1211.2 315.282C1210.41 315.258 1209.65 315.047 1208.97 314.668V314.729C1208.96 315.867 1209.36 316.969 1210.08 317.849C1210.8 318.729 1211.8 319.333 1212.92 319.557C1212.19 319.756 1211.43 319.784 1210.69 319.642C1211.01 320.62 1211.62 321.475 1212.45 322.089C1213.27 322.702 1214.27 323.043 1215.29 323.064C1213.55 324.434 1211.39 325.177 1209.18 325.173C1208.78 325.173 1208.39 325.148 1208 325.101C1210.25 326.546 1212.87 327.314 1215.55 327.312Z" fill="#5EC69D"/>
<g clip-path="url(#clip0_2_39874)">
<path d="M1278.22 305.562H1257.77C1256.79 305.562 1256 306.336 1256 307.292V327.828C1256 328.784 1256.79 329.562 1257.77 329.562H1278.22C1279.2 329.562 1280 328.784 1280 327.833V307.292C1280 306.336 1279.2 305.562 1278.22 305.562ZM1263.12 326.014H1259.56V314.558H1263.12V326.014ZM1261.34 312.997C1260.2 312.997 1259.27 312.073 1259.27 310.934C1259.27 309.795 1260.2 308.872 1261.34 308.872C1262.48 308.872 1263.4 309.795 1263.4 310.934C1263.4 312.069 1262.48 312.997 1261.34 312.997ZM1276.45 326.014H1272.89V320.445C1272.89 319.119 1272.87 317.408 1271.04 317.408C1269.19 317.408 1268.91 318.856 1268.91 320.352V326.014H1265.36V314.558H1268.77V316.123H1268.82C1269.29 315.223 1270.45 314.272 1272.18 314.272C1275.79 314.272 1276.45 316.644 1276.45 319.728V326.014Z" fill="#5EC69D"/>
</g>
<g clip-path="url(#clip1_2_39874)">
<path d="M1328 317.562C1328 310.935 1322.63 305.562 1316 305.562C1309.37 305.562 1304 310.935 1304 317.562C1304 323.552 1308.39 328.516 1314.12 329.417V321.031H1311.08V317.562H1314.12V314.919C1314.12 311.911 1315.92 310.25 1318.66 310.25C1319.97 310.25 1321.34 310.484 1321.34 310.484V313.438H1319.83C1318.34 313.438 1317.88 314.363 1317.88 315.312V317.562H1321.2L1320.67 321.031H1317.88V329.417C1323.61 328.516 1328 323.552 1328 317.562Z" fill="#5EC69D"/>
</g>
<defs>
<clipPath id="clip0_2_39874">
<rect width="24" height="24" fill="white" transform="translate(1256 305.562)"/>
</clipPath>
<clipPath id="clip1_2_39874">
<rect width="24" height="24" fill="white" transform="translate(1304 305.562)"/>
</clipPath>
</defs>
</svg>
