<svg width="1280" height="608" viewBox="0 0 1280 608" fill="none" xmlns="http://www.w3.org/2000/svg">
<rect x="205" y="186.275" width="42.6432" height="42.6432" rx="21.3216" fill="#5EC69D" fill-opacity="0.1"/>
<path fill-rule="evenodd" clip-rule="evenodd" d="M226.322 207.597C228.285 207.597 229.875 206.007 229.875 204.043C229.875 202.08 228.285 200.49 226.322 200.49C224.358 200.49 222.768 202.08 222.768 204.043C222.768 206.007 224.358 207.597 226.322 207.597ZM226.322 209.374C223.95 209.374 219.214 210.564 219.214 212.927V213.816C219.214 214.304 219.614 214.704 220.103 214.704H232.54C233.029 214.704 233.429 214.304 233.429 213.816V212.927C233.429 210.564 228.694 209.374 226.322 209.374Z" fill="#5EC69D"/>
<path d="M206.926 276.24V257.292H213.42C215.563 257.292 217.194 257.722 218.313 258.581C219.432 259.439 219.992 260.719 219.992 262.42C219.992 263.287 219.757 264.068 219.289 264.762C218.821 265.456 218.135 265.994 217.233 266.376C218.257 266.653 219.046 267.178 219.601 267.95C220.165 268.714 220.447 269.634 220.447 270.709C220.447 272.488 219.875 273.854 218.729 274.809C217.593 275.763 215.962 276.24 213.836 276.24H206.926ZM210.218 267.69V273.611H213.875C214.908 273.611 215.715 273.355 216.296 272.844C216.877 272.332 217.168 271.62 217.168 270.709C217.168 268.74 216.161 267.734 214.149 267.69H210.218ZM210.218 265.27H213.446C214.47 265.27 215.268 265.04 215.84 264.58C216.422 264.111 216.712 263.452 216.712 262.602C216.712 261.665 216.443 260.988 215.905 260.572C215.376 260.155 214.548 259.947 213.42 259.947H210.218V265.27ZM222.842 269.07C222.842 267.69 223.115 266.449 223.662 265.348C224.208 264.237 224.976 263.387 225.965 262.797C226.954 262.198 228.091 261.899 229.375 261.899C231.275 261.899 232.815 262.511 233.994 263.734C235.183 264.957 235.825 266.58 235.92 268.601L235.933 269.343C235.933 270.731 235.665 271.972 235.127 273.065C234.597 274.158 233.834 275.004 232.836 275.602C231.847 276.201 230.702 276.5 229.401 276.5C227.414 276.5 225.822 275.841 224.625 274.522C223.436 273.195 222.842 271.429 222.842 269.226V269.07ZM226.004 269.343C226.004 270.792 226.303 271.928 226.902 272.752C227.501 273.568 228.333 273.976 229.401 273.976C230.468 273.976 231.296 273.559 231.886 272.726C232.485 271.894 232.784 270.675 232.784 269.07C232.784 267.647 232.476 266.519 231.86 265.686C231.253 264.853 230.424 264.437 229.375 264.437C228.342 264.437 227.522 264.849 226.915 265.673C226.308 266.489 226.004 267.712 226.004 269.343ZM238.016 269.07C238.016 267.69 238.289 266.449 238.836 265.348C239.382 264.237 240.15 263.387 241.139 262.797C242.128 262.198 243.265 261.899 244.549 261.899C246.449 261.899 247.988 262.511 249.168 263.734C250.357 264.957 250.999 266.58 251.094 268.601L251.107 269.343C251.107 270.731 250.838 271.972 250.301 273.065C249.771 274.158 249.008 275.004 248.01 275.602C247.021 276.201 245.876 276.5 244.575 276.5C242.588 276.5 240.996 275.841 239.799 274.522C238.61 273.195 238.016 271.429 238.016 269.226V269.07ZM241.178 269.343C241.178 270.792 241.477 271.928 242.076 272.752C242.675 273.568 243.507 273.976 244.575 273.976C245.642 273.976 246.47 273.559 247.06 272.726C247.659 271.894 247.958 270.675 247.958 269.07C247.958 267.647 247.65 266.519 247.034 265.686C246.427 264.853 245.598 264.437 244.549 264.437C243.516 264.437 242.696 264.849 242.089 265.673C241.482 266.489 241.178 267.712 241.178 269.343ZM258.356 270.202L256.951 271.646V276.24H253.788V256.251H256.951V267.781L257.94 266.545L261.831 262.159H265.631L260.399 268.028L266.19 276.24H262.533L258.356 270.202ZM279.269 271.711L282.132 262.159H285.503L279.907 278.374C279.048 280.743 277.59 281.927 275.534 281.927C275.074 281.927 274.567 281.849 274.011 281.693V279.246L274.61 279.285C275.408 279.285 276.007 279.138 276.406 278.843C276.814 278.557 277.135 278.071 277.369 277.385L277.824 276.175L272.879 262.159H276.289L279.269 271.711ZM286.531 269.07C286.531 267.69 286.804 266.449 287.35 265.348C287.897 264.237 288.665 263.387 289.654 262.797C290.643 262.198 291.779 261.899 293.063 261.899C294.963 261.899 296.503 262.511 297.683 263.734C298.872 264.957 299.514 266.58 299.609 268.601L299.622 269.343C299.622 270.731 299.353 271.972 298.816 273.065C298.286 274.158 297.523 275.004 296.525 275.602C295.536 276.201 294.391 276.5 293.089 276.5C291.103 276.5 289.511 275.841 288.313 274.522C287.125 273.195 286.531 271.429 286.531 269.226V269.07ZM289.693 269.343C289.693 270.792 289.992 271.928 290.591 272.752C291.189 273.568 292.022 273.976 293.089 273.976C294.157 273.976 294.985 273.559 295.575 272.726C296.174 271.894 296.473 270.675 296.473 269.07C296.473 267.647 296.165 266.519 295.549 265.686C294.942 264.853 294.113 264.437 293.063 264.437C292.031 264.437 291.211 264.849 290.604 265.673C289.997 266.489 289.693 267.712 289.693 269.343ZM310.827 274.861C309.899 275.954 308.58 276.5 306.871 276.5C305.344 276.5 304.186 276.054 303.396 275.16C302.615 274.266 302.225 272.974 302.225 271.282V262.159H305.387V271.243C305.387 273.03 306.129 273.924 307.613 273.924C309.148 273.924 310.185 273.373 310.723 272.271V262.159H313.885V276.24H310.905L310.827 274.861ZM324.478 265.048C324.062 264.979 323.633 264.944 323.19 264.944C321.741 264.944 320.765 265.5 320.262 266.61V276.24H317.1V262.159H320.119L320.197 263.734C320.96 262.511 322.019 261.899 323.372 261.899C323.823 261.899 324.196 261.96 324.491 262.081L324.478 265.048ZM341.006 272.414C341.006 271.85 340.772 271.421 340.303 271.126C339.843 270.831 339.075 270.57 338 270.345C336.924 270.119 336.026 269.833 335.306 269.486C333.727 268.723 332.937 267.616 332.937 266.168C332.937 264.953 333.449 263.938 334.473 263.122C335.497 262.307 336.798 261.899 338.377 261.899C340.06 261.899 341.418 262.315 342.45 263.148C343.491 263.981 344.012 265.061 344.012 266.389H340.85C340.85 265.781 340.624 265.278 340.173 264.879C339.722 264.471 339.123 264.268 338.377 264.268C337.683 264.268 337.115 264.428 336.672 264.749C336.238 265.07 336.022 265.5 336.022 266.037C336.022 266.523 336.225 266.901 336.633 267.17C337.041 267.439 337.865 267.712 339.106 267.989C340.346 268.258 341.318 268.584 342.021 268.965C342.732 269.339 343.257 269.79 343.596 270.319C343.943 270.848 344.116 271.49 344.116 272.245C344.116 273.512 343.591 274.54 342.541 275.329C341.492 276.11 340.117 276.5 338.416 276.5C337.262 276.5 336.234 276.292 335.332 275.876C334.43 275.459 333.727 274.887 333.224 274.158C332.72 273.429 332.469 272.644 332.469 271.802H335.54C335.583 272.549 335.865 273.126 336.386 273.533C336.906 273.932 337.596 274.132 338.455 274.132C339.288 274.132 339.921 273.976 340.355 273.663C340.789 273.342 341.006 272.926 341.006 272.414ZM353.082 276.5C351.078 276.5 349.452 275.871 348.202 274.613C346.962 273.347 346.341 271.664 346.341 269.564V269.174C346.341 267.768 346.61 266.515 347.148 265.413C347.695 264.302 348.458 263.439 349.439 262.823C350.419 262.207 351.512 261.899 352.718 261.899C354.635 261.899 356.115 262.511 357.156 263.734C358.206 264.957 358.73 266.688 358.73 268.926V270.202H349.53C349.625 271.364 350.011 272.284 350.688 272.961C351.373 273.637 352.232 273.976 353.265 273.976C354.714 273.976 355.893 273.39 356.804 272.219L358.509 273.846C357.945 274.687 357.19 275.342 356.245 275.811C355.308 276.27 354.254 276.5 353.082 276.5ZM352.705 264.437C351.838 264.437 351.135 264.74 350.597 265.348C350.068 265.955 349.729 266.801 349.582 267.885H355.607V267.651C355.538 266.593 355.256 265.794 354.761 265.257C354.267 264.71 353.581 264.437 352.705 264.437ZM369.089 272.414C369.089 271.85 368.855 271.421 368.387 271.126C367.927 270.831 367.159 270.57 366.083 270.345C365.007 270.119 364.109 269.833 363.389 269.486C361.81 268.723 361.021 267.616 361.021 266.168C361.021 264.953 361.533 263.938 362.556 263.122C363.58 262.307 364.882 261.899 366.461 261.899C368.144 261.899 369.501 262.315 370.534 263.148C371.575 263.981 372.095 265.061 372.095 266.389H368.933C368.933 265.781 368.708 265.278 368.256 264.879C367.805 264.471 367.207 264.268 366.461 264.268C365.766 264.268 365.198 264.428 364.756 264.749C364.322 265.07 364.105 265.5 364.105 266.037C364.105 266.523 364.309 266.901 364.717 267.17C365.124 267.439 365.949 267.712 367.189 267.989C368.43 268.258 369.402 268.584 370.104 268.965C370.816 269.339 371.341 269.79 371.679 270.319C372.026 270.848 372.2 271.49 372.2 272.245C372.2 273.512 371.675 274.54 370.625 275.329C369.575 276.11 368.2 276.5 366.5 276.5C365.346 276.5 364.318 276.292 363.415 275.876C362.513 275.459 361.81 274.887 361.307 274.158C360.804 273.429 360.552 272.644 360.552 271.802H363.624C363.667 272.549 363.949 273.126 364.469 273.533C364.99 273.932 365.68 274.132 366.539 274.132C367.371 274.132 368.005 273.976 368.439 273.663C368.872 273.342 369.089 272.926 369.089 272.414ZM382.858 272.414C382.858 271.85 382.623 271.421 382.155 271.126C381.695 270.831 380.927 270.57 379.852 270.345C378.776 270.119 377.878 269.833 377.158 269.486C375.579 268.723 374.789 267.616 374.789 266.168C374.789 264.953 375.301 263.938 376.325 263.122C377.349 262.307 378.65 261.899 380.229 261.899C381.912 261.899 383.27 262.315 384.302 263.148C385.343 263.981 385.864 265.061 385.864 266.389H382.702C382.702 265.781 382.476 265.278 382.025 264.879C381.574 264.471 380.975 264.268 380.229 264.268C379.535 264.268 378.967 264.428 378.524 264.749C378.09 265.07 377.874 265.5 377.874 266.037C377.874 266.523 378.077 266.901 378.485 267.17C378.893 267.439 379.717 267.712 380.958 267.989C382.198 268.258 383.17 268.584 383.873 268.965C384.584 269.339 385.109 269.79 385.447 270.319C385.794 270.848 385.968 271.49 385.968 272.245C385.968 273.512 385.443 274.54 384.393 275.329C383.344 276.11 381.968 276.5 380.268 276.5C379.114 276.5 378.086 276.292 377.184 275.876C376.282 275.459 375.579 274.887 375.076 274.158C374.572 273.429 374.321 272.644 374.321 271.802H377.392C377.435 272.549 377.717 273.126 378.238 273.533C378.758 273.932 379.448 274.132 380.307 274.132C381.14 274.132 381.773 273.976 382.207 273.663C382.641 273.342 382.858 272.926 382.858 272.414ZM392.097 276.24H388.935V262.159H392.097V276.24ZM388.74 258.502C388.74 258.017 388.892 257.613 389.195 257.292C389.508 256.971 389.95 256.811 390.523 256.811C391.095 256.811 391.538 256.971 391.85 257.292C392.163 257.613 392.319 258.017 392.319 258.502C392.319 258.98 392.163 259.379 391.85 259.7C391.538 260.012 391.095 260.168 390.523 260.168C389.95 260.168 389.508 260.012 389.195 259.7C388.892 259.379 388.74 258.98 388.74 258.502ZM394.96 269.07C394.96 267.69 395.234 266.449 395.78 265.348C396.327 264.237 397.095 263.387 398.084 262.797C399.073 262.198 400.209 261.899 401.493 261.899C403.393 261.899 404.933 262.511 406.113 263.734C407.302 264.957 407.944 266.58 408.039 268.601L408.052 269.343C408.052 270.731 407.783 271.972 407.245 273.065C406.716 274.158 405.953 275.004 404.955 275.602C403.966 276.201 402.821 276.5 401.519 276.5C399.533 276.5 397.941 275.841 396.743 274.522C395.555 273.195 394.96 271.429 394.96 269.226V269.07ZM398.123 269.343C398.123 270.792 398.422 271.928 399.021 272.752C399.619 273.568 400.452 273.976 401.519 273.976C402.586 273.976 403.415 273.559 404.005 272.726C404.604 271.894 404.903 270.675 404.903 269.07C404.903 267.647 404.595 266.519 403.979 265.686C403.372 264.853 402.543 264.437 401.493 264.437C400.461 264.437 399.641 264.849 399.034 265.673C398.426 266.489 398.123 267.712 398.123 269.343ZM413.661 262.159L413.752 263.786C414.793 262.528 416.16 261.899 417.851 261.899C420.784 261.899 422.276 263.578 422.328 266.935V276.24H419.166V267.118C419.166 266.224 418.971 265.565 418.58 265.139C418.199 264.706 417.57 264.489 416.693 264.489C415.418 264.489 414.468 265.066 413.843 266.22V276.24H410.681V262.159H413.661Z" fill="#101828"/>
<path d="M207.827 314.988H213.214V316.214H206.32V304.845H207.827V314.988ZM214.315 311.911C214.315 311.084 214.477 310.339 214.799 309.678C215.127 309.017 215.58 308.507 216.158 308.148C216.741 307.789 217.405 307.609 218.149 307.609C219.299 307.609 220.229 308.007 220.937 308.804C221.65 309.6 222.006 310.659 222.006 311.982V312.083C222.006 312.906 221.847 313.645 221.53 314.301C221.218 314.951 220.767 315.459 220.179 315.823C219.596 316.188 218.925 316.37 218.165 316.37C217.019 316.37 216.09 315.972 215.377 315.175C214.669 314.379 214.315 313.325 214.315 312.013V311.911ZM215.768 312.083C215.768 313.02 215.984 313.772 216.416 314.34C216.853 314.907 217.436 315.191 218.165 315.191C218.899 315.191 219.482 314.904 219.914 314.332C220.346 313.754 220.562 312.947 220.562 311.911C220.562 310.985 220.341 310.235 219.898 309.663C219.461 309.085 218.878 308.796 218.149 308.796C217.436 308.796 216.861 309.08 216.423 309.647C215.986 310.214 215.768 311.026 215.768 312.083ZM223.435 311.911C223.435 311.084 223.597 310.339 223.919 309.678C224.247 309.017 224.7 308.507 225.278 308.148C225.861 307.789 226.525 307.609 227.269 307.609C228.419 307.609 229.349 308.007 230.057 308.804C230.77 309.6 231.126 310.659 231.126 311.982V312.083C231.126 312.906 230.967 313.645 230.65 314.301C230.338 314.951 229.887 315.459 229.299 315.823C228.716 316.188 228.045 316.37 227.285 316.37C226.139 316.37 225.21 315.972 224.497 315.175C223.789 314.379 223.435 313.325 223.435 312.013V311.911ZM224.887 312.083C224.887 313.02 225.104 313.772 225.536 314.34C225.973 314.907 226.556 315.191 227.285 315.191C228.019 315.191 228.602 314.904 229.034 314.332C229.466 313.754 229.682 312.947 229.682 311.911C229.682 310.985 229.46 310.235 229.018 309.663C228.581 309.085 227.998 308.796 227.269 308.796C226.556 308.796 225.981 309.08 225.543 309.647C225.106 310.214 224.887 311.026 224.887 312.083ZM235.296 312.302L234.39 313.247V316.214H232.946V304.22H234.39V311.474L235.163 310.545L237.794 307.765H239.551L236.264 311.294L239.934 316.214H238.239L235.296 312.302ZM245.72 316.214V308.882H244.385V307.765H245.72V306.898C245.72 305.993 245.962 305.293 246.446 304.798C246.93 304.304 247.615 304.056 248.499 304.056C248.833 304.056 249.163 304.101 249.491 304.189L249.413 305.36C249.168 305.313 248.908 305.29 248.632 305.29C248.164 305.29 247.802 305.428 247.547 305.704C247.292 305.974 247.164 306.365 247.164 306.875V307.765H248.968V308.882H247.164V316.214H245.72ZM250.186 311.911C250.186 311.084 250.347 310.339 250.67 309.678C250.998 309.017 251.451 308.507 252.029 308.148C252.612 307.789 253.275 307.609 254.02 307.609C255.17 307.609 256.099 308.007 256.807 308.804C257.521 309.6 257.877 310.659 257.877 311.982V312.083C257.877 312.906 257.718 313.645 257.401 314.301C257.088 314.951 256.638 315.459 256.05 315.823C255.467 316.188 254.795 316.37 254.035 316.37C252.89 316.37 251.961 315.972 251.248 315.175C250.54 314.379 250.186 313.325 250.186 312.013V311.911ZM251.638 312.083C251.638 313.02 251.854 313.772 252.286 314.34C252.724 314.907 253.307 315.191 254.035 315.191C254.769 315.191 255.352 314.904 255.785 314.332C256.217 313.754 256.433 312.947 256.433 311.911C256.433 310.985 256.211 310.235 255.769 309.663C255.332 309.085 254.749 308.796 254.02 308.796C253.307 308.796 252.732 309.08 252.294 309.647C251.857 310.214 251.638 311.026 251.638 312.083ZM263.772 309.061C263.554 309.025 263.317 309.007 263.062 309.007C262.114 309.007 261.471 309.41 261.133 310.217V316.214H259.689V307.765H261.094L261.118 308.741C261.591 307.986 262.263 307.609 263.132 307.609C263.413 307.609 263.627 307.645 263.772 307.718V309.061ZM271.034 305.719V307.765H272.611V308.882H271.034V314.121C271.034 314.459 271.104 314.714 271.245 314.886C271.385 315.053 271.625 315.136 271.963 315.136C272.13 315.136 272.359 315.105 272.65 315.042V316.214C272.27 316.318 271.901 316.37 271.541 316.37C270.896 316.37 270.409 316.175 270.081 315.784C269.753 315.394 269.589 314.839 269.589 314.121V308.882H268.051V307.765H269.589V305.719H271.034ZM275.75 308.788C276.39 308.002 277.223 307.609 278.249 307.609C280.034 307.609 280.935 308.616 280.95 310.631V316.214H279.506V310.623C279.501 310.014 279.36 309.564 279.084 309.272C278.813 308.981 278.389 308.835 277.811 308.835C277.343 308.835 276.932 308.96 276.578 309.21C276.224 309.46 275.948 309.787 275.75 310.194V316.214H274.306V304.22H275.75V308.788ZM286.619 316.37C285.474 316.37 284.542 315.995 283.824 315.245C283.105 314.491 282.746 313.483 282.746 312.224V311.958C282.746 311.12 282.905 310.373 283.223 309.717C283.545 309.056 283.993 308.541 284.566 308.171C285.143 307.796 285.768 307.609 286.44 307.609C287.538 307.609 288.392 307.971 289.001 308.694C289.61 309.418 289.914 310.454 289.914 311.802V312.403H284.191C284.212 313.236 284.454 313.91 284.917 314.426C285.385 314.936 285.979 315.191 286.697 315.191C287.207 315.191 287.639 315.087 287.993 314.878C288.347 314.67 288.657 314.394 288.923 314.051L289.805 314.738C289.097 315.826 288.035 316.37 286.619 316.37ZM286.44 308.796C285.856 308.796 285.367 309.009 284.972 309.436C284.576 309.858 284.331 310.451 284.238 311.216H288.47V311.107C288.428 310.373 288.23 309.806 287.876 309.405C287.522 308.999 287.043 308.796 286.44 308.796ZM296.637 304.072L297.465 304.634C296.981 305.295 296.731 306.008 296.715 306.774V307.835H295.278V306.93C295.278 306.399 295.403 305.873 295.653 305.352C295.908 304.832 296.236 304.405 296.637 304.072ZM299.097 304.072L299.924 304.634C299.44 305.295 299.19 306.008 299.175 306.774V307.835H297.738V306.93C297.738 306.399 297.863 305.873 298.113 305.352C298.368 304.832 298.696 304.405 299.097 304.072ZM305.609 311.615H302.938V316.214H301.431V304.845H305.195C306.475 304.845 307.459 305.136 308.146 305.719C308.839 306.302 309.185 307.151 309.185 308.265C309.185 308.973 308.992 309.59 308.607 310.115C308.227 310.641 307.696 311.034 307.014 311.294L309.685 316.12V316.214H308.076L305.609 311.615ZM302.938 310.389H305.242C305.986 310.389 306.577 310.196 307.014 309.811C307.457 309.426 307.678 308.91 307.678 308.265C307.678 307.562 307.467 307.023 307.045 306.649C306.629 306.274 306.025 306.084 305.234 306.079H302.938V310.389ZM312.511 308.788C313.151 308.002 313.984 307.609 315.01 307.609C316.795 307.609 317.696 308.616 317.711 310.631V316.214H316.267V310.623C316.262 310.014 316.121 309.564 315.845 309.272C315.574 308.981 315.15 308.835 314.572 308.835C314.104 308.835 313.693 308.96 313.339 309.21C312.985 309.46 312.709 309.787 312.511 310.194V316.214H311.067V304.22H312.511V308.788ZM321.444 316.214H319.999V307.765H321.444V316.214ZM319.882 305.524C319.882 305.29 319.952 305.092 320.093 304.931C320.239 304.769 320.452 304.689 320.733 304.689C321.014 304.689 321.228 304.769 321.373 304.931C321.519 305.092 321.592 305.29 321.592 305.524C321.592 305.758 321.519 305.954 321.373 306.11C321.228 306.266 321.014 306.344 320.733 306.344C320.452 306.344 320.239 306.266 320.093 306.11C319.952 305.954 319.882 305.758 319.882 305.524ZM325.121 315.035H330.064V316.214H323.357V315.152L328.018 308.96H323.427V307.765H329.83V308.788L325.121 315.035ZM331.188 311.911C331.188 311.084 331.35 310.339 331.672 309.678C332 309.017 332.453 308.507 333.031 308.148C333.614 307.789 334.278 307.609 335.022 307.609C336.173 307.609 337.102 308.007 337.81 308.804C338.523 309.6 338.879 310.659 338.879 311.982V312.083C338.879 312.906 338.721 313.645 338.403 314.301C338.091 314.951 337.64 315.459 337.052 315.823C336.469 316.188 335.798 316.37 335.038 316.37C333.893 316.37 332.963 315.972 332.25 315.175C331.542 314.379 331.188 313.325 331.188 312.013V311.911ZM332.641 312.083C332.641 313.02 332.857 313.772 333.289 314.34C333.726 314.907 334.309 315.191 335.038 315.191C335.772 315.191 336.355 314.904 336.787 314.332C337.219 313.754 337.435 312.947 337.435 311.911C337.435 310.985 337.214 310.235 336.771 309.663C336.334 309.085 335.751 308.796 335.022 308.796C334.309 308.796 333.734 309.08 333.297 309.647C332.859 310.214 332.641 311.026 332.641 312.083ZM347.445 314.254L349.538 307.765H351.013L347.984 316.214H346.883L343.822 307.765H345.298L347.445 314.254ZM355.8 316.37C354.655 316.37 353.723 315.995 353.004 315.245C352.286 314.491 351.927 313.483 351.927 312.224V311.958C351.927 311.12 352.086 310.373 352.403 309.717C352.726 309.056 353.174 308.541 353.746 308.171C354.324 307.796 354.949 307.609 355.62 307.609C356.718 307.609 357.572 307.971 358.181 308.694C358.79 309.418 359.095 310.454 359.095 311.802V312.403H353.371C353.392 313.236 353.634 313.91 354.098 314.426C354.566 314.936 355.159 315.191 355.878 315.191C356.388 315.191 356.82 315.087 357.174 314.878C357.528 314.67 357.838 314.394 358.103 314.051L358.985 314.738C358.278 315.826 357.216 316.37 355.8 316.37ZM355.62 308.796C355.037 308.796 354.548 309.009 354.152 309.436C353.757 309.858 353.512 310.451 353.418 311.216H357.65V311.107C357.609 310.373 357.411 309.806 357.057 309.405C356.703 308.999 356.224 308.796 355.62 308.796ZM364.857 309.061C364.639 309.025 364.402 309.007 364.147 309.007C363.199 309.007 362.556 309.41 362.218 310.217V316.214H360.774V307.765H362.179L362.202 308.741C362.676 307.986 363.348 307.609 364.217 307.609C364.498 307.609 364.711 307.645 364.857 307.718V309.061ZM367.762 316.214H366.317V307.765H367.762V316.214ZM366.2 305.524C366.2 305.29 366.271 305.092 366.411 304.931C366.557 304.769 366.77 304.689 367.051 304.689C367.332 304.689 367.546 304.769 367.692 304.931C367.837 305.092 367.91 305.29 367.91 305.524C367.91 305.758 367.837 305.954 367.692 306.11C367.546 306.266 367.332 306.344 367.051 306.344C366.77 306.344 366.557 306.266 366.411 306.11C366.271 305.954 366.2 305.758 366.2 305.524ZM370.565 316.214V308.882H369.23V307.765H370.565V307.047C370.565 306.105 370.833 305.371 371.369 304.845C371.911 304.319 372.673 304.056 373.657 304.056C374.24 304.056 374.977 304.215 375.867 304.533L375.625 305.751C374.974 305.49 374.355 305.36 373.766 305.36C373.147 305.36 372.699 305.501 372.423 305.782C372.153 306.058 372.017 306.474 372.017 307.031V307.765H373.743V308.882H372.017V316.214H370.565ZM376.585 316.214H375.133V307.765H376.585V316.214ZM382.441 316.37C381.296 316.37 380.364 315.995 379.646 315.245C378.928 314.491 378.568 313.483 378.568 312.224V311.958C378.568 311.12 378.727 310.373 379.045 309.717C379.367 309.056 379.815 308.541 380.388 308.171C380.966 307.796 381.59 307.609 382.262 307.609C383.36 307.609 384.214 307.971 384.823 308.694C385.432 309.418 385.736 310.454 385.736 311.802V312.403H380.013C380.034 313.236 380.276 313.91 380.739 314.426C381.208 314.936 381.801 315.191 382.519 315.191C383.03 315.191 383.462 315.087 383.816 314.878C384.17 314.67 384.479 314.394 384.745 314.051L385.627 314.738C384.919 315.826 383.857 316.37 382.441 316.37ZM382.262 308.796C381.679 308.796 381.189 309.009 380.794 309.436C380.398 309.858 380.153 310.451 380.06 311.216H384.292V311.107C384.25 310.373 384.052 309.806 383.698 309.405C383.344 308.999 382.866 308.796 382.262 308.796ZM387.064 311.919C387.064 310.623 387.371 309.582 387.985 308.796C388.599 308.005 389.404 307.609 390.398 307.609C391.387 307.609 392.17 307.947 392.748 308.624V304.22H394.193V316.214H392.865L392.795 315.308C392.217 316.016 391.413 316.37 390.382 316.37C389.404 316.37 388.605 315.969 387.985 315.167C387.371 314.366 387.064 313.319 387.064 312.028V311.919ZM388.508 312.083C388.508 313.041 388.706 313.79 389.102 314.332C389.497 314.873 390.044 315.144 390.741 315.144C391.658 315.144 392.326 314.733 392.748 313.91V310.03C392.316 309.233 391.652 308.835 390.757 308.835C390.049 308.835 389.497 309.108 389.102 309.655C388.706 310.201 388.508 311.011 388.508 312.083ZM396.637 308.046L395.817 307.484C396.301 306.807 396.551 306.094 396.566 305.345V304.22H397.995V305.235C397.99 305.756 397.86 306.276 397.605 306.797C397.355 307.312 397.032 307.729 396.637 308.046ZM399.034 308.046L398.214 307.484C398.698 306.807 398.948 306.094 398.963 305.345V304.22H400.392V305.235C400.387 305.756 400.257 306.276 400.002 306.797C399.752 307.312 399.429 307.729 399.034 308.046ZM407.482 307.765L407.521 308.702C408.141 307.973 408.976 307.609 410.028 307.609C411.209 307.609 412.014 308.062 412.44 308.968C412.722 308.562 413.086 308.234 413.534 307.984C413.986 307.734 414.52 307.609 415.134 307.609C416.987 307.609 417.93 308.59 417.961 310.553V316.214H416.516V310.639C416.516 310.035 416.378 309.584 416.102 309.288C415.827 308.986 415.363 308.835 414.713 308.835C414.176 308.835 413.731 308.996 413.377 309.319C413.023 309.637 412.818 310.066 412.761 310.607V316.214H411.308V310.678C411.308 309.449 410.707 308.835 409.505 308.835C408.557 308.835 407.909 309.238 407.56 310.045V316.214H406.116V307.765H407.482ZM425.363 316.214C425.28 316.047 425.212 315.75 425.16 315.323C424.488 316.021 423.687 316.37 422.755 316.37C421.922 316.37 421.238 316.136 420.701 315.667C420.171 315.193 419.905 314.595 419.905 313.871C419.905 312.991 420.238 312.31 420.904 311.825C421.576 311.336 422.518 311.091 423.731 311.091H425.137V310.428C425.137 309.923 424.986 309.522 424.684 309.225C424.382 308.923 423.937 308.772 423.348 308.772C422.833 308.772 422.401 308.903 422.052 309.163C421.704 309.423 421.529 309.738 421.529 310.108H420.077C420.077 309.686 420.225 309.28 420.522 308.89C420.824 308.494 421.23 308.182 421.74 307.953C422.255 307.724 422.82 307.609 423.434 307.609C424.408 307.609 425.17 307.854 425.722 308.343C426.274 308.827 426.56 309.496 426.581 310.35V314.238C426.581 315.014 426.68 315.631 426.878 316.089V316.214H425.363ZM422.966 315.113C423.419 315.113 423.848 314.996 424.254 314.761C424.66 314.527 424.954 314.223 425.137 313.848V312.114H424.004C422.234 312.114 421.35 312.632 421.35 313.668C421.35 314.121 421.501 314.475 421.802 314.73C422.104 314.985 422.492 315.113 422.966 315.113ZM432.929 309.061C432.71 309.025 432.474 309.007 432.219 309.007C431.271 309.007 430.628 309.41 430.29 310.217V316.214H428.845V307.765H430.251L430.274 308.741C430.748 307.986 431.42 307.609 432.289 307.609C432.57 307.609 432.783 307.645 432.929 307.718V309.061ZM436.622 312.302L435.717 313.247V316.214H434.272V304.22H435.717V311.474L436.49 310.545L439.121 307.765H440.878L437.591 311.294L441.26 316.214H439.566L436.622 312.302ZM442.4 315.456C442.4 315.206 442.473 314.998 442.619 314.832C442.77 314.665 442.994 314.582 443.291 314.582C443.587 314.582 443.811 314.665 443.962 314.832C444.118 314.998 444.196 315.206 444.196 315.456C444.196 315.696 444.118 315.896 443.962 316.057C443.811 316.219 443.587 316.3 443.291 316.3C442.994 316.3 442.77 316.219 442.619 316.057C442.473 315.896 442.4 315.696 442.4 315.456ZM458.321 306.079H454.667V316.214H453.176V306.079H449.529V304.845H458.321V306.079ZM461.226 308.788C461.866 308.002 462.699 307.609 463.725 307.609C465.51 307.609 466.411 308.616 466.426 310.631V316.214H464.982V310.623C464.977 310.014 464.836 309.564 464.56 309.272C464.289 308.981 463.865 308.835 463.287 308.835C462.819 308.835 462.408 308.96 462.054 309.21C461.7 309.46 461.424 309.787 461.226 310.194V316.214H459.782V304.22H461.226V308.788ZM472.095 316.37C470.95 316.37 470.018 315.995 469.3 315.245C468.581 314.491 468.222 313.483 468.222 312.224V311.958C468.222 311.12 468.381 310.373 468.698 309.717C469.021 309.056 469.469 308.541 470.041 308.171C470.619 307.796 471.244 307.609 471.915 307.609C473.014 307.609 473.867 307.971 474.477 308.694C475.086 309.418 475.39 310.454 475.39 311.802V312.403H469.667C469.688 313.236 469.93 313.91 470.393 314.426C470.861 314.936 471.455 315.191 472.173 315.191C472.683 315.191 473.115 315.087 473.469 314.878C473.823 314.67 474.133 314.394 474.398 314.051L475.281 314.738C474.573 315.826 473.511 316.37 472.095 316.37ZM471.915 308.796C471.332 308.796 470.843 309.009 470.448 309.436C470.052 309.858 469.807 310.451 469.714 311.216H473.946V311.107C473.904 310.373 473.706 309.806 473.352 309.405C472.998 308.999 472.519 308.796 471.915 308.796ZM481.988 313.973C481.988 313.582 481.84 313.28 481.543 313.067C481.251 312.848 480.739 312.661 480.005 312.505C479.276 312.349 478.696 312.161 478.264 311.943C477.837 311.724 477.519 311.464 477.311 311.162C477.108 310.86 477.006 310.501 477.006 310.084C477.006 309.392 477.298 308.806 477.881 308.327C478.469 307.848 479.219 307.609 480.13 307.609C481.087 307.609 481.863 307.856 482.457 308.351C483.055 308.845 483.354 309.478 483.354 310.248H481.902C481.902 309.853 481.733 309.512 481.395 309.225C481.061 308.939 480.64 308.796 480.13 308.796C479.604 308.796 479.193 308.91 478.896 309.139C478.599 309.368 478.451 309.668 478.451 310.037C478.451 310.386 478.589 310.649 478.865 310.826C479.141 311.003 479.638 311.172 480.356 311.333C481.08 311.495 481.665 311.687 482.113 311.911C482.561 312.135 482.891 312.406 483.105 312.723C483.323 313.036 483.433 313.418 483.433 313.871C483.433 314.626 483.131 315.232 482.527 315.69C481.923 316.143 481.14 316.37 480.177 316.37C479.5 316.37 478.901 316.25 478.381 316.011C477.86 315.771 477.451 315.438 477.155 315.011C476.863 314.579 476.717 314.113 476.717 313.613H478.162C478.188 314.098 478.381 314.483 478.74 314.769C479.104 315.05 479.583 315.191 480.177 315.191C480.723 315.191 481.16 315.081 481.488 314.863C481.821 314.639 481.988 314.342 481.988 313.973ZM488.82 316.37C487.675 316.37 486.743 315.995 486.025 315.245C485.307 314.491 484.947 313.483 484.947 312.224V311.958C484.947 311.12 485.106 310.373 485.424 309.717C485.746 309.056 486.194 308.541 486.767 308.171C487.344 307.796 487.969 307.609 488.641 307.609C489.739 307.609 490.593 307.971 491.202 308.694C491.811 309.418 492.115 310.454 492.115 311.802V312.403H486.392C486.413 313.236 486.655 313.91 487.118 314.426C487.586 314.936 488.18 315.191 488.898 315.191C489.408 315.191 489.84 315.087 490.194 314.878C490.548 314.67 490.858 314.394 491.124 314.051L492.006 314.738C491.298 315.826 490.236 316.37 488.82 316.37ZM488.641 308.796C488.058 308.796 487.568 309.009 487.173 309.436C486.777 309.858 486.532 310.451 486.439 311.216H490.671V311.107C490.629 310.373 490.431 309.806 490.077 309.405C489.723 308.999 489.244 308.796 488.641 308.796ZM499.119 307.765L499.158 308.702C499.778 307.973 500.613 307.609 501.665 307.609C502.846 307.609 503.651 308.062 504.077 308.968C504.358 308.562 504.723 308.234 505.171 307.984C505.623 307.734 506.157 307.609 506.771 307.609C508.624 307.609 509.567 308.59 509.598 310.553V316.214H508.153V310.639C508.153 310.035 508.015 309.584 507.739 309.288C507.464 308.986 507 308.835 506.35 308.835C505.813 308.835 505.368 308.996 505.014 309.319C504.66 309.637 504.455 310.066 504.398 310.607V316.214H502.945V310.678C502.945 309.449 502.344 308.835 501.142 308.835C500.194 308.835 499.546 309.238 499.197 310.045V316.214H497.753V307.765H499.119ZM515.29 316.37C514.145 316.37 513.213 315.995 512.495 315.245C511.776 314.491 511.417 313.483 511.417 312.224V311.958C511.417 311.12 511.576 310.373 511.893 309.717C512.216 309.056 512.664 308.541 513.236 308.171C513.814 307.796 514.439 307.609 515.11 307.609C516.209 307.609 517.062 307.971 517.671 308.694C518.281 309.418 518.585 310.454 518.585 311.802V312.403H512.862C512.882 313.236 513.125 313.91 513.588 314.426C514.056 314.936 514.65 315.191 515.368 315.191C515.878 315.191 516.31 315.087 516.664 314.878C517.018 314.67 517.328 314.394 517.593 314.051L518.476 314.738C517.768 315.826 516.706 316.37 515.29 316.37ZM515.11 308.796C514.527 308.796 514.038 309.009 513.642 309.436C513.247 309.858 513.002 310.451 512.908 311.216H517.141V311.107C517.099 310.373 516.901 309.806 516.547 309.405C516.193 308.999 515.714 308.796 515.11 308.796ZM521.63 307.765L521.677 308.827C522.323 308.015 523.166 307.609 524.207 307.609C525.992 307.609 526.893 308.616 526.909 310.631V316.214H525.464V310.623C525.459 310.014 525.318 309.564 525.042 309.272C524.772 308.981 524.347 308.835 523.77 308.835C523.301 308.835 522.89 308.96 522.536 309.21C522.182 309.46 521.906 309.787 521.708 310.194V316.214H520.264V307.765H521.63ZM531.047 305.719V307.765H532.624V308.882H531.047V314.121C531.047 314.459 531.117 314.714 531.258 314.886C531.398 315.053 531.638 315.136 531.976 315.136C532.143 315.136 532.372 315.105 532.663 315.042V316.214C532.283 316.318 531.914 316.37 531.554 316.37C530.909 316.37 530.422 316.175 530.094 315.784C529.766 315.394 529.602 314.839 529.602 314.121V308.882H528.064V307.765H529.602V305.719H531.047ZM533.78 311.911C533.78 311.084 533.941 310.339 534.264 309.678C534.592 309.017 535.045 308.507 535.623 308.148C536.206 307.789 536.869 307.609 537.614 307.609C538.764 307.609 539.693 308.007 540.401 308.804C541.114 309.6 541.471 310.659 541.471 311.982V312.083C541.471 312.906 541.312 313.645 540.995 314.301C540.682 314.951 540.232 315.459 539.644 315.823C539.061 316.188 538.389 316.37 537.629 316.37C536.484 316.37 535.555 315.972 534.842 315.175C534.134 314.379 533.78 313.325 533.78 312.013V311.911ZM535.232 312.083C535.232 313.02 535.448 313.772 535.88 314.34C536.317 314.907 536.9 315.191 537.629 315.191C538.363 315.191 538.946 314.904 539.378 314.332C539.81 313.754 540.026 312.947 540.026 311.911C540.026 310.985 539.805 310.235 539.363 309.663C538.925 309.085 538.342 308.796 537.614 308.796C536.9 308.796 536.325 309.08 535.888 309.647C535.451 310.214 535.232 311.026 535.232 312.083ZM547.366 309.061C547.147 309.025 546.911 309.007 546.656 309.007C545.708 309.007 545.065 309.41 544.727 310.217V316.214H543.282V307.765H544.688L544.711 308.741C545.185 307.986 545.856 307.609 546.726 307.609C547.007 307.609 547.22 307.645 547.366 307.718V309.061ZM553.62 313.973C553.62 313.582 553.472 313.28 553.175 313.067C552.884 312.848 552.371 312.661 551.637 312.505C550.908 312.349 550.328 312.161 549.896 311.943C549.469 311.724 549.152 311.464 548.943 311.162C548.74 310.86 548.639 310.501 548.639 310.084C548.639 309.392 548.93 308.806 549.513 308.327C550.102 307.848 550.851 307.609 551.762 307.609C552.72 307.609 553.496 307.856 554.089 308.351C554.688 308.845 554.987 309.478 554.987 310.248H553.535C553.535 309.853 553.365 309.512 553.027 309.225C552.694 308.939 552.272 308.796 551.762 308.796C551.236 308.796 550.825 308.91 550.528 309.139C550.232 309.368 550.083 309.668 550.083 310.037C550.083 310.386 550.221 310.649 550.497 310.826C550.773 311.003 551.27 311.172 551.989 311.333C552.712 311.495 553.298 311.687 553.745 311.911C554.193 312.135 554.524 312.406 554.737 312.723C554.956 313.036 555.065 313.418 555.065 313.871C555.065 314.626 554.763 315.232 554.159 315.69C553.555 316.143 552.772 316.37 551.809 316.37C551.132 316.37 550.534 316.25 550.013 316.011C549.493 315.771 549.084 315.438 548.787 315.011C548.496 314.579 548.35 314.113 548.35 313.613H549.794C549.82 314.098 550.013 314.483 550.372 314.769C550.737 315.05 551.216 315.191 551.809 315.191C552.356 315.191 552.793 315.081 553.121 314.863C553.454 314.639 553.62 314.342 553.62 313.973ZM562.358 308.788C562.998 308.002 563.831 307.609 564.856 307.609C566.642 307.609 567.542 308.616 567.558 310.631V316.214H566.114V310.623C566.108 310.014 565.968 309.564 565.692 309.272C565.421 308.981 564.997 308.835 564.419 308.835C563.951 308.835 563.539 308.96 563.185 309.21C562.831 309.46 562.556 309.787 562.358 310.194V316.214H560.913V304.22H562.358V308.788ZM574.937 316.214C574.854 316.047 574.786 315.75 574.734 315.323C574.062 316.021 573.261 316.37 572.329 316.37C571.496 316.37 570.811 316.136 570.275 315.667C569.744 315.193 569.479 314.595 569.479 313.871C569.479 312.991 569.812 312.31 570.478 311.825C571.15 311.336 572.092 311.091 573.305 311.091H574.71V310.428C574.71 309.923 574.559 309.522 574.257 309.225C573.956 308.923 573.511 308.772 572.922 308.772C572.407 308.772 571.975 308.903 571.626 309.163C571.277 309.423 571.103 309.738 571.103 310.108H569.651C569.651 309.686 569.799 309.28 570.096 308.89C570.398 308.494 570.804 308.182 571.314 307.953C571.829 307.724 572.394 307.609 573.008 307.609C573.982 307.609 574.744 307.854 575.296 308.343C575.848 308.827 576.134 309.496 576.155 310.35V314.238C576.155 315.014 576.254 315.631 576.452 316.089V316.214H574.937ZM572.54 315.113C572.993 315.113 573.422 314.996 573.828 314.761C574.234 314.527 574.528 314.223 574.71 313.848V312.114H573.578C571.808 312.114 570.923 312.632 570.923 313.668C570.923 314.121 571.074 314.475 571.376 314.73C571.678 314.985 572.066 315.113 572.54 315.113ZM581.082 314.254L583.174 307.765H584.65L581.621 316.214H580.52L577.459 307.765H578.935L581.082 314.254ZM589.437 316.37C588.291 316.37 587.36 315.995 586.641 315.245C585.923 314.491 585.564 313.483 585.564 312.224V311.958C585.564 311.12 585.723 310.373 586.04 309.717C586.363 309.056 586.81 308.541 587.383 308.171C587.961 307.796 588.586 307.609 589.257 307.609C590.355 307.609 591.209 307.971 591.818 308.694C592.427 309.418 592.732 310.454 592.732 311.802V312.403H587.008C587.029 313.236 587.271 313.91 587.734 314.426C588.203 314.936 588.796 315.191 589.515 315.191C590.025 315.191 590.457 315.087 590.811 314.878C591.165 314.67 591.475 314.394 591.74 314.051L592.622 314.738C591.914 315.826 590.853 316.37 589.437 316.37ZM589.257 308.796C588.674 308.796 588.185 309.009 587.789 309.436C587.393 309.858 587.149 310.451 587.055 311.216H591.287V311.107C591.246 310.373 591.048 309.806 590.694 309.405C590.34 308.999 589.861 308.796 589.257 308.796ZM600.337 305.719V307.765H601.914V308.882H600.337V314.121C600.337 314.459 600.407 314.714 600.548 314.886C600.688 315.053 600.928 315.136 601.266 315.136C601.433 315.136 601.662 315.105 601.953 315.042V316.214C601.573 316.318 601.204 316.37 600.844 316.37C600.199 316.37 599.712 316.175 599.384 315.784C599.056 315.394 598.892 314.839 598.892 314.121V308.882H597.354V307.765H598.892V305.719H600.337ZM605.053 308.788C605.693 308.002 606.526 307.609 607.552 307.609C609.337 307.609 610.238 308.616 610.253 310.631V316.214H608.809V310.623C608.804 310.014 608.663 309.564 608.387 309.272C608.116 308.981 607.692 308.835 607.114 308.835C606.646 308.835 606.235 308.96 605.881 309.21C605.527 309.46 605.251 309.787 605.053 310.194V316.214H603.609V304.22H605.053V308.788ZM615.922 316.37C614.777 316.37 613.845 315.995 613.127 315.245C612.408 314.491 612.049 313.483 612.049 312.224V311.958C612.049 311.12 612.208 310.373 612.525 309.717C612.848 309.056 613.296 308.541 613.869 308.171C614.446 307.796 615.071 307.609 615.742 307.609C616.841 307.609 617.695 307.971 618.304 308.694C618.913 309.418 619.217 310.454 619.217 311.802V312.403H613.494C613.515 313.236 613.757 313.91 614.22 314.426C614.688 314.936 615.282 315.191 616 315.191C616.51 315.191 616.942 315.087 617.296 314.878C617.65 314.67 617.96 314.394 618.225 314.051L619.108 314.738C618.4 315.826 617.338 316.37 615.922 316.37ZM615.742 308.796C615.159 308.796 614.67 309.009 614.275 309.436C613.879 309.858 613.634 310.451 613.541 311.216H617.773V311.107C617.731 310.373 617.533 309.806 617.179 309.405C616.825 308.999 616.346 308.796 615.742 308.796ZM622.465 316.214H621.021V307.765H622.465V316.214ZM620.904 305.524C620.904 305.29 620.974 305.092 621.115 304.931C621.26 304.769 621.474 304.689 621.755 304.689C622.036 304.689 622.249 304.769 622.395 304.931C622.541 305.092 622.614 305.29 622.614 305.524C622.614 305.758 622.541 305.954 622.395 306.11C622.249 306.266 622.036 306.344 621.755 306.344C621.474 306.344 621.26 306.266 621.115 306.11C620.974 305.954 620.904 305.758 620.904 305.524ZM628.868 309.061C628.649 309.025 628.413 309.007 628.157 309.007C627.21 309.007 626.567 309.41 626.229 310.217V316.214H624.784V307.765H626.19L626.213 308.741C626.687 307.986 627.358 307.609 628.228 307.609C628.509 307.609 628.722 307.645 628.868 307.718V309.061ZM633.826 311.919C633.826 310.602 634.131 309.556 634.74 308.78C635.349 307.999 636.156 307.609 637.16 307.609C638.191 307.609 638.995 307.973 639.573 308.702L639.643 307.765H640.963V316.011C640.963 317.104 640.638 317.965 639.987 318.595C639.341 319.225 638.472 319.54 637.379 319.54C636.77 319.54 636.174 319.41 635.591 319.15C635.008 318.889 634.563 318.533 634.256 318.08L635.005 317.213C635.625 317.978 636.382 318.361 637.277 318.361C637.98 318.361 638.527 318.163 638.917 317.767C639.313 317.372 639.511 316.815 639.511 316.097V315.37C638.933 316.037 638.144 316.37 637.145 316.37C636.156 316.37 635.354 315.972 634.74 315.175C634.131 314.379 633.826 313.293 633.826 311.919ZM635.279 312.083C635.279 313.036 635.474 313.785 635.864 314.332C636.255 314.873 636.801 315.144 637.504 315.144C638.415 315.144 639.084 314.73 639.511 313.902V310.045C639.068 309.238 638.404 308.835 637.52 308.835C636.817 308.835 636.268 309.108 635.872 309.655C635.476 310.201 635.279 311.011 635.279 312.083ZM647.233 309.061C647.014 309.025 646.777 309.007 646.522 309.007C645.575 309.007 644.932 309.41 644.594 310.217V316.214H643.149V307.765H644.555L644.578 308.741C645.052 307.986 645.723 307.609 646.593 307.609C646.874 307.609 647.087 307.645 647.233 307.718V309.061ZM653.472 316.214C653.388 316.047 653.321 315.75 653.269 315.323C652.597 316.021 651.796 316.37 650.864 316.37C650.031 316.37 649.346 316.136 648.81 315.667C648.279 315.193 648.014 314.595 648.014 313.871C648.014 312.991 648.347 312.31 649.013 311.825C649.685 311.336 650.627 311.091 651.84 311.091H653.245V310.428C653.245 309.923 653.094 309.522 652.792 309.225C652.49 308.923 652.045 308.772 651.457 308.772C650.942 308.772 650.51 308.903 650.161 309.163C649.812 309.423 649.638 309.738 649.638 310.108H648.186C648.186 309.686 648.334 309.28 648.631 308.89C648.933 308.494 649.339 308.182 649.849 307.953C650.364 307.724 650.929 307.609 651.543 307.609C652.516 307.609 653.279 307.854 653.831 308.343C654.383 308.827 654.669 309.496 654.69 310.35V314.238C654.69 315.014 654.789 315.631 654.986 316.089V316.214H653.472ZM651.075 315.113C651.527 315.113 651.957 314.996 652.363 314.761C652.769 314.527 653.063 314.223 653.245 313.848V312.114H652.113C650.343 312.114 649.458 312.632 649.458 313.668C649.458 314.121 649.609 314.475 649.911 314.73C650.213 314.985 650.601 315.113 651.075 315.113ZM656.603 311.919C656.603 310.623 656.91 309.582 657.524 308.796C658.138 308.005 658.943 307.609 659.937 307.609C660.926 307.609 661.709 307.947 662.287 308.624V304.22H663.732V316.214H662.404L662.334 315.308C661.756 316.016 660.952 316.37 659.921 316.37C658.943 316.37 658.144 315.969 657.524 315.167C656.91 314.366 656.603 313.319 656.603 312.028V311.919ZM658.047 312.083C658.047 313.041 658.245 313.79 658.641 314.332C659.036 314.873 659.583 315.144 660.28 315.144C661.197 315.144 661.865 314.733 662.287 313.91V310.03C661.855 309.233 661.191 308.835 660.296 308.835C659.588 308.835 659.036 309.108 658.641 309.655C658.245 310.201 658.047 311.011 658.047 312.083ZM669.486 316.37C668.341 316.37 667.409 315.995 666.691 315.245C665.973 314.491 665.613 313.483 665.613 312.224V311.958C665.613 311.12 665.772 310.373 666.09 309.717C666.412 309.056 666.86 308.541 667.433 308.171C668.011 307.796 668.635 307.609 669.307 307.609C670.405 307.609 671.259 307.971 671.868 308.694C672.477 309.418 672.781 310.454 672.781 311.802V312.403H667.058C667.079 313.236 667.321 313.91 667.784 314.426C668.253 314.936 668.846 315.191 669.564 315.191C670.075 315.191 670.507 315.087 670.861 314.878C671.215 314.67 671.524 314.394 671.79 314.051L672.672 314.738C671.964 315.826 670.902 316.37 669.486 316.37ZM669.307 308.796C668.724 308.796 668.234 309.009 667.839 309.436C667.443 309.858 667.198 310.451 667.105 311.216H671.337V311.107C671.295 310.373 671.097 309.806 670.743 309.405C670.389 308.999 669.911 308.796 669.307 308.796ZM205.742 336.919C205.742 335.623 206.049 334.582 206.663 333.796C207.277 333.005 208.082 332.609 209.076 332.609C210.065 332.609 210.848 332.947 211.426 333.624V329.22H212.871V341.214H211.543L211.473 340.308C210.895 341.016 210.091 341.37 209.06 341.37C208.082 341.37 207.283 340.969 206.663 340.167C206.049 339.366 205.742 338.319 205.742 337.028V336.919ZM207.186 337.083C207.186 338.041 207.384 338.79 207.78 339.332C208.175 339.873 208.722 340.144 209.419 340.144C210.336 340.144 211.005 339.733 211.426 338.91V335.03C210.994 334.233 210.33 333.835 209.435 333.835C208.727 333.835 208.175 334.108 207.78 334.655C207.384 335.201 207.186 336.011 207.186 337.083ZM216.689 341.214H215.244V332.765H216.689V341.214ZM215.127 330.524C215.127 330.29 215.198 330.092 215.338 329.931C215.484 329.769 215.697 329.689 215.978 329.689C216.259 329.689 216.473 329.769 216.619 329.931C216.764 330.092 216.837 330.29 216.837 330.524C216.837 330.758 216.764 330.954 216.619 331.11C216.473 331.266 216.259 331.344 215.978 331.344C215.697 331.344 215.484 331.266 215.338 331.11C215.198 330.954 215.127 330.758 215.127 330.524ZM223.927 338.973C223.927 338.582 223.779 338.28 223.482 338.067C223.19 337.848 222.678 337.661 221.944 337.505C221.215 337.349 220.635 337.161 220.203 336.943C219.776 336.724 219.458 336.464 219.25 336.162C219.047 335.86 218.945 335.501 218.945 335.084C218.945 334.392 219.237 333.806 219.82 333.327C220.408 332.848 221.158 332.609 222.069 332.609C223.027 332.609 223.802 332.856 224.396 333.351C224.994 333.845 225.294 334.478 225.294 335.248H223.841C223.841 334.853 223.672 334.512 223.334 334.225C223.001 333.939 222.579 333.796 222.069 333.796C221.543 333.796 221.132 333.91 220.835 334.139C220.538 334.368 220.39 334.668 220.39 335.037C220.39 335.386 220.528 335.649 220.804 335.826C221.08 336.003 221.577 336.172 222.295 336.333C223.019 336.495 223.604 336.687 224.052 336.911C224.5 337.135 224.83 337.406 225.044 337.723C225.262 338.036 225.372 338.418 225.372 338.871C225.372 339.626 225.07 340.232 224.466 340.69C223.862 341.143 223.079 341.37 222.116 341.37C221.439 341.37 220.84 341.25 220.32 341.011C219.799 340.771 219.391 340.438 219.094 340.011C218.802 339.579 218.657 339.113 218.657 338.613H220.101C220.127 339.098 220.32 339.483 220.679 339.769C221.043 340.05 221.522 340.191 222.116 340.191C222.662 340.191 223.099 340.081 223.427 339.863C223.76 339.639 223.927 339.342 223.927 338.973ZM234.39 337.083C234.39 338.369 234.096 339.405 233.508 340.191C232.92 340.977 232.123 341.37 231.118 341.37C230.093 341.37 229.286 341.044 228.698 340.394V344.462H227.253V332.765H228.573L228.643 333.702C229.231 332.973 230.049 332.609 231.095 332.609C232.11 332.609 232.912 332.992 233.5 333.757C234.093 334.522 234.39 335.587 234.39 336.95V337.083ZM232.946 336.919C232.946 335.967 232.743 335.214 232.337 334.663C231.93 334.111 231.373 333.835 230.666 333.835C229.791 333.835 229.135 334.223 228.698 334.998V339.035C229.13 339.806 229.791 340.191 230.681 340.191C231.373 340.191 231.923 339.917 232.329 339.371C232.74 338.819 232.946 338.002 232.946 336.919ZM237.802 341.214H236.358V329.22H237.802V341.214ZM245.337 341.214C245.254 341.047 245.186 340.75 245.134 340.323C244.463 341.021 243.661 341.37 242.729 341.37C241.896 341.37 241.212 341.136 240.676 340.667C240.145 340.193 239.879 339.595 239.879 338.871C239.879 337.991 240.212 337.31 240.879 336.825C241.55 336.336 242.492 336.091 243.705 336.091H245.111V335.428C245.111 334.923 244.96 334.522 244.658 334.225C244.356 333.923 243.911 333.772 243.323 333.772C242.807 333.772 242.375 333.903 242.026 334.163C241.678 334.423 241.503 334.738 241.503 335.108H240.051C240.051 334.686 240.199 334.28 240.496 333.89C240.798 333.494 241.204 333.182 241.714 332.953C242.229 332.724 242.794 332.609 243.409 332.609C244.382 332.609 245.145 332.854 245.696 333.343C246.248 333.827 246.534 334.496 246.555 335.35V339.238C246.555 340.014 246.654 340.631 246.852 341.089V341.214H245.337ZM242.94 340.113C243.393 340.113 243.822 339.996 244.228 339.761C244.634 339.527 244.929 339.223 245.111 338.848V337.114H243.979C242.209 337.114 241.324 337.632 241.324 338.668C241.324 339.121 241.475 339.475 241.777 339.73C242.079 339.985 242.466 340.113 242.94 340.113ZM251.459 339.098L253.426 332.765H254.972L251.576 342.518C251.05 343.923 250.215 344.626 249.069 344.626L248.796 344.602L248.257 344.501V343.33L248.648 343.361C249.137 343.361 249.517 343.262 249.788 343.064C250.064 342.866 250.29 342.505 250.467 341.979L250.787 341.12L247.773 332.765H249.351L251.459 339.098ZM259.665 341.37C258.52 341.37 257.588 340.995 256.87 340.245C256.152 339.491 255.792 338.483 255.792 337.224V336.958C255.792 336.12 255.951 335.373 256.269 334.717C256.591 334.056 257.039 333.541 257.612 333.171C258.189 332.796 258.814 332.609 259.486 332.609C260.584 332.609 261.438 332.971 262.047 333.694C262.656 334.418 262.96 335.454 262.96 336.802V337.403H257.237C257.258 338.236 257.5 338.91 257.963 339.426C258.432 339.936 259.025 340.191 259.743 340.191C260.253 340.191 260.685 340.087 261.039 339.878C261.393 339.67 261.703 339.394 261.969 339.051L262.851 339.738C262.143 340.826 261.081 341.37 259.665 341.37ZM259.486 333.796C258.903 333.796 258.413 334.009 258.018 334.436C257.622 334.858 257.377 335.451 257.284 336.216H261.516V336.107C261.474 335.373 261.276 334.806 260.922 334.405C260.568 333.999 260.089 333.796 259.486 333.796ZM264.288 336.919C264.288 335.623 264.595 334.582 265.209 333.796C265.823 333.005 266.628 332.609 267.622 332.609C268.611 332.609 269.394 332.947 269.972 333.624V329.22H271.417V341.214H270.089L270.019 340.308C269.441 341.016 268.637 341.37 267.606 341.37C266.628 341.37 265.828 340.969 265.209 340.167C264.595 339.366 264.288 338.319 264.288 337.028V336.919ZM265.732 337.083C265.732 338.041 265.93 338.79 266.326 339.332C266.721 339.873 267.268 340.144 267.965 340.144C268.881 340.144 269.55 339.733 269.972 338.91V335.03C269.54 334.233 268.876 333.835 267.981 333.835C267.273 333.835 266.721 334.108 266.326 334.655C265.93 335.201 265.732 336.011 265.732 337.083ZM277.249 336.911C277.249 336.084 277.411 335.339 277.733 334.678C278.061 334.017 278.514 333.507 279.092 333.148C279.675 332.789 280.339 332.609 281.083 332.609C282.233 332.609 283.163 333.007 283.871 333.804C284.584 334.6 284.94 335.659 284.94 336.982V337.083C284.94 337.906 284.782 338.645 284.464 339.301C284.152 339.951 283.701 340.459 283.113 340.823C282.53 341.188 281.859 341.37 281.099 341.37C279.953 341.37 279.024 340.972 278.311 340.175C277.603 339.379 277.249 338.325 277.249 337.013V336.911ZM278.702 337.083C278.702 338.02 278.918 338.772 279.35 339.34C279.787 339.907 280.37 340.191 281.099 340.191C281.833 340.191 282.416 339.904 282.848 339.332C283.28 338.754 283.496 337.947 283.496 336.911C283.496 335.985 283.275 335.235 282.832 334.663C282.395 334.085 281.812 333.796 281.083 333.796C280.37 333.796 279.795 334.08 279.357 334.647C278.92 335.214 278.702 336.026 278.702 337.083ZM288.118 332.765L288.165 333.827C288.811 333.015 289.654 332.609 290.695 332.609C292.48 332.609 293.381 333.616 293.397 335.631V341.214H291.952V335.623C291.947 335.014 291.806 334.564 291.53 334.272C291.26 333.981 290.836 333.835 290.258 333.835C289.789 333.835 289.378 333.96 289.024 334.21C288.67 334.46 288.394 334.787 288.196 335.194V341.214H286.752V332.765H288.118ZM304.461 338.973C304.461 338.582 304.312 338.28 304.016 338.067C303.724 337.848 303.212 337.661 302.478 337.505C301.749 337.349 301.168 337.161 300.736 336.943C300.309 336.724 299.992 336.464 299.784 336.162C299.581 335.86 299.479 335.501 299.479 335.084C299.479 334.392 299.771 333.806 300.354 333.327C300.942 332.848 301.692 332.609 302.602 332.609C303.56 332.609 304.336 332.856 304.929 333.351C305.528 333.845 305.827 334.478 305.827 335.248H304.375C304.375 334.853 304.206 334.512 303.867 334.225C303.534 333.939 303.113 333.796 302.602 333.796C302.077 333.796 301.665 333.91 301.369 334.139C301.072 334.368 300.924 334.668 300.924 335.037C300.924 335.386 301.062 335.649 301.338 335.826C301.613 336.003 302.111 336.172 302.829 336.333C303.552 336.495 304.138 336.687 304.586 336.911C305.033 337.135 305.364 337.406 305.577 337.723C305.796 338.036 305.905 338.418 305.905 338.871C305.905 339.626 305.603 340.232 305 340.69C304.396 341.143 303.612 341.37 302.649 341.37C301.973 341.37 301.374 341.25 300.853 341.011C300.333 340.771 299.924 340.438 299.628 340.011C299.336 339.579 299.19 339.113 299.19 338.613H300.635C300.661 339.098 300.853 339.483 301.213 339.769C301.577 340.05 302.056 340.191 302.649 340.191C303.196 340.191 303.633 340.081 303.961 339.863C304.294 339.639 304.461 339.342 304.461 338.973ZM311.293 341.37C310.148 341.37 309.216 340.995 308.498 340.245C307.779 339.491 307.42 338.483 307.42 337.224V336.958C307.42 336.12 307.579 335.373 307.896 334.717C308.219 334.056 308.667 333.541 309.239 333.171C309.817 332.796 310.442 332.609 311.113 332.609C312.212 332.609 313.065 332.971 313.675 333.694C314.284 334.418 314.588 335.454 314.588 336.802V337.403H308.865C308.885 338.236 309.128 338.91 309.591 339.426C310.059 339.936 310.653 340.191 311.371 340.191C311.881 340.191 312.313 340.087 312.667 339.878C313.021 339.67 313.331 339.394 313.596 339.051L314.479 339.738C313.771 340.826 312.709 341.37 311.293 341.37ZM311.113 333.796C310.53 333.796 310.041 334.009 309.645 334.436C309.25 334.858 309.005 335.451 308.912 336.216H313.144V336.107C313.102 335.373 312.904 334.806 312.55 334.405C312.196 333.999 311.717 333.796 311.113 333.796ZM317.836 341.214H316.392V329.22H317.836V341.214ZM323.661 341.37C322.516 341.37 321.584 340.995 320.866 340.245C320.147 339.491 319.788 338.483 319.788 337.224V336.958C319.788 336.12 319.947 335.373 320.265 334.717C320.587 334.056 321.035 333.541 321.608 333.171C322.185 332.796 322.81 332.609 323.482 332.609C324.58 332.609 325.434 332.971 326.043 333.694C326.652 334.418 326.956 335.454 326.956 336.802V337.403H321.233C321.254 338.236 321.496 338.91 321.959 339.426C322.427 339.936 323.021 340.191 323.739 340.191C324.249 340.191 324.681 340.087 325.035 339.878C325.389 339.67 325.699 339.394 325.965 339.051L326.847 339.738C326.139 340.826 325.077 341.37 323.661 341.37ZM323.482 333.796C322.899 333.796 322.409 334.009 322.014 334.436C321.618 334.858 321.373 335.451 321.28 336.216H325.512V336.107C325.47 335.373 325.272 334.806 324.918 334.405C324.564 333.999 324.085 333.796 323.482 333.796ZM332.024 340.191C332.539 340.191 332.989 340.035 333.375 339.722C333.76 339.41 333.973 339.02 334.015 338.551H335.381C335.355 339.035 335.189 339.496 334.882 339.933C334.574 340.37 334.163 340.719 333.648 340.979C333.138 341.24 332.596 341.37 332.024 341.37C330.873 341.37 329.957 340.987 329.275 340.222C328.599 339.452 328.26 338.4 328.26 337.067V336.825C328.26 336.003 328.411 335.272 328.713 334.631C329.015 333.991 329.447 333.494 330.009 333.14C330.577 332.786 331.246 332.609 332.016 332.609C332.963 332.609 333.749 332.893 334.374 333.46C335.004 334.027 335.34 334.764 335.381 335.67H334.015C333.973 335.123 333.765 334.676 333.39 334.327C333.021 333.973 332.563 333.796 332.016 333.796C331.282 333.796 330.712 334.061 330.306 334.592C329.905 335.118 329.705 335.881 329.705 336.88V337.153C329.705 338.127 329.905 338.876 330.306 339.402C330.707 339.928 331.279 340.191 332.024 340.191ZM338.965 330.719V332.765H340.543V333.882H338.965V339.121C338.965 339.459 339.036 339.714 339.176 339.886C339.317 340.053 339.556 340.136 339.894 340.136C340.061 340.136 340.29 340.105 340.582 340.042V341.214C340.202 341.318 339.832 341.37 339.473 341.37C338.827 341.37 338.341 341.175 338.013 340.784C337.685 340.394 337.521 339.839 337.521 339.121V333.882H335.983V332.765H337.521V330.719H338.965ZM349.592 340.191C350.108 340.191 350.558 340.035 350.943 339.722C351.328 339.41 351.542 339.02 351.583 338.551H352.95C352.924 339.035 352.757 339.496 352.45 339.933C352.143 340.37 351.732 340.719 351.216 340.979C350.706 341.24 350.165 341.37 349.592 341.37C348.442 341.37 347.526 340.987 346.844 340.222C346.167 339.452 345.829 338.4 345.829 337.067V336.825C345.829 336.003 345.98 335.272 346.282 334.631C346.583 333.991 347.016 333.494 347.578 333.14C348.145 332.786 348.814 332.609 349.584 332.609C350.532 332.609 351.318 332.893 351.942 333.46C352.572 334.027 352.908 334.764 352.95 335.67H351.583C351.542 335.123 351.333 334.676 350.959 334.327C350.589 333.973 350.131 333.796 349.584 333.796C348.85 333.796 348.28 334.061 347.874 334.592C347.474 335.118 347.273 335.881 347.273 336.88V337.153C347.273 338.127 347.474 338.876 347.874 339.402C348.275 339.928 348.848 340.191 349.592 340.191ZM354.191 336.911C354.191 336.084 354.353 335.339 354.675 334.678C355.003 334.017 355.456 333.507 356.034 333.148C356.617 332.789 357.281 332.609 358.025 332.609C359.175 332.609 360.105 333.007 360.813 333.804C361.526 334.6 361.882 335.659 361.882 336.982V337.083C361.882 337.906 361.724 338.645 361.406 339.301C361.094 339.951 360.643 340.459 360.055 340.823C359.472 341.188 358.801 341.37 358.041 341.37C356.895 341.37 355.966 340.972 355.253 340.175C354.545 339.379 354.191 338.325 354.191 337.013V336.911ZM355.644 337.083C355.644 338.02 355.86 338.772 356.292 339.34C356.729 339.907 357.312 340.191 358.041 340.191C358.775 340.191 359.358 339.904 359.79 339.332C360.222 338.754 360.438 337.947 360.438 336.911C360.438 335.985 360.217 335.235 359.774 334.663C359.337 334.085 358.754 333.796 358.025 333.796C357.312 333.796 356.737 334.08 356.299 334.647C355.862 335.214 355.644 336.026 355.644 337.083ZM368.91 340.378C368.348 341.039 367.522 341.37 366.435 341.37C365.534 341.37 364.847 341.11 364.373 340.589C363.905 340.063 363.668 339.288 363.663 338.262V332.765H365.107V338.223C365.107 339.504 365.628 340.144 366.669 340.144C367.772 340.144 368.506 339.733 368.871 338.91V332.765H370.315V341.214H368.941L368.91 340.378ZM376.601 334.061C376.382 334.025 376.145 334.007 375.89 334.007C374.943 334.007 374.3 334.41 373.962 335.217V341.214H372.517V332.765H373.923L373.946 333.741C374.42 332.986 375.091 332.609 375.96 332.609C376.242 332.609 376.455 332.645 376.601 332.718V334.061ZM382.855 338.973C382.855 338.582 382.707 338.28 382.41 338.067C382.119 337.848 381.606 337.661 380.872 337.505C380.143 337.349 379.563 337.161 379.131 336.943C378.704 336.724 378.386 336.464 378.178 336.162C377.975 335.86 377.874 335.501 377.874 335.084C377.874 334.392 378.165 333.806 378.748 333.327C379.336 332.848 380.086 332.609 380.997 332.609C381.955 332.609 382.73 332.856 383.324 333.351C383.922 333.845 384.222 334.478 384.222 335.248H382.769C382.769 334.853 382.6 334.512 382.262 334.225C381.929 333.939 381.507 333.796 380.997 333.796C380.471 333.796 380.06 333.91 379.763 334.139C379.466 334.368 379.318 334.668 379.318 335.037C379.318 335.386 379.456 335.649 379.732 335.826C380.008 336.003 380.505 336.172 381.223 336.333C381.947 336.495 382.532 336.687 382.98 336.911C383.428 337.135 383.758 337.406 383.972 337.723C384.19 338.036 384.3 338.418 384.3 338.871C384.3 339.626 383.998 340.232 383.394 340.69C382.79 341.143 382.007 341.37 381.044 341.37C380.367 341.37 379.768 341.25 379.248 341.011C378.727 340.771 378.319 340.438 378.022 340.011C377.73 339.579 377.585 339.113 377.585 338.613H379.029C379.055 339.098 379.248 339.483 379.607 339.769C379.971 340.05 380.45 340.191 381.044 340.191C381.59 340.191 382.027 340.081 382.355 339.863C382.689 339.639 382.855 339.342 382.855 338.973ZM389.687 341.37C388.542 341.37 387.61 340.995 386.892 340.245C386.174 339.491 385.814 338.483 385.814 337.224V336.958C385.814 336.12 385.973 335.373 386.291 334.717C386.613 334.056 387.061 333.541 387.634 333.171C388.212 332.796 388.836 332.609 389.508 332.609C390.606 332.609 391.46 332.971 392.069 333.694C392.678 334.418 392.982 335.454 392.982 336.802V337.403H387.259C387.28 338.236 387.522 338.91 387.985 339.426C388.454 339.936 389.047 340.191 389.765 340.191C390.276 340.191 390.708 340.087 391.062 339.878C391.416 339.67 391.725 339.394 391.991 339.051L392.873 339.738C392.165 340.826 391.103 341.37 389.687 341.37ZM389.508 333.796C388.925 333.796 388.435 334.009 388.04 334.436C387.644 334.858 387.4 335.451 387.306 336.216H391.538V336.107C391.496 335.373 391.298 334.806 390.944 334.405C390.59 333.999 390.112 333.796 389.508 333.796ZM399.58 338.973C399.58 338.582 399.432 338.28 399.135 338.067C398.844 337.848 398.331 337.661 397.597 337.505C396.868 337.349 396.288 337.161 395.856 336.943C395.429 336.724 395.111 336.464 394.903 336.162C394.7 335.86 394.599 335.501 394.599 335.084C394.599 334.392 394.89 333.806 395.473 333.327C396.061 332.848 396.811 332.609 397.722 332.609C398.68 332.609 399.455 332.856 400.049 333.351C400.647 333.845 400.947 334.478 400.947 335.248H399.494C399.494 334.853 399.325 334.512 398.987 334.225C398.654 333.939 398.232 333.796 397.722 333.796C397.196 333.796 396.785 333.91 396.488 334.139C396.192 334.368 396.043 334.668 396.043 335.037C396.043 335.386 396.181 335.649 396.457 335.826C396.733 336.003 397.23 336.172 397.948 336.333C398.672 336.495 399.258 336.687 399.705 336.911C400.153 337.135 400.483 337.406 400.697 337.723C400.916 338.036 401.025 338.418 401.025 338.871C401.025 339.626 400.723 340.232 400.119 340.69C399.515 341.143 398.732 341.37 397.769 341.37C397.092 341.37 396.493 341.25 395.973 341.011C395.452 340.771 395.044 340.438 394.747 340.011C394.456 339.579 394.31 339.113 394.31 338.613H395.754C395.78 339.098 395.973 339.483 396.332 339.769C396.696 340.05 397.175 340.191 397.769 340.191C398.315 340.191 398.753 340.081 399.081 339.863C399.414 339.639 399.58 339.342 399.58 338.973ZM408.833 330.719V332.765H410.41V333.882H408.833V339.121C408.833 339.459 408.903 339.714 409.044 339.886C409.184 340.053 409.424 340.136 409.762 340.136C409.929 340.136 410.158 340.105 410.449 340.042V341.214C410.069 341.318 409.7 341.37 409.341 341.37C408.695 341.37 408.208 341.175 407.88 340.784C407.552 340.394 407.389 339.839 407.389 339.121V333.882H405.85V332.765H407.389V330.719H408.833ZM413.549 333.788C414.189 333.002 415.022 332.609 416.048 332.609C417.833 332.609 418.734 333.616 418.749 335.631V341.214H417.305V335.623C417.3 335.014 417.159 334.564 416.883 334.272C416.613 333.981 416.188 333.835 415.611 333.835C415.142 333.835 414.731 333.96 414.377 334.21C414.023 334.46 413.747 334.787 413.549 335.194V341.214H412.105V329.22H413.549V333.788ZM426.128 341.214C426.045 341.047 425.977 340.75 425.925 340.323C425.254 341.021 424.452 341.37 423.52 341.37C422.687 341.37 422.003 341.136 421.467 340.667C420.936 340.193 420.67 339.595 420.67 338.871C420.67 337.991 421.003 337.31 421.67 336.825C422.341 336.336 423.283 336.091 424.496 336.091H425.902V335.428C425.902 334.923 425.751 334.522 425.449 334.225C425.147 333.923 424.702 333.772 424.114 333.772C423.598 333.772 423.166 333.903 422.818 334.163C422.469 334.423 422.294 334.738 422.294 335.108H420.842C420.842 334.686 420.99 334.28 421.287 333.89C421.589 333.494 421.995 333.182 422.505 332.953C423.021 332.724 423.585 332.609 424.2 332.609C425.173 332.609 425.936 332.854 426.487 333.343C427.039 333.827 427.325 334.496 427.346 335.35V339.238C427.346 340.014 427.445 340.631 427.643 341.089V341.214H426.128ZM423.731 340.113C424.184 340.113 424.613 339.996 425.019 339.761C425.425 339.527 425.72 339.223 425.902 338.848V337.114H424.77C423 337.114 422.115 337.632 422.115 338.668C422.115 339.121 422.266 339.475 422.568 339.73C422.87 339.985 423.257 340.113 423.731 340.113ZM431.57 330.719V332.765H433.148V333.882H431.57V339.121C431.57 339.459 431.641 339.714 431.781 339.886C431.922 340.053 432.161 340.136 432.5 340.136C432.666 340.136 432.895 340.105 433.187 340.042V341.214C432.807 341.318 432.437 341.37 432.078 341.37C431.433 341.37 430.946 341.175 430.618 340.784C430.29 340.394 430.126 339.839 430.126 339.121V333.882H428.588V332.765H430.126V330.719H431.57ZM440.769 330.719V332.765H442.346V333.882H440.769V339.121C440.769 339.459 440.839 339.714 440.979 339.886C441.12 340.053 441.359 340.136 441.698 340.136C441.864 340.136 442.093 340.105 442.385 340.042V341.214C442.005 341.318 441.635 341.37 441.276 341.37C440.631 341.37 440.144 341.175 439.816 340.784C439.488 340.394 439.324 339.839 439.324 339.121V333.882H437.786V332.765H439.324V330.719H440.769ZM445.485 333.788C446.125 333.002 446.958 332.609 447.983 332.609C449.769 332.609 450.669 333.616 450.685 335.631V341.214H449.24V335.623C449.235 335.014 449.095 334.564 448.819 334.272C448.548 333.981 448.124 333.835 447.546 333.835C447.078 333.835 446.666 333.96 446.312 334.21C445.958 334.46 445.683 334.787 445.485 335.194V341.214H444.04V329.22H445.485V333.788ZM456.354 341.37C455.209 341.37 454.277 340.995 453.558 340.245C452.84 339.491 452.481 338.483 452.481 337.224V336.958C452.481 336.12 452.64 335.373 452.957 334.717C453.28 334.056 453.728 333.541 454.3 333.171C454.878 332.796 455.503 332.609 456.174 332.609C457.272 332.609 458.126 332.971 458.735 333.694C459.344 334.418 459.649 335.454 459.649 336.802V337.403H453.925C453.946 338.236 454.188 338.91 454.652 339.426C455.12 339.936 455.713 340.191 456.432 340.191C456.942 340.191 457.374 340.087 457.728 339.878C458.082 339.67 458.392 339.394 458.657 339.051L459.539 339.738C458.832 340.826 457.77 341.37 456.354 341.37ZM456.174 333.796C455.591 333.796 455.102 334.009 454.706 334.436C454.311 334.858 454.066 335.451 453.972 336.216H458.204V336.107C458.163 335.373 457.965 334.806 457.611 334.405C457.257 333.999 456.778 333.796 456.174 333.796ZM463.982 339.098L465.95 332.765H467.496L464.099 342.518C463.574 343.923 462.738 344.626 461.593 344.626L461.32 344.602L460.781 344.501V343.33L461.171 343.361C461.661 343.361 462.041 343.262 462.311 343.064C462.587 342.866 462.814 342.505 462.991 341.979L463.311 341.12L460.297 332.765H461.874L463.982 339.098ZM474.719 330.719V332.765H476.296V333.882H474.719V339.121C474.719 339.459 474.789 339.714 474.929 339.886C475.07 340.053 475.309 340.136 475.648 340.136C475.814 340.136 476.043 340.105 476.335 340.042V341.214C475.955 341.318 475.585 341.37 475.226 341.37C474.581 341.37 474.094 341.175 473.766 340.784C473.438 340.394 473.274 339.839 473.274 339.121V333.882H471.736V332.765H473.274V330.719H474.719ZM481.496 341.37C480.351 341.37 479.419 340.995 478.701 340.245C477.982 339.491 477.623 338.483 477.623 337.224V336.958C477.623 336.12 477.782 335.373 478.1 334.717C478.422 334.056 478.87 333.541 479.443 333.171C480.02 332.796 480.645 332.609 481.317 332.609C482.415 332.609 483.269 332.971 483.878 333.694C484.487 334.418 484.791 335.454 484.791 336.802V337.403H479.068C479.089 338.236 479.331 338.91 479.794 339.426C480.262 339.936 480.856 340.191 481.574 340.191C482.084 340.191 482.516 340.087 482.87 339.878C483.224 339.67 483.534 339.394 483.8 339.051L484.682 339.738C483.974 340.826 482.912 341.37 481.496 341.37ZM481.317 333.796C480.733 333.796 480.244 334.009 479.849 334.436C479.453 334.858 479.208 335.451 479.115 336.216H483.347V336.107C483.305 335.373 483.107 334.806 482.753 334.405C482.399 333.999 481.92 333.796 481.317 333.796ZM491.686 341.214C491.603 341.047 491.535 340.75 491.483 340.323C490.811 341.021 490.01 341.37 489.078 341.37C488.245 341.37 487.56 341.136 487.024 340.667C486.493 340.193 486.228 339.595 486.228 338.871C486.228 337.991 486.561 337.31 487.227 336.825C487.899 336.336 488.841 336.091 490.054 336.091H491.459V335.428C491.459 334.923 491.308 334.522 491.006 334.225C490.705 333.923 490.259 333.772 489.671 333.772C489.156 333.772 488.724 333.903 488.375 334.163C488.026 334.423 487.852 334.738 487.852 335.108H486.4C486.4 334.686 486.548 334.28 486.845 333.89C487.147 333.494 487.553 333.182 488.063 332.953C488.578 332.724 489.143 332.609 489.757 332.609C490.731 332.609 491.493 332.854 492.045 333.343C492.597 333.827 492.883 334.496 492.904 335.35V339.238C492.904 340.014 493.003 340.631 493.201 341.089V341.214H491.686ZM489.289 340.113C489.742 340.113 490.171 339.996 490.577 339.761C490.983 339.527 491.277 339.223 491.459 338.848V337.114H490.327C488.557 337.114 487.672 337.632 487.672 338.668C487.672 339.121 487.823 339.475 488.125 339.73C488.427 339.985 488.815 340.113 489.289 340.113ZM498.557 340.191C499.072 340.191 499.523 340.035 499.908 339.722C500.293 339.41 500.506 339.02 500.548 338.551H501.915C501.889 339.035 501.722 339.496 501.415 339.933C501.108 340.37 500.696 340.719 500.181 340.979C499.671 341.24 499.13 341.37 498.557 341.37C497.407 341.37 496.49 340.987 495.809 340.222C495.132 339.452 494.793 338.4 494.793 337.067V336.825C494.793 336.003 494.944 335.272 495.246 334.631C495.548 333.991 495.98 333.494 496.542 333.14C497.11 332.786 497.779 332.609 498.549 332.609C499.497 332.609 500.283 332.893 500.907 333.46C501.537 334.027 501.873 334.764 501.915 335.67H500.548C500.506 335.123 500.298 334.676 499.923 334.327C499.554 333.973 499.096 333.796 498.549 333.796C497.815 333.796 497.245 334.061 496.839 334.592C496.438 335.118 496.238 335.881 496.238 336.88V337.153C496.238 338.127 496.438 338.876 496.839 339.402C497.24 339.928 497.813 340.191 498.557 340.191ZM504.983 333.788C505.623 333.002 506.456 332.609 507.482 332.609C509.267 332.609 510.168 333.616 510.183 335.631V341.214H508.739V335.623C508.734 335.014 508.593 334.564 508.317 334.272C508.047 333.981 507.622 333.835 507.045 333.835C506.576 333.835 506.165 333.96 505.811 334.21C505.457 334.46 505.181 334.787 504.983 335.194V341.214H503.539V329.22H504.983V333.788ZM512.378 340.456C512.378 340.206 512.45 339.998 512.596 339.832C512.747 339.665 512.971 339.582 513.268 339.582C513.564 339.582 513.788 339.665 513.939 339.832C514.095 339.998 514.173 340.206 514.173 340.456C514.173 340.696 514.095 340.896 513.939 341.057C513.788 341.219 513.564 341.3 513.268 341.3C512.971 341.3 512.747 341.219 512.596 341.057C512.45 340.896 512.378 340.696 512.378 340.456ZM527.034 338.247H522.271L521.201 341.214H519.655L523.996 329.845H525.308L529.657 341.214H528.119L527.034 338.247ZM522.723 337.013H526.588L524.652 331.695L522.723 337.013ZM532.53 341.214H531.086V329.22H532.53V341.214ZM536.419 341.214H534.974V329.22H536.419V341.214ZM544.149 333.788C544.789 333.002 545.622 332.609 546.648 332.609C548.433 332.609 549.334 333.616 549.349 335.631V341.214H547.905V335.623C547.9 335.014 547.759 334.564 547.483 334.272C547.213 333.981 546.788 333.835 546.21 333.835C545.742 333.835 545.331 333.96 544.977 334.21C544.623 334.46 544.347 334.787 544.149 335.194V341.214H542.705V329.22H544.149V333.788ZM556.728 341.214C556.645 341.047 556.577 340.75 556.525 340.323C555.854 341.021 555.052 341.37 554.12 341.37C553.287 341.37 552.603 341.136 552.067 340.667C551.536 340.193 551.27 339.595 551.27 338.871C551.27 337.991 551.603 337.31 552.27 336.825C552.941 336.336 553.883 336.091 555.096 336.091H556.502V335.428C556.502 334.923 556.351 334.522 556.049 334.225C555.747 333.923 555.302 333.772 554.714 333.772C554.198 333.772 553.766 333.903 553.417 334.163C553.069 334.423 552.894 334.738 552.894 335.108H551.442C551.442 334.686 551.59 334.28 551.887 333.89C552.189 333.494 552.595 333.182 553.105 332.953C553.62 332.724 554.185 332.609 554.799 332.609C555.773 332.609 556.535 332.854 557.087 333.343C557.639 333.827 557.925 334.496 557.946 335.35V339.238C557.946 340.014 558.045 340.631 558.243 341.089V341.214H556.728ZM554.331 340.113C554.784 340.113 555.213 339.996 555.619 339.761C556.025 339.527 556.319 339.223 556.502 338.848V337.114H555.369C553.6 337.114 552.715 337.632 552.715 338.668C552.715 339.121 552.866 339.475 553.168 339.73C553.469 339.985 553.857 340.113 554.331 340.113ZM562.873 339.254L564.966 332.765H566.441L563.412 341.214H562.311L559.25 332.765H560.726L562.873 339.254ZM571.228 341.37C570.083 341.37 569.151 340.995 568.433 340.245C567.714 339.491 567.355 338.483 567.355 337.224V336.958C567.355 336.12 567.514 335.373 567.831 334.717C568.154 334.056 568.602 333.541 569.174 333.171C569.752 332.796 570.377 332.609 571.048 332.609C572.147 332.609 573 332.971 573.609 333.694C574.218 334.418 574.523 335.454 574.523 336.802V337.403H568.8C568.82 338.236 569.062 338.91 569.526 339.426C569.994 339.936 570.588 340.191 571.306 340.191C571.816 340.191 572.248 340.087 572.602 339.878C572.956 339.67 573.266 339.394 573.531 339.051L574.414 339.738C573.706 340.826 572.644 341.37 571.228 341.37ZM571.048 333.796C570.465 333.796 569.976 334.009 569.58 334.436C569.185 334.858 568.94 335.451 568.846 336.216H573.078V336.107C573.037 335.373 572.839 334.806 572.485 334.405C572.131 333.999 571.652 333.796 571.048 333.796ZM587.321 337.083C587.321 338.374 587.024 339.413 586.43 340.199C585.837 340.979 585.041 341.37 584.041 341.37C582.974 341.37 582.149 340.992 581.566 340.238L581.496 341.214H580.168V329.22H581.613V333.694C582.196 332.971 583 332.609 584.026 332.609C585.051 332.609 585.855 332.997 586.438 333.772C587.027 334.548 587.321 335.61 587.321 336.958V337.083ZM585.876 336.919C585.876 335.935 585.686 335.175 585.306 334.639C584.926 334.103 584.38 333.835 583.666 333.835C582.714 333.835 582.029 334.277 581.613 335.162V338.817C582.055 339.701 582.745 340.144 583.682 340.144C584.374 340.144 584.913 339.876 585.298 339.34C585.684 338.803 585.876 337.997 585.876 336.919ZM592.654 341.37C591.508 341.37 590.577 340.995 589.858 340.245C589.14 339.491 588.781 338.483 588.781 337.224V336.958C588.781 336.12 588.94 335.373 589.257 334.717C589.58 334.056 590.027 333.541 590.6 333.171C591.178 332.796 591.803 332.609 592.474 332.609C593.572 332.609 594.426 332.971 595.035 333.694C595.644 334.418 595.949 335.454 595.949 336.802V337.403H590.225C590.246 338.236 590.488 338.91 590.951 339.426C591.42 339.936 592.013 340.191 592.732 340.191C593.242 340.191 593.674 340.087 594.028 339.878C594.382 339.67 594.692 339.394 594.957 339.051L595.839 339.738C595.131 340.826 594.07 341.37 592.654 341.37ZM592.474 333.796C591.891 333.796 591.402 334.009 591.006 334.436C590.61 334.858 590.366 335.451 590.272 336.216H594.504V336.107C594.463 335.373 594.265 334.806 593.911 334.405C593.557 333.999 593.078 333.796 592.474 333.796ZM601.133 341.37C599.988 341.37 599.056 340.995 598.338 340.245C597.62 339.491 597.26 338.483 597.26 337.224V336.958C597.26 336.12 597.419 335.373 597.737 334.717C598.06 334.056 598.507 333.541 599.08 333.171C599.658 332.796 600.282 332.609 600.954 332.609C602.052 332.609 602.906 332.971 603.515 333.694C604.124 334.418 604.428 335.454 604.428 336.802V337.403H598.705C598.726 338.236 598.968 338.91 599.431 339.426C599.9 339.936 600.493 340.191 601.211 340.191C601.722 340.191 602.154 340.087 602.508 339.878C602.862 339.67 603.171 339.394 603.437 339.051L604.319 339.738C603.611 340.826 602.549 341.37 601.133 341.37ZM600.954 333.796C600.371 333.796 599.881 334.009 599.486 334.436C599.09 334.858 598.846 335.451 598.752 336.216H602.984V336.107C602.942 335.373 602.744 334.806 602.39 334.405C602.036 333.999 601.558 333.796 600.954 333.796ZM607.474 332.765L607.52 333.827C608.166 333.015 609.009 332.609 610.05 332.609C611.836 332.609 612.736 333.616 612.752 335.631V341.214H611.307V335.623C611.302 335.014 611.162 334.564 610.886 334.272C610.615 333.981 610.191 333.835 609.613 333.835C609.145 333.835 608.733 333.96 608.379 334.21C608.025 334.46 607.749 334.787 607.552 335.194V341.214H606.107V332.765H607.474ZM618.546 336.919C618.546 335.623 618.853 334.582 619.467 333.796C620.081 333.005 620.885 332.609 621.88 332.609C622.869 332.609 623.652 332.947 624.23 333.624V329.22H625.674V341.214H624.347L624.277 340.308C623.699 341.016 622.895 341.37 621.864 341.37C620.885 341.37 620.086 340.969 619.467 340.167C618.853 339.366 618.546 338.319 618.546 337.028V336.919ZM619.99 337.083C619.99 338.041 620.188 338.79 620.584 339.332C620.979 339.873 621.526 340.144 622.223 340.144C623.139 340.144 623.808 339.733 624.23 338.91V335.03C623.798 334.233 623.134 333.835 622.239 333.835C621.531 333.835 620.979 334.108 620.584 334.655C620.188 335.201 619.99 336.011 619.99 337.083ZM633.139 340.378C632.577 341.039 631.752 341.37 630.664 341.37C629.763 341.37 629.076 341.11 628.603 340.589C628.134 340.063 627.897 339.288 627.892 338.262V332.765H629.337V338.223C629.337 339.504 629.857 340.144 630.898 340.144C632.002 340.144 632.736 339.733 633.1 338.91V332.765H634.545V341.214H633.17L633.139 340.378ZM638.316 341.214H636.871V329.22H638.316V341.214ZM643.399 339.098L645.367 332.765H646.913L643.516 342.518C642.99 343.923 642.155 344.626 641.01 344.626L640.736 344.602L640.198 344.501V343.33L640.588 343.361C641.077 343.361 641.457 343.262 641.728 343.064C642.004 342.866 642.23 342.505 642.407 341.979L642.728 341.12L639.714 332.765H641.291L643.399 339.098ZM654.963 339.254L657.056 332.765H658.531L655.502 341.214H654.401L651.34 332.765H652.816L654.963 339.254ZM663.318 341.37C662.173 341.37 661.241 340.995 660.522 340.245C659.804 339.491 659.445 338.483 659.445 337.224V336.958C659.445 336.12 659.604 335.373 659.921 334.717C660.244 334.056 660.692 333.541 661.264 333.171C661.842 332.796 662.467 332.609 663.138 332.609C664.237 332.609 665.09 332.971 665.699 333.694C666.308 334.418 666.613 335.454 666.613 336.802V337.403H660.889C660.91 338.236 661.152 338.91 661.616 339.426C662.084 339.936 662.678 340.191 663.396 340.191C663.906 340.191 664.338 340.087 664.692 339.878C665.046 339.67 665.356 339.394 665.621 339.051L666.504 339.738C665.796 340.826 664.734 341.37 663.318 341.37ZM663.138 333.796C662.555 333.796 662.066 334.009 661.67 334.436C661.275 334.858 661.03 335.451 660.936 336.216H665.168V336.107C665.127 335.373 664.929 334.806 664.575 334.405C664.221 333.999 663.742 333.796 663.138 333.796ZM672.375 334.061C672.157 334.025 671.92 334.007 671.665 334.007C670.717 334.007 670.075 334.41 669.736 335.217V341.214H668.292V332.765H669.697L669.721 333.741C670.194 332.986 670.866 332.609 671.735 332.609C672.016 332.609 672.23 332.645 672.375 332.718V334.061ZM674.195 341.214V333.882H672.859V332.765H674.195V332.047C674.195 331.105 674.463 330.371 674.999 329.845C675.54 329.319 676.303 329.056 677.287 329.056C677.87 329.056 678.606 329.215 679.496 329.533L679.254 330.751C678.604 330.49 677.984 330.36 677.396 330.36C676.777 330.36 676.329 330.501 676.053 330.782C675.782 331.058 675.647 331.474 675.647 332.031V332.765H677.373V333.882H675.647V341.214H674.195ZM680.215 341.214H678.762V332.765H680.215V341.214ZM686.071 341.37C684.926 341.37 683.994 340.995 683.276 340.245C682.557 339.491 682.198 338.483 682.198 337.224V336.958C682.198 336.12 682.357 335.373 682.674 334.717C682.997 334.056 683.445 333.541 684.017 333.171C684.595 332.796 685.22 332.609 685.891 332.609C686.99 332.609 687.843 332.971 688.452 333.694C689.061 334.418 689.366 335.454 689.366 336.802V337.403H683.643C683.663 338.236 683.905 338.91 684.369 339.426C684.837 339.936 685.431 340.191 686.149 340.191C686.659 340.191 687.091 340.087 687.445 339.878C687.799 339.67 688.109 339.394 688.374 339.051L689.257 339.738C688.549 340.826 687.487 341.37 686.071 341.37ZM685.891 333.796C685.308 333.796 684.819 334.009 684.423 334.436C684.028 334.858 683.783 335.451 683.689 336.216H687.921V336.107C687.88 335.373 687.682 334.806 687.328 334.405C686.974 333.999 686.495 333.796 685.891 333.796ZM690.693 336.919C690.693 335.623 691 334.582 691.615 333.796C692.229 333.005 693.033 332.609 694.027 332.609C695.016 332.609 695.8 332.947 696.378 333.624V329.22H697.822V341.214H696.495L696.425 340.308C695.847 341.016 695.043 341.37 694.012 341.37C693.033 341.37 692.234 340.969 691.615 340.167C691 339.366 690.693 338.319 690.693 337.028V336.919ZM692.138 337.083C692.138 338.041 692.336 338.79 692.731 339.332C693.127 339.873 693.673 340.144 694.371 340.144C695.287 340.144 695.956 339.733 696.378 338.91V335.03C695.946 334.233 695.282 333.835 694.387 333.835C693.679 333.835 693.127 334.108 692.731 334.655C692.336 335.201 692.138 336.011 692.138 337.083ZM213.245 362.083C213.245 363.374 212.949 364.413 212.355 365.199C211.762 365.979 210.965 366.37 209.966 366.37C208.899 366.37 208.074 365.992 207.491 365.238L207.421 366.214H206.093V354.22H207.538V358.694C208.121 357.971 208.925 357.609 209.95 357.609C210.976 357.609 211.78 357.997 212.363 358.772C212.951 359.548 213.245 360.61 213.245 361.958V362.083ZM211.801 361.919C211.801 360.935 211.611 360.175 211.231 359.639C210.851 359.103 210.304 358.835 209.591 358.835C208.639 358.835 207.954 359.277 207.538 360.162V363.817C207.98 364.701 208.67 365.144 209.607 365.144C210.299 365.144 210.838 364.876 211.223 364.34C211.608 363.803 211.801 362.997 211.801 361.919ZM217.743 364.098L219.711 357.765H221.257L217.86 367.518C217.334 368.923 216.499 369.626 215.354 369.626L215.08 369.602L214.542 369.501V368.33L214.932 368.361C215.421 368.361 215.801 368.262 216.072 368.064C216.348 367.866 216.574 367.505 216.751 366.979L217.071 366.12L214.058 357.765H215.635L217.743 364.098ZM230.915 361.615H228.245V366.214H226.738V354.845H230.502C231.782 354.845 232.766 355.136 233.453 355.719C234.145 356.302 234.492 357.151 234.492 358.265C234.492 358.973 234.299 359.59 233.914 360.115C233.534 360.641 233.003 361.034 232.321 361.294L234.991 366.12V366.214H233.383L230.915 361.615ZM228.245 360.389H230.548C231.293 360.389 231.884 360.196 232.321 359.811C232.763 359.426 232.985 358.91 232.985 358.265C232.985 357.562 232.774 357.023 232.352 356.649C231.936 356.274 231.332 356.084 230.541 356.079H228.245V360.389ZM237.818 358.788C238.458 358.002 239.291 357.609 240.316 357.609C242.102 357.609 243.003 358.616 243.018 360.631V366.214H241.574V360.623C241.568 360.014 241.428 359.564 241.152 359.272C240.881 358.981 240.457 358.835 239.879 358.835C239.411 358.835 238.999 358.96 238.646 359.21C238.292 359.46 238.016 359.787 237.818 360.194V366.214H236.373V354.22H237.818V358.788ZM246.75 366.214H245.306V357.765H246.75V366.214ZM245.189 355.524C245.189 355.29 245.259 355.092 245.4 354.931C245.545 354.769 245.759 354.689 246.04 354.689C246.321 354.689 246.534 354.769 246.68 354.931C246.826 355.092 246.899 355.29 246.899 355.524C246.899 355.758 246.826 355.954 246.68 356.11C246.534 356.266 246.321 356.344 246.04 356.344C245.759 356.344 245.545 356.266 245.4 356.11C245.259 355.954 245.189 355.758 245.189 355.524ZM250.428 365.035H255.371V366.214H248.663V365.152L253.325 358.96H248.734V357.765H255.136V358.788L250.428 365.035ZM256.495 361.911C256.495 361.084 256.656 360.339 256.979 359.678C257.307 359.017 257.76 358.507 258.338 358.148C258.921 357.789 259.585 357.609 260.329 357.609C261.479 357.609 262.408 358.007 263.116 358.804C263.83 359.6 264.186 360.659 264.186 361.982V362.083C264.186 362.906 264.027 363.645 263.71 364.301C263.398 364.951 262.947 365.459 262.359 365.823C261.776 366.188 261.105 366.37 260.345 366.37C259.199 366.37 258.27 365.972 257.557 365.175C256.849 364.379 256.495 363.325 256.495 362.013V361.911ZM257.947 362.083C257.947 363.02 258.163 363.772 258.595 364.34C259.033 364.907 259.616 365.191 260.345 365.191C261.078 365.191 261.661 364.904 262.094 364.332C262.526 363.754 262.742 362.947 262.742 361.911C262.742 360.985 262.52 360.235 262.078 359.663C261.641 359.085 261.058 358.796 260.329 358.796C259.616 358.796 259.041 359.08 258.603 359.647C258.166 360.214 257.947 361.026 257.947 362.083ZM266.029 365.456C266.029 365.206 266.102 364.998 266.248 364.832C266.398 364.665 266.622 364.582 266.919 364.582C267.216 364.582 267.44 364.665 267.591 364.832C267.747 364.998 267.825 365.206 267.825 365.456C267.825 365.696 267.747 365.896 267.591 366.057C267.44 366.219 267.216 366.3 266.919 366.3C266.622 366.3 266.398 366.219 266.248 366.057C266.102 365.896 266.029 365.696 266.029 365.456Z" fill="#667085"/>
<g filter="url(#filter0_d_2_39856)">
<g filter="url(#filter1_d_2_39856)">
<rect x="781" y="80.2445" width="294" height="399" rx="10" fill="white"/>
</g>
<path d="M1051.54 96.0112C1051.36 95.4806 1051.14 94.9621 1050.86 94.4607C1050.58 93.9549 1050.25 93.4705 1049.87 93.0132C1049.09 92.0874 1048.09 91.2948 1046.94 90.6801C1045.79 90.0724 1044.51 89.6389 1043.17 89.4006C1041.83 89.1621 1040.45 89.1044 1039.09 89.2298C1037.74 89.3531 1036.41 89.6471 1035.16 90.1014C1033.9 90.5578 1032.74 91.1764 1031.72 91.9334C1030.69 92.7012 1029.84 93.6165 1029.2 94.6342C1029.04 94.8896 1028.9 95.1534 1028.78 95.4212C1028.65 95.6893 1028.54 95.9626 1028.44 96.24C1028.39 96.3781 1028.35 96.5183 1028.31 96.6584C1028.27 96.7986 1028.24 96.9404 1028.21 97.0789C1028.15 97.3564 1028.1 97.6363 1028.06 97.9182C1027.92 99.0558 1028.02 100.205 1028.36 101.315C1028.7 102.437 1029.29 103.5 1030.1 104.451C1030.92 105.421 1031.97 106.245 1033.2 106.874C1033.68 107.119 1034.8 107.536 1034.84 107.549C1035.39 107.732 1035.97 107.86 1036.56 107.929C1036.63 107.937 1036.71 107.945 1036.78 107.953L1036.83 107.958L1036.87 107.961C1037.34 108.003 1037.81 108.014 1038.28 107.993C1038.87 107.969 1039.46 107.89 1040.03 107.759C1040.32 107.692 1040.61 107.609 1040.89 107.51C1041.18 107.409 1041.45 107.292 1041.72 107.159C1041.99 107.022 1042.25 106.869 1042.49 106.7C1042.74 106.529 1042.96 106.343 1043.17 106.142C1043.58 105.746 1043.91 105.301 1044.15 104.822C1044.26 104.593 1044.36 104.358 1044.43 104.118C1044.47 104.001 1044.5 103.883 1044.53 103.766C1044.55 103.706 1044.56 103.651 1044.57 103.595C1044.58 103.538 1044.59 103.482 1044.6 103.425C1044.69 102.971 1044.72 102.511 1044.7 102.052C1044.69 101.753 1044.65 101.455 1044.6 101.16C1044.59 101.109 1044.58 101.059 1044.57 101.008C1044.42 100.47 1044.31 99.9239 1044.24 99.3741C1044.17 98.8277 1044.16 98.2776 1044.2 97.7293C1044.24 97.1847 1044.36 96.6457 1044.55 96.1236C1044.65 95.865 1044.78 95.6134 1044.92 95.3713C1045 95.2518 1045.08 95.1356 1045.17 95.0229C1045.21 94.9677 1045.45 94.7277 1045.45 94.7277C1045.59 94.5851 1045.64 94.4119 1045.51 94.2702C1045.44 94.2021 1045.35 94.1579 1045.24 94.1472C1045.14 94.1365 1045.03 94.1601 1044.95 94.213C1044.78 94.3185 1044.62 94.431 1044.47 94.5501C1044.33 94.6654 1044.2 94.7864 1044.07 94.9125C1043.83 95.1632 1043.61 95.4296 1043.41 95.7092C1043.03 96.2696 1042.74 96.8644 1042.53 97.4812C1042.51 97.5392 1042.49 97.5976 1042.47 97.6556C1042.29 97.5034 1042.11 97.3588 1041.92 97.2219C1041.12 96.6529 1040.22 96.1907 1039.25 95.8525C1038.32 95.5261 1037.34 95.2888 1036.35 95.1453C1036.21 95.123 1036.06 95.1436 1035.94 95.2031C1035.82 95.2627 1035.73 95.357 1035.69 95.4676C1035.65 95.5781 1035.66 95.6971 1035.72 95.8014C1035.78 95.9056 1035.89 95.9876 1036.02 96.0314H1036.03C1036.46 96.1812 1036.88 96.3395 1037.28 96.5098C1037.69 96.6802 1038.08 96.8646 1038.45 97.0656C1039.2 97.4663 1039.87 97.9243 1040.42 98.4446C1040.81 98.8189 1041.14 99.2361 1041.4 99.6843C1041.01 99.5017 1040.59 99.3505 1040.17 99.2328C1039.58 99.0694 1038.96 98.9724 1038.34 98.9444C1037.72 98.9135 1037.1 98.9698 1036.5 99.1107C1035.89 99.2526 1035.34 99.5084 1034.88 99.8574C1034.81 99.9116 1034.76 99.9857 1034.76 100.065C1034.75 100.144 1034.78 100.222 1034.84 100.284C1034.9 100.346 1034.99 100.387 1035.08 100.399C1035.18 100.411 1035.28 100.392 1035.36 100.348L1035.37 100.344C1035.77 100.126 1036.24 99.99 1036.72 99.946C1037.21 99.9012 1037.7 99.9247 1038.18 100.015C1039.12 100.189 1039.99 100.57 1040.7 101.117C1041.02 101.367 1041.28 101.659 1041.48 101.983C1041.65 102.268 1041.74 102.581 1041.74 102.899C1041.74 102.963 1041.74 103.026 1041.73 103.089C1041.72 103.098 1041.72 103.107 1041.72 103.116C1041.71 103.156 1041.69 103.197 1041.68 103.231C1041.66 103.304 1041.63 103.375 1041.6 103.445C1041.54 103.581 1041.48 103.714 1041.4 103.842C1041.26 104.082 1041.07 104.304 1040.85 104.5C1040.74 104.594 1040.63 104.681 1040.5 104.76C1040.38 104.842 1040.25 104.916 1040.11 104.982C1039.55 105.249 1038.84 105.41 1038.08 105.461C1037.89 105.474 1037.7 105.48 1037.51 105.481C1037.32 105.481 1037.13 105.475 1036.93 105.461C1036.74 105.448 1036.55 105.431 1036.37 105.405C1036.19 105.379 1036.01 105.349 1035.86 105.315L1035.78 105.299C1035.74 105.29 1035 105.044 1034.68 104.893C1033.76 104.448 1032.96 103.857 1032.33 103.155C1031.69 102.437 1031.21 101.629 1030.92 100.77C1030.77 100.338 1030.67 99.8956 1030.61 99.4486C1030.59 99.2247 1030.57 98.9992 1030.56 98.7732C1030.56 98.5473 1030.57 98.3202 1030.59 98.0934C1030.6 97.8667 1030.63 97.6403 1030.67 97.4144C1030.69 97.2996 1030.72 97.1929 1030.74 97.0825C1030.77 96.9722 1030.8 96.8646 1030.83 96.7567C1030.9 96.5404 1030.98 96.3269 1031.07 96.1171C1031.16 95.9073 1031.26 95.6995 1031.38 95.4973C1031.86 94.6775 1032.51 93.9354 1033.32 93.3076C1034.13 92.6659 1035.07 92.1355 1036.09 91.7369C1037.12 91.3339 1038.23 91.0634 1039.36 90.935C1040.49 90.805 1041.64 90.8274 1042.76 91.0015C1043.88 91.1747 1044.95 91.5088 1045.93 91.9882C1046.89 92.4715 1047.73 93.1074 1048.4 93.8586C1048.73 94.2386 1049.02 94.6423 1049.27 95.0648C1049.52 95.4917 1049.73 95.9341 1049.89 96.3878C1050.21 97.3095 1050.38 98.2636 1050.38 99.2227C1050.39 100.186 1050.07 101.58 1049.94 102.088C1049.13 104.505 1047.9 105.32 1046.69 106.22C1046.16 106.582 1045.68 106.9 1045.1 107.311C1044.8 107.526 1044.51 107.757 1044.25 108.003C1044.01 108.23 1043.79 108.467 1043.59 108.713C1043.18 109.208 1042.84 109.756 1042.65 110.348C1042.56 110.646 1042.51 110.952 1042.5 111.26C1042.5 111.575 1042.57 111.887 1042.7 112.183C1042.73 112.242 1042.79 112.291 1042.86 112.318C1042.93 112.345 1043.01 112.349 1043.08 112.329C1043.16 112.309 1043.22 112.267 1043.26 112.211C1043.29 112.154 1043.3 112.089 1043.28 112.027V112.024C1043.21 111.782 1043.19 111.533 1043.22 111.286C1043.26 111.033 1043.33 110.784 1043.44 110.546C1043.66 110.063 1044 109.62 1044.42 109.217C1044.63 109.014 1044.85 108.821 1045.08 108.637C1045.26 108.501 1045.44 108.37 1045.62 108.243C1045.33 108.715 1045.09 109.221 1044.99 109.764C1044.94 110.041 1044.95 110.322 1045.02 110.597C1045.08 110.87 1045.22 111.129 1045.41 111.359C1045.43 111.387 1045.47 111.406 1045.51 111.414C1045.55 111.421 1045.59 111.415 1045.62 111.398C1045.66 111.381 1045.68 111.353 1045.69 111.321C1045.7 111.289 1045.7 111.255 1045.68 111.227V111.227C1045.54 111.016 1045.45 110.785 1045.43 110.547C1045.41 110.311 1045.43 110.073 1045.51 109.843C1045.65 109.378 1045.94 108.939 1046.27 108.527C1046.98 107.738 1047.94 106.98 1048.44 106.623C1049.4 105.847 1050.73 104.821 1051.41 102.415C1051.65 101.734 1051.97 100.308 1052 99.2296C1052.03 98.1445 1051.87 97.0613 1051.54 96.0112V96.0112Z" fill="white"/>
<path d="M781 90.581C781 84.8723 785.628 80.2445 791.337 80.2445H1064.66C1070.37 80.2445 1075 84.8723 1075 90.581V112.684H781V90.581Z" fill="#5EC69D"/>
<circle cx="797.736" cy="97.8724" r="4.73614" fill="#F27D7D"/>
<circle cx="816.673" cy="97.8724" r="4.73614" fill="#FFD875"/>
<circle cx="835.621" cy="97.872" r="4.73614" fill="#8EDB8E"/>
<rect opacity="0.74" x="958.277" y="95.5042" width="47.3614" height="4.73614" rx="2.36807" fill="#E1E9F2"/>
<rect opacity="0.74" x="1015.64" y="95.5042" width="47.3614" height="4.73614" rx="2.36807" fill="#E1E9F2"/>
<rect x="813.714" y="243.714" width="11.1905" height="15" rx="5.59524" fill="#5EC69D"/>
<rect x="847" y="238.714" width="88.0317" height="9" rx="4.5" fill="#5EC69D"/>
<rect opacity="0.4" x="847" y="258.714" width="69.381" height="9" rx="4.5" fill="#5EC69D"/>
<rect x="807" y="166.714" width="235" height="11" rx="5.5" fill="#E5E5E5"/>
<rect x="807" y="195.714" width="198.444" height="11" rx="5.5" fill="#E5E5E5"/>
<rect x="807" y="236.714" width="34" height="33" rx="6" fill="#E5E5E5"/>
<rect x="847" y="284.714" width="88.0317" height="9" rx="4.5" fill="#5EC69D"/>
<rect opacity="0.4" x="847" y="304.714" width="69.381" height="9" rx="4.5" fill="#5EC69D"/>
<rect x="807" y="282.714" width="34" height="33" rx="6" fill="#E5E5E5"/>
<path d="M812.607 137.073L816.625 148.417L820.621 137.073H824.854V152.714H821.62V148.439L821.942 141.059L817.721 152.714H815.508L811.297 141.069L811.619 148.439V152.714H808.396V137.073H812.607ZM836.911 149.491H831.261L830.187 152.714H826.76L832.582 137.073H835.569L841.423 152.714H837.996L836.911 149.491ZM832.131 146.881H836.041L834.075 141.026L832.131 146.881ZM853.588 139.684H848.797V152.714H845.575V139.684H840.848V137.073H853.588V139.684ZM868.386 152.714H865.163V146.011H858.879V152.714H855.656V137.073H858.879V143.411H865.163V137.073H868.386V152.714ZM877.258 145.023L878.161 137.073H886.926V139.662H880.706L880.32 143.025C881.057 142.631 881.842 142.434 882.672 142.434C884.162 142.434 885.329 142.896 886.174 143.819C887.019 144.743 887.442 146.036 887.442 147.697C887.442 148.707 887.227 149.613 886.797 150.415C886.375 151.21 885.766 151.83 884.971 152.274C884.176 152.71 883.238 152.929 882.157 152.929C881.211 152.929 880.334 152.739 879.525 152.359C878.716 151.973 878.075 151.432 877.602 150.737C877.136 150.043 876.889 149.251 876.861 148.363H879.933C879.997 149.015 880.223 149.524 880.61 149.889C881.004 150.247 881.516 150.426 882.146 150.426C882.848 150.426 883.388 150.175 883.768 149.674C884.148 149.165 884.337 148.449 884.337 147.526C884.337 146.637 884.119 145.957 883.682 145.484C883.245 145.012 882.626 144.776 881.824 144.776C881.086 144.776 880.488 144.969 880.03 145.356L879.729 145.635L877.258 145.023ZM898.834 146.827H900.606V149.33H898.834V152.714H895.729V149.33H889.316L889.176 147.375L895.697 137.073H898.834V146.827ZM892.27 146.827H895.729V141.306L895.525 141.66L892.27 146.827Z" fill="#5EC69D"/>
<rect x="798" y="423.135" width="259" height="29.3394" rx="5.56427" fill="#5EC69D" fill-opacity="0.15"/>
<rect opacity="0.7" x="899" y="435.3" width="56.851" height="4.19131" rx="2.09566" fill="#5EC69D"/>
<path fill-rule="evenodd" clip-rule="evenodd" d="M970.084 452.694L955.997 442.599L956.402 460.715L962.067 457.394L967.522 467.489L970.197 465.838L964.776 455.806L970.084 452.694Z" fill="#565656"/>
<rect x="855" y="370.245" width="140" height="11" rx="5.5" fill="#E5E5E5"/>
<rect x="855" y="354.245" width="53" height="11" rx="5.5" fill="#E5E5E5"/>
<circle cx="1031.5" cy="368.745" r="6.5" stroke="#A1ABB3" stroke-width="2"/>
<circle cx="1031.5" cy="368.745" r="3.5" fill="#A1ABB3"/>
<path d="M825 388.245C836.046 388.245 845 379.29 845 368.245C845 357.199 836.046 348.245 825 348.245C813.954 348.245 805 357.199 805 368.245C805 379.29 813.954 388.245 825 388.245Z" fill="#5EC69D" fill-opacity="0.15"/>
<path d="M825 367.245C823.67 367.245 821 367.915 821 369.245V369.405C821.97 370.525 823.4 371.245 825 371.245C826.6 371.245 828.03 370.525 829 369.405V369.245C829 367.915 826.33 367.245 825 367.245ZM825 366.245C826.1 366.245 827 365.345 827 364.245C827 363.145 826.1 362.245 825 362.245C823.9 362.245 823 363.145 823 364.245C823 365.345 823.9 366.245 825 366.245ZM825 358.245C829.2 358.245 833 361.465 833 366.445C833 369.625 830.55 373.365 825.66 377.675C825.28 378.005 824.71 378.005 824.33 377.675C819.45 373.365 817 369.625 817 366.445C817 361.465 820.8 358.245 825 358.245Z" fill="#5EC69D"/>
</g>
<defs>
<filter id="filter0_d_2_39856" x="740" y="43.2445" width="376" height="481" filterUnits="userSpaceOnUse" color-interpolation-filters="sRGB">
<feFlood flood-opacity="0" result="BackgroundImageFix"/>
<feColorMatrix in="SourceAlpha" type="matrix" values="0 0 0 0 0 0 0 0 0 0 0 0 0 0 0 0 0 0 127 0" result="hardAlpha"/>
<feMorphology radius="25" operator="dilate" in="SourceAlpha" result="effect1_dropShadow_2_39856"/>
<feOffset dy="4"/>
<feGaussianBlur stdDeviation="8"/>
<feComposite in2="hardAlpha" operator="out"/>
<feColorMatrix type="matrix" values="0 0 0 0 0.439216 0 0 0 0 0.564706 0 0 0 0 0.690196 0 0 0 0.15 0"/>
<feBlend mode="normal" in2="BackgroundImageFix" result="effect1_dropShadow_2_39856"/>
<feBlend mode="normal" in="SourceGraphic" in2="effect1_dropShadow_2_39856" result="shape"/>
</filter>
<filter id="filter1_d_2_39856" x="677" y="0.244507" width="502" height="607" filterUnits="userSpaceOnUse" color-interpolation-filters="sRGB">
<feFlood flood-opacity="0" result="BackgroundImageFix"/>
<feColorMatrix in="SourceAlpha" type="matrix" values="0 0 0 0 0 0 0 0 0 0 0 0 0 0 0 0 0 0 127 0" result="hardAlpha"/>
<feMorphology radius="20" operator="erode" in="SourceAlpha" result="effect1_dropShadow_2_39856"/>
<feOffset dy="24"/>
<feGaussianBlur stdDeviation="62"/>
<feComposite in2="hardAlpha" operator="out"/>
<feColorMatrix type="matrix" values="0 0 0 0 0.480226 0 0 0 0 0.53588 0 0 0 0 0.579167 0 0 0 0.27 0"/>
<feBlend mode="normal" in2="BackgroundImageFix" result="effect1_dropShadow_2_39856"/>
<feBlend mode="normal" in="SourceGraphic" in2="effect1_dropShadow_2_39856" result="shape"/>
</filter>
</defs>
</svg>
