<svg width="1440" height="350" viewBox="0 0 1440 350" fill="none" xmlns="http://www.w3.org/2000/svg">
<rect width="1440" height="349" transform="translate(0 0.70166)" fill="#5EC69D"/>
<path d="M498.743 104.883V120.224C498.733 122.526 497.667 123.751 495.771 123.751C494.003 123.751 492.82 122.675 492.788 120.906H488.857C488.857 124.933 491.797 127 495.622 127C499.83 127 502.653 124.443 502.664 120.224V104.883H498.743ZM513.919 127.021C518.713 127.021 521.76 123.644 521.76 118.584C521.76 113.513 518.713 110.125 513.919 110.125C509.125 110.125 506.078 113.513 506.078 118.584C506.078 123.644 509.125 127.021 513.919 127.021ZM513.94 123.932C511.288 123.932 509.988 121.567 509.988 118.573C509.988 115.58 511.288 113.182 513.94 113.182C516.551 113.182 517.85 115.58 517.85 118.573C517.85 121.567 516.551 123.932 513.94 123.932ZM525.033 126.702H528.89V110.338H525.033V126.702ZM526.972 108.016C528.197 108.016 529.199 107.078 529.199 105.928C529.199 104.766 528.197 103.829 526.972 103.829C525.736 103.829 524.735 104.766 524.735 105.928C524.735 107.078 525.736 108.016 526.972 108.016ZM536.712 117.114C536.712 114.749 538.14 113.385 540.174 113.385C542.167 113.385 543.36 114.695 543.36 116.879V126.702H547.216V116.283C547.227 112.362 544.99 110.125 541.613 110.125C539.162 110.125 537.479 111.297 536.733 113.119H536.542V110.338H532.856V126.702H536.712V117.114ZM566.749 110.338H563.521V106.418H559.665V110.338H557.342V113.321H559.665V122.419C559.644 125.498 561.881 127.011 564.778 126.925C565.876 126.893 566.632 126.68 567.048 126.542L566.398 123.527C566.185 123.58 565.748 123.676 565.269 123.676C564.299 123.676 563.521 123.335 563.521 121.78V113.321H566.749V110.338ZM574.183 117.114C574.183 114.749 575.653 113.385 577.72 113.385C579.744 113.385 580.937 114.674 580.937 116.879V126.702H584.794V116.283C584.794 112.33 582.556 110.125 579.158 110.125C576.644 110.125 575.046 111.265 574.289 113.119H574.098V104.883H570.326V126.702H574.183V117.114ZM595.969 127.021C599.783 127.021 602.404 125.157 603.085 122.312L599.485 121.908C598.963 123.293 597.684 124.017 596.022 124.017C593.529 124.017 591.878 122.376 591.846 119.575H603.245V118.392C603.245 112.65 599.794 110.125 595.767 110.125C591.079 110.125 588.022 113.566 588.022 118.616C588.022 123.751 591.036 127.021 595.969 127.021ZM591.857 116.975C591.974 114.887 593.519 113.129 595.82 113.129C598.036 113.129 599.527 114.749 599.549 116.975H591.857ZM614.12 126.702H618.072V118.712H622.099L626.382 126.702H630.792L626.073 118.051C628.64 117.018 629.993 114.823 629.993 111.861C629.993 107.696 627.309 104.883 622.302 104.883H614.12V126.702ZM618.072 115.43V108.186H621.694C624.645 108.186 625.966 109.539 625.966 111.861C625.966 114.184 624.645 115.43 621.716 115.43H618.072ZM637.318 117.114C637.318 114.749 638.788 113.385 640.854 113.385C642.879 113.385 644.072 114.674 644.072 116.879V126.702H647.928V116.283C647.928 112.33 645.691 110.125 642.293 110.125C639.778 110.125 638.18 111.265 637.424 113.119H637.232V104.883H633.461V126.702H637.318V117.114ZM651.859 126.702H655.716V110.338H651.859V126.702ZM653.798 108.016C655.024 108.016 656.025 107.078 656.025 105.928C656.025 104.766 655.024 103.829 653.798 103.829C652.563 103.829 651.561 104.766 651.561 105.928C651.561 107.078 652.563 108.016 653.798 108.016ZM659.469 126.702H672.903V123.506H664.593V123.367L672.626 112.969V110.338H659.746V113.534H667.906V113.673L659.469 124.251V126.702ZM683.196 127.021C687.991 127.021 691.037 123.644 691.037 118.584C691.037 113.513 687.991 110.125 683.196 110.125C678.402 110.125 675.356 113.513 675.356 118.584C675.356 123.644 678.402 127.021 683.196 127.021ZM683.218 123.932C680.565 123.932 679.265 121.567 679.265 118.573C679.265 115.58 680.565 113.182 683.218 113.182C685.828 113.182 687.128 115.58 687.128 118.573C687.128 121.567 685.828 123.932 683.218 123.932ZM708.89 127.021C713.002 127.021 715.623 124.582 715.9 121.109H712.214C711.883 122.866 710.616 123.879 708.922 123.879C706.514 123.879 704.959 121.865 704.959 118.52C704.959 115.217 706.546 113.236 708.922 113.236C710.775 113.236 711.915 114.429 712.214 116.006H715.9C715.633 112.458 712.864 110.125 708.869 110.125C704.074 110.125 701.049 113.587 701.049 118.584C701.049 123.538 704 127.021 708.89 127.021ZM726.204 127.021C730.998 127.021 734.045 123.644 734.045 118.584C734.045 113.513 730.998 110.125 726.204 110.125C721.41 110.125 718.363 113.513 718.363 118.584C718.363 123.644 721.41 127.021 726.204 127.021ZM726.226 123.932C723.573 123.932 722.273 121.567 722.273 118.573C722.273 115.58 723.573 113.182 726.226 113.182C728.836 113.182 730.135 115.58 730.135 118.573C730.135 121.567 728.836 123.932 726.226 123.932ZM737.318 126.702H741.175V116.751C741.175 114.738 742.517 113.374 744.179 113.374C745.809 113.374 746.928 114.472 746.928 116.155V126.702H750.71V116.496C750.71 114.653 751.807 113.374 753.671 113.374C755.227 113.374 756.463 114.29 756.463 116.315V126.702H760.33V115.718C760.33 112.064 758.22 110.125 755.216 110.125C752.84 110.125 751.029 111.297 750.305 113.119H750.134C749.506 111.265 747.919 110.125 745.713 110.125C743.519 110.125 741.878 111.254 741.196 113.119H741.005V110.338H737.318V126.702ZM764.242 126.702H768.099V116.751C768.099 114.738 769.441 113.374 771.103 113.374C772.733 113.374 773.852 114.472 773.852 116.155V126.702H777.634V116.496C777.634 114.653 778.731 113.374 780.595 113.374C782.151 113.374 783.386 114.29 783.386 116.315V126.702H787.254V115.718C787.254 112.064 785.144 110.125 782.14 110.125C779.764 110.125 777.953 111.297 777.229 113.119H777.058C776.43 111.265 774.842 110.125 772.637 110.125C770.443 110.125 768.802 111.254 768.12 113.119H767.928V110.338H764.242V126.702ZM801.596 119.82C801.596 122.312 799.817 123.548 798.112 123.548C796.258 123.548 795.023 122.238 795.023 120.16V110.338H791.166V120.757C791.166 124.688 793.403 126.915 796.621 126.915C799.071 126.915 800.797 125.626 801.543 123.793H801.713V126.702H805.452V110.338H801.596V119.82ZM813.275 117.114C813.275 114.749 814.702 113.385 816.737 113.385C818.729 113.385 819.922 114.695 819.922 116.879V126.702H823.779V116.283C823.79 112.362 821.552 110.125 818.175 110.125C815.725 110.125 814.042 111.297 813.296 113.119H813.104V110.338H809.418V126.702H813.275V117.114ZM827.699 126.702H831.556V110.338H827.699V126.702ZM829.638 108.016C830.863 108.016 831.865 107.078 831.865 105.928C831.865 104.766 830.863 103.829 829.638 103.829C828.402 103.829 827.401 104.766 827.401 105.928C827.401 107.078 828.402 108.016 829.638 108.016ZM843.693 110.338H840.465V106.418H836.608V110.338H834.286V113.321H836.608V122.419C836.587 125.498 838.824 127.011 841.722 126.925C842.819 126.893 843.576 126.68 843.991 126.542L843.341 123.527C843.128 123.58 842.691 123.676 842.212 123.676C841.242 123.676 840.465 123.335 840.465 121.78V113.321H843.693V110.338ZM849.315 132.838C852.319 132.838 854.056 131.293 854.983 128.683L861.556 110.359L857.433 110.338L853.651 122.696H853.481L849.709 110.338H845.618L851.552 127.043L851.222 127.927C850.508 129.791 849.379 129.919 847.696 129.429L846.801 132.433C847.323 132.646 848.26 132.838 849.315 132.838ZM879.845 110.338H876.617V106.418H872.761V110.338H870.438V113.321H872.761V122.419C872.739 125.498 874.976 127.011 877.874 126.925C878.972 126.893 879.728 126.68 880.143 126.542L879.494 123.527C879.28 123.58 878.844 123.676 878.364 123.676C877.395 123.676 876.617 123.335 876.617 121.78V113.321H879.845V110.338ZM890.032 127.021C894.826 127.021 897.873 123.644 897.873 118.584C897.873 113.513 894.826 110.125 890.032 110.125C885.238 110.125 882.191 113.513 882.191 118.584C882.191 123.644 885.238 127.021 890.032 127.021ZM890.054 123.932C887.401 123.932 886.101 121.567 886.101 118.573C886.101 115.58 887.401 113.182 890.054 113.182C892.664 113.182 893.964 115.58 893.964 118.573C893.964 121.567 892.664 123.932 890.054 123.932ZM907.219 126.989C910.032 126.989 911.299 125.317 911.907 124.124H912.141V126.702H915.934V104.883H912.066V113.044H911.907C911.321 111.861 910.117 110.125 907.23 110.125C903.448 110.125 900.475 113.087 900.475 118.541C900.475 123.932 903.362 126.989 907.219 126.989ZM908.295 123.825C905.749 123.825 904.407 121.588 904.407 118.52C904.407 115.473 905.728 113.289 908.295 113.289C910.777 113.289 912.141 115.345 912.141 118.52C912.141 121.695 910.756 123.825 908.295 123.825ZM924.752 127.032C927.319 127.032 928.853 125.828 929.557 124.454H929.684V126.702H933.392V115.75C933.392 111.425 929.866 110.125 926.744 110.125C923.303 110.125 920.661 111.659 919.809 114.642L923.41 115.153C923.793 114.035 924.88 113.076 926.765 113.076C928.555 113.076 929.535 113.992 929.535 115.601V115.665C929.535 116.773 928.374 116.826 925.487 117.135C922.312 117.476 919.276 118.424 919.276 122.11C919.276 125.327 921.63 127.032 924.752 127.032ZM925.753 124.198C924.145 124.198 922.994 123.463 922.994 122.046C922.994 120.565 924.283 119.947 926.009 119.702C927.021 119.564 929.045 119.308 929.546 118.903V120.832C929.546 122.653 928.076 124.198 925.753 124.198ZM939.081 132.838C942.085 132.838 943.821 131.293 944.748 128.683L951.321 110.359L947.199 110.338L943.417 122.696H943.246L939.475 110.338H935.384L941.318 127.043L940.988 127.927C940.274 129.791 939.145 129.919 937.461 129.429L936.566 132.433C937.089 132.646 938.026 132.838 939.081 132.838Z" fill="white"/>
<path d="M541.986 172.702H543.747V167.02H546.929C547.057 167.02 547.178 167.02 547.298 167.013L550.367 172.702H552.412L549.124 166.693C550.977 166.061 551.844 164.548 551.844 162.616C551.844 160.045 550.31 158.156 546.901 158.156H541.986V172.702ZM543.747 165.429V159.719H546.844C549.202 159.719 550.111 160.869 550.111 162.616C550.111 164.364 549.202 165.429 546.872 165.429H543.747ZM559.008 172.929C561.224 172.929 562.844 171.821 563.355 170.173L561.736 169.719C561.309 170.855 560.322 171.423 559.008 171.423C557.041 171.423 555.684 170.152 555.606 167.815H563.525V167.105C563.525 163.043 561.111 161.651 558.838 161.651C555.883 161.651 553.923 163.98 553.923 167.332C553.923 170.685 555.855 172.929 559.008 172.929ZM555.606 166.366C555.72 164.669 556.92 163.156 558.838 163.156C560.656 163.156 561.821 164.52 561.821 166.366H555.606ZM570.479 177.02C573.092 177.02 575.194 175.827 575.194 173.014V161.793H573.575V163.526H573.405C573.035 162.957 572.354 161.651 570.223 161.651C567.467 161.651 565.564 163.838 565.564 167.19C565.564 170.599 567.552 172.531 570.194 172.531C572.325 172.531 573.007 171.281 573.376 170.685H573.518V172.901C573.518 174.719 572.24 175.543 570.479 175.543C568.497 175.543 567.801 174.499 567.354 173.895L566.018 174.832C566.7 175.976 568.042 177.02 570.479 177.02ZM570.422 171.026C568.319 171.026 567.24 169.435 567.24 167.162C567.24 164.946 568.291 163.156 570.422 163.156C572.467 163.156 573.547 164.804 573.547 167.162C573.547 169.577 572.439 171.026 570.422 171.026ZM578.263 172.702H579.939V161.793H578.263V172.702ZM579.115 159.974C579.768 159.974 580.308 159.463 580.308 158.838C580.308 158.213 579.768 157.702 579.115 157.702C578.461 157.702 577.922 158.213 577.922 158.838C577.922 159.463 578.461 159.974 579.115 159.974ZM590.736 164.236C590.21 162.687 589.031 161.651 586.872 161.651C584.571 161.651 582.867 162.957 582.867 164.804C582.867 166.31 583.762 167.318 585.764 167.787L587.583 168.213C588.683 168.469 589.202 168.994 589.202 169.747C589.202 170.685 588.208 171.452 586.645 171.452C585.274 171.452 584.415 170.862 584.117 169.69L582.526 170.088C582.916 171.942 584.443 172.929 586.673 172.929C589.209 172.929 590.935 171.544 590.935 169.662C590.935 168.142 589.983 167.183 588.037 166.707L586.418 166.31C585.125 165.99 584.543 165.557 584.543 164.719C584.543 163.781 585.537 163.099 586.872 163.099C588.335 163.099 588.939 163.909 589.23 164.662L590.736 164.236ZM598.202 161.793H595.873V159.179H594.197V161.793H592.549V163.213H594.197V170.031C594.197 171.935 595.731 172.844 597.151 172.844C597.776 172.844 598.174 172.73 598.401 172.645L598.06 171.139C597.918 171.168 597.691 171.224 597.322 171.224C596.583 171.224 595.873 170.997 595.873 169.577V163.213H598.202V161.793ZM605.18 172.929C607.396 172.929 609.015 171.821 609.527 170.173L607.907 169.719C607.481 170.855 606.494 171.423 605.18 171.423C603.213 171.423 601.856 170.152 601.778 167.815H609.697V167.105C609.697 163.043 607.282 161.651 605.01 161.651C602.055 161.651 600.095 163.98 600.095 167.332C600.095 170.685 602.027 172.929 605.18 172.929ZM601.778 166.366C601.892 164.669 603.092 163.156 605.01 163.156C606.828 163.156 607.993 164.52 607.993 166.366H601.778ZM612.247 172.702H613.923V165.798C613.923 164.321 615.088 163.241 616.679 163.241C617.126 163.241 617.588 163.327 617.702 163.355V161.651C617.51 161.636 617.069 161.622 616.821 161.622C615.514 161.622 614.378 162.361 613.98 163.44H613.866V161.793H612.247V172.702ZM628.524 172.957C630.427 172.957 631.421 171.935 631.762 171.224H631.847V172.702H633.524V165.514C633.524 162.048 630.882 161.651 629.49 161.651C627.842 161.651 625.967 162.219 625.115 164.207L626.705 164.776C627.075 163.98 627.948 163.128 629.546 163.128C631.088 163.128 631.847 163.945 631.847 165.344V165.401C631.847 166.21 631.024 166.139 629.035 166.395C627.011 166.658 624.802 167.105 624.802 169.605C624.802 171.736 626.45 172.957 628.524 172.957ZM628.779 171.452C627.444 171.452 626.478 170.855 626.478 169.69C626.478 168.412 627.643 168.014 628.95 167.844C629.66 167.758 631.563 167.56 631.847 167.219V168.753C631.847 170.116 630.768 171.452 628.779 171.452ZM644.31 164.236C643.785 162.687 642.606 161.651 640.447 161.651C638.145 161.651 636.441 162.957 636.441 164.804C636.441 166.31 637.336 167.318 639.339 167.787L641.157 168.213C642.258 168.469 642.776 168.994 642.776 169.747C642.776 170.685 641.782 171.452 640.219 171.452C638.849 171.452 637.989 170.862 637.691 169.69L636.1 170.088C636.491 171.942 638.018 172.929 640.248 172.929C642.783 172.929 644.509 171.544 644.509 169.662C644.509 168.142 643.557 167.183 641.611 166.707L639.992 166.31C638.699 165.99 638.117 165.557 638.117 164.719C638.117 163.781 639.111 163.099 640.447 163.099C641.91 163.099 642.513 163.909 642.805 164.662L644.31 164.236ZM655.867 172.957C657.771 172.957 658.765 171.935 659.106 171.224H659.191V172.702H660.867V165.514C660.867 162.048 658.225 161.651 656.833 161.651C655.186 161.651 653.311 162.219 652.458 164.207L654.049 164.776C654.419 163.98 655.292 163.128 656.89 163.128C658.431 163.128 659.191 163.945 659.191 165.344V165.401C659.191 166.21 658.367 166.139 656.379 166.395C654.355 166.658 652.146 167.105 652.146 169.605C652.146 171.736 653.794 172.957 655.867 172.957ZM656.123 171.452C654.788 171.452 653.822 170.855 653.822 169.69C653.822 168.412 654.987 168.014 656.294 167.844C657.004 167.758 658.907 167.56 659.191 167.219V168.753C659.191 170.116 658.112 171.452 656.123 171.452ZM669.552 172.702H671.228V165.883C671.228 164.285 672.393 163.156 673.699 163.156C674.971 163.156 675.858 163.987 675.858 165.23V172.702H677.563V165.599C677.563 164.193 678.444 163.156 679.978 163.156C681.171 163.156 682.194 163.788 682.194 165.401V172.702H683.87V165.401C683.87 162.837 682.492 161.651 680.546 161.651C678.983 161.651 677.84 162.368 677.279 163.497H677.165C676.626 162.332 675.674 161.651 674.239 161.651C672.819 161.651 671.768 162.332 671.313 163.497H671.171V161.793H669.552V172.702ZM691.508 172.929C693.724 172.929 695.344 171.821 695.855 170.173L694.236 169.719C693.809 170.855 692.822 171.423 691.508 171.423C689.541 171.423 688.184 170.152 688.106 167.815H696.025V167.105C696.025 163.043 693.611 161.651 691.338 161.651C688.383 161.651 686.423 163.98 686.423 167.332C686.423 170.685 688.355 172.929 691.508 172.929ZM688.106 166.366C688.22 164.669 689.42 163.156 691.338 163.156C693.156 163.156 694.321 164.52 694.321 166.366H688.106ZM700.251 166.139C700.251 164.236 701.43 163.156 703.035 163.156C704.591 163.156 705.535 164.172 705.535 165.883V172.702H707.211V165.77C707.211 162.986 705.727 161.651 703.518 161.651C701.871 161.651 700.848 162.389 700.336 163.497H700.194V161.793H698.575V172.702H700.251V166.139ZM715.019 161.793H712.689V159.179H711.013V161.793H709.365V163.213H711.013V170.031C711.013 171.935 712.547 172.844 713.968 172.844C714.593 172.844 714.99 172.73 715.218 172.645L714.877 171.139C714.735 171.168 714.507 171.224 714.138 171.224C713.399 171.224 712.689 170.997 712.689 169.577V163.213H715.019V161.793ZM721.855 172.929C724.809 172.929 726.798 170.685 726.798 167.304C726.798 163.895 724.809 161.651 721.855 161.651C718.9 161.651 716.911 163.895 716.911 167.304C716.911 170.685 718.9 172.929 721.855 172.929ZM721.855 171.423C719.61 171.423 718.588 169.491 718.588 167.304C718.588 165.116 719.61 163.156 721.855 163.156C724.099 163.156 725.122 165.116 725.122 167.304C725.122 169.491 724.099 171.423 721.855 171.423ZM729.356 172.702H731.032V165.798C731.032 164.321 732.197 163.241 733.788 163.241C734.236 163.241 734.697 163.327 734.811 163.355V161.651C734.619 161.636 734.179 161.622 733.93 161.622C732.623 161.622 731.487 162.361 731.089 163.44H730.976V161.793H729.356V172.702ZM745.633 172.957C747.536 172.957 748.531 171.935 748.872 171.224H748.957V172.702H750.633V165.514C750.633 162.048 747.991 161.651 746.599 161.651C744.951 161.651 743.076 162.219 742.224 164.207L743.815 164.776C744.184 163.98 745.058 163.128 746.656 163.128C748.197 163.128 748.957 163.945 748.957 165.344V165.401C748.957 166.21 748.133 166.139 746.144 166.395C744.12 166.658 741.911 167.105 741.911 169.605C741.911 171.736 743.559 172.957 745.633 172.957ZM745.889 171.452C744.553 171.452 743.588 170.855 743.588 169.69C743.588 168.412 744.752 168.014 746.059 167.844C746.769 167.758 748.673 167.56 748.957 167.219V168.753C748.957 170.116 747.877 171.452 745.889 171.452ZM755.368 166.139C755.368 164.236 756.547 163.156 758.153 163.156C759.708 163.156 760.653 164.172 760.653 165.883V172.702H762.329V165.77C762.329 162.986 760.844 161.651 758.635 161.651C756.988 161.651 755.965 162.389 755.454 163.497H755.312V161.793H753.692V172.702H755.368V166.139ZM769.511 172.929C771.613 172.929 772.323 171.622 772.693 171.026H772.892V172.702H774.511V158.156H772.835V163.526H772.693C772.323 162.957 771.67 161.651 769.539 161.651C766.784 161.651 764.88 163.838 764.88 167.276C764.88 170.741 766.784 172.929 769.511 172.929ZM769.738 171.423C767.636 171.423 766.556 169.577 766.556 167.247C766.556 164.946 767.607 163.156 769.738 163.156C771.784 163.156 772.863 164.804 772.863 167.247C772.863 169.719 771.755 171.423 769.738 171.423ZM787.842 177.02C790.455 177.02 792.558 175.827 792.558 173.014V161.793H790.938V163.526H790.768C790.399 162.957 789.717 161.651 787.586 161.651C784.83 161.651 782.927 163.838 782.927 167.19C782.927 170.599 784.916 172.531 787.558 172.531C789.688 172.531 790.37 171.281 790.74 170.685H790.882V172.901C790.882 174.719 789.603 175.543 787.842 175.543C785.86 175.543 785.164 174.499 784.717 173.895L783.382 174.832C784.063 175.976 785.406 177.02 787.842 177.02ZM787.785 171.026C785.683 171.026 784.603 169.435 784.603 167.162C784.603 164.946 785.654 163.156 787.785 163.156C789.83 163.156 790.91 164.804 790.91 167.162C790.91 169.577 789.802 171.026 787.785 171.026ZM795.626 172.702H797.302V165.798C797.302 164.321 798.467 163.241 800.058 163.241C800.505 163.241 800.967 163.327 801.08 163.355V161.651C800.889 161.636 800.448 161.622 800.2 161.622C798.893 161.622 797.757 162.361 797.359 163.44H797.245V161.793H795.626V172.702ZM807.167 172.929C810.122 172.929 812.11 170.685 812.11 167.304C812.11 163.895 810.122 161.651 807.167 161.651C804.213 161.651 802.224 163.895 802.224 167.304C802.224 170.685 804.213 172.929 807.167 172.929ZM807.167 171.423C804.923 171.423 803.9 169.491 803.9 167.304C803.9 165.116 804.923 163.156 807.167 163.156C809.411 163.156 810.434 165.116 810.434 167.304C810.434 169.491 809.411 171.423 807.167 171.423ZM816.769 172.702H818.417L820.803 164.321H820.974L823.36 172.702H825.008L828.332 161.793H826.57L824.213 170.116H824.099L821.798 161.793H820.008L817.678 170.145H817.565L815.207 161.793H813.445L816.769 172.702ZM835.292 161.793H832.963V159.179H831.286V161.793H829.639V163.213H831.286V170.031C831.286 171.935 832.82 172.844 834.241 172.844C834.866 172.844 835.264 172.73 835.491 172.645L835.15 171.139C835.008 171.168 834.781 171.224 834.411 171.224C833.673 171.224 832.963 170.997 832.963 169.577V163.213H835.292V161.793ZM839.724 166.139C839.724 164.236 840.938 163.156 842.593 163.156C844.17 163.156 845.122 164.151 845.122 165.883V172.702H846.798V165.77C846.798 162.964 845.306 161.651 843.076 161.651C841.357 161.651 840.377 162.368 839.866 163.497H839.724V158.156H838.048V172.702H839.724V166.139ZM857.961 172.702H859.608L861.995 164.321H862.165L864.552 172.702H866.199L869.523 161.793H867.762L865.404 170.116H865.29L862.989 161.793H861.199L858.87 170.145H858.756L856.398 161.793H854.637L857.961 172.702ZM871.739 172.702H873.415V161.793H871.739V172.702ZM872.591 159.974C873.245 159.974 873.785 159.463 873.785 158.838C873.785 158.213 873.245 157.702 872.591 157.702C871.938 157.702 871.398 158.213 871.398 158.838C871.398 159.463 871.938 159.974 872.591 159.974ZM881.23 161.793H878.9V159.179H877.224V161.793H875.576V163.213H877.224V170.031C877.224 171.935 878.758 172.844 880.178 172.844C880.803 172.844 881.201 172.73 881.428 172.645L881.088 171.139C880.945 171.168 880.718 171.224 880.349 171.224C879.61 171.224 878.9 170.997 878.9 169.577V163.213H881.23V161.793ZM885.661 166.139C885.661 164.236 886.876 163.156 888.531 163.156C890.107 163.156 891.059 164.151 891.059 165.883V172.702H892.735V165.77C892.735 162.964 891.244 161.651 889.014 161.651C887.295 161.651 886.315 162.368 885.803 163.497H885.661V158.156H883.985V172.702H885.661V166.139ZM897.023 172.815C897.726 172.815 898.302 172.24 898.302 171.537C898.302 170.834 897.726 170.258 897.023 170.258C896.32 170.258 895.745 170.834 895.745 171.537C895.745 172.24 896.32 172.815 897.023 172.815Z" fill="white"/>
<g filter="url(#filter0_d_2_39759)">
<path d="M656 213.702C656 209.283 659.582 205.702 664 205.702H776C780.418 205.702 784 209.283 784 213.702V245.702C784 250.12 780.418 253.702 776 253.702H664C659.582 253.702 656 250.12 656 245.702V213.702Z" fill="white"/>
<path d="M685.153 227.741H686.955C686.562 225.474 684.625 223.906 682.114 223.906C679.102 223.906 676.903 226.173 676.903 229.889C676.903 233.571 679.04 235.861 682.193 235.861C685.017 235.861 687.034 234.008 687.034 231.071V229.747H682.46V231.196H685.335C685.295 233.071 684.057 234.258 682.193 234.258C680.142 234.258 678.648 232.707 678.648 229.878C678.648 227.06 680.153 225.508 682.125 225.508C683.67 225.508 684.716 226.361 685.153 227.741ZM692.888 235.878C694.791 235.878 696.138 234.94 696.524 233.52L694.916 233.23C694.609 234.054 693.871 234.474 692.905 234.474C691.45 234.474 690.473 233.531 690.428 231.849H696.632V231.247C696.632 228.094 694.746 226.861 692.768 226.861C690.337 226.861 688.734 228.713 688.734 231.395C688.734 234.105 690.314 235.878 692.888 235.878ZM690.433 230.577C690.501 229.338 691.399 228.264 692.78 228.264C694.098 228.264 694.962 229.241 694.967 230.577H690.433ZM702.591 226.974H700.801V224.883H699.102V226.974H697.824V228.338H699.102V233.491C699.097 235.077 700.307 235.844 701.648 235.815C702.188 235.81 702.551 235.707 702.75 235.633L702.443 234.23C702.33 234.253 702.119 234.304 701.847 234.304C701.295 234.304 700.801 234.122 700.801 233.139V228.338H702.591V226.974ZM715.244 229.105C714.892 227.747 713.83 226.861 711.943 226.861C709.972 226.861 708.574 227.901 708.574 229.446C708.574 230.685 709.324 231.508 710.96 231.872L712.438 232.196C713.278 232.383 713.67 232.758 713.67 233.304C713.67 233.98 712.949 234.508 711.835 234.508C710.818 234.508 710.165 234.071 709.96 233.213L708.318 233.463C708.602 235.008 709.886 235.878 711.847 235.878C713.955 235.878 715.415 234.758 715.415 233.179C715.415 231.946 714.631 231.185 713.028 230.815L711.642 230.497C710.682 230.27 710.267 229.946 710.273 229.355C710.267 228.685 710.994 228.207 711.96 228.207C713.017 228.207 713.506 228.793 713.705 229.378L715.244 229.105ZM721.357 226.974H719.567V224.883H717.868V226.974H716.589V228.338H717.868V233.491C717.862 235.077 719.072 235.844 720.413 235.815C720.953 235.81 721.317 235.707 721.516 235.633L721.209 234.23C721.095 234.253 720.885 234.304 720.612 234.304C720.061 234.304 719.567 234.122 719.567 233.139V228.338H721.357V226.974ZM725.776 235.895C727.219 235.895 728.031 235.162 728.355 234.508H728.423V235.702H730.082V229.906C730.082 227.366 728.082 226.861 726.696 226.861C725.116 226.861 723.662 227.497 723.094 229.088L724.69 229.452C724.94 228.832 725.577 228.236 726.719 228.236C727.815 228.236 728.378 228.81 728.378 229.798V229.838C728.378 230.457 727.741 230.446 726.173 230.628C724.52 230.821 722.827 231.253 722.827 233.236C722.827 234.952 724.116 235.895 725.776 235.895ZM726.145 234.531C725.185 234.531 724.491 234.099 724.491 233.258C724.491 232.349 725.298 232.026 726.281 231.895C726.832 231.821 728.139 231.673 728.384 231.429V232.554C728.384 233.588 727.56 234.531 726.145 234.531ZM732.345 235.702H734.044V230.372C734.044 229.23 734.925 228.406 736.129 228.406C736.482 228.406 736.879 228.469 737.016 228.508V226.883C736.845 226.861 736.51 226.844 736.294 226.844C735.271 226.844 734.396 227.423 734.078 228.361H733.987V226.974H732.345V235.702ZM743.075 226.974H741.286V224.883H739.587V226.974H738.308V228.338H739.587V233.491C739.581 235.077 740.791 235.844 742.132 235.815C742.672 235.81 743.036 235.707 743.234 235.633L742.928 234.23C742.814 234.253 742.604 234.304 742.331 234.304C741.78 234.304 741.286 234.122 741.286 233.139V228.338H743.075V226.974ZM748.622 235.878C750.526 235.878 751.872 234.94 752.259 233.52L750.651 233.23C750.344 234.054 749.605 234.474 748.639 234.474C747.185 234.474 746.207 233.531 746.162 231.849H752.366V231.247C752.366 228.094 750.48 226.861 748.503 226.861C746.071 226.861 744.469 228.713 744.469 231.395C744.469 234.105 746.048 235.878 748.622 235.878ZM746.168 230.577C746.236 229.338 747.134 228.264 748.514 228.264C749.832 228.264 750.696 229.241 750.702 230.577H746.168ZM757.518 235.872C759.109 235.872 759.734 234.901 760.041 234.344H760.183V235.702H761.842V224.065H760.143V228.389H760.041C759.734 227.849 759.155 226.861 757.53 226.861C755.422 226.861 753.871 228.526 753.871 231.355C753.871 234.179 755.399 235.872 757.518 235.872ZM757.893 234.423C756.376 234.423 755.587 233.088 755.587 231.338C755.587 229.605 756.359 228.304 757.893 228.304C759.376 228.304 760.172 229.514 760.172 231.338C760.172 233.173 759.359 234.423 757.893 234.423Z" fill="#5EC69D"/>
<path d="M664 206.702H776V204.702H664V206.702ZM783 213.702V245.702H785V213.702H783ZM776 252.702H664V254.702H776V252.702ZM657 245.702V213.702H655V245.702H657ZM664 252.702C660.134 252.702 657 249.568 657 245.702H655C655 250.672 659.029 254.702 664 254.702V252.702ZM783 245.702C783 249.568 779.866 252.702 776 252.702V254.702C780.971 254.702 785 250.672 785 245.702H783ZM776 206.702C779.866 206.702 783 209.836 783 213.702H785C785 208.731 780.971 204.702 776 204.702V206.702ZM664 204.702C659.029 204.702 655 208.731 655 213.702H657C657 209.836 660.134 206.702 664 206.702V204.702Z" fill="#5EC69D"/>
</g>
<defs>
<filter id="filter0_d_2_39759" x="654" y="204.702" width="132" height="52" filterUnits="userSpaceOnUse" color-interpolation-filters="sRGB">
<feFlood flood-opacity="0" result="BackgroundImageFix"/>
<feColorMatrix in="SourceAlpha" type="matrix" values="0 0 0 0 0 0 0 0 0 0 0 0 0 0 0 0 0 0 127 0" result="hardAlpha"/>
<feOffset dy="1"/>
<feGaussianBlur stdDeviation="1"/>
<feColorMatrix type="matrix" values="0 0 0 0 0.0627451 0 0 0 0 0.0941176 0 0 0 0 0.156863 0 0 0 0.05 0"/>
<feBlend mode="normal" in2="BackgroundImageFix" result="effect1_dropShadow_2_39759"/>
<feBlend mode="normal" in="SourceGraphic" in2="effect1_dropShadow_2_39759" result="shape"/>
</filter>
</defs>
</svg>
