<svg width="1280" height="608" viewBox="0 0 1280 608" fill="none" xmlns="http://www.w3.org/2000/svg">
<rect x="205.5" y="186.562" width="42.6432" height="42.6432" rx="21.3216" fill="#5EC69D" fill-opacity="0.1"/>
<path fill-rule="evenodd" clip-rule="evenodd" d="M226.822 207.884C228.785 207.884 230.376 206.293 230.376 204.33C230.376 202.367 228.785 200.776 226.822 200.776C224.859 200.776 223.268 202.367 223.268 204.33C223.268 206.293 224.859 207.884 226.822 207.884ZM226.822 209.66C224.45 209.66 219.715 210.851 219.715 213.214V214.102C219.715 214.591 220.115 214.991 220.603 214.991H233.041C233.529 214.991 233.929 214.591 233.929 214.102V213.214C233.929 210.851 229.194 209.66 226.822 209.66Z" fill="#5EC69D"/>
<path d="M219.606 272.561H211.345L209.616 277.527H205.764L213.82 256.199H217.146L225.217 277.527H221.35L219.606 272.561ZM212.385 269.573H218.566L215.476 260.725L212.385 269.573ZM240.48 269.763C240.48 272.214 239.924 274.172 238.811 275.637C237.697 277.092 236.203 277.82 234.328 277.82C232.59 277.82 231.198 277.249 230.153 276.106V283.621H226.594V261.677H229.875L230.021 263.289C231.066 262.019 232.487 261.384 234.284 261.384C236.218 261.384 237.731 262.107 238.825 263.552C239.929 264.988 240.48 266.985 240.48 269.543V269.763ZM236.936 269.456C236.936 267.874 236.618 266.619 235.983 265.691C235.358 264.763 234.46 264.299 233.288 264.299C231.833 264.299 230.788 264.9 230.153 266.101V273.132C230.798 274.363 231.853 274.978 233.317 274.978C234.45 274.978 235.334 274.524 235.969 273.616C236.613 272.698 236.936 271.311 236.936 269.456ZM257.385 269.763C257.385 272.214 256.828 274.172 255.715 275.637C254.602 277.092 253.107 277.82 251.232 277.82C249.494 277.82 248.103 277.249 247.058 276.106V283.621H243.498V261.677H246.779L246.926 263.289C247.971 262.019 249.392 261.384 251.188 261.384C253.122 261.384 254.636 262.107 255.729 263.552C256.833 264.988 257.385 266.985 257.385 269.543V269.763ZM253.84 269.456C253.84 267.874 253.522 266.619 252.888 265.691C252.263 264.763 251.364 264.299 250.192 264.299C248.737 264.299 247.692 264.9 247.058 266.101V273.132C247.702 274.363 248.757 274.978 250.222 274.978C251.354 274.978 252.238 274.524 252.873 273.616C253.518 272.698 253.84 271.311 253.84 269.456ZM268.708 264.929C268.239 264.851 267.756 264.812 267.258 264.812C265.627 264.812 264.528 265.437 263.962 266.687V277.527H260.402V261.677H263.801L263.889 263.45C264.748 262.073 265.939 261.384 267.463 261.384C267.971 261.384 268.391 261.453 268.723 261.589L268.708 264.929ZM269.763 269.456C269.763 267.903 270.07 266.506 270.686 265.266C271.301 264.016 272.165 263.059 273.278 262.395C274.392 261.721 275.671 261.384 277.116 261.384C279.255 261.384 280.988 262.073 282.316 263.45C283.654 264.827 284.377 266.653 284.484 268.928L284.499 269.763C284.499 271.326 284.196 272.722 283.591 273.953C282.995 275.183 282.136 276.135 281.013 276.809C279.899 277.483 278.61 277.82 277.146 277.82C274.909 277.82 273.117 277.078 271.77 275.593C270.432 274.099 269.763 272.112 269.763 269.631V269.456ZM273.322 269.763C273.322 271.394 273.659 272.673 274.333 273.601C275.007 274.519 275.944 274.978 277.146 274.978C278.347 274.978 279.279 274.509 279.943 273.572C280.617 272.634 280.954 271.262 280.954 269.456C280.954 267.854 280.607 266.584 279.914 265.647C279.23 264.709 278.298 264.241 277.116 264.241C275.954 264.241 275.031 264.705 274.348 265.632C273.664 266.55 273.322 267.927 273.322 269.763ZM292.863 273.015L296.218 261.677H299.895L294.401 277.527H291.311L285.773 261.677H289.465L292.863 273.015ZM308.903 277.82C306.647 277.82 304.816 277.112 303.41 275.696C302.014 274.27 301.315 272.375 301.315 270.012V269.573C301.315 267.991 301.618 266.58 302.224 265.339C302.839 264.089 303.698 263.118 304.802 262.424C305.905 261.731 307.136 261.384 308.493 261.384C310.651 261.384 312.316 262.073 313.488 263.45C314.67 264.827 315.261 266.775 315.261 269.294V270.73H304.904C305.012 272.039 305.446 273.074 306.208 273.835C306.979 274.597 307.946 274.978 309.108 274.978C310.739 274.978 312.067 274.319 313.093 273L315.012 274.832C314.377 275.779 313.527 276.516 312.463 277.043C311.408 277.561 310.222 277.82 308.903 277.82ZM308.479 264.241C307.502 264.241 306.711 264.583 306.105 265.266C305.51 265.95 305.129 266.902 304.963 268.123H311.745V267.859C311.667 266.667 311.35 265.769 310.793 265.164C310.236 264.548 309.465 264.241 308.479 264.241ZM334.978 277.527C334.821 277.224 334.685 276.731 334.567 276.047C333.435 277.229 332.048 277.82 330.407 277.82C328.815 277.82 327.517 277.366 326.511 276.458C325.505 275.549 325.002 274.426 325.002 273.088C325.002 271.399 325.627 270.105 326.877 269.207C328.137 268.298 329.934 267.844 332.268 267.844H334.45V266.804C334.45 265.984 334.221 265.33 333.762 264.841C333.303 264.343 332.604 264.094 331.667 264.094C330.856 264.094 330.192 264.299 329.675 264.709C329.157 265.11 328.898 265.623 328.898 266.248H325.339C325.339 265.378 325.627 264.568 326.203 263.816C326.779 263.054 327.561 262.458 328.547 262.029C329.543 261.599 330.651 261.384 331.872 261.384C333.728 261.384 335.207 261.853 336.311 262.791C337.414 263.718 337.98 265.027 338.01 266.716V273.865C338.01 275.291 338.21 276.428 338.61 277.278V277.527H334.978ZM331.066 274.963C331.77 274.963 332.429 274.792 333.044 274.451C333.669 274.109 334.138 273.65 334.45 273.074V270.085H332.531C331.213 270.085 330.222 270.315 329.558 270.774C328.894 271.233 328.562 271.882 328.562 272.722C328.562 273.406 328.786 273.953 329.235 274.363C329.694 274.763 330.305 274.963 331.066 274.963ZM358.093 273.22C358.093 272.585 357.829 272.102 357.302 271.77C356.784 271.438 355.92 271.145 354.709 270.891C353.498 270.637 352.487 270.315 351.677 269.924C349.899 269.065 349.011 267.82 349.011 266.189C349.011 264.822 349.587 263.679 350.739 262.761C351.892 261.843 353.356 261.384 355.134 261.384C357.028 261.384 358.557 261.853 359.719 262.791C360.891 263.728 361.477 264.944 361.477 266.438H357.917C357.917 265.754 357.663 265.188 357.155 264.739C356.647 264.28 355.974 264.05 355.134 264.05C354.353 264.05 353.713 264.231 353.215 264.592C352.727 264.954 352.482 265.437 352.482 266.042C352.482 266.589 352.712 267.014 353.171 267.317C353.63 267.62 354.558 267.927 355.954 268.24C357.351 268.542 358.444 268.909 359.235 269.338C360.036 269.758 360.627 270.266 361.008 270.862C361.398 271.458 361.594 272.18 361.594 273.03C361.594 274.456 361.003 275.613 359.821 276.501C358.64 277.38 357.092 277.82 355.178 277.82C353.879 277.82 352.722 277.585 351.706 277.117C350.69 276.648 349.899 276.003 349.333 275.183C348.767 274.363 348.483 273.479 348.483 272.532H351.94C351.989 273.372 352.307 274.021 352.893 274.48C353.479 274.929 354.255 275.154 355.222 275.154C356.159 275.154 356.872 274.978 357.36 274.626C357.849 274.265 358.093 273.796 358.093 273.22ZM371.687 277.82C369.431 277.82 367.6 277.112 366.193 275.696C364.797 274.27 364.099 272.375 364.099 270.012V269.573C364.099 267.991 364.401 266.58 365.007 265.339C365.622 264.089 366.481 263.118 367.585 262.424C368.688 261.731 369.919 261.384 371.276 261.384C373.435 261.384 375.1 262.073 376.271 263.45C377.453 264.827 378.044 266.775 378.044 269.294V270.73H367.688C367.795 272.039 368.229 273.074 368.991 273.835C369.763 274.597 370.729 274.978 371.892 274.978C373.522 274.978 374.851 274.319 375.876 273L377.795 274.832C377.16 275.779 376.311 276.516 375.246 277.043C374.191 277.561 373.005 277.82 371.687 277.82ZM371.262 264.241C370.285 264.241 369.494 264.583 368.889 265.266C368.293 265.95 367.912 266.902 367.746 268.123H374.528V267.859C374.45 266.667 374.133 265.769 373.576 265.164C373.02 264.548 372.248 264.241 371.262 264.241ZM389.704 273.22C389.704 272.585 389.44 272.102 388.913 271.77C388.396 271.438 387.531 271.145 386.32 270.891C385.109 270.637 384.099 270.315 383.288 269.924C381.511 269.065 380.622 267.82 380.622 266.189C380.622 264.822 381.198 263.679 382.351 262.761C383.503 261.843 384.968 261.384 386.745 261.384C388.64 261.384 390.168 261.853 391.33 262.791C392.502 263.728 393.088 264.944 393.088 266.438H389.528C389.528 265.754 389.274 265.188 388.767 264.739C388.259 264.28 387.585 264.05 386.745 264.05C385.964 264.05 385.324 264.231 384.826 264.592C384.338 264.954 384.094 265.437 384.094 266.042C384.094 266.589 384.323 267.014 384.782 267.317C385.241 267.62 386.169 267.927 387.565 268.24C388.962 268.542 390.056 268.909 390.847 269.338C391.647 269.758 392.238 270.266 392.619 270.862C393.01 271.458 393.205 272.18 393.205 273.03C393.205 274.456 392.614 275.613 391.433 276.501C390.251 277.38 388.703 277.82 386.789 277.82C385.49 277.82 384.333 277.585 383.317 277.117C382.302 276.648 381.511 276.003 380.944 275.183C380.378 274.363 380.095 273.479 380.095 272.532H383.552C383.601 273.372 383.918 274.021 384.504 274.48C385.09 274.929 385.866 275.154 386.833 275.154C387.771 275.154 388.483 274.978 388.972 274.626C389.46 274.265 389.704 273.796 389.704 273.22ZM405.202 273.22C405.202 272.585 404.938 272.102 404.411 271.77C403.894 271.438 403.029 271.145 401.818 270.891C400.607 270.637 399.597 270.315 398.786 269.924C397.009 269.065 396.12 267.82 396.12 266.189C396.12 264.822 396.696 263.679 397.849 262.761C399.001 261.843 400.466 261.384 402.243 261.384C404.138 261.384 405.666 261.853 406.828 262.791C408 263.728 408.586 264.944 408.586 266.438H405.026C405.026 265.754 404.772 265.188 404.265 264.739C403.757 264.28 403.083 264.05 402.243 264.05C401.462 264.05 400.822 264.231 400.324 264.592C399.836 264.954 399.592 265.437 399.592 266.042C399.592 266.589 399.821 267.014 400.28 267.317C400.739 267.62 401.667 267.927 403.063 268.24C404.46 268.542 405.554 268.909 406.345 269.338C407.146 269.758 407.736 270.266 408.117 270.862C408.508 271.458 408.703 272.18 408.703 273.03C408.703 274.456 408.112 275.613 406.931 276.501C405.749 277.38 404.201 277.82 402.287 277.82C400.988 277.82 399.831 277.585 398.815 277.117C397.8 276.648 397.009 276.003 396.442 275.183C395.876 274.363 395.593 273.479 395.593 272.532H399.05C399.099 273.372 399.416 274.021 400.002 274.48C400.588 274.929 401.364 275.154 402.331 275.154C403.269 275.154 403.981 274.978 404.47 274.626C404.958 274.265 405.202 273.796 405.202 273.22ZM415.603 277.527H412.043V261.677H415.603V277.527ZM411.823 257.561C411.823 257.014 411.994 256.56 412.336 256.199C412.688 255.837 413.186 255.657 413.83 255.657C414.475 255.657 414.973 255.837 415.324 256.199C415.676 256.56 415.852 257.014 415.852 257.561C415.852 258.098 415.676 258.547 415.324 258.909C414.973 259.26 414.475 259.436 413.83 259.436C413.186 259.436 412.688 259.26 412.336 258.909C411.994 258.547 411.823 258.098 411.823 257.561ZM418.825 269.456C418.825 267.903 419.133 266.506 419.748 265.266C420.363 264.016 421.228 263.059 422.341 262.395C423.454 261.721 424.733 261.384 426.179 261.384C428.317 261.384 430.051 262.073 431.379 263.45C432.717 264.827 433.439 266.653 433.547 268.928L433.562 269.763C433.562 271.326 433.259 272.722 432.653 273.953C432.058 275.183 431.198 276.135 430.075 276.809C428.962 277.483 427.673 277.82 426.208 277.82C423.972 277.82 422.18 277.078 420.832 275.593C419.494 274.099 418.825 272.112 418.825 269.631V269.456ZM422.385 269.763C422.385 271.394 422.722 272.673 423.396 273.601C424.069 274.519 425.007 274.978 426.208 274.978C427.409 274.978 428.342 274.509 429.006 273.572C429.68 272.634 430.017 271.262 430.017 269.456C430.017 267.854 429.67 266.584 428.977 265.647C428.293 264.709 427.36 264.241 426.179 264.241C425.017 264.241 424.094 264.705 423.41 265.632C422.727 266.55 422.385 267.927 422.385 269.763ZM439.875 261.677L439.978 263.508C441.149 262.092 442.688 261.384 444.592 261.384C447.893 261.384 449.572 263.274 449.631 267.053V277.527H446.071V267.258C446.071 266.252 445.852 265.51 445.412 265.032C444.982 264.543 444.274 264.299 443.288 264.299C441.853 264.299 440.783 264.949 440.08 266.248V277.527H436.521V261.677H439.875Z" fill="#101828"/>
<path d="M208.327 315.275H213.714V316.5H206.82V305.132H208.327V315.275ZM214.815 312.198C214.815 311.371 214.977 310.626 215.299 309.965C215.627 309.304 216.08 308.794 216.658 308.435C217.241 308.075 217.905 307.896 218.649 307.896C219.799 307.896 220.729 308.294 221.437 309.091C222.15 309.887 222.506 310.946 222.506 312.268V312.37C222.506 313.192 222.347 313.932 222.03 314.587C221.718 315.238 221.267 315.746 220.679 316.11C220.096 316.474 219.425 316.657 218.665 316.657C217.519 316.657 216.59 316.258 215.877 315.462C215.169 314.666 214.815 313.611 214.815 312.3V312.198ZM216.268 312.37C216.268 313.307 216.484 314.059 216.916 314.627C217.353 315.194 217.936 315.478 218.665 315.478C219.399 315.478 219.982 315.191 220.414 314.619C220.846 314.041 221.062 313.234 221.062 312.198C221.062 311.272 220.841 310.522 220.398 309.949C219.961 309.372 219.378 309.083 218.649 309.083C217.936 309.083 217.361 309.366 216.923 309.934C216.486 310.501 216.268 311.313 216.268 312.37ZM223.935 312.198C223.935 311.371 224.097 310.626 224.419 309.965C224.747 309.304 225.2 308.794 225.778 308.435C226.361 308.075 227.025 307.896 227.769 307.896C228.919 307.896 229.849 308.294 230.557 309.091C231.27 309.887 231.626 310.946 231.626 312.268V312.37C231.626 313.192 231.467 313.932 231.15 314.587C230.838 315.238 230.387 315.746 229.799 316.11C229.216 316.474 228.545 316.657 227.785 316.657C226.639 316.657 225.71 316.258 224.997 315.462C224.289 314.666 223.935 313.611 223.935 312.3V312.198ZM225.387 312.37C225.387 313.307 225.604 314.059 226.036 314.627C226.473 315.194 227.056 315.478 227.785 315.478C228.519 315.478 229.102 315.191 229.534 314.619C229.966 314.041 230.182 313.234 230.182 312.198C230.182 311.272 229.96 310.522 229.518 309.949C229.081 309.372 228.498 309.083 227.769 309.083C227.056 309.083 226.481 309.366 226.043 309.934C225.606 310.501 225.387 311.313 225.387 312.37ZM235.796 312.589L234.89 313.533V316.5H233.446V304.507H234.89V311.761L235.663 310.832L238.294 308.052H240.051L236.764 311.581L240.434 316.5H238.739L235.796 312.589ZM246.22 316.5V309.169H244.885V308.052H246.22V307.185C246.22 306.28 246.462 305.579 246.946 305.085C247.43 304.59 248.115 304.343 248.999 304.343C249.333 304.343 249.663 304.387 249.991 304.476L249.913 305.647C249.668 305.6 249.408 305.577 249.132 305.577C248.664 305.577 248.302 305.715 248.047 305.991C247.792 306.261 247.664 306.652 247.664 307.162V308.052H249.468V309.169H247.664V316.5H246.22ZM250.686 312.198C250.686 311.371 250.847 310.626 251.17 309.965C251.498 309.304 251.951 308.794 252.529 308.435C253.112 308.075 253.775 307.896 254.52 307.896C255.67 307.896 256.599 308.294 257.307 309.091C258.021 309.887 258.377 310.946 258.377 312.268V312.37C258.377 313.192 258.218 313.932 257.901 314.587C257.588 315.238 257.138 315.746 256.55 316.11C255.967 316.474 255.295 316.657 254.535 316.657C253.39 316.657 252.461 316.258 251.748 315.462C251.04 314.666 250.686 313.611 250.686 312.3V312.198ZM252.138 312.37C252.138 313.307 252.354 314.059 252.786 314.627C253.224 315.194 253.807 315.478 254.535 315.478C255.269 315.478 255.852 315.191 256.285 314.619C256.717 314.041 256.933 313.234 256.933 312.198C256.933 311.272 256.711 310.522 256.269 309.949C255.832 309.372 255.249 309.083 254.52 309.083C253.807 309.083 253.232 309.366 252.794 309.934C252.357 310.501 252.138 311.313 252.138 312.37ZM264.272 309.348C264.054 309.312 263.817 309.294 263.562 309.294C262.614 309.294 261.971 309.697 261.633 310.504V316.5H260.189V308.052H261.594L261.618 309.028C262.091 308.273 262.763 307.896 263.632 307.896C263.913 307.896 264.127 307.932 264.272 308.005V309.348ZM271.534 306.006V308.052H273.111V309.169H271.534V314.408C271.534 314.746 271.604 315.001 271.745 315.173C271.885 315.34 272.125 315.423 272.463 315.423C272.63 315.423 272.859 315.392 273.15 315.329V316.5C272.77 316.605 272.401 316.657 272.041 316.657C271.396 316.657 270.909 316.461 270.581 316.071C270.253 315.681 270.089 315.126 270.089 314.408V309.169H268.551V308.052H270.089V306.006H271.534ZM276.25 309.075C276.89 308.289 277.723 307.896 278.749 307.896C280.534 307.896 281.435 308.903 281.45 310.918V316.5H280.006V310.91C280.001 310.301 279.86 309.851 279.584 309.559C279.313 309.267 278.889 309.122 278.311 309.122C277.843 309.122 277.432 309.247 277.078 309.497C276.724 309.746 276.448 310.074 276.25 310.48V316.5H274.806V304.507H276.25V309.075ZM287.119 316.657C285.974 316.657 285.042 316.282 284.324 315.532C283.605 314.777 283.246 313.77 283.246 312.51V312.245C283.246 311.407 283.405 310.66 283.723 310.004C284.045 309.343 284.493 308.828 285.066 308.458C285.643 308.083 286.268 307.896 286.94 307.896C288.038 307.896 288.892 308.258 289.501 308.981C290.11 309.705 290.414 310.741 290.414 312.089V312.69H284.691C284.712 313.523 284.954 314.197 285.417 314.712C285.885 315.223 286.479 315.478 287.197 315.478C287.707 315.478 288.139 315.374 288.493 315.165C288.847 314.957 289.157 314.681 289.423 314.338L290.305 315.025C289.597 316.113 288.535 316.657 287.119 316.657ZM286.94 309.083C286.356 309.083 285.867 309.296 285.472 309.723C285.076 310.145 284.831 310.738 284.738 311.503H288.97V311.394C288.928 310.66 288.73 310.093 288.376 309.692C288.022 309.286 287.543 309.083 286.94 309.083ZM297.137 304.359L297.965 304.921C297.481 305.582 297.231 306.295 297.215 307.06V308.122H295.778V307.217C295.778 306.686 295.903 306.16 296.153 305.639C296.408 305.119 296.736 304.692 297.137 304.359ZM299.597 304.359L300.424 304.921C299.94 305.582 299.69 306.295 299.675 307.06V308.122H298.238V307.217C298.238 306.686 298.363 306.16 298.613 305.639C298.868 305.119 299.196 304.692 299.597 304.359ZM306.109 311.901H303.438V316.5H301.931V305.132H305.695C306.975 305.132 307.959 305.423 308.646 306.006C309.339 306.589 309.685 307.438 309.685 308.552C309.685 309.26 309.492 309.877 309.107 310.402C308.727 310.928 308.196 311.321 307.514 311.581L310.185 316.407V316.5H308.576L306.109 311.901ZM303.438 310.676H305.742C306.486 310.676 307.077 310.483 307.514 310.098C307.957 309.713 308.178 309.197 308.178 308.552C308.178 307.849 307.967 307.31 307.545 306.935C307.129 306.561 306.525 306.371 305.734 306.365H303.438V310.676ZM313.011 309.075C313.651 308.289 314.484 307.896 315.51 307.896C317.295 307.896 318.196 308.903 318.211 310.918V316.5H316.767V310.91C316.762 310.301 316.621 309.851 316.345 309.559C316.074 309.267 315.65 309.122 315.072 309.122C314.604 309.122 314.193 309.247 313.839 309.497C313.485 309.746 313.209 310.074 313.011 310.48V316.5H311.567V304.507H313.011V309.075ZM321.944 316.5H320.499V308.052H321.944V316.5ZM320.382 305.811C320.382 305.577 320.452 305.379 320.593 305.218C320.739 305.056 320.952 304.976 321.233 304.976C321.514 304.976 321.728 305.056 321.873 305.218C322.019 305.379 322.092 305.577 322.092 305.811C322.092 306.045 322.019 306.241 321.873 306.397C321.728 306.553 321.514 306.631 321.233 306.631C320.952 306.631 320.739 306.553 320.593 306.397C320.452 306.241 320.382 306.045 320.382 305.811ZM325.621 315.321H330.564V316.5H323.857V315.439L328.518 309.247H323.927V308.052H330.33V309.075L325.621 315.321ZM331.688 312.198C331.688 311.371 331.85 310.626 332.172 309.965C332.5 309.304 332.953 308.794 333.531 308.435C334.114 308.075 334.778 307.896 335.522 307.896C336.673 307.896 337.602 308.294 338.31 309.091C339.023 309.887 339.379 310.946 339.379 312.268V312.37C339.379 313.192 339.221 313.932 338.903 314.587C338.591 315.238 338.14 315.746 337.552 316.11C336.969 316.474 336.298 316.657 335.538 316.657C334.393 316.657 333.463 316.258 332.75 315.462C332.042 314.666 331.688 313.611 331.688 312.3V312.198ZM333.141 312.37C333.141 313.307 333.357 314.059 333.789 314.627C334.226 315.194 334.809 315.478 335.538 315.478C336.272 315.478 336.855 315.191 337.287 314.619C337.719 314.041 337.935 313.234 337.935 312.198C337.935 311.272 337.714 310.522 337.271 309.949C336.834 309.372 336.251 309.083 335.522 309.083C334.809 309.083 334.234 309.366 333.797 309.934C333.359 310.501 333.141 311.313 333.141 312.37ZM347.945 314.541L350.038 308.052H351.513L348.484 316.5H347.383L344.322 308.052H345.798L347.945 314.541ZM356.3 316.657C355.155 316.657 354.223 316.282 353.504 315.532C352.786 314.777 352.427 313.77 352.427 312.51V312.245C352.427 311.407 352.586 310.66 352.903 310.004C353.226 309.343 353.674 308.828 354.246 308.458C354.824 308.083 355.449 307.896 356.12 307.896C357.218 307.896 358.072 308.258 358.681 308.981C359.29 309.705 359.595 310.741 359.595 312.089V312.69H353.871C353.892 313.523 354.134 314.197 354.598 314.712C355.066 315.223 355.659 315.478 356.378 315.478C356.888 315.478 357.32 315.374 357.674 315.165C358.028 314.957 358.338 314.681 358.603 314.338L359.485 315.025C358.778 316.113 357.716 316.657 356.3 316.657ZM356.12 309.083C355.537 309.083 355.048 309.296 354.652 309.723C354.257 310.145 354.012 310.738 353.918 311.503H358.15V311.394C358.109 310.66 357.911 310.093 357.557 309.692C357.203 309.286 356.724 309.083 356.12 309.083ZM365.357 309.348C365.139 309.312 364.902 309.294 364.647 309.294C363.699 309.294 363.056 309.697 362.718 310.504V316.5H361.274V308.052H362.679L362.702 309.028C363.176 308.273 363.848 307.896 364.717 307.896C364.998 307.896 365.211 307.932 365.357 308.005V309.348ZM368.262 316.5H366.817V308.052H368.262V316.5ZM366.7 305.811C366.7 305.577 366.771 305.379 366.911 305.218C367.057 305.056 367.27 304.976 367.551 304.976C367.832 304.976 368.046 305.056 368.192 305.218C368.337 305.379 368.41 305.577 368.41 305.811C368.41 306.045 368.337 306.241 368.192 306.397C368.046 306.553 367.832 306.631 367.551 306.631C367.27 306.631 367.057 306.553 366.911 306.397C366.771 306.241 366.7 306.045 366.7 305.811ZM371.065 316.5V309.169H369.73V308.052H371.065V307.334C371.065 306.391 371.333 305.658 371.869 305.132C372.411 304.606 373.173 304.343 374.157 304.343C374.74 304.343 375.477 304.502 376.367 304.819L376.125 306.038C375.474 305.777 374.855 305.647 374.266 305.647C373.647 305.647 373.199 305.788 372.923 306.069C372.653 306.345 372.517 306.761 372.517 307.318V308.052H374.243V309.169H372.517V316.5H371.065ZM377.085 316.5H375.633V308.052H377.085V316.5ZM382.941 316.657C381.796 316.657 380.864 316.282 380.146 315.532C379.428 314.777 379.068 313.77 379.068 312.51V312.245C379.068 311.407 379.227 310.66 379.545 310.004C379.867 309.343 380.315 308.828 380.888 308.458C381.466 308.083 382.09 307.896 382.762 307.896C383.86 307.896 384.714 308.258 385.323 308.981C385.932 309.705 386.236 310.741 386.236 312.089V312.69H380.513C380.534 313.523 380.776 314.197 381.239 314.712C381.708 315.223 382.301 315.478 383.019 315.478C383.53 315.478 383.962 315.374 384.316 315.165C384.67 314.957 384.979 314.681 385.245 314.338L386.127 315.025C385.419 316.113 384.357 316.657 382.941 316.657ZM382.762 309.083C382.179 309.083 381.689 309.296 381.294 309.723C380.898 310.145 380.653 310.738 380.56 311.503H384.792V311.394C384.75 310.66 384.552 310.093 384.198 309.692C383.844 309.286 383.366 309.083 382.762 309.083ZM387.564 312.206C387.564 310.91 387.871 309.869 388.485 309.083C389.099 308.291 389.904 307.896 390.898 307.896C391.887 307.896 392.67 308.234 393.248 308.911V304.507H394.693V316.5H393.365L393.295 315.595C392.717 316.303 391.913 316.657 390.882 316.657C389.904 316.657 389.105 316.256 388.485 315.454C387.871 314.653 387.564 313.606 387.564 312.315V312.206ZM389.008 312.37C389.008 313.328 389.206 314.077 389.602 314.619C389.997 315.16 390.544 315.431 391.241 315.431C392.158 315.431 392.826 315.02 393.248 314.197V310.316C392.816 309.52 392.152 309.122 391.257 309.122C390.549 309.122 389.997 309.395 389.602 309.942C389.206 310.488 389.008 311.298 389.008 312.37ZM397.137 308.333L396.317 307.771C396.801 307.094 397.051 306.381 397.066 305.631V304.507H398.495V305.522C398.49 306.043 398.36 306.563 398.105 307.084C397.855 307.599 397.532 308.016 397.137 308.333ZM399.534 308.333L398.714 307.771C399.198 307.094 399.448 306.381 399.463 305.631V304.507H400.892V305.522C400.887 306.043 400.757 306.563 400.502 307.084C400.252 307.599 399.929 308.016 399.534 308.333ZM407.982 308.052L408.021 308.989C408.641 308.26 409.476 307.896 410.528 307.896C411.709 307.896 412.514 308.349 412.94 309.254C413.222 308.848 413.586 308.521 414.034 308.271C414.486 308.021 415.02 307.896 415.634 307.896C417.487 307.896 418.43 308.877 418.461 310.84V316.5H417.016V310.925C417.016 310.322 416.878 309.871 416.602 309.575C416.327 309.273 415.863 309.122 415.213 309.122C414.676 309.122 414.231 309.283 413.877 309.606C413.523 309.923 413.318 310.353 413.261 310.894V316.5H411.808V310.964C411.808 309.736 411.207 309.122 410.005 309.122C409.057 309.122 408.409 309.525 408.06 310.332V316.5H406.616V308.052H407.982ZM425.863 316.5C425.78 316.334 425.712 316.037 425.66 315.61C424.988 316.308 424.187 316.657 423.255 316.657C422.422 316.657 421.738 316.422 421.201 315.954C420.671 315.48 420.405 314.882 420.405 314.158C420.405 313.278 420.738 312.596 421.404 312.112C422.076 311.623 423.018 311.378 424.231 311.378H425.637V310.715C425.637 310.21 425.486 309.809 425.184 309.512C424.882 309.21 424.437 309.059 423.848 309.059C423.333 309.059 422.901 309.189 422.552 309.45C422.204 309.71 422.029 310.025 422.029 310.394H420.577C420.577 309.973 420.725 309.567 421.022 309.176C421.324 308.781 421.73 308.468 422.24 308.239C422.755 308.01 423.32 307.896 423.934 307.896C424.908 307.896 425.67 308.141 426.222 308.63C426.774 309.114 427.06 309.783 427.081 310.637V314.525C427.081 315.301 427.18 315.917 427.378 316.376V316.5H425.863ZM423.466 315.4C423.919 315.4 424.348 315.282 424.754 315.048C425.16 314.814 425.454 314.509 425.637 314.135V312.401H424.504C422.734 312.401 421.85 312.919 421.85 313.955C421.85 314.408 422.001 314.762 422.302 315.017C422.604 315.272 422.992 315.4 423.466 315.4ZM433.429 309.348C433.21 309.312 432.974 309.294 432.719 309.294C431.771 309.294 431.128 309.697 430.79 310.504V316.5H429.345V308.052H430.751L430.774 309.028C431.248 308.273 431.92 307.896 432.789 307.896C433.07 307.896 433.283 307.932 433.429 308.005V309.348ZM437.122 312.589L436.217 313.533V316.5H434.772V304.507H436.217V311.761L436.99 310.832L439.621 308.052H441.378L438.091 311.581L441.76 316.5H440.066L437.122 312.589ZM442.9 315.743C442.9 315.493 442.973 315.285 443.119 315.118C443.27 314.952 443.494 314.869 443.791 314.869C444.087 314.869 444.311 314.952 444.462 315.118C444.618 315.285 444.696 315.493 444.696 315.743C444.696 315.983 444.618 316.183 444.462 316.344C444.311 316.506 444.087 316.586 443.791 316.586C443.494 316.586 443.27 316.506 443.119 316.344C442.973 316.183 442.9 315.983 442.9 315.743ZM458.821 306.365H455.167V316.5H453.676V306.365H450.029V305.132H458.821V306.365ZM461.726 309.075C462.366 308.289 463.199 307.896 464.225 307.896C466.01 307.896 466.911 308.903 466.926 310.918V316.5H465.482V310.91C465.477 310.301 465.336 309.851 465.06 309.559C464.789 309.267 464.365 309.122 463.787 309.122C463.319 309.122 462.908 309.247 462.554 309.497C462.2 309.746 461.924 310.074 461.726 310.48V316.5H460.282V304.507H461.726V309.075ZM472.595 316.657C471.45 316.657 470.518 316.282 469.8 315.532C469.081 314.777 468.722 313.77 468.722 312.51V312.245C468.722 311.407 468.881 310.66 469.198 310.004C469.521 309.343 469.969 308.828 470.541 308.458C471.119 308.083 471.744 307.896 472.415 307.896C473.514 307.896 474.367 308.258 474.977 308.981C475.586 309.705 475.89 310.741 475.89 312.089V312.69H470.167C470.188 313.523 470.43 314.197 470.893 314.712C471.361 315.223 471.955 315.478 472.673 315.478C473.183 315.478 473.615 315.374 473.969 315.165C474.323 314.957 474.633 314.681 474.898 314.338L475.781 315.025C475.073 316.113 474.011 316.657 472.595 316.657ZM472.415 309.083C471.832 309.083 471.343 309.296 470.948 309.723C470.552 310.145 470.307 310.738 470.214 311.503H474.446V311.394C474.404 310.66 474.206 310.093 473.852 309.692C473.498 309.286 473.019 309.083 472.415 309.083ZM482.488 314.26C482.488 313.869 482.34 313.567 482.043 313.354C481.751 313.135 481.239 312.948 480.505 312.792C479.776 312.635 479.196 312.448 478.764 312.229C478.337 312.011 478.019 311.751 477.811 311.449C477.608 311.147 477.506 310.787 477.506 310.371C477.506 309.679 477.798 309.093 478.381 308.614C478.969 308.135 479.719 307.896 480.63 307.896C481.587 307.896 482.363 308.143 482.957 308.638C483.555 309.132 483.854 309.765 483.854 310.535H482.402C482.402 310.139 482.233 309.798 481.895 309.512C481.561 309.226 481.14 309.083 480.63 309.083C480.104 309.083 479.693 309.197 479.396 309.426C479.099 309.655 478.951 309.955 478.951 310.324C478.951 310.673 479.089 310.936 479.365 311.113C479.641 311.29 480.138 311.459 480.856 311.62C481.58 311.782 482.165 311.974 482.613 312.198C483.061 312.422 483.391 312.693 483.605 313.01C483.823 313.323 483.933 313.705 483.933 314.158C483.933 314.913 483.631 315.519 483.027 315.977C482.423 316.43 481.64 316.657 480.677 316.657C480 316.657 479.401 316.537 478.881 316.297C478.36 316.058 477.951 315.725 477.655 315.298C477.363 314.866 477.217 314.4 477.217 313.9H478.662C478.688 314.384 478.881 314.77 479.24 315.056C479.604 315.337 480.083 315.478 480.677 315.478C481.223 315.478 481.66 315.368 481.988 315.15C482.321 314.926 482.488 314.629 482.488 314.26ZM489.32 316.657C488.175 316.657 487.243 316.282 486.525 315.532C485.807 314.777 485.447 313.77 485.447 312.51V312.245C485.447 311.407 485.606 310.66 485.924 310.004C486.246 309.343 486.694 308.828 487.267 308.458C487.844 308.083 488.469 307.896 489.141 307.896C490.239 307.896 491.093 308.258 491.702 308.981C492.311 309.705 492.615 310.741 492.615 312.089V312.69H486.892C486.913 313.523 487.155 314.197 487.618 314.712C488.086 315.223 488.68 315.478 489.398 315.478C489.908 315.478 490.34 315.374 490.694 315.165C491.048 314.957 491.358 314.681 491.624 314.338L492.506 315.025C491.798 316.113 490.736 316.657 489.32 316.657ZM489.141 309.083C488.558 309.083 488.068 309.296 487.673 309.723C487.277 310.145 487.032 310.738 486.939 311.503H491.171V311.394C491.129 310.66 490.931 310.093 490.577 309.692C490.223 309.286 489.744 309.083 489.141 309.083ZM499.619 308.052L499.658 308.989C500.278 308.26 501.113 307.896 502.165 307.896C503.346 307.896 504.151 308.349 504.577 309.254C504.858 308.848 505.223 308.521 505.671 308.271C506.123 308.021 506.657 307.896 507.271 307.896C509.124 307.896 510.067 308.877 510.098 310.84V316.5H508.653V310.925C508.653 310.322 508.515 309.871 508.239 309.575C507.964 309.273 507.5 309.122 506.85 309.122C506.313 309.122 505.868 309.283 505.514 309.606C505.16 309.923 504.955 310.353 504.898 310.894V316.5H503.445V310.964C503.445 309.736 502.844 309.122 501.642 309.122C500.694 309.122 500.046 309.525 499.697 310.332V316.5H498.253V308.052H499.619ZM515.79 316.657C514.645 316.657 513.713 316.282 512.995 315.532C512.276 314.777 511.917 313.77 511.917 312.51V312.245C511.917 311.407 512.076 310.66 512.393 310.004C512.716 309.343 513.164 308.828 513.736 308.458C514.314 308.083 514.939 307.896 515.61 307.896C516.709 307.896 517.562 308.258 518.171 308.981C518.781 309.705 519.085 310.741 519.085 312.089V312.69H513.362C513.382 313.523 513.625 314.197 514.088 314.712C514.556 315.223 515.15 315.478 515.868 315.478C516.378 315.478 516.81 315.374 517.164 315.165C517.518 314.957 517.828 314.681 518.093 314.338L518.976 315.025C518.268 316.113 517.206 316.657 515.79 316.657ZM515.61 309.083C515.027 309.083 514.538 309.296 514.142 309.723C513.747 310.145 513.502 310.738 513.408 311.503H517.641V311.394C517.599 310.66 517.401 310.093 517.047 309.692C516.693 309.286 516.214 309.083 515.61 309.083ZM522.13 308.052L522.177 309.114C522.823 308.302 523.666 307.896 524.707 307.896C526.492 307.896 527.393 308.903 527.409 310.918V316.5H525.964V310.91C525.959 310.301 525.818 309.851 525.542 309.559C525.272 309.267 524.847 309.122 524.27 309.122C523.801 309.122 523.39 309.247 523.036 309.497C522.682 309.746 522.406 310.074 522.208 310.48V316.5H520.764V308.052H522.13ZM531.547 306.006V308.052H533.124V309.169H531.547V314.408C531.547 314.746 531.617 315.001 531.758 315.173C531.898 315.34 532.138 315.423 532.476 315.423C532.643 315.423 532.872 315.392 533.163 315.329V316.5C532.783 316.605 532.414 316.657 532.054 316.657C531.409 316.657 530.922 316.461 530.594 316.071C530.266 315.681 530.102 315.126 530.102 314.408V309.169H528.564V308.052H530.102V306.006H531.547ZM534.28 312.198C534.28 311.371 534.441 310.626 534.764 309.965C535.092 309.304 535.545 308.794 536.123 308.435C536.706 308.075 537.369 307.896 538.114 307.896C539.264 307.896 540.193 308.294 540.901 309.091C541.614 309.887 541.971 310.946 541.971 312.268V312.37C541.971 313.192 541.812 313.932 541.495 314.587C541.182 315.238 540.732 315.746 540.144 316.11C539.561 316.474 538.889 316.657 538.129 316.657C536.984 316.657 536.055 316.258 535.342 315.462C534.634 314.666 534.28 313.611 534.28 312.3V312.198ZM535.732 312.37C535.732 313.307 535.948 314.059 536.38 314.627C536.817 315.194 537.4 315.478 538.129 315.478C538.863 315.478 539.446 315.191 539.878 314.619C540.31 314.041 540.526 313.234 540.526 312.198C540.526 311.272 540.305 310.522 539.863 309.949C539.425 309.372 538.842 309.083 538.114 309.083C537.4 309.083 536.825 309.366 536.388 309.934C535.951 310.501 535.732 311.313 535.732 312.37ZM547.866 309.348C547.647 309.312 547.411 309.294 547.156 309.294C546.208 309.294 545.565 309.697 545.227 310.504V316.5H543.782V308.052H545.188L545.211 309.028C545.685 308.273 546.356 307.896 547.226 307.896C547.507 307.896 547.72 307.932 547.866 308.005V309.348ZM554.12 314.26C554.12 313.869 553.972 313.567 553.675 313.354C553.384 313.135 552.871 312.948 552.137 312.792C551.408 312.635 550.828 312.448 550.396 312.229C549.969 312.011 549.652 311.751 549.443 311.449C549.24 311.147 549.139 310.787 549.139 310.371C549.139 309.679 549.43 309.093 550.013 308.614C550.602 308.135 551.351 307.896 552.262 307.896C553.22 307.896 553.996 308.143 554.589 308.638C555.188 309.132 555.487 309.765 555.487 310.535H554.035C554.035 310.139 553.865 309.798 553.527 309.512C553.194 309.226 552.772 309.083 552.262 309.083C551.736 309.083 551.325 309.197 551.028 309.426C550.732 309.655 550.583 309.955 550.583 310.324C550.583 310.673 550.721 310.936 550.997 311.113C551.273 311.29 551.77 311.459 552.489 311.62C553.212 311.782 553.798 311.974 554.245 312.198C554.693 312.422 555.024 312.693 555.237 313.01C555.456 313.323 555.565 313.705 555.565 314.158C555.565 314.913 555.263 315.519 554.659 315.977C554.055 316.43 553.272 316.657 552.309 316.657C551.632 316.657 551.034 316.537 550.513 316.297C549.993 316.058 549.584 315.725 549.287 315.298C548.996 314.866 548.85 314.4 548.85 313.9H550.294C550.32 314.384 550.513 314.77 550.872 315.056C551.237 315.337 551.716 315.478 552.309 315.478C552.856 315.478 553.293 315.368 553.621 315.15C553.954 314.926 554.12 314.629 554.12 314.26ZM562.858 309.075C563.498 308.289 564.331 307.896 565.356 307.896C567.142 307.896 568.042 308.903 568.058 310.918V316.5H566.614V310.91C566.608 310.301 566.468 309.851 566.192 309.559C565.921 309.267 565.497 309.122 564.919 309.122C564.451 309.122 564.039 309.247 563.685 309.497C563.331 309.746 563.056 310.074 562.858 310.48V316.5H561.413V304.507H562.858V309.075ZM575.437 316.5C575.354 316.334 575.286 316.037 575.234 315.61C574.562 316.308 573.761 316.657 572.829 316.657C571.996 316.657 571.311 316.422 570.775 315.954C570.244 315.48 569.979 314.882 569.979 314.158C569.979 313.278 570.312 312.596 570.978 312.112C571.65 311.623 572.592 311.378 573.805 311.378H575.21V310.715C575.21 310.21 575.059 309.809 574.757 309.512C574.456 309.21 574.011 309.059 573.422 309.059C572.907 309.059 572.475 309.189 572.126 309.45C571.777 309.71 571.603 310.025 571.603 310.394H570.151C570.151 309.973 570.299 309.567 570.596 309.176C570.898 308.781 571.304 308.468 571.814 308.239C572.329 308.01 572.894 307.896 573.508 307.896C574.482 307.896 575.244 308.141 575.796 308.63C576.348 309.114 576.634 309.783 576.655 310.637V314.525C576.655 315.301 576.754 315.917 576.952 316.376V316.5H575.437ZM573.04 315.4C573.493 315.4 573.922 315.282 574.328 315.048C574.734 314.814 575.028 314.509 575.21 314.135V312.401H574.078C572.308 312.401 571.423 312.919 571.423 313.955C571.423 314.408 571.574 314.762 571.876 315.017C572.178 315.272 572.566 315.4 573.04 315.4ZM581.582 314.541L583.674 308.052H585.15L582.121 316.5H581.02L577.959 308.052H579.435L581.582 314.541ZM589.937 316.657C588.791 316.657 587.86 316.282 587.141 315.532C586.423 314.777 586.064 313.77 586.064 312.51V312.245C586.064 311.407 586.223 310.66 586.54 310.004C586.863 309.343 587.31 308.828 587.883 308.458C588.461 308.083 589.086 307.896 589.757 307.896C590.855 307.896 591.709 308.258 592.318 308.981C592.927 309.705 593.232 310.741 593.232 312.089V312.69H587.508C587.529 313.523 587.771 314.197 588.234 314.712C588.703 315.223 589.296 315.478 590.015 315.478C590.525 315.478 590.957 315.374 591.311 315.165C591.665 314.957 591.975 314.681 592.24 314.338L593.122 315.025C592.414 316.113 591.353 316.657 589.937 316.657ZM589.757 309.083C589.174 309.083 588.685 309.296 588.289 309.723C587.893 310.145 587.649 310.738 587.555 311.503H591.787V311.394C591.746 310.66 591.548 310.093 591.194 309.692C590.84 309.286 590.361 309.083 589.757 309.083ZM600.837 306.006V308.052H602.414V309.169H600.837V314.408C600.837 314.746 600.907 315.001 601.048 315.173C601.188 315.34 601.428 315.423 601.766 315.423C601.933 315.423 602.162 315.392 602.453 315.329V316.5C602.073 316.605 601.704 316.657 601.344 316.657C600.699 316.657 600.212 316.461 599.884 316.071C599.556 315.681 599.392 315.126 599.392 314.408V309.169H597.854V308.052H599.392V306.006H600.837ZM605.553 309.075C606.193 308.289 607.026 307.896 608.052 307.896C609.837 307.896 610.738 308.903 610.753 310.918V316.5H609.309V310.91C609.304 310.301 609.163 309.851 608.887 309.559C608.616 309.267 608.192 309.122 607.614 309.122C607.146 309.122 606.735 309.247 606.381 309.497C606.027 309.746 605.751 310.074 605.553 310.48V316.5H604.109V304.507H605.553V309.075ZM616.422 316.657C615.277 316.657 614.345 316.282 613.627 315.532C612.908 314.777 612.549 313.77 612.549 312.51V312.245C612.549 311.407 612.708 310.66 613.025 310.004C613.348 309.343 613.796 308.828 614.369 308.458C614.946 308.083 615.571 307.896 616.242 307.896C617.341 307.896 618.195 308.258 618.804 308.981C619.413 309.705 619.717 310.741 619.717 312.089V312.69H613.994C614.015 313.523 614.257 314.197 614.72 314.712C615.188 315.223 615.782 315.478 616.5 315.478C617.01 315.478 617.442 315.374 617.796 315.165C618.15 314.957 618.46 314.681 618.725 314.338L619.608 315.025C618.9 316.113 617.838 316.657 616.422 316.657ZM616.242 309.083C615.659 309.083 615.17 309.296 614.775 309.723C614.379 310.145 614.134 310.738 614.041 311.503H618.273V311.394C618.231 310.66 618.033 310.093 617.679 309.692C617.325 309.286 616.846 309.083 616.242 309.083ZM622.965 316.5H621.521V308.052H622.965V316.5ZM621.404 305.811C621.404 305.577 621.474 305.379 621.615 305.218C621.76 305.056 621.974 304.976 622.255 304.976C622.536 304.976 622.749 305.056 622.895 305.218C623.041 305.379 623.114 305.577 623.114 305.811C623.114 306.045 623.041 306.241 622.895 306.397C622.749 306.553 622.536 306.631 622.255 306.631C621.974 306.631 621.76 306.553 621.615 306.397C621.474 306.241 621.404 306.045 621.404 305.811ZM629.368 309.348C629.149 309.312 628.913 309.294 628.657 309.294C627.71 309.294 627.067 309.697 626.729 310.504V316.5H625.284V308.052H626.69L626.713 309.028C627.187 308.273 627.858 307.896 628.728 307.896C629.009 307.896 629.222 307.932 629.368 308.005V309.348ZM634.326 312.206C634.326 310.889 634.631 309.843 635.24 309.067C635.849 308.286 636.656 307.896 637.66 307.896C638.691 307.896 639.495 308.26 640.073 308.989L640.143 308.052H641.463V316.297C641.463 317.391 641.138 318.252 640.487 318.882C639.841 319.512 638.972 319.827 637.879 319.827C637.27 319.827 636.674 319.697 636.091 319.436C635.508 319.176 635.063 318.82 634.756 318.367L635.505 317.5C636.125 318.265 636.882 318.648 637.777 318.648C638.48 318.648 639.027 318.45 639.417 318.054C639.813 317.659 640.011 317.102 640.011 316.383V315.657C639.433 316.324 638.644 316.657 637.645 316.657C636.656 316.657 635.854 316.258 635.24 315.462C634.631 314.666 634.326 313.58 634.326 312.206ZM635.779 312.37C635.779 313.323 635.974 314.072 636.364 314.619C636.755 315.16 637.301 315.431 638.004 315.431C638.915 315.431 639.584 315.017 640.011 314.189V310.332C639.568 309.525 638.904 309.122 638.02 309.122C637.317 309.122 636.768 309.395 636.372 309.942C635.976 310.488 635.779 311.298 635.779 312.37ZM647.733 309.348C647.514 309.312 647.277 309.294 647.022 309.294C646.075 309.294 645.432 309.697 645.094 310.504V316.5H643.649V308.052H645.055L645.078 309.028C645.552 308.273 646.223 307.896 647.093 307.896C647.374 307.896 647.587 307.932 647.733 308.005V309.348ZM653.972 316.5C653.888 316.334 653.821 316.037 653.769 315.61C653.097 316.308 652.296 316.657 651.364 316.657C650.531 316.657 649.846 316.422 649.31 315.954C648.779 315.48 648.514 314.882 648.514 314.158C648.514 313.278 648.847 312.596 649.513 312.112C650.185 311.623 651.127 311.378 652.34 311.378H653.745V310.715C653.745 310.21 653.594 309.809 653.292 309.512C652.99 309.21 652.545 309.059 651.957 309.059C651.442 309.059 651.01 309.189 650.661 309.45C650.312 309.71 650.138 310.025 650.138 310.394H648.686C648.686 309.973 648.834 309.567 649.131 309.176C649.433 308.781 649.839 308.468 650.349 308.239C650.864 308.01 651.429 307.896 652.043 307.896C653.016 307.896 653.779 308.141 654.331 308.63C654.883 309.114 655.169 309.783 655.19 310.637V314.525C655.19 315.301 655.289 315.917 655.486 316.376V316.5H653.972ZM651.575 315.4C652.027 315.4 652.457 315.282 652.863 315.048C653.269 314.814 653.563 314.509 653.745 314.135V312.401H652.613C650.843 312.401 649.958 312.919 649.958 313.955C649.958 314.408 650.109 314.762 650.411 315.017C650.713 315.272 651.101 315.4 651.575 315.4ZM657.103 312.206C657.103 310.91 657.41 309.869 658.024 309.083C658.638 308.291 659.443 307.896 660.437 307.896C661.426 307.896 662.209 308.234 662.787 308.911V304.507H664.232V316.5H662.904L662.834 315.595C662.256 316.303 661.452 316.657 660.421 316.657C659.443 316.657 658.644 316.256 658.024 315.454C657.41 314.653 657.103 313.606 657.103 312.315V312.206ZM658.547 312.37C658.547 313.328 658.745 314.077 659.141 314.619C659.536 315.16 660.083 315.431 660.78 315.431C661.697 315.431 662.365 315.02 662.787 314.197V310.316C662.355 309.52 661.691 309.122 660.796 309.122C660.088 309.122 659.536 309.395 659.141 309.942C658.745 310.488 658.547 311.298 658.547 312.37ZM669.986 316.657C668.841 316.657 667.909 316.282 667.191 315.532C666.473 314.777 666.113 313.77 666.113 312.51V312.245C666.113 311.407 666.272 310.66 666.59 310.004C666.912 309.343 667.36 308.828 667.933 308.458C668.511 308.083 669.135 307.896 669.807 307.896C670.905 307.896 671.759 308.258 672.368 308.981C672.977 309.705 673.281 310.741 673.281 312.089V312.69H667.558C667.579 313.523 667.821 314.197 668.284 314.712C668.753 315.223 669.346 315.478 670.064 315.478C670.575 315.478 671.007 315.374 671.361 315.165C671.715 314.957 672.024 314.681 672.29 314.338L673.172 315.025C672.464 316.113 671.402 316.657 669.986 316.657ZM669.807 309.083C669.224 309.083 668.734 309.296 668.339 309.723C667.943 310.145 667.698 310.738 667.605 311.503H671.837V311.394C671.795 310.66 671.597 310.093 671.243 309.692C670.889 309.286 670.411 309.083 669.807 309.083ZM206.242 337.206C206.242 335.91 206.549 334.869 207.163 334.083C207.777 333.291 208.582 332.896 209.576 332.896C210.565 332.896 211.348 333.234 211.926 333.911V329.507H213.371V341.5H212.043L211.973 340.595C211.395 341.303 210.591 341.657 209.56 341.657C208.582 341.657 207.783 341.256 207.163 340.454C206.549 339.653 206.242 338.606 206.242 337.315V337.206ZM207.686 337.37C207.686 338.328 207.884 339.077 208.28 339.619C208.675 340.16 209.222 340.431 209.919 340.431C210.836 340.431 211.505 340.02 211.926 339.197V335.316C211.494 334.52 210.83 334.122 209.935 334.122C209.227 334.122 208.675 334.395 208.28 334.942C207.884 335.488 207.686 336.298 207.686 337.37ZM217.189 341.5H215.744V333.052H217.189V341.5ZM215.627 330.811C215.627 330.577 215.698 330.379 215.838 330.218C215.984 330.056 216.197 329.976 216.478 329.976C216.759 329.976 216.973 330.056 217.119 330.218C217.264 330.379 217.337 330.577 217.337 330.811C217.337 331.045 217.264 331.241 217.119 331.397C216.973 331.553 216.759 331.631 216.478 331.631C216.197 331.631 215.984 331.553 215.838 331.397C215.698 331.241 215.627 331.045 215.627 330.811ZM224.427 339.26C224.427 338.869 224.279 338.567 223.982 338.354C223.69 338.135 223.178 337.948 222.444 337.792C221.715 337.635 221.135 337.448 220.703 337.229C220.276 337.011 219.958 336.751 219.75 336.449C219.547 336.147 219.445 335.787 219.445 335.371C219.445 334.679 219.737 334.093 220.32 333.614C220.908 333.135 221.658 332.896 222.569 332.896C223.527 332.896 224.302 333.143 224.896 333.638C225.494 334.132 225.794 334.765 225.794 335.535H224.341C224.341 335.139 224.172 334.798 223.834 334.512C223.501 334.226 223.079 334.083 222.569 334.083C222.043 334.083 221.632 334.197 221.335 334.426C221.038 334.655 220.89 334.955 220.89 335.324C220.89 335.673 221.028 335.936 221.304 336.113C221.58 336.29 222.077 336.459 222.795 336.62C223.519 336.782 224.104 336.974 224.552 337.198C225 337.422 225.33 337.693 225.544 338.01C225.762 338.323 225.872 338.705 225.872 339.158C225.872 339.913 225.57 340.519 224.966 340.977C224.362 341.43 223.579 341.657 222.616 341.657C221.939 341.657 221.34 341.537 220.82 341.297C220.299 341.058 219.891 340.725 219.594 340.298C219.302 339.866 219.157 339.4 219.157 338.9H220.601C220.627 339.384 220.82 339.77 221.179 340.056C221.543 340.337 222.022 340.478 222.616 340.478C223.162 340.478 223.599 340.368 223.927 340.15C224.26 339.926 224.427 339.629 224.427 339.26ZM234.89 337.37C234.89 338.656 234.596 339.692 234.008 340.478C233.42 341.264 232.623 341.657 231.618 341.657C230.593 341.657 229.786 341.331 229.198 340.681V344.749H227.753V333.052H229.073L229.143 333.989C229.731 333.26 230.549 332.896 231.595 332.896C232.61 332.896 233.412 333.278 234 334.044C234.593 334.809 234.89 335.873 234.89 337.237V337.37ZM233.446 337.206C233.446 336.253 233.243 335.501 232.837 334.949C232.43 334.398 231.873 334.122 231.166 334.122C230.291 334.122 229.635 334.51 229.198 335.285V339.322C229.63 340.092 230.291 340.478 231.181 340.478C231.873 340.478 232.423 340.204 232.829 339.658C233.24 339.106 233.446 338.289 233.446 337.206ZM238.302 341.5H236.858V329.507H238.302V341.5ZM245.837 341.5C245.754 341.334 245.686 341.037 245.634 340.61C244.963 341.308 244.161 341.657 243.229 341.657C242.396 341.657 241.712 341.422 241.176 340.954C240.645 340.48 240.379 339.882 240.379 339.158C240.379 338.278 240.712 337.596 241.379 337.112C242.05 336.623 242.992 336.378 244.205 336.378H245.611V335.715C245.611 335.21 245.46 334.809 245.158 334.512C244.856 334.21 244.411 334.059 243.823 334.059C243.307 334.059 242.875 334.189 242.526 334.45C242.178 334.71 242.003 335.025 242.003 335.394H240.551C240.551 334.973 240.699 334.567 240.996 334.176C241.298 333.781 241.704 333.468 242.214 333.239C242.729 333.01 243.294 332.896 243.909 332.896C244.882 332.896 245.645 333.141 246.196 333.63C246.748 334.114 247.034 334.783 247.055 335.637V339.525C247.055 340.301 247.154 340.917 247.352 341.376V341.5H245.837ZM243.44 340.4C243.893 340.4 244.322 340.282 244.728 340.048C245.134 339.814 245.429 339.509 245.611 339.135V337.401H244.479C242.709 337.401 241.824 337.919 241.824 338.955C241.824 339.408 241.975 339.762 242.277 340.017C242.579 340.272 242.966 340.4 243.44 340.4ZM251.959 339.384L253.926 333.052H255.472L252.076 342.804C251.55 344.21 250.715 344.913 249.569 344.913L249.296 344.889L248.757 344.788V343.617L249.148 343.648C249.637 343.648 250.017 343.549 250.288 343.351C250.564 343.153 250.79 342.791 250.967 342.266L251.287 341.407L248.273 333.052H249.851L251.959 339.384ZM260.165 341.657C259.02 341.657 258.088 341.282 257.37 340.532C256.652 339.777 256.292 338.77 256.292 337.51V337.245C256.292 336.407 256.451 335.66 256.769 335.004C257.091 334.343 257.539 333.828 258.112 333.458C258.689 333.083 259.314 332.896 259.986 332.896C261.084 332.896 261.938 333.258 262.547 333.981C263.156 334.705 263.46 335.741 263.46 337.089V337.69H257.737C257.758 338.523 258 339.197 258.463 339.712C258.932 340.223 259.525 340.478 260.243 340.478C260.753 340.478 261.185 340.374 261.539 340.165C261.893 339.957 262.203 339.681 262.469 339.338L263.351 340.025C262.643 341.113 261.581 341.657 260.165 341.657ZM259.986 334.083C259.403 334.083 258.913 334.296 258.518 334.723C258.122 335.145 257.877 335.738 257.784 336.503H262.016V336.394C261.974 335.66 261.776 335.093 261.422 334.692C261.068 334.286 260.589 334.083 259.986 334.083ZM264.788 337.206C264.788 335.91 265.095 334.869 265.709 334.083C266.323 333.291 267.128 332.896 268.122 332.896C269.111 332.896 269.894 333.234 270.472 333.911V329.507H271.917V341.5H270.589L270.519 340.595C269.941 341.303 269.137 341.657 268.106 341.657C267.128 341.657 266.328 341.256 265.709 340.454C265.095 339.653 264.788 338.606 264.788 337.315V337.206ZM266.232 337.37C266.232 338.328 266.43 339.077 266.826 339.619C267.221 340.16 267.768 340.431 268.465 340.431C269.381 340.431 270.05 340.02 270.472 339.197V335.316C270.04 334.52 269.376 334.122 268.481 334.122C267.773 334.122 267.221 334.395 266.826 334.942C266.43 335.488 266.232 336.298 266.232 337.37ZM277.749 337.198C277.749 336.371 277.911 335.626 278.233 334.965C278.561 334.304 279.014 333.794 279.592 333.435C280.175 333.075 280.839 332.896 281.583 332.896C282.733 332.896 283.663 333.294 284.371 334.091C285.084 334.887 285.44 335.946 285.44 337.268V337.37C285.44 338.192 285.282 338.932 284.964 339.587C284.652 340.238 284.201 340.746 283.613 341.11C283.03 341.474 282.359 341.657 281.599 341.657C280.453 341.657 279.524 341.258 278.811 340.462C278.103 339.666 277.749 338.611 277.749 337.3V337.198ZM279.202 337.37C279.202 338.307 279.418 339.059 279.85 339.627C280.287 340.194 280.87 340.478 281.599 340.478C282.333 340.478 282.916 340.191 283.348 339.619C283.78 339.041 283.996 338.234 283.996 337.198C283.996 336.272 283.775 335.522 283.332 334.949C282.895 334.372 282.312 334.083 281.583 334.083C280.87 334.083 280.295 334.366 279.857 334.934C279.42 335.501 279.202 336.313 279.202 337.37ZM288.618 333.052L288.665 334.114C289.311 333.302 290.154 332.896 291.195 332.896C292.98 332.896 293.881 333.903 293.897 335.918V341.5H292.452V335.91C292.447 335.301 292.306 334.851 292.03 334.559C291.76 334.267 291.336 334.122 290.758 334.122C290.289 334.122 289.878 334.247 289.524 334.497C289.17 334.746 288.894 335.074 288.696 335.48V341.5H287.252V333.052H288.618ZM304.961 339.26C304.961 338.869 304.812 338.567 304.516 338.354C304.224 338.135 303.712 337.948 302.978 337.792C302.249 337.635 301.668 337.448 301.236 337.229C300.809 337.011 300.492 336.751 300.284 336.449C300.081 336.147 299.979 335.787 299.979 335.371C299.979 334.679 300.271 334.093 300.854 333.614C301.442 333.135 302.192 332.896 303.102 332.896C304.06 332.896 304.836 333.143 305.429 333.638C306.028 334.132 306.327 334.765 306.327 335.535H304.875C304.875 335.139 304.706 334.798 304.367 334.512C304.034 334.226 303.613 334.083 303.102 334.083C302.577 334.083 302.165 334.197 301.869 334.426C301.572 334.655 301.424 334.955 301.424 335.324C301.424 335.673 301.562 335.936 301.838 336.113C302.113 336.29 302.611 336.459 303.329 336.62C304.052 336.782 304.638 336.974 305.086 337.198C305.533 337.422 305.864 337.693 306.077 338.01C306.296 338.323 306.405 338.705 306.405 339.158C306.405 339.913 306.103 340.519 305.5 340.977C304.896 341.43 304.112 341.657 303.149 341.657C302.473 341.657 301.874 341.537 301.353 341.297C300.833 341.058 300.424 340.725 300.128 340.298C299.836 339.866 299.69 339.4 299.69 338.9H301.135C301.161 339.384 301.353 339.77 301.713 340.056C302.077 340.337 302.556 340.478 303.149 340.478C303.696 340.478 304.133 340.368 304.461 340.15C304.794 339.926 304.961 339.629 304.961 339.26ZM311.793 341.657C310.648 341.657 309.716 341.282 308.998 340.532C308.279 339.777 307.92 338.77 307.92 337.51V337.245C307.92 336.407 308.079 335.66 308.396 335.004C308.719 334.343 309.167 333.828 309.739 333.458C310.317 333.083 310.942 332.896 311.613 332.896C312.712 332.896 313.565 333.258 314.175 333.981C314.784 334.705 315.088 335.741 315.088 337.089V337.69H309.365C309.385 338.523 309.628 339.197 310.091 339.712C310.559 340.223 311.153 340.478 311.871 340.478C312.381 340.478 312.813 340.374 313.167 340.165C313.521 339.957 313.831 339.681 314.096 339.338L314.979 340.025C314.271 341.113 313.209 341.657 311.793 341.657ZM311.613 334.083C311.03 334.083 310.541 334.296 310.145 334.723C309.75 335.145 309.505 335.738 309.412 336.503H313.644V336.394C313.602 335.66 313.404 335.093 313.05 334.692C312.696 334.286 312.217 334.083 311.613 334.083ZM318.336 341.5H316.892V329.507H318.336V341.5ZM324.161 341.657C323.016 341.657 322.084 341.282 321.366 340.532C320.647 339.777 320.288 338.77 320.288 337.51V337.245C320.288 336.407 320.447 335.66 320.765 335.004C321.087 334.343 321.535 333.828 322.108 333.458C322.685 333.083 323.31 332.896 323.982 332.896C325.08 332.896 325.934 333.258 326.543 333.981C327.152 334.705 327.456 335.741 327.456 337.089V337.69H321.733C321.754 338.523 321.996 339.197 322.459 339.712C322.927 340.223 323.521 340.478 324.239 340.478C324.749 340.478 325.181 340.374 325.535 340.165C325.889 339.957 326.199 339.681 326.465 339.338L327.347 340.025C326.639 341.113 325.577 341.657 324.161 341.657ZM323.982 334.083C323.399 334.083 322.909 334.296 322.514 334.723C322.118 335.145 321.873 335.738 321.78 336.503H326.012V336.394C325.97 335.66 325.772 335.093 325.418 334.692C325.064 334.286 324.585 334.083 323.982 334.083ZM332.524 340.478C333.039 340.478 333.489 340.321 333.875 340.009C334.26 339.697 334.473 339.306 334.515 338.838H335.881C335.855 339.322 335.689 339.783 335.382 340.22C335.074 340.657 334.663 341.006 334.148 341.266C333.638 341.527 333.096 341.657 332.524 341.657C331.373 341.657 330.457 341.274 329.775 340.509C329.099 339.738 328.76 338.687 328.76 337.354V337.112C328.76 336.29 328.911 335.558 329.213 334.918C329.515 334.278 329.947 333.781 330.509 333.427C331.077 333.073 331.746 332.896 332.516 332.896C333.463 332.896 334.249 333.18 334.874 333.747C335.504 334.314 335.84 335.051 335.881 335.957H334.515C334.473 335.41 334.265 334.962 333.89 334.614C333.521 334.26 333.063 334.083 332.516 334.083C331.782 334.083 331.212 334.348 330.806 334.879C330.405 335.405 330.205 336.167 330.205 337.167V337.44C330.205 338.414 330.405 339.163 330.806 339.689C331.207 340.215 331.779 340.478 332.524 340.478ZM339.465 331.006V333.052H341.043V334.169H339.465V339.408C339.465 339.746 339.536 340.001 339.676 340.173C339.817 340.34 340.056 340.423 340.394 340.423C340.561 340.423 340.79 340.392 341.082 340.329V341.5C340.702 341.605 340.332 341.657 339.973 341.657C339.327 341.657 338.841 341.461 338.513 341.071C338.185 340.681 338.021 340.126 338.021 339.408V334.169H336.483V333.052H338.021V331.006H339.465ZM350.092 340.478C350.608 340.478 351.058 340.321 351.443 340.009C351.828 339.697 352.042 339.306 352.083 338.838H353.45C353.424 339.322 353.257 339.783 352.95 340.22C352.643 340.657 352.232 341.006 351.716 341.266C351.206 341.527 350.665 341.657 350.092 341.657C348.942 341.657 348.026 341.274 347.344 340.509C346.667 339.738 346.329 338.687 346.329 337.354V337.112C346.329 336.29 346.48 335.558 346.782 334.918C347.083 334.278 347.516 333.781 348.078 333.427C348.645 333.073 349.314 332.896 350.084 332.896C351.032 332.896 351.818 333.18 352.442 333.747C353.072 334.314 353.408 335.051 353.45 335.957H352.083C352.042 335.41 351.833 334.962 351.459 334.614C351.089 334.26 350.631 334.083 350.084 334.083C349.35 334.083 348.78 334.348 348.374 334.879C347.974 335.405 347.773 336.167 347.773 337.167V337.44C347.773 338.414 347.974 339.163 348.374 339.689C348.775 340.215 349.348 340.478 350.092 340.478ZM354.691 337.198C354.691 336.371 354.853 335.626 355.175 334.965C355.503 334.304 355.956 333.794 356.534 333.435C357.117 333.075 357.781 332.896 358.525 332.896C359.675 332.896 360.605 333.294 361.313 334.091C362.026 334.887 362.382 335.946 362.382 337.268V337.37C362.382 338.192 362.224 338.932 361.906 339.587C361.594 340.238 361.143 340.746 360.555 341.11C359.972 341.474 359.301 341.657 358.541 341.657C357.395 341.657 356.466 341.258 355.753 340.462C355.045 339.666 354.691 338.611 354.691 337.3V337.198ZM356.144 337.37C356.144 338.307 356.36 339.059 356.792 339.627C357.229 340.194 357.812 340.478 358.541 340.478C359.275 340.478 359.858 340.191 360.29 339.619C360.722 339.041 360.938 338.234 360.938 337.198C360.938 336.272 360.717 335.522 360.274 334.949C359.837 334.372 359.254 334.083 358.525 334.083C357.812 334.083 357.237 334.366 356.799 334.934C356.362 335.501 356.144 336.313 356.144 337.37ZM369.41 340.665C368.848 341.326 368.022 341.657 366.935 341.657C366.034 341.657 365.347 341.396 364.873 340.876C364.405 340.35 364.168 339.574 364.163 338.549V333.052H365.607V338.51C365.607 339.79 366.128 340.431 367.169 340.431C368.272 340.431 369.006 340.02 369.371 339.197V333.052H370.815V341.5H369.441L369.41 340.665ZM377.101 334.348C376.882 334.312 376.645 334.294 376.39 334.294C375.443 334.294 374.8 334.697 374.462 335.504V341.5H373.017V333.052H374.423L374.446 334.028C374.92 333.273 375.591 332.896 376.46 332.896C376.742 332.896 376.955 332.932 377.101 333.005V334.348ZM383.355 339.26C383.355 338.869 383.207 338.567 382.91 338.354C382.619 338.135 382.106 337.948 381.372 337.792C380.643 337.635 380.063 337.448 379.631 337.229C379.204 337.011 378.886 336.751 378.678 336.449C378.475 336.147 378.374 335.787 378.374 335.371C378.374 334.679 378.665 334.093 379.248 333.614C379.836 333.135 380.586 332.896 381.497 332.896C382.455 332.896 383.23 333.143 383.824 333.638C384.422 334.132 384.722 334.765 384.722 335.535H383.269C383.269 335.139 383.1 334.798 382.762 334.512C382.429 334.226 382.007 334.083 381.497 334.083C380.971 334.083 380.56 334.197 380.263 334.426C379.966 334.655 379.818 334.955 379.818 335.324C379.818 335.673 379.956 335.936 380.232 336.113C380.508 336.29 381.005 336.459 381.723 336.62C382.447 336.782 383.032 336.974 383.48 337.198C383.928 337.422 384.258 337.693 384.472 338.01C384.69 338.323 384.8 338.705 384.8 339.158C384.8 339.913 384.498 340.519 383.894 340.977C383.29 341.43 382.507 341.657 381.544 341.657C380.867 341.657 380.268 341.537 379.748 341.297C379.227 341.058 378.819 340.725 378.522 340.298C378.23 339.866 378.085 339.4 378.085 338.9H379.529C379.555 339.384 379.748 339.77 380.107 340.056C380.471 340.337 380.95 340.478 381.544 340.478C382.09 340.478 382.527 340.368 382.855 340.15C383.189 339.926 383.355 339.629 383.355 339.26ZM390.187 341.657C389.042 341.657 388.11 341.282 387.392 340.532C386.674 339.777 386.314 338.77 386.314 337.51V337.245C386.314 336.407 386.473 335.66 386.791 335.004C387.113 334.343 387.561 333.828 388.134 333.458C388.712 333.083 389.336 332.896 390.008 332.896C391.106 332.896 391.96 333.258 392.569 333.981C393.178 334.705 393.482 335.741 393.482 337.089V337.69H387.759C387.78 338.523 388.022 339.197 388.485 339.712C388.954 340.223 389.547 340.478 390.265 340.478C390.776 340.478 391.208 340.374 391.562 340.165C391.916 339.957 392.225 339.681 392.491 339.338L393.373 340.025C392.665 341.113 391.603 341.657 390.187 341.657ZM390.008 334.083C389.425 334.083 388.935 334.296 388.54 334.723C388.144 335.145 387.9 335.738 387.806 336.503H392.038V336.394C391.996 335.66 391.798 335.093 391.444 334.692C391.09 334.286 390.612 334.083 390.008 334.083ZM400.08 339.26C400.08 338.869 399.932 338.567 399.635 338.354C399.344 338.135 398.831 337.948 398.097 337.792C397.368 337.635 396.788 337.448 396.356 337.229C395.929 337.011 395.611 336.751 395.403 336.449C395.2 336.147 395.099 335.787 395.099 335.371C395.099 334.679 395.39 334.093 395.973 333.614C396.561 333.135 397.311 332.896 398.222 332.896C399.18 332.896 399.955 333.143 400.549 333.638C401.147 334.132 401.447 334.765 401.447 335.535H399.994C399.994 335.139 399.825 334.798 399.487 334.512C399.154 334.226 398.732 334.083 398.222 334.083C397.696 334.083 397.285 334.197 396.988 334.426C396.692 334.655 396.543 334.955 396.543 335.324C396.543 335.673 396.681 335.936 396.957 336.113C397.233 336.29 397.73 336.459 398.448 336.62C399.172 336.782 399.758 336.974 400.205 337.198C400.653 337.422 400.983 337.693 401.197 338.01C401.416 338.323 401.525 338.705 401.525 339.158C401.525 339.913 401.223 340.519 400.619 340.977C400.015 341.43 399.232 341.657 398.269 341.657C397.592 341.657 396.993 341.537 396.473 341.297C395.952 341.058 395.544 340.725 395.247 340.298C394.956 339.866 394.81 339.4 394.81 338.9H396.254C396.28 339.384 396.473 339.77 396.832 340.056C397.196 340.337 397.675 340.478 398.269 340.478C398.815 340.478 399.253 340.368 399.581 340.15C399.914 339.926 400.08 339.629 400.08 339.26ZM409.333 331.006V333.052H410.91V334.169H409.333V339.408C409.333 339.746 409.403 340.001 409.544 340.173C409.684 340.34 409.924 340.423 410.262 340.423C410.429 340.423 410.658 340.392 410.949 340.329V341.5C410.569 341.605 410.2 341.657 409.841 341.657C409.195 341.657 408.708 341.461 408.38 341.071C408.052 340.681 407.889 340.126 407.889 339.408V334.169H406.35V333.052H407.889V331.006H409.333ZM414.049 334.075C414.689 333.289 415.522 332.896 416.548 332.896C418.333 332.896 419.234 333.903 419.249 335.918V341.5H417.805V335.91C417.8 335.301 417.659 334.851 417.383 334.559C417.113 334.267 416.688 334.122 416.111 334.122C415.642 334.122 415.231 334.247 414.877 334.497C414.523 334.746 414.247 335.074 414.049 335.48V341.5H412.605V329.507H414.049V334.075ZM426.628 341.5C426.545 341.334 426.477 341.037 426.425 340.61C425.754 341.308 424.952 341.657 424.02 341.657C423.187 341.657 422.503 341.422 421.967 340.954C421.436 340.48 421.17 339.882 421.17 339.158C421.17 338.278 421.503 337.596 422.17 337.112C422.841 336.623 423.783 336.378 424.996 336.378H426.402V335.715C426.402 335.21 426.251 334.809 425.949 334.512C425.647 334.21 425.202 334.059 424.614 334.059C424.098 334.059 423.666 334.189 423.318 334.45C422.969 334.71 422.794 335.025 422.794 335.394H421.342C421.342 334.973 421.49 334.567 421.787 334.176C422.089 333.781 422.495 333.468 423.005 333.239C423.521 333.01 424.085 332.896 424.7 332.896C425.673 332.896 426.436 333.141 426.987 333.63C427.539 334.114 427.825 334.783 427.846 335.637V339.525C427.846 340.301 427.945 340.917 428.143 341.376V341.5H426.628ZM424.231 340.4C424.684 340.4 425.113 340.282 425.519 340.048C425.925 339.814 426.22 339.509 426.402 339.135V337.401H425.27C423.5 337.401 422.615 337.919 422.615 338.955C422.615 339.408 422.766 339.762 423.068 340.017C423.37 340.272 423.757 340.4 424.231 340.4ZM432.07 331.006V333.052H433.648V334.169H432.07V339.408C432.07 339.746 432.141 340.001 432.281 340.173C432.422 340.34 432.661 340.423 433 340.423C433.166 340.423 433.395 340.392 433.687 340.329V341.5C433.307 341.605 432.937 341.657 432.578 341.657C431.933 341.657 431.446 341.461 431.118 341.071C430.79 340.681 430.626 340.126 430.626 339.408V334.169H429.088V333.052H430.626V331.006H432.07ZM441.269 331.006V333.052H442.846V334.169H441.269V339.408C441.269 339.746 441.339 340.001 441.479 340.173C441.62 340.34 441.859 340.423 442.198 340.423C442.364 340.423 442.593 340.392 442.885 340.329V341.5C442.505 341.605 442.135 341.657 441.776 341.657C441.131 341.657 440.644 341.461 440.316 341.071C439.988 340.681 439.824 340.126 439.824 339.408V334.169H438.286V333.052H439.824V331.006H441.269ZM445.985 334.075C446.625 333.289 447.458 332.896 448.483 332.896C450.269 332.896 451.169 333.903 451.185 335.918V341.5H449.74V335.91C449.735 335.301 449.595 334.851 449.319 334.559C449.048 334.267 448.624 334.122 448.046 334.122C447.578 334.122 447.166 334.247 446.812 334.497C446.458 334.746 446.183 335.074 445.985 335.48V341.5H444.54V329.507H445.985V334.075ZM456.854 341.657C455.709 341.657 454.777 341.282 454.058 340.532C453.34 339.777 452.981 338.77 452.981 337.51V337.245C452.981 336.407 453.14 335.66 453.457 335.004C453.78 334.343 454.228 333.828 454.8 333.458C455.378 333.083 456.003 332.896 456.674 332.896C457.772 332.896 458.626 333.258 459.235 333.981C459.844 334.705 460.149 335.741 460.149 337.089V337.69H454.425C454.446 338.523 454.688 339.197 455.152 339.712C455.62 340.223 456.213 340.478 456.932 340.478C457.442 340.478 457.874 340.374 458.228 340.165C458.582 339.957 458.892 339.681 459.157 339.338L460.039 340.025C459.332 341.113 458.27 341.657 456.854 341.657ZM456.674 334.083C456.091 334.083 455.602 334.296 455.206 334.723C454.811 335.145 454.566 335.738 454.472 336.503H458.704V336.394C458.663 335.66 458.465 335.093 458.111 334.692C457.757 334.286 457.278 334.083 456.674 334.083ZM464.482 339.384L466.45 333.052H467.996L464.599 342.804C464.074 344.21 463.238 344.913 462.093 344.913L461.82 344.889L461.281 344.788V343.617L461.671 343.648C462.161 343.648 462.541 343.549 462.811 343.351C463.087 343.153 463.314 342.791 463.491 342.266L463.811 341.407L460.797 333.052H462.374L464.482 339.384ZM475.219 331.006V333.052H476.796V334.169H475.219V339.408C475.219 339.746 475.289 340.001 475.429 340.173C475.57 340.34 475.809 340.423 476.148 340.423C476.314 340.423 476.543 340.392 476.835 340.329V341.5C476.455 341.605 476.085 341.657 475.726 341.657C475.081 341.657 474.594 341.461 474.266 341.071C473.938 340.681 473.774 340.126 473.774 339.408V334.169H472.236V333.052H473.774V331.006H475.219ZM481.996 341.657C480.851 341.657 479.919 341.282 479.201 340.532C478.482 339.777 478.123 338.77 478.123 337.51V337.245C478.123 336.407 478.282 335.66 478.6 335.004C478.922 334.343 479.37 333.828 479.943 333.458C480.52 333.083 481.145 332.896 481.817 332.896C482.915 332.896 483.769 333.258 484.378 333.981C484.987 334.705 485.291 335.741 485.291 337.089V337.69H479.568C479.589 338.523 479.831 339.197 480.294 339.712C480.762 340.223 481.356 340.478 482.074 340.478C482.584 340.478 483.016 340.374 483.37 340.165C483.724 339.957 484.034 339.681 484.3 339.338L485.182 340.025C484.474 341.113 483.412 341.657 481.996 341.657ZM481.817 334.083C481.233 334.083 480.744 334.296 480.349 334.723C479.953 335.145 479.708 335.738 479.615 336.503H483.847V336.394C483.805 335.66 483.607 335.093 483.253 334.692C482.899 334.286 482.42 334.083 481.817 334.083ZM492.186 341.5C492.103 341.334 492.035 341.037 491.983 340.61C491.311 341.308 490.51 341.657 489.578 341.657C488.745 341.657 488.06 341.422 487.524 340.954C486.993 340.48 486.728 339.882 486.728 339.158C486.728 338.278 487.061 337.596 487.727 337.112C488.399 336.623 489.341 336.378 490.554 336.378H491.959V335.715C491.959 335.21 491.808 334.809 491.506 334.512C491.205 334.21 490.759 334.059 490.171 334.059C489.656 334.059 489.224 334.189 488.875 334.45C488.526 334.71 488.352 335.025 488.352 335.394H486.9C486.9 334.973 487.048 334.567 487.345 334.176C487.647 333.781 488.053 333.468 488.563 333.239C489.078 333.01 489.643 332.896 490.257 332.896C491.231 332.896 491.993 333.141 492.545 333.63C493.097 334.114 493.383 334.783 493.404 335.637V339.525C493.404 340.301 493.503 340.917 493.701 341.376V341.5H492.186ZM489.789 340.4C490.242 340.4 490.671 340.282 491.077 340.048C491.483 339.814 491.777 339.509 491.959 339.135V337.401H490.827C489.057 337.401 488.172 337.919 488.172 338.955C488.172 339.408 488.323 339.762 488.625 340.017C488.927 340.272 489.315 340.4 489.789 340.4ZM499.057 340.478C499.572 340.478 500.023 340.321 500.408 340.009C500.793 339.697 501.006 339.306 501.048 338.838H502.415C502.389 339.322 502.222 339.783 501.915 340.22C501.608 340.657 501.196 341.006 500.681 341.266C500.171 341.527 499.63 341.657 499.057 341.657C497.907 341.657 496.99 341.274 496.309 340.509C495.632 339.738 495.293 338.687 495.293 337.354V337.112C495.293 336.29 495.444 335.558 495.746 334.918C496.048 334.278 496.48 333.781 497.042 333.427C497.61 333.073 498.279 332.896 499.049 332.896C499.997 332.896 500.783 333.18 501.407 333.747C502.037 334.314 502.373 335.051 502.415 335.957H501.048C501.006 335.41 500.798 334.962 500.423 334.614C500.054 334.26 499.596 334.083 499.049 334.083C498.315 334.083 497.745 334.348 497.339 334.879C496.938 335.405 496.738 336.167 496.738 337.167V337.44C496.738 338.414 496.938 339.163 497.339 339.689C497.74 340.215 498.313 340.478 499.057 340.478ZM505.483 334.075C506.123 333.289 506.956 332.896 507.982 332.896C509.767 332.896 510.668 333.903 510.683 335.918V341.5H509.239V335.91C509.234 335.301 509.093 334.851 508.817 334.559C508.547 334.267 508.122 334.122 507.545 334.122C507.076 334.122 506.665 334.247 506.311 334.497C505.957 334.746 505.681 335.074 505.483 335.48V341.5H504.039V329.507H505.483V334.075ZM512.878 340.743C512.878 340.493 512.95 340.285 513.096 340.118C513.247 339.952 513.471 339.869 513.768 339.869C514.064 339.869 514.288 339.952 514.439 340.118C514.595 340.285 514.673 340.493 514.673 340.743C514.673 340.983 514.595 341.183 514.439 341.344C514.288 341.506 514.064 341.586 513.768 341.586C513.471 341.586 513.247 341.506 513.096 341.344C512.95 341.183 512.878 340.983 512.878 340.743ZM527.534 338.533H522.771L521.701 341.5H520.155L524.496 330.132H525.808L530.157 341.5H528.619L527.534 338.533ZM523.223 337.3H527.088L525.152 331.982L523.223 337.3ZM533.03 341.5H531.586V329.507H533.03V341.5ZM536.919 341.5H535.474V329.507H536.919V341.5ZM544.649 334.075C545.289 333.289 546.122 332.896 547.148 332.896C548.933 332.896 549.834 333.903 549.849 335.918V341.5H548.405V335.91C548.4 335.301 548.259 334.851 547.983 334.559C547.713 334.267 547.288 334.122 546.71 334.122C546.242 334.122 545.831 334.247 545.477 334.497C545.123 334.746 544.847 335.074 544.649 335.48V341.5H543.205V329.507H544.649V334.075ZM557.228 341.5C557.145 341.334 557.077 341.037 557.025 340.61C556.354 341.308 555.552 341.657 554.62 341.657C553.787 341.657 553.103 341.422 552.567 340.954C552.036 340.48 551.77 339.882 551.77 339.158C551.77 338.278 552.103 337.596 552.77 337.112C553.441 336.623 554.383 336.378 555.596 336.378H557.002V335.715C557.002 335.21 556.851 334.809 556.549 334.512C556.247 334.21 555.802 334.059 555.214 334.059C554.698 334.059 554.266 334.189 553.917 334.45C553.569 334.71 553.394 335.025 553.394 335.394H551.942C551.942 334.973 552.09 334.567 552.387 334.176C552.689 333.781 553.095 333.468 553.605 333.239C554.12 333.01 554.685 332.896 555.299 332.896C556.273 332.896 557.035 333.141 557.587 333.63C558.139 334.114 558.425 334.783 558.446 335.637V339.525C558.446 340.301 558.545 340.917 558.743 341.376V341.5H557.228ZM554.831 340.4C555.284 340.4 555.713 340.282 556.119 340.048C556.525 339.814 556.819 339.509 557.002 339.135V337.401H555.869C554.1 337.401 553.215 337.919 553.215 338.955C553.215 339.408 553.366 339.762 553.668 340.017C553.969 340.272 554.357 340.4 554.831 340.4ZM563.373 339.541L565.466 333.052H566.941L563.912 341.5H562.811L559.75 333.052H561.226L563.373 339.541ZM571.728 341.657C570.583 341.657 569.651 341.282 568.933 340.532C568.214 339.777 567.855 338.77 567.855 337.51V337.245C567.855 336.407 568.014 335.66 568.331 335.004C568.654 334.343 569.102 333.828 569.674 333.458C570.252 333.083 570.877 332.896 571.548 332.896C572.647 332.896 573.5 333.258 574.109 333.981C574.718 334.705 575.023 335.741 575.023 337.089V337.69H569.3C569.32 338.523 569.562 339.197 570.026 339.712C570.494 340.223 571.088 340.478 571.806 340.478C572.316 340.478 572.748 340.374 573.102 340.165C573.456 339.957 573.766 339.681 574.031 339.338L574.914 340.025C574.206 341.113 573.144 341.657 571.728 341.657ZM571.548 334.083C570.965 334.083 570.476 334.296 570.08 334.723C569.685 335.145 569.44 335.738 569.346 336.503H573.578V336.394C573.537 335.66 573.339 335.093 572.985 334.692C572.631 334.286 572.152 334.083 571.548 334.083ZM587.821 337.37C587.821 338.661 587.524 339.699 586.93 340.485C586.337 341.266 585.541 341.657 584.541 341.657C583.474 341.657 582.649 341.279 582.066 340.524L581.996 341.5H580.668V329.507H582.113V333.981C582.696 333.258 583.5 332.896 584.526 332.896C585.551 332.896 586.355 333.284 586.938 334.059C587.527 334.835 587.821 335.897 587.821 337.245V337.37ZM586.376 337.206C586.376 336.222 586.186 335.462 585.806 334.926C585.426 334.39 584.88 334.122 584.166 334.122C583.214 334.122 582.529 334.564 582.113 335.449V339.103C582.555 339.988 583.245 340.431 584.182 340.431C584.874 340.431 585.413 340.163 585.798 339.627C586.184 339.09 586.376 338.284 586.376 337.206ZM593.154 341.657C592.008 341.657 591.077 341.282 590.358 340.532C589.64 339.777 589.281 338.77 589.281 337.51V337.245C589.281 336.407 589.44 335.66 589.757 335.004C590.08 334.343 590.527 333.828 591.1 333.458C591.678 333.083 592.303 332.896 592.974 332.896C594.072 332.896 594.926 333.258 595.535 333.981C596.144 334.705 596.449 335.741 596.449 337.089V337.69H590.725C590.746 338.523 590.988 339.197 591.451 339.712C591.92 340.223 592.513 340.478 593.232 340.478C593.742 340.478 594.174 340.374 594.528 340.165C594.882 339.957 595.192 339.681 595.457 339.338L596.339 340.025C595.631 341.113 594.57 341.657 593.154 341.657ZM592.974 334.083C592.391 334.083 591.902 334.296 591.506 334.723C591.11 335.145 590.866 335.738 590.772 336.503H595.004V336.394C594.963 335.66 594.765 335.093 594.411 334.692C594.057 334.286 593.578 334.083 592.974 334.083ZM601.633 341.657C600.488 341.657 599.556 341.282 598.838 340.532C598.12 339.777 597.76 338.77 597.76 337.51V337.245C597.76 336.407 597.919 335.66 598.237 335.004C598.56 334.343 599.007 333.828 599.58 333.458C600.158 333.083 600.782 332.896 601.454 332.896C602.552 332.896 603.406 333.258 604.015 333.981C604.624 334.705 604.928 335.741 604.928 337.089V337.69H599.205C599.226 338.523 599.468 339.197 599.931 339.712C600.4 340.223 600.993 340.478 601.711 340.478C602.222 340.478 602.654 340.374 603.008 340.165C603.362 339.957 603.671 339.681 603.937 339.338L604.819 340.025C604.111 341.113 603.049 341.657 601.633 341.657ZM601.454 334.083C600.871 334.083 600.381 334.296 599.986 334.723C599.59 335.145 599.346 335.738 599.252 336.503H603.484V336.394C603.442 335.66 603.244 335.093 602.89 334.692C602.536 334.286 602.058 334.083 601.454 334.083ZM607.974 333.052L608.02 334.114C608.666 333.302 609.509 332.896 610.55 332.896C612.336 332.896 613.236 333.903 613.252 335.918V341.5H611.807V335.91C611.802 335.301 611.662 334.851 611.386 334.559C611.115 334.267 610.691 334.122 610.113 334.122C609.645 334.122 609.233 334.247 608.879 334.497C608.525 334.746 608.249 335.074 608.052 335.48V341.5H606.607V333.052H607.974ZM619.046 337.206C619.046 335.91 619.353 334.869 619.967 334.083C620.581 333.291 621.385 332.896 622.38 332.896C623.369 332.896 624.152 333.234 624.73 333.911V329.507H626.174V341.5H624.847L624.777 340.595C624.199 341.303 623.395 341.657 622.364 341.657C621.385 341.657 620.586 341.256 619.967 340.454C619.353 339.653 619.046 338.606 619.046 337.315V337.206ZM620.49 337.37C620.49 338.328 620.688 339.077 621.084 339.619C621.479 340.16 622.026 340.431 622.723 340.431C623.639 340.431 624.308 340.02 624.73 339.197V335.316C624.298 334.52 623.634 334.122 622.739 334.122C622.031 334.122 621.479 334.395 621.084 334.942C620.688 335.488 620.49 336.298 620.49 337.37ZM633.639 340.665C633.077 341.326 632.252 341.657 631.164 341.657C630.263 341.657 629.576 341.396 629.103 340.876C628.634 340.35 628.397 339.574 628.392 338.549V333.052H629.837V338.51C629.837 339.79 630.357 340.431 631.398 340.431C632.502 340.431 633.236 340.02 633.6 339.197V333.052H635.045V341.5H633.67L633.639 340.665ZM638.816 341.5H637.371V329.507H638.816V341.5ZM643.899 339.384L645.867 333.052H647.413L644.016 342.804C643.49 344.21 642.655 344.913 641.51 344.913L641.236 344.889L640.698 344.788V343.617L641.088 343.648C641.577 343.648 641.957 343.549 642.228 343.351C642.504 343.153 642.73 342.791 642.907 342.266L643.228 341.407L640.214 333.052H641.791L643.899 339.384ZM655.463 339.541L657.556 333.052H659.031L656.002 341.5H654.901L651.84 333.052H653.316L655.463 339.541ZM663.818 341.657C662.673 341.657 661.741 341.282 661.022 340.532C660.304 339.777 659.945 338.77 659.945 337.51V337.245C659.945 336.407 660.104 335.66 660.421 335.004C660.744 334.343 661.192 333.828 661.764 333.458C662.342 333.083 662.967 332.896 663.638 332.896C664.737 332.896 665.59 333.258 666.199 333.981C666.808 334.705 667.113 335.741 667.113 337.089V337.69H661.389C661.41 338.523 661.652 339.197 662.116 339.712C662.584 340.223 663.178 340.478 663.896 340.478C664.406 340.478 664.838 340.374 665.192 340.165C665.546 339.957 665.856 339.681 666.121 339.338L667.004 340.025C666.296 341.113 665.234 341.657 663.818 341.657ZM663.638 334.083C663.055 334.083 662.566 334.296 662.17 334.723C661.775 335.145 661.53 335.738 661.436 336.503H665.668V336.394C665.627 335.66 665.429 335.093 665.075 334.692C664.721 334.286 664.242 334.083 663.638 334.083ZM672.875 334.348C672.657 334.312 672.42 334.294 672.165 334.294C671.217 334.294 670.575 334.697 670.236 335.504V341.5H668.792V333.052H670.197L670.221 334.028C670.694 333.273 671.366 332.896 672.235 332.896C672.516 332.896 672.73 332.932 672.875 333.005V334.348ZM674.695 341.5V334.169H673.359V333.052H674.695V332.334C674.695 331.391 674.963 330.658 675.499 330.132C676.04 329.606 676.803 329.343 677.787 329.343C678.37 329.343 679.106 329.502 679.996 329.819L679.754 331.038C679.104 330.777 678.484 330.647 677.896 330.647C677.277 330.647 676.829 330.788 676.553 331.069C676.282 331.345 676.147 331.761 676.147 332.318V333.052H677.873V334.169H676.147V341.5H674.695ZM680.715 341.5H679.262V333.052H680.715V341.5ZM686.571 341.657C685.426 341.657 684.494 341.282 683.776 340.532C683.057 339.777 682.698 338.77 682.698 337.51V337.245C682.698 336.407 682.857 335.66 683.174 335.004C683.497 334.343 683.945 333.828 684.517 333.458C685.095 333.083 685.72 332.896 686.391 332.896C687.49 332.896 688.343 333.258 688.952 333.981C689.561 334.705 689.866 335.741 689.866 337.089V337.69H684.143C684.163 338.523 684.405 339.197 684.869 339.712C685.337 340.223 685.931 340.478 686.649 340.478C687.159 340.478 687.591 340.374 687.945 340.165C688.299 339.957 688.609 339.681 688.874 339.338L689.757 340.025C689.049 341.113 687.987 341.657 686.571 341.657ZM686.391 334.083C685.808 334.083 685.319 334.296 684.923 334.723C684.528 335.145 684.283 335.738 684.189 336.503H688.421V336.394C688.38 335.66 688.182 335.093 687.828 334.692C687.474 334.286 686.995 334.083 686.391 334.083ZM691.193 337.206C691.193 335.91 691.5 334.869 692.115 334.083C692.729 333.291 693.533 332.896 694.527 332.896C695.516 332.896 696.3 333.234 696.878 333.911V329.507H698.322V341.5H696.995L696.925 340.595C696.347 341.303 695.543 341.657 694.512 341.657C693.533 341.657 692.734 341.256 692.115 340.454C691.5 339.653 691.193 338.606 691.193 337.315V337.206ZM692.638 337.37C692.638 338.328 692.836 339.077 693.231 339.619C693.627 340.16 694.173 340.431 694.871 340.431C695.787 340.431 696.456 340.02 696.878 339.197V335.316C696.446 334.52 695.782 334.122 694.887 334.122C694.179 334.122 693.627 334.395 693.231 334.942C692.836 335.488 692.638 336.298 692.638 337.37ZM213.745 362.37C213.745 363.661 213.449 364.699 212.855 365.485C212.262 366.266 211.465 366.657 210.466 366.657C209.399 366.657 208.574 366.279 207.991 365.524L207.921 366.5H206.593V354.507H208.038V358.981C208.621 358.258 209.425 357.896 210.45 357.896C211.476 357.896 212.28 358.284 212.863 359.059C213.451 359.835 213.745 360.897 213.745 362.245V362.37ZM212.301 362.206C212.301 361.222 212.111 360.462 211.731 359.926C211.351 359.39 210.804 359.122 210.091 359.122C209.139 359.122 208.454 359.564 208.038 360.449V364.103C208.48 364.988 209.17 365.431 210.107 365.431C210.799 365.431 211.338 365.163 211.723 364.627C212.108 364.09 212.301 363.284 212.301 362.206ZM218.243 364.384L220.211 358.052H221.757L218.36 367.804C217.834 369.21 216.999 369.913 215.854 369.913L215.58 369.889L215.042 369.788V368.617L215.432 368.648C215.921 368.648 216.301 368.549 216.572 368.351C216.848 368.153 217.074 367.791 217.251 367.266L217.571 366.407L214.558 358.052H216.135L218.243 364.384ZM231.415 361.901H228.745V366.5H227.238V355.132H231.002C232.282 355.132 233.266 355.423 233.953 356.006C234.645 356.589 234.992 357.438 234.992 358.552C234.992 359.26 234.799 359.877 234.414 360.402C234.034 360.928 233.503 361.321 232.821 361.581L235.491 366.407V366.5H233.883L231.415 361.901ZM228.745 360.676H231.048C231.793 360.676 232.384 360.483 232.821 360.098C233.263 359.713 233.485 359.197 233.485 358.552C233.485 357.849 233.274 357.31 232.852 356.935C232.436 356.561 231.832 356.371 231.041 356.365H228.745V360.676ZM238.318 359.075C238.958 358.289 239.791 357.896 240.816 357.896C242.602 357.896 243.503 358.903 243.518 360.918V366.5H242.074V360.91C242.068 360.301 241.928 359.851 241.652 359.559C241.381 359.267 240.957 359.122 240.379 359.122C239.911 359.122 239.499 359.247 239.146 359.497C238.792 359.746 238.516 360.074 238.318 360.48V366.5H236.873V354.507H238.318V359.075ZM247.25 366.5H245.806V358.052H247.25V366.5ZM245.689 355.811C245.689 355.577 245.759 355.379 245.9 355.218C246.045 355.056 246.259 354.976 246.54 354.976C246.821 354.976 247.034 355.056 247.18 355.218C247.326 355.379 247.399 355.577 247.399 355.811C247.399 356.045 247.326 356.241 247.18 356.397C247.034 356.553 246.821 356.631 246.54 356.631C246.259 356.631 246.045 356.553 245.9 356.397C245.759 356.241 245.689 356.045 245.689 355.811ZM250.928 365.321H255.871V366.5H249.163V365.439L253.825 359.247H249.234V358.052H255.636V359.075L250.928 365.321ZM256.995 362.198C256.995 361.371 257.156 360.626 257.479 359.965C257.807 359.304 258.26 358.794 258.838 358.435C259.421 358.075 260.085 357.896 260.829 357.896C261.979 357.896 262.908 358.294 263.616 359.091C264.33 359.887 264.686 360.946 264.686 362.268V362.37C264.686 363.192 264.527 363.932 264.21 364.587C263.898 365.238 263.447 365.746 262.859 366.11C262.276 366.474 261.605 366.657 260.845 366.657C259.699 366.657 258.77 366.258 258.057 365.462C257.349 364.666 256.995 363.611 256.995 362.3V362.198ZM258.447 362.37C258.447 363.307 258.663 364.059 259.095 364.627C259.533 365.194 260.116 365.478 260.845 365.478C261.578 365.478 262.161 365.191 262.594 364.619C263.026 364.041 263.242 363.234 263.242 362.198C263.242 361.272 263.02 360.522 262.578 359.949C262.141 359.372 261.558 359.083 260.829 359.083C260.116 359.083 259.541 359.366 259.103 359.934C258.666 360.501 258.447 361.313 258.447 362.37ZM266.529 365.743C266.529 365.493 266.602 365.285 266.748 365.118C266.898 364.952 267.122 364.869 267.419 364.869C267.716 364.869 267.94 364.952 268.091 365.118C268.247 365.285 268.325 365.493 268.325 365.743C268.325 365.983 268.247 366.183 268.091 366.344C267.94 366.506 267.716 366.586 267.419 366.586C267.122 366.586 266.898 366.506 266.748 366.344C266.602 366.183 266.529 365.983 266.529 365.743Z" fill="#667085"/>
<g filter="url(#filter0_d_2_39922)">
<g filter="url(#filter1_d_2_39922)">
<rect x="780.5" y="80.5312" width="294" height="399" rx="10" fill="white"/>
</g>
<path d="M1051.04 96.298C1050.86 95.7673 1050.64 95.2488 1050.36 94.7474C1050.08 94.2416 1049.75 93.7572 1049.37 93.2999C1048.59 92.3742 1047.59 91.5816 1046.44 90.9668C1045.29 90.3591 1044.01 89.9257 1042.67 89.6873C1041.33 89.4488 1039.95 89.3911 1038.59 89.5166C1037.24 89.6398 1035.91 89.9338 1034.66 90.3881C1033.4 90.8446 1032.24 91.4632 1031.22 92.2202C1030.19 92.9879 1029.34 93.9032 1028.7 94.921C1028.54 95.1763 1028.4 95.4401 1028.28 95.7079C1028.15 95.976 1028.04 96.2493 1027.94 96.5267C1027.89 96.6649 1027.85 96.805 1027.81 96.9452C1027.77 97.0853 1027.74 97.2271 1027.71 97.3656C1027.65 97.6431 1027.6 97.923 1027.56 98.205C1027.42 99.3425 1027.52 100.492 1027.86 101.601C1028.2 102.724 1028.79 103.787 1029.6 104.738C1030.42 105.708 1031.47 106.532 1032.7 107.16C1033.18 107.406 1034.3 107.823 1034.34 107.836C1034.89 108.019 1035.47 108.147 1036.06 108.216C1036.13 108.224 1036.21 108.232 1036.28 108.239L1036.33 108.245L1036.37 108.247C1036.84 108.29 1037.31 108.301 1037.78 108.28C1038.37 108.255 1038.96 108.177 1039.53 108.046C1039.82 107.979 1040.11 107.895 1040.39 107.796C1040.68 107.696 1040.95 107.579 1041.22 107.446C1041.49 107.309 1041.75 107.156 1041.99 106.987C1042.24 106.816 1042.46 106.629 1042.67 106.429C1043.08 106.033 1043.41 105.588 1043.65 105.109C1043.76 104.88 1043.86 104.645 1043.93 104.405C1043.97 104.288 1044 104.17 1044.03 104.052C1044.05 103.993 1044.06 103.938 1044.07 103.881C1044.08 103.824 1044.09 103.768 1044.1 103.712C1044.19 103.258 1044.22 102.798 1044.2 102.338C1044.19 102.04 1044.15 101.742 1044.1 101.447C1044.09 101.396 1044.08 101.345 1044.07 101.295C1043.92 100.756 1043.81 100.211 1043.74 99.6609C1043.67 99.1144 1043.66 98.5644 1043.7 98.0161C1043.74 97.4714 1043.86 96.9325 1044.05 96.4103C1044.15 96.1518 1044.28 95.9002 1044.42 95.658C1044.5 95.5386 1044.58 95.4223 1044.67 95.3096C1044.71 95.2545 1044.95 95.0144 1044.95 95.0144C1045.09 94.8718 1045.14 94.6987 1045.01 94.5569C1044.94 94.4889 1044.85 94.4447 1044.74 94.4339C1044.64 94.4232 1044.53 94.4469 1044.45 94.4997C1044.28 94.6053 1044.12 94.7178 1043.97 94.8368C1043.83 94.9521 1043.7 95.0731 1043.57 95.1993C1043.33 95.4499 1043.11 95.7163 1042.91 95.9959C1042.53 96.5564 1042.24 97.1512 1042.03 97.768C1042.01 97.826 1041.99 97.8844 1041.97 97.9424C1041.79 97.7901 1041.61 97.6456 1041.42 97.5086C1040.62 96.9396 1039.72 96.4774 1038.75 96.1393C1037.82 95.8129 1036.84 95.5756 1035.85 95.4321C1035.71 95.4097 1035.56 95.4303 1035.44 95.4899C1035.32 95.5495 1035.23 95.6437 1035.19 95.7543C1035.15 95.8649 1035.16 95.9839 1035.22 96.0881C1035.28 96.1923 1035.39 96.2743 1035.52 96.3181H1035.53C1035.96 96.4679 1036.38 96.6262 1036.78 96.7966C1037.19 96.9669 1037.58 97.1514 1037.95 97.3524C1038.7 97.7531 1039.37 98.211 1039.92 98.7313C1040.31 99.1056 1040.64 99.5228 1040.9 99.971C1040.51 99.7884 1040.09 99.6372 1039.67 99.5195C1039.08 99.3562 1038.46 99.2592 1037.84 99.2312C1037.22 99.2003 1036.6 99.2565 1036 99.3975C1035.39 99.5393 1034.84 99.7951 1034.38 100.144C1034.31 100.198 1034.26 100.272 1034.26 100.352C1034.25 100.431 1034.28 100.509 1034.34 100.571C1034.4 100.633 1034.49 100.674 1034.58 100.686C1034.68 100.697 1034.78 100.679 1034.86 100.634L1034.87 100.63C1035.27 100.413 1035.74 100.277 1036.22 100.233C1036.71 100.188 1037.2 100.211 1037.68 100.302C1038.62 100.476 1039.49 100.857 1040.2 101.404C1040.52 101.653 1040.78 101.946 1040.98 102.269C1041.15 102.555 1041.24 102.868 1041.24 103.186C1041.24 103.249 1041.24 103.313 1041.23 103.376C1041.22 103.385 1041.22 103.394 1041.22 103.403C1041.21 103.443 1041.19 103.483 1041.18 103.518C1041.16 103.591 1041.13 103.662 1041.1 103.732C1041.04 103.868 1040.98 104 1040.9 104.129C1040.76 104.369 1040.57 104.59 1040.35 104.787C1040.24 104.881 1040.13 104.968 1040 105.047C1039.88 105.129 1039.75 105.203 1039.61 105.268C1039.05 105.536 1038.34 105.696 1037.58 105.748C1037.39 105.76 1037.2 105.767 1037.01 105.767C1036.82 105.768 1036.63 105.761 1036.43 105.748C1036.24 105.735 1036.05 105.718 1035.87 105.692C1035.69 105.665 1035.51 105.636 1035.36 105.602L1035.28 105.585C1035.24 105.577 1034.5 105.33 1034.18 105.18C1033.26 104.735 1032.46 104.144 1031.83 103.441C1031.19 102.723 1030.71 101.915 1030.42 101.057C1030.27 100.625 1030.17 100.182 1030.11 99.7354C1030.09 99.5115 1030.07 99.2859 1030.06 99.06C1030.06 98.8341 1030.07 98.6069 1030.09 98.3802C1030.1 98.1534 1030.13 97.9271 1030.17 97.7011C1030.19 97.5863 1030.22 97.4796 1030.24 97.3693C1030.27 97.2589 1030.3 97.1514 1030.33 97.0434C1030.4 96.8271 1030.48 96.6136 1030.57 96.4039C1030.66 96.1941 1030.76 95.9862 1030.88 95.7841C1031.36 94.9643 1032.01 94.2222 1032.82 93.5943C1033.63 92.9526 1034.57 92.4223 1035.59 92.0236C1036.62 91.6206 1037.73 91.3501 1038.86 91.2218C1039.99 91.0917 1041.14 91.1141 1042.26 91.2882C1043.38 91.4614 1044.45 91.7955 1045.43 92.275C1046.39 92.7583 1047.23 93.3941 1047.9 94.1453C1048.23 94.5254 1048.52 94.9291 1048.77 95.3515C1049.02 95.7784 1049.23 96.2208 1049.39 96.6745C1049.71 97.5962 1049.88 98.5504 1049.88 99.5095C1049.89 100.473 1049.57 101.866 1049.44 102.375C1048.63 104.791 1047.4 105.607 1046.19 106.506C1045.66 106.869 1045.18 107.187 1044.6 107.598C1044.3 107.813 1044.01 108.044 1043.75 108.29C1043.51 108.517 1043.29 108.753 1043.09 108.999C1042.68 109.495 1042.34 110.042 1042.15 110.635C1042.06 110.933 1042.01 111.239 1042 111.547C1042 111.862 1042.07 112.174 1042.2 112.47C1042.23 112.529 1042.29 112.577 1042.36 112.605C1042.43 112.632 1042.51 112.636 1042.58 112.616C1042.66 112.596 1042.72 112.553 1042.76 112.497C1042.79 112.441 1042.8 112.376 1042.78 112.314V112.31C1042.71 112.069 1042.69 111.819 1042.72 111.572C1042.76 111.32 1042.83 111.071 1042.94 110.833C1043.16 110.35 1043.5 109.907 1043.92 109.504C1044.13 109.301 1044.35 109.107 1044.58 108.924C1044.76 108.787 1044.94 108.657 1045.12 108.53C1044.83 109.002 1044.59 109.508 1044.49 110.05C1044.44 110.327 1044.45 110.609 1044.52 110.884C1044.58 111.157 1044.72 111.416 1044.91 111.646C1044.93 111.673 1044.97 111.693 1045.01 111.7C1045.05 111.708 1045.09 111.702 1045.12 111.685C1045.16 111.667 1045.18 111.64 1045.19 111.608C1045.2 111.576 1045.2 111.542 1045.18 111.513C1045.04 111.303 1044.95 111.072 1044.93 110.834C1044.91 110.598 1044.93 110.36 1045.01 110.13C1045.15 109.665 1045.44 109.226 1045.77 108.813C1046.48 108.024 1047.44 107.267 1047.94 106.91C1048.9 106.133 1050.23 105.108 1050.91 102.702C1051.15 102.021 1051.47 100.594 1051.5 99.5163C1051.53 98.4313 1051.37 97.3481 1051.04 96.298Z" fill="white"/>
<path d="M780.5 90.8678C780.5 85.1591 785.128 80.5312 790.837 80.5312H1064.16C1069.87 80.5312 1074.5 85.1591 1074.5 90.8678V112.97H780.5V90.8678Z" fill="#5EC69D"/>
<circle cx="797.236" cy="98.1591" r="4.73614" fill="#F27D7D"/>
<circle cx="816.173" cy="98.1591" r="4.73614" fill="#FFD875"/>
<circle cx="835.121" cy="98.1587" r="4.73614" fill="#8EDB8E"/>
<rect opacity="0.74" x="957.777" y="95.7909" width="47.3614" height="4.73614" rx="2.36807" fill="#E1E9F2"/>
<rect opacity="0.74" x="1015.14" y="95.7909" width="47.3614" height="4.73614" rx="2.36807" fill="#E1E9F2"/>
<rect x="813.214" y="244.001" width="11.1905" height="15" rx="5.59524" fill="#5EC69D"/>
<rect x="846.5" y="239.001" width="88.0317" height="9" rx="4.5" fill="#5EC69D"/>
<rect opacity="0.4" x="846.5" y="259.001" width="69.381" height="9" rx="4.5" fill="#5EC69D"/>
<rect x="806.5" y="167.001" width="235" height="11" rx="5.5" fill="#E5E5E5"/>
<rect x="806.5" y="196.001" width="198.444" height="11" rx="5.5" fill="#E5E5E5"/>
<rect x="806.5" y="237.001" width="34" height="33" rx="6" fill="#E5E5E5"/>
<rect x="846.5" y="285.001" width="88.0317" height="9" rx="4.5" fill="#5EC69D"/>
<rect opacity="0.4" x="846.5" y="305.001" width="69.381" height="9" rx="4.5" fill="#5EC69D"/>
<rect x="806.5" y="283.001" width="34" height="33" rx="6" fill="#E5E5E5"/>
<path d="M812.107 137.36L816.125 148.704L820.121 137.36H824.354V153.001H821.12V148.725L821.442 141.345L817.221 153.001H815.008L810.797 141.356L811.119 148.725V153.001H807.896V137.36H812.107ZM836.411 149.778H830.761L829.687 153.001H826.26L832.082 137.36H835.069L840.923 153.001H837.496L836.411 149.778ZM831.631 147.168H835.541L833.575 141.313L831.631 147.168ZM853.088 139.97H848.297V153.001H845.075V139.97H840.348V137.36H853.088V139.97ZM867.886 153.001H864.663V146.298H858.379V153.001H855.156V137.36H858.379V143.698H864.663V137.36H867.886V153.001ZM876.758 145.309L877.661 137.36H886.426V139.949H880.206L879.82 143.311C880.557 142.917 881.342 142.72 882.172 142.72C883.662 142.72 884.829 143.182 885.674 144.106C886.519 145.03 886.942 146.323 886.942 147.984C886.942 148.994 886.727 149.9 886.297 150.702C885.875 151.497 885.266 152.116 884.471 152.56C883.676 152.997 882.738 153.216 881.657 153.216C880.711 153.216 879.834 153.026 879.025 152.646C878.216 152.26 877.575 151.719 877.102 151.024C876.636 150.33 876.389 149.538 876.361 148.65H879.433C879.497 149.302 879.723 149.81 880.11 150.176C880.504 150.534 881.016 150.713 881.646 150.713C882.348 150.713 882.888 150.462 883.268 149.961C883.648 149.452 883.837 148.736 883.837 147.812C883.837 146.924 883.619 146.244 883.182 145.771C882.745 145.299 882.126 145.062 881.324 145.062C880.586 145.062 879.988 145.256 879.53 145.642L879.229 145.922L876.758 145.309ZM898.334 147.114H900.106V149.617H898.334V153.001H895.229V149.617H888.816L888.676 147.662L895.197 137.36H898.334V147.114ZM891.77 147.114H895.229V141.593L895.025 141.947L891.77 147.114Z" fill="#5EC69D"/>
<rect x="854.5" y="370.531" width="140" height="11" rx="5.5" fill="#E5E5E5"/>
<rect x="854.5" y="354.531" width="53" height="11" rx="5.5" fill="#E5E5E5"/>
<circle cx="1031" cy="369.031" r="6.5" stroke="#A1ABB3" stroke-width="2"/>
<circle cx="1031" cy="369.031" r="3.5" fill="#A1ABB3"/>
<path d="M824.5 388.531C835.546 388.531 844.5 379.577 844.5 368.531C844.5 357.486 835.546 348.531 824.5 348.531C813.454 348.531 804.5 357.486 804.5 368.531C804.5 379.577 813.454 388.531 824.5 388.531Z" fill="#5EC69D" fill-opacity="0.15"/>
<path d="M824.5 367.531C823.17 367.531 820.5 368.201 820.5 369.531V369.691C821.47 370.811 822.9 371.531 824.5 371.531C826.1 371.531 827.53 370.811 828.5 369.691V369.531C828.5 368.201 825.83 367.531 824.5 367.531ZM824.5 366.531C825.6 366.531 826.5 365.631 826.5 364.531C826.5 363.431 825.6 362.531 824.5 362.531C823.4 362.531 822.5 363.431 822.5 364.531C822.5 365.631 823.4 366.531 824.5 366.531ZM824.5 358.531C828.7 358.531 832.5 361.751 832.5 366.731C832.5 369.911 830.05 373.651 825.16 377.961C824.78 378.291 824.21 378.291 823.83 377.961C818.95 373.651 816.5 369.911 816.5 366.731C816.5 361.751 820.3 358.531 824.5 358.531Z" fill="#5EC69D"/>
<rect x="797.5" y="423.531" width="122" height="29" rx="5.56427" fill="#FF5F5F" fill-opacity="0.1"/>
<path d="M864.5 431.531L852.5 443.531" stroke="#FF5F5F" stroke-width="2" stroke-linecap="round" stroke-linejoin="round"/>
<path d="M852.5 431.531L864.5 443.531" stroke="#FF5F5F" stroke-width="2" stroke-linecap="round" stroke-linejoin="round"/>
<rect x="929.5" y="423.531" width="122" height="29" rx="5.56427" fill="#5EC69D" fill-opacity="0.15"/>
<path d="M988.875 442.049L985.261 438.29C984.854 437.867 984.198 437.867 983.792 438.29C983.386 438.712 983.386 439.395 983.792 439.817L988.146 444.345C988.552 444.768 989.209 444.768 989.615 444.345L1000.64 432.884C1001.04 432.461 1001.04 431.779 1000.64 431.356C1000.23 430.934 999.573 430.934 999.167 431.356L988.875 442.049Z" fill="#5EC69D"/>
<path fill-rule="evenodd" clip-rule="evenodd" d="M1011.59 453.626L997.5 443.531L997.905 461.648L1003.57 458.327L1009.02 468.421L1011.7 466.771L1006.28 456.738L1011.59 453.626Z" fill="#565656"/>
</g>
<defs>
<filter id="filter0_d_2_39922" x="739.5" y="43.5312" width="376" height="481" filterUnits="userSpaceOnUse" color-interpolation-filters="sRGB">
<feFlood flood-opacity="0" result="BackgroundImageFix"/>
<feColorMatrix in="SourceAlpha" type="matrix" values="0 0 0 0 0 0 0 0 0 0 0 0 0 0 0 0 0 0 127 0" result="hardAlpha"/>
<feMorphology radius="25" operator="dilate" in="SourceAlpha" result="effect1_dropShadow_2_39922"/>
<feOffset dy="4"/>
<feGaussianBlur stdDeviation="8"/>
<feComposite in2="hardAlpha" operator="out"/>
<feColorMatrix type="matrix" values="0 0 0 0 0.439216 0 0 0 0 0.564706 0 0 0 0 0.690196 0 0 0 0.15 0"/>
<feBlend mode="normal" in2="BackgroundImageFix" result="effect1_dropShadow_2_39922"/>
<feBlend mode="normal" in="SourceGraphic" in2="effect1_dropShadow_2_39922" result="shape"/>
</filter>
<filter id="filter1_d_2_39922" x="676.5" y="0.53125" width="502" height="607" filterUnits="userSpaceOnUse" color-interpolation-filters="sRGB">
<feFlood flood-opacity="0" result="BackgroundImageFix"/>
<feColorMatrix in="SourceAlpha" type="matrix" values="0 0 0 0 0 0 0 0 0 0 0 0 0 0 0 0 0 0 127 0" result="hardAlpha"/>
<feMorphology radius="20" operator="erode" in="SourceAlpha" result="effect1_dropShadow_2_39922"/>
<feOffset dy="24"/>
<feGaussianBlur stdDeviation="62"/>
<feComposite in2="hardAlpha" operator="out"/>
<feColorMatrix type="matrix" values="0 0 0 0 0.480226 0 0 0 0 0.53588 0 0 0 0 0.579167 0 0 0 0.27 0"/>
<feBlend mode="normal" in2="BackgroundImageFix" result="effect1_dropShadow_2_39922"/>
<feBlend mode="normal" in="SourceGraphic" in2="effect1_dropShadow_2_39922" result="shape"/>
</filter>
</defs>
</svg>
