<svg width="20" height="19" viewBox="0 0 20 19" fill="none" xmlns="http://www.w3.org/2000/svg">
<path d="M10 4.67041V2.67041C10 1.57041 9.1 0.67041 8 0.67041H2C0.9 0.67041 0 1.57041 0 2.67041V16.6704C0 17.7704 0.9 18.6704 2 18.6704H18C19.1 18.6704 20 17.7704 20 16.6704V6.67041C20 5.57041 19.1 4.67041 18 4.67041H10ZM4 16.6704H2V14.6704H4V16.6704ZM4 12.6704H2V10.6704H4V12.6704ZM4 8.67041H2V6.67041H4V8.67041ZM4 4.67041H2V2.67041H4V4.67041ZM8 16.6704H6V14.6704H8V16.6704ZM8 12.6704H6V10.6704H8V12.6704ZM8 8.67041H6V6.67041H8V8.67041ZM8 4.67041H6V2.67041H8V4.67041ZM17 16.6704H10V14.6704H12V12.6704H10V10.6704H12V8.67041H10V6.67041H17C17.55 6.67041 18 7.12041 18 7.67041V15.6704C18 16.2204 17.55 16.6704 17 16.6704ZM16 8.67041H14V10.6704H16V8.67041ZM16 12.6704H14V14.6704H16V12.6704Z" fill="#5EC69D"/>
</svg>
