<svg width="536" height="231" viewBox="0 0 536 231" fill="none" xmlns="http://www.w3.org/2000/svg">
<path d="M215.383 19H213.537V8.33594H215.383V19ZM225.146 9.83008H221.821V19H219.982V9.83008H216.687V8.33594H225.146V9.83008ZM226.75 11.5L225.842 10.936C226.281 10.2964 226.508 9.62012 226.523 8.90723V7.75H228.083V8.76074C228.083 9.26367 227.954 9.77148 227.695 10.2842C227.441 10.792 227.126 11.1973 226.75 11.5ZM235.378 16.2534C235.378 15.7847 235.212 15.4233 234.88 15.1694C234.553 14.9155 233.959 14.6592 233.1 14.4004C232.241 14.1416 231.557 13.8535 231.049 13.5361C230.078 12.9258 229.592 12.1299 229.592 11.1484C229.592 10.2891 229.941 9.58105 230.639 9.02441C231.342 8.46777 232.253 8.18945 233.371 8.18945C234.113 8.18945 234.775 8.32617 235.356 8.59961C235.937 8.87305 236.394 9.26367 236.726 9.77148C237.058 10.2744 237.224 10.8335 237.224 11.4487H235.378C235.378 10.8921 235.202 10.4575 234.851 10.145C234.504 9.82764 234.006 9.66895 233.356 9.66895C232.751 9.66895 232.28 9.79834 231.943 10.0571C231.611 10.3159 231.445 10.6772 231.445 11.1411C231.445 11.5317 231.625 11.8589 231.987 12.1226C232.348 12.3813 232.944 12.6353 233.774 12.8843C234.604 13.1284 235.271 13.4092 235.773 13.7266C236.276 14.0391 236.645 14.4004 236.879 14.8105C237.114 15.2158 237.231 15.6919 237.231 16.2388C237.231 17.1274 236.889 17.8354 236.206 18.3628C235.527 18.8853 234.604 19.1465 233.437 19.1465C232.666 19.1465 231.955 19.0049 231.306 18.7217C230.661 18.4336 230.158 18.0381 229.797 17.5352C229.44 17.0322 229.262 16.4463 229.262 15.7773H231.115C231.115 16.3828 231.315 16.8516 231.716 17.1836C232.116 17.5156 232.69 17.6816 233.437 17.6816C234.082 17.6816 234.565 17.5522 234.887 17.2935C235.214 17.0298 235.378 16.6831 235.378 16.2534ZM251.066 13.9463C251.066 14.957 250.905 15.8335 250.583 16.5757C250.266 17.313 249.819 17.8989 249.243 18.3335L251.074 19.7617L249.873 20.8457L247.602 19.0513C247.304 19.1147 246.984 19.1465 246.643 19.1465C245.783 19.1465 245.014 18.9365 244.335 18.5166C243.662 18.0918 243.139 17.4888 242.768 16.7075C242.402 15.9263 242.216 15.0254 242.211 14.0049V13.4043C242.211 12.3643 242.395 11.4463 242.761 10.6504C243.132 9.85449 243.652 9.24658 244.321 8.82666C244.995 8.40186 245.764 8.18945 246.628 8.18945C247.507 8.18945 248.281 8.39941 248.95 8.81934C249.624 9.23438 250.144 9.83496 250.51 10.6211C250.876 11.4023 251.062 12.313 251.066 13.353V13.9463ZM249.206 13.3896C249.206 12.1885 248.981 11.2778 248.532 10.6577C248.083 10.0376 247.448 9.72754 246.628 9.72754C245.832 9.72754 245.207 10.0425 244.753 10.6724C244.304 11.2974 244.074 12.1812 244.064 13.3237V13.9463C244.064 15.0986 244.289 15.9995 244.738 16.6489C245.192 17.2983 245.827 17.623 246.643 17.623C247.468 17.623 248.1 17.3105 248.54 16.6855C248.984 16.0605 249.206 15.1475 249.206 13.9463V13.3896ZM260.749 8.33594V15.4624C260.749 16.5952 260.385 17.4937 259.658 18.1577C258.935 18.8169 257.971 19.1465 256.765 19.1465C255.544 19.1465 254.575 18.8218 253.857 18.1724C253.139 17.5181 252.78 16.6123 252.78 15.4551V8.33594H254.626V15.4697C254.626 16.1826 254.807 16.7271 255.168 17.103C255.529 17.479 256.062 17.667 256.765 17.667C258.19 17.667 258.903 16.915 258.903 15.4111V8.33594H260.749ZM264.689 19H262.844V8.33594H264.689V19ZM274.453 9.83008H271.127V19H269.289V9.83008H265.993V8.33594H274.453V9.83008ZM282.092 14.2393H277.712V17.5205H282.832V19H275.859V8.33594H282.78V9.83008H277.712V12.7744H282.092V14.2393ZM294.309 14.2393H289.929V17.5205H295.048V19H288.076V8.33594H294.997V9.83008H289.929V12.7744H294.309V14.2393ZM302.526 16.5171H298.396L297.531 19H295.605L299.633 8.33594H301.296L305.332 19H303.398L302.526 16.5171ZM298.916 15.0229H302.006L300.461 10.5991L298.916 15.0229ZM312.121 16.2534C312.121 15.7847 311.955 15.4233 311.623 15.1694C311.296 14.9155 310.703 14.6592 309.843 14.4004C308.984 14.1416 308.3 13.8535 307.792 13.5361C306.821 12.9258 306.335 12.1299 306.335 11.1484C306.335 10.2891 306.684 9.58105 307.382 9.02441C308.085 8.46777 308.996 8.18945 310.114 8.18945C310.856 8.18945 311.518 8.32617 312.099 8.59961C312.68 8.87305 313.137 9.26367 313.469 9.77148C313.801 10.2744 313.967 10.8335 313.967 11.4487H312.121C312.121 10.8921 311.945 10.4575 311.594 10.145C311.247 9.82764 310.749 9.66895 310.1 9.66895C309.494 9.66895 309.023 9.79834 308.686 10.0571C308.354 10.3159 308.188 10.6772 308.188 11.1411C308.188 11.5317 308.369 11.8589 308.73 12.1226C309.091 12.3813 309.687 12.6353 310.517 12.8843C311.347 13.1284 312.014 13.4092 312.517 13.7266C313.02 14.0391 313.388 14.4004 313.623 14.8105C313.857 15.2158 313.974 15.6919 313.974 16.2388C313.974 17.1274 313.632 17.8354 312.949 18.3628C312.27 18.8853 311.347 19.1465 310.18 19.1465C309.409 19.1465 308.698 19.0049 308.049 18.7217C307.404 18.4336 306.901 18.0381 306.54 17.5352C306.184 17.0322 306.005 16.4463 306.005 15.7773H307.858C307.858 16.3828 308.059 16.8516 308.459 17.1836C308.859 17.5156 309.433 17.6816 310.18 17.6816C310.825 17.6816 311.308 17.5522 311.63 17.2935C311.958 17.0298 312.121 16.6831 312.121 16.2534ZM319.079 13.3896L321.533 8.33594H323.583L320.009 15.0742V19H318.149V15.0742L314.567 8.33594H316.625L319.079 13.3896Z" fill="#5EC69D"/>
<path d="M119.562 76H113.656V60.8359H98.3984V76H92.4688V41.875H98.3984V56.0781H113.656V41.875H119.562V76ZM124.017 63.0859C124.017 60.6016 124.509 58.3672 125.493 56.3828C126.478 54.3828 127.86 52.8516 129.642 51.7891C131.423 50.7109 133.47 50.1719 135.782 50.1719C139.204 50.1719 141.978 51.2734 144.103 53.4766C146.243 55.6797 147.399 58.6016 147.571 62.2422L147.595 63.5781C147.595 66.0781 147.11 68.3125 146.142 70.2812C145.188 72.25 143.813 73.7734 142.017 74.8516C140.235 75.9297 138.173 76.4688 135.829 76.4688C132.251 76.4688 129.384 75.2812 127.228 72.9062C125.087 70.5156 124.017 67.3359 124.017 63.3672V63.0859ZM129.712 63.5781C129.712 66.1875 130.251 68.2344 131.329 69.7188C132.407 71.1875 133.907 71.9219 135.829 71.9219C137.751 71.9219 139.243 71.1719 140.306 69.6719C141.384 68.1719 141.923 65.9766 141.923 63.0859C141.923 60.5234 141.368 58.4922 140.259 56.9922C139.165 55.4922 137.673 54.7422 135.782 54.7422C133.923 54.7422 132.446 55.4844 131.353 56.9688C130.259 58.4375 129.712 60.6406 129.712 63.5781ZM173.728 68.1484L177.76 50.6406H183.314L176.4 76H171.713L166.275 58.5859L160.932 76H156.244L149.307 50.6406H154.861L158.963 67.9609L164.166 50.6406H168.455L173.728 68.1484ZM210.246 62.8516H203.637V76H197.707V41.875H209.707C213.644 41.875 216.683 42.7578 218.824 44.5234C220.965 46.2891 222.035 48.8438 222.035 52.1875C222.035 54.4688 221.48 56.3828 220.371 57.9297C219.277 59.4609 217.746 60.6406 215.777 61.4688L223.441 75.6953V76H217.09L210.246 62.8516ZM203.637 58.0938H209.73C211.73 58.0938 213.293 57.5938 214.418 56.5938C215.543 55.5781 216.105 54.1953 216.105 52.4453C216.105 50.6172 215.582 49.2031 214.535 48.2031C213.504 47.2031 211.957 46.6875 209.894 46.6562H203.637V58.0938ZM231.762 53.4062C233.622 51.25 235.973 50.1719 238.817 50.1719C244.223 50.1719 246.966 53.2578 247.044 59.4297V76H241.348V59.6406C241.348 57.8906 240.966 56.6562 240.2 55.9375C239.45 55.2031 238.341 54.8359 236.872 54.8359C234.591 54.8359 232.887 55.8516 231.762 57.8828V76H226.067V40H231.762V53.4062ZM257.92 76H252.224V50.6406H257.92V76ZM251.873 44.0547C251.873 43.1797 252.146 42.4531 252.693 41.875C253.256 41.2969 254.053 41.0078 255.084 41.0078C256.115 41.0078 256.912 41.2969 257.474 41.875C258.037 42.4531 258.318 43.1797 258.318 44.0547C258.318 44.9141 258.037 45.6328 257.474 46.2109C256.912 46.7734 256.115 47.0547 255.084 47.0547C254.053 47.0547 253.256 46.7734 252.693 46.2109C252.146 45.6328 251.873 44.9141 251.873 44.0547ZM269.264 71.4531H282.764V76H262.186V72.2734L275.053 55.2344H262.421V50.6406H282.272V54.25L269.264 71.4531ZM284.922 63.0859C284.922 60.6016 285.414 58.3672 286.398 56.3828C287.383 54.3828 288.765 52.8516 290.547 51.7891C292.328 50.7109 294.375 50.1719 296.687 50.1719C300.109 50.1719 302.883 51.2734 305.008 53.4766C307.148 55.6797 308.304 58.6016 308.476 62.2422L308.5 63.5781C308.5 66.0781 308.015 68.3125 307.047 70.2812C306.093 72.25 304.718 73.7734 302.922 74.8516C301.14 75.9297 299.078 76.4688 296.734 76.4688C293.156 76.4688 290.289 75.2812 288.133 72.9062C285.992 70.5156 284.922 67.3359 284.922 63.3672V63.0859ZM290.617 63.5781C290.617 66.1875 291.156 68.2344 292.234 69.7188C293.312 71.1875 294.812 71.9219 296.734 71.9219C298.656 71.9219 300.148 71.1719 301.211 69.6719C302.289 68.1719 302.828 65.9766 302.828 63.0859C302.828 60.5234 302.273 58.4922 301.164 56.9922C300.07 55.4922 298.578 54.7422 296.687 54.7422C294.828 54.7422 293.351 55.4844 292.258 56.9688C291.164 58.4375 290.617 60.6406 290.617 63.5781ZM345.627 68.1484L349.658 50.6406H355.212L348.298 76H343.611L338.173 58.5859L332.83 76H328.142L321.205 50.6406H326.759L330.861 67.9609L336.064 50.6406H340.353L345.627 68.1484ZM356.995 63.0859C356.995 60.6016 357.487 58.3672 358.471 56.3828C359.456 54.3828 360.838 52.8516 362.62 51.7891C364.401 50.7109 366.448 50.1719 368.76 50.1719C372.182 50.1719 374.956 51.2734 377.081 53.4766C379.221 55.6797 380.378 58.6016 380.549 62.2422L380.573 63.5781C380.573 66.0781 380.088 68.3125 379.12 70.2812C378.167 72.25 376.792 73.7734 374.995 74.8516C373.213 75.9297 371.151 76.4688 368.807 76.4688C365.229 76.4688 362.362 75.2812 360.206 72.9062C358.065 70.5156 356.995 67.3359 356.995 63.3672V63.0859ZM362.69 63.5781C362.69 66.1875 363.229 68.2344 364.307 69.7188C365.385 71.1875 366.885 71.9219 368.807 71.9219C370.729 71.9219 372.221 71.1719 373.284 69.6719C374.362 68.1719 374.901 65.9766 374.901 63.0859C374.901 60.5234 374.346 58.4922 373.237 56.9922C372.143 55.4922 370.651 54.7422 368.76 54.7422C366.901 54.7422 365.424 55.4844 364.331 56.9688C363.237 58.4375 362.69 60.6406 362.69 63.5781ZM397.707 55.8438C396.957 55.7188 396.183 55.6562 395.386 55.6562C392.777 55.6562 391.019 56.6562 390.113 58.6562V76H384.418V50.6406H389.855L389.996 53.4766C391.371 51.2734 393.277 50.1719 395.714 50.1719C396.527 50.1719 397.199 50.2812 397.73 50.5L397.707 55.8438ZM408.582 65.125L406.051 67.7266V76H400.356V40H406.051V60.7656L407.832 58.5391L414.84 50.6406H421.684L412.262 61.2109L422.692 76H416.106L408.582 65.125ZM438.677 69.1094C438.677 68.0938 438.255 67.3203 437.412 66.7891C436.583 66.2578 435.201 65.7891 433.263 65.3828C431.326 64.9766 429.708 64.4609 428.412 63.8359C425.568 62.4609 424.146 60.4688 424.146 57.8594C424.146 55.6719 425.068 53.8438 426.912 52.375C428.755 50.9062 431.099 50.1719 433.943 50.1719C436.974 50.1719 439.419 50.9219 441.279 52.4219C443.154 53.9219 444.091 55.8672 444.091 58.2578H438.396C438.396 57.1641 437.99 56.2578 437.177 55.5391C436.365 54.8047 435.287 54.4375 433.943 54.4375C432.693 54.4375 431.669 54.7266 430.872 55.3047C430.091 55.8828 429.701 56.6562 429.701 57.625C429.701 58.5 430.068 59.1797 430.802 59.6641C431.537 60.1484 433.021 60.6406 435.255 61.1406C437.49 61.625 439.24 62.2109 440.505 62.8984C441.787 63.5703 442.732 64.3828 443.341 65.3359C443.966 66.2891 444.279 67.4453 444.279 68.8047C444.279 71.0859 443.333 72.9375 441.443 74.3594C439.552 75.7656 437.076 76.4688 434.013 76.4688C431.935 76.4688 430.083 76.0938 428.458 75.3438C426.833 74.5938 425.568 73.5625 424.662 72.25C423.755 70.9375 423.302 69.5234 423.302 68.0078H428.833C428.912 69.3516 429.419 70.3906 430.357 71.125C431.294 71.8438 432.537 72.2031 434.083 72.2031C435.583 72.2031 436.724 71.9219 437.505 71.3594C438.287 70.7812 438.677 70.0312 438.677 69.1094Z" fill="#101828"/>
<path d="M18.3702 111.017H22.9441V124H24.7054V111.017H29.2793V109.455H18.3702V111.017ZM33.4466 117.438C33.4466 115.534 34.661 114.455 36.3159 114.455C37.8926 114.455 38.8443 115.449 38.8443 117.182V124H40.5204V117.068C40.5204 114.263 39.0289 112.949 36.7988 112.949C35.0801 112.949 34.1 113.666 33.5886 114.795H33.4466V109.455H31.7704V124H33.4466V117.438ZM48.1607 124.227C50.3766 124.227 51.9959 123.119 52.5073 121.472L50.888 121.017C50.4618 122.153 49.4746 122.722 48.1607 122.722C46.1934 122.722 44.8368 121.45 44.7587 119.114H52.6777V118.403C52.6777 114.341 50.263 112.949 47.9902 112.949C45.0357 112.949 43.0755 115.278 43.0755 118.631C43.0755 121.983 45.0073 124.227 48.1607 124.227ZM44.7587 117.665C44.8723 115.967 46.0726 114.455 47.9902 114.455C49.8084 114.455 50.9732 115.818 50.9732 117.665H44.7587ZM68.5797 115.534C68.0542 113.986 66.8752 112.949 64.7161 112.949C62.415 112.949 60.7104 114.256 60.7104 116.102C60.7104 117.608 61.6053 118.616 63.6081 119.085L65.4263 119.511C66.5272 119.767 67.0456 120.293 67.0456 121.045C67.0456 121.983 66.0513 122.75 64.4888 122.75C63.1181 122.75 62.2587 122.161 61.9604 120.989L60.3695 121.386C60.7601 123.24 62.2871 124.227 64.5172 124.227C67.0527 124.227 68.7786 122.842 68.7786 120.96C68.7786 119.44 67.8269 118.482 65.8809 118.006L64.2615 117.608C62.9689 117.288 62.3865 116.855 62.3865 116.017C62.3865 115.08 63.3809 114.398 64.7161 114.398C66.1792 114.398 66.7828 115.207 67.074 115.96L68.5797 115.534ZM71.3017 124H72.9778V113.091H71.3017V124ZM72.1539 111.273C72.8074 111.273 73.3471 110.761 73.3471 110.136C73.3471 109.511 72.8074 109 72.1539 109C71.5005 109 70.9608 109.511 70.9608 110.136C70.9608 110.761 71.5005 111.273 72.1539 111.273ZM76.0478 124H77.7239V117.182C77.7239 115.584 78.8887 114.455 80.1955 114.455C81.4668 114.455 82.3546 115.286 82.3546 116.528V124H84.0591V116.898C84.0591 115.491 84.9398 114.455 86.4739 114.455C87.6671 114.455 88.6898 115.087 88.6898 116.699V124H90.3659V116.699C90.3659 114.135 88.9881 112.949 87.0421 112.949C85.4796 112.949 84.3361 113.666 83.775 114.795H83.6614C83.1216 113.631 82.1699 112.949 80.7353 112.949C79.3148 112.949 78.2637 113.631 77.8091 114.795H77.6671V113.091H76.0478V124ZM93.4306 128.091H95.1067V122.324H95.2488C95.6181 122.92 96.3283 124.227 98.4306 124.227C101.158 124.227 103.061 122.04 103.061 118.574C103.061 115.136 101.158 112.949 98.4022 112.949C96.2715 112.949 95.6181 114.256 95.2488 114.824H95.0499V113.091H93.4306V128.091ZM95.0783 118.545C95.0783 116.102 96.1578 114.455 98.2033 114.455C100.334 114.455 101.385 116.244 101.385 118.545C101.385 120.875 100.306 122.722 98.2033 122.722C96.1863 122.722 95.0783 121.017 95.0783 118.545ZM107.294 109.455H105.618V124H107.294V109.455ZM114.938 124.227C117.154 124.227 118.773 123.119 119.285 121.472L117.665 121.017C117.239 122.153 116.252 122.722 114.938 122.722C112.971 122.722 111.614 121.45 111.536 119.114H119.455V118.403C119.455 114.341 117.04 112.949 114.768 112.949C111.813 112.949 109.853 115.278 109.853 118.631C109.853 121.983 111.785 124.227 114.938 124.227ZM111.536 117.665C111.65 115.967 112.85 114.455 114.768 114.455C116.586 114.455 117.751 115.818 117.751 117.665H111.536ZM129.732 115.534C129.206 113.986 128.028 112.949 125.868 112.949C123.567 112.949 121.863 114.256 121.863 116.102C121.863 117.608 122.758 118.616 124.76 119.085L126.579 119.511C127.68 119.767 128.198 120.293 128.198 121.045C128.198 121.983 127.204 122.75 125.641 122.75C124.27 122.75 123.411 122.161 123.113 120.989L121.522 121.386C121.912 123.24 123.439 124.227 125.67 124.227C128.205 124.227 129.931 122.842 129.931 120.96C129.931 119.44 128.979 118.482 127.033 118.006L125.414 117.608C124.121 117.288 123.539 116.855 123.539 116.017C123.539 115.08 124.533 114.398 125.868 114.398C127.331 114.398 127.935 115.207 128.226 115.96L129.732 115.534ZM137.198 113.091H134.869V110.477H133.193V113.091H131.545V114.511H133.193V121.33C133.193 123.233 134.727 124.142 136.147 124.142C136.772 124.142 137.17 124.028 137.397 123.943L137.056 122.438C136.914 122.466 136.687 122.523 136.318 122.523C135.579 122.523 134.869 122.295 134.869 120.875V114.511H137.198V113.091ZM150.089 113.091H147.759V110.477H146.083V113.091H144.436V114.511H146.083V121.33C146.083 123.233 147.617 124.142 149.038 124.142C149.663 124.142 150.061 124.028 150.288 123.943L149.947 122.438C149.805 122.466 149.578 122.523 149.208 122.523C148.47 122.523 147.759 122.295 147.759 120.875V114.511H150.089V113.091ZM154.521 117.438C154.521 115.534 155.735 114.455 157.39 114.455C158.967 114.455 159.919 115.449 159.919 117.182V124H161.595V117.068C161.595 114.263 160.103 112.949 157.873 112.949C156.154 112.949 155.174 113.666 154.663 114.795H154.521V109.455H152.845V124H154.521V117.438ZM164.661 124H166.337V113.091H164.661V124ZM165.513 111.273C166.167 111.273 166.706 110.761 166.706 110.136C166.706 109.511 166.167 109 165.513 109C164.86 109 164.32 109.511 164.32 110.136C164.32 110.761 164.86 111.273 165.513 111.273ZM171.083 117.438C171.083 115.534 172.262 114.455 173.867 114.455C175.423 114.455 176.367 115.47 176.367 117.182V124H178.044V117.068C178.044 114.284 176.559 112.949 174.35 112.949C172.703 112.949 171.68 113.688 171.169 114.795H171.026V113.091H169.407V124H171.083V117.438ZM185.51 128.318C188.123 128.318 190.226 127.125 190.226 124.312V113.091H188.606V114.824H188.436C188.067 114.256 187.385 112.949 185.254 112.949C182.498 112.949 180.595 115.136 180.595 118.489C180.595 121.898 182.584 123.83 185.226 123.83C187.356 123.83 188.038 122.58 188.407 121.983H188.55V124.199C188.55 126.017 187.271 126.841 185.51 126.841C183.528 126.841 182.832 125.797 182.385 125.193L181.05 126.131C181.731 127.274 183.074 128.318 185.51 128.318ZM185.453 122.324C183.351 122.324 182.271 120.733 182.271 118.46C182.271 116.244 183.322 114.455 185.453 114.455C187.498 114.455 188.578 116.102 188.578 118.46C188.578 120.875 187.47 122.324 185.453 122.324ZM201.021 115.534C200.496 113.986 199.317 112.949 197.157 112.949C194.856 112.949 193.152 114.256 193.152 116.102C193.152 117.608 194.047 118.616 196.05 119.085L197.868 119.511C198.969 119.767 199.487 120.293 199.487 121.045C199.487 121.983 198.493 122.75 196.93 122.75C195.559 122.75 194.7 122.161 194.402 120.989L192.811 121.386C193.202 123.24 194.729 124.227 196.959 124.227C199.494 124.227 201.22 122.842 201.22 120.96C201.22 119.44 200.268 118.482 198.322 118.006L196.703 117.608C195.41 117.288 194.828 116.855 194.828 116.017C194.828 115.08 195.822 114.398 197.157 114.398C198.621 114.398 199.224 115.207 199.515 115.96L201.021 115.534ZM213.8 124.227C216.215 124.227 217.806 122.75 218.09 120.818H216.414C216.101 122.011 215.107 122.722 213.8 122.722C211.811 122.722 210.533 121.074 210.533 118.545C210.533 116.074 211.84 114.455 213.8 114.455C215.277 114.455 216.158 115.364 216.414 116.358H218.09C217.806 114.312 216.073 112.949 213.771 112.949C210.817 112.949 208.857 115.278 208.857 118.602C208.857 121.869 210.732 124.227 213.8 124.227ZM223.75 124.256C225.654 124.256 226.648 123.233 226.989 122.523H227.074V124H228.75V116.812C228.75 113.347 226.108 112.949 224.716 112.949C223.068 112.949 221.193 113.517 220.341 115.506L221.932 116.074C222.301 115.278 223.175 114.426 224.773 114.426C226.314 114.426 227.074 115.243 227.074 116.642V116.699C227.074 117.509 226.25 117.438 224.262 117.693C222.237 117.956 220.029 118.403 220.029 120.903C220.029 123.034 221.676 124.256 223.75 124.256ZM224.006 122.75C222.671 122.75 221.705 122.153 221.705 120.989C221.705 119.71 222.869 119.312 224.176 119.142C224.887 119.057 226.79 118.858 227.074 118.517V120.051C227.074 121.415 225.994 122.75 224.006 122.75ZM233.486 117.438C233.486 115.534 234.665 114.455 236.27 114.455C237.825 114.455 238.77 115.47 238.77 117.182V124H240.446V117.068C240.446 114.284 238.961 112.949 236.753 112.949C235.105 112.949 234.082 113.688 233.571 114.795H233.429V113.091H231.809V124H233.486V117.438ZM249.134 124H250.81V117.182C250.81 115.584 251.975 114.455 253.281 114.455C254.553 114.455 255.441 115.286 255.441 116.528V124H257.145V116.898C257.145 115.491 258.026 114.455 259.56 114.455C260.753 114.455 261.776 115.087 261.776 116.699V124H263.452V116.699C263.452 114.135 262.074 112.949 260.128 112.949C258.566 112.949 257.422 113.666 256.861 114.795H256.747C256.208 113.631 255.256 112.949 253.821 112.949C252.401 112.949 251.35 113.631 250.895 114.795H250.753V113.091H249.134V124ZM269.727 124.256C271.63 124.256 272.624 123.233 272.965 122.523H273.051V124H274.727V116.812C274.727 113.347 272.085 112.949 270.693 112.949C269.045 112.949 267.17 113.517 266.318 115.506L267.909 116.074C268.278 115.278 269.151 114.426 270.749 114.426C272.291 114.426 273.051 115.243 273.051 116.642V116.699C273.051 117.509 272.227 117.438 270.238 117.693C268.214 117.956 266.005 118.403 266.005 120.903C266.005 123.034 267.653 124.256 269.727 124.256ZM269.982 122.75C268.647 122.75 267.681 122.153 267.681 120.989C267.681 119.71 268.846 119.312 270.153 119.142C270.863 119.057 272.767 118.858 273.051 118.517V120.051C273.051 121.415 271.971 122.75 269.982 122.75ZM277.786 124H279.462V119.916L280.634 118.83L284.718 124H286.849L281.898 117.75L286.508 113.091H284.434L279.661 117.949H279.462V109.455H277.786V124ZM292.79 124.227C295.006 124.227 296.625 123.119 297.136 121.472L295.517 121.017C295.091 122.153 294.104 122.722 292.79 122.722C290.822 122.722 289.466 121.45 289.388 119.114H297.307V118.403C297.307 114.341 294.892 112.949 292.619 112.949C289.665 112.949 287.704 115.278 287.704 118.631C287.704 121.983 289.636 124.227 292.79 124.227ZM289.388 117.665C289.501 115.967 290.702 114.455 292.619 114.455C294.437 114.455 295.602 115.818 295.602 117.665H289.388ZM310.226 113.091H307.896V110.477H306.22V113.091H304.572V114.511H306.22V121.33C306.22 123.233 307.754 124.142 309.175 124.142C309.8 124.142 310.197 124.028 310.425 123.943L310.084 122.438C309.942 122.466 309.714 122.523 309.345 122.523C308.606 122.523 307.896 122.295 307.896 120.875V114.511H310.226V113.091ZM314.657 117.438C314.657 115.534 315.872 114.455 317.527 114.455C319.104 114.455 320.055 115.449 320.055 117.182V124H321.731V117.068C321.731 114.263 320.24 112.949 318.01 112.949C316.291 112.949 315.311 113.666 314.8 114.795H314.657V109.455H312.981V124H314.657V117.438ZM329.372 124.227C331.588 124.227 333.207 123.119 333.718 121.472L332.099 121.017C331.673 122.153 330.686 122.722 329.372 122.722C327.404 122.722 326.048 121.45 325.97 119.114H333.889V118.403C333.889 114.341 331.474 112.949 329.201 112.949C326.247 112.949 324.286 115.278 324.286 118.631C324.286 121.983 326.218 124.227 329.372 124.227ZM325.97 117.665C326.083 115.967 327.284 114.455 329.201 114.455C331.019 114.455 332.184 115.818 332.184 117.665H325.97ZM342.291 124H343.91V122.324H344.109C344.478 122.92 345.188 124.227 347.291 124.227C350.018 124.227 351.921 122.04 351.921 118.574C351.921 115.136 350.018 112.949 347.262 112.949C345.132 112.949 344.478 114.256 344.109 114.824H343.967V109.455H342.291V124ZM343.938 118.545C343.938 116.102 345.018 114.455 347.063 114.455C349.194 114.455 350.245 116.244 350.245 118.545C350.245 120.875 349.166 122.722 347.063 122.722C345.046 122.722 343.938 121.017 343.938 118.545ZM354.485 124H356.161V113.091H354.485V124ZM355.338 111.273C355.991 111.273 356.531 110.761 356.531 110.136C356.531 109.511 355.991 109 355.338 109C354.684 109 354.144 109.511 354.144 110.136C354.144 110.761 354.684 111.273 355.338 111.273ZM363.635 128.318C366.248 128.318 368.351 127.125 368.351 124.312V113.091H366.731V114.824H366.561C366.192 114.256 365.51 112.949 363.379 112.949C360.623 112.949 358.72 115.136 358.72 118.489C358.72 121.898 360.709 123.83 363.351 123.83C365.481 123.83 366.163 122.58 366.532 121.983H366.675V124.199C366.675 126.017 365.396 126.841 363.635 126.841C361.653 126.841 360.957 125.797 360.51 125.193L359.175 126.131C359.856 127.274 361.199 128.318 363.635 128.318ZM363.578 122.324C361.476 122.324 360.396 120.733 360.396 118.46C360.396 116.244 361.447 114.455 363.578 114.455C365.623 114.455 366.703 116.102 366.703 118.46C366.703 120.875 365.595 122.324 363.578 122.324ZM375.822 128.318C378.436 128.318 380.538 127.125 380.538 124.312V113.091H378.919V114.824H378.748C378.379 114.256 377.697 112.949 375.567 112.949C372.811 112.949 370.907 115.136 370.907 118.489C370.907 121.898 372.896 123.83 375.538 123.83C377.669 123.83 378.351 122.58 378.72 121.983H378.862V124.199C378.862 126.017 377.584 126.841 375.822 126.841C373.841 126.841 373.145 125.797 372.697 125.193L371.362 126.131C372.044 127.274 373.386 128.318 375.822 128.318ZM375.765 122.324C373.663 122.324 372.584 120.733 372.584 118.46C372.584 116.244 373.635 114.455 375.765 114.455C377.811 114.455 378.89 116.102 378.89 118.46C378.89 120.875 377.782 122.324 375.765 122.324ZM388.18 124.227C390.396 124.227 392.015 123.119 392.527 121.472L390.907 121.017C390.481 122.153 389.494 122.722 388.18 122.722C386.213 122.722 384.856 121.45 384.778 119.114H392.697V118.403C392.697 114.341 390.282 112.949 388.01 112.949C385.055 112.949 383.095 115.278 383.095 118.631C383.095 121.983 385.027 124.227 388.18 124.227ZM384.778 117.665C384.892 115.967 386.092 114.455 388.01 114.455C389.828 114.455 390.993 115.818 390.993 117.665H384.778ZM402.974 115.534C402.449 113.986 401.27 112.949 399.111 112.949C396.809 112.949 395.105 114.256 395.105 116.102C395.105 117.608 396 118.616 398.003 119.085L399.821 119.511C400.922 119.767 401.44 120.293 401.44 121.045C401.44 121.983 400.446 122.75 398.883 122.75C397.513 122.75 396.653 122.161 396.355 120.989L394.764 121.386C395.155 123.24 396.682 124.227 398.912 124.227C401.447 124.227 403.173 122.842 403.173 120.96C403.173 119.44 402.221 118.482 400.275 118.006L398.656 117.608C397.363 117.288 396.781 116.855 396.781 116.017C396.781 115.08 397.775 114.398 399.111 114.398C400.574 114.398 401.177 115.207 401.469 115.96L402.974 115.534ZM410.441 113.091H408.111V110.477H406.435V113.091H404.787V114.511H406.435V121.33C406.435 123.233 407.969 124.142 409.389 124.142C410.014 124.142 410.412 124.028 410.639 123.943L410.298 122.438C410.156 122.466 409.929 122.523 409.56 122.523C408.821 122.523 408.111 122.295 408.111 120.875V114.511H410.441V113.091ZM422.706 124.227C424.808 124.227 425.519 122.92 425.888 122.324H426.087V124H427.706V109.455H426.03V114.824H425.888C425.519 114.256 424.865 112.949 422.735 112.949C419.979 112.949 418.075 115.136 418.075 118.574C418.075 122.04 419.979 124.227 422.706 124.227ZM422.933 122.722C420.831 122.722 419.752 120.875 419.752 118.545C419.752 116.244 420.803 114.455 422.933 114.455C424.979 114.455 426.058 116.102 426.058 118.545C426.058 121.017 424.95 122.722 422.933 122.722ZM431.009 124H432.685V113.091H431.009V124ZM431.861 111.273C432.514 111.273 433.054 110.761 433.054 110.136C433.054 109.511 432.514 109 431.861 109C431.208 109 430.668 109.511 430.668 110.136C430.668 110.761 431.208 111.273 431.861 111.273ZM440.613 113.091H438.17V111.983C438.17 110.903 438.624 110.335 439.732 110.335C440.215 110.335 440.499 110.449 440.67 110.506L441.153 109.057C440.897 108.943 440.385 108.773 439.562 108.773C437.999 108.773 436.493 109.71 436.493 111.585V113.091H434.732V114.511H436.493V124H438.17V114.511H440.613V113.091ZM447.82 113.091H445.377V111.983C445.377 110.903 445.831 110.335 446.939 110.335C447.422 110.335 447.706 110.449 447.877 110.506L448.36 109.057C448.104 108.943 447.593 108.773 446.769 108.773C445.206 108.773 443.7 109.71 443.7 111.585V113.091H441.939V114.511H443.7V124H445.377V114.511H447.82V113.091ZM454.294 124.227C456.509 124.227 458.129 123.119 458.64 121.472L457.021 121.017C456.595 122.153 455.607 122.722 454.294 122.722C452.326 122.722 450.97 121.45 450.892 119.114H458.811V118.403C458.811 114.341 456.396 112.949 454.123 112.949C451.169 112.949 449.208 115.278 449.208 118.631C449.208 121.983 451.14 124.227 454.294 124.227ZM450.892 117.665C451.005 115.967 452.205 114.455 454.123 114.455C455.941 114.455 457.106 115.818 457.106 117.665H450.892ZM461.36 124H463.036V117.097C463.036 115.619 464.201 114.54 465.792 114.54C466.24 114.54 466.701 114.625 466.815 114.653V112.949C466.623 112.935 466.183 112.92 465.934 112.92C464.627 112.92 463.491 113.659 463.093 114.739H462.98V113.091H461.36V124ZM473.044 124.227C475.259 124.227 476.879 123.119 477.39 121.472L475.771 121.017C475.345 122.153 474.357 122.722 473.044 122.722C471.076 122.722 469.72 121.45 469.642 119.114H477.561V118.403C477.561 114.341 475.146 112.949 472.873 112.949C469.919 112.949 467.958 115.278 467.958 118.631C467.958 121.983 469.89 124.227 473.044 124.227ZM469.642 117.665C469.755 115.967 470.955 114.455 472.873 114.455C474.691 114.455 475.856 115.818 475.856 117.665H469.642ZM481.786 117.438C481.786 115.534 482.965 114.455 484.57 114.455C486.126 114.455 487.07 115.47 487.07 117.182V124H488.747V117.068C488.747 114.284 487.262 112.949 485.053 112.949C483.406 112.949 482.383 113.688 481.872 114.795H481.73V113.091H480.11V124H481.786V117.438ZM496.241 124.227C498.656 124.227 500.247 122.75 500.531 120.818H498.855C498.542 122.011 497.548 122.722 496.241 122.722C494.253 122.722 492.974 121.074 492.974 118.545C492.974 116.074 494.281 114.455 496.241 114.455C497.719 114.455 498.599 115.364 498.855 116.358H500.531C500.247 114.312 498.514 112.949 496.213 112.949C493.258 112.949 491.298 115.278 491.298 118.602C491.298 121.869 493.173 124.227 496.241 124.227ZM507.555 124.227C509.771 124.227 511.39 123.119 511.902 121.472L510.282 121.017C509.856 122.153 508.869 122.722 507.555 122.722C505.588 122.722 504.231 121.45 504.153 119.114H512.072V118.403C512.072 114.341 509.657 112.949 507.385 112.949C504.43 112.949 502.47 115.278 502.47 118.631C502.47 121.983 504.402 124.227 507.555 124.227ZM504.153 117.665C504.267 115.967 505.467 114.455 507.385 114.455C509.203 114.455 510.368 115.818 510.368 117.665H504.153ZM515.844 124.114C516.547 124.114 517.122 123.538 517.122 122.835C517.122 122.132 516.547 121.557 515.844 121.557C515.14 121.557 514.565 122.132 514.565 122.835C514.565 123.538 515.14 124.114 515.844 124.114Z" fill="#667085"/>
<rect x="159" y="177" width="106" height="44" rx="8" fill="#5EC69D" fill-opacity="0.15"/>
<path d="M184.625 196.42H186.318C186.267 194.557 184.619 193.205 182.256 193.205C179.92 193.205 178.131 194.54 178.131 196.545C178.131 198.165 179.29 199.114 181.159 199.619L182.534 199.994C183.778 200.324 184.739 200.733 184.739 201.767C184.739 202.903 183.653 203.653 182.159 203.653C180.807 203.653 179.682 203.051 179.58 201.784H177.818C177.932 203.892 179.562 205.193 182.17 205.193C184.903 205.193 186.477 203.756 186.477 201.784C186.477 199.688 184.608 198.875 183.131 198.511L181.994 198.216C181.085 197.983 179.875 197.557 179.881 196.443C179.881 195.455 180.784 194.722 182.216 194.722C183.551 194.722 184.5 195.347 184.625 196.42ZM192.513 196.273H190.723V194.182H189.024V196.273H187.746V197.636H189.024V202.79C189.018 204.375 190.229 205.142 191.57 205.114C192.109 205.108 192.473 205.006 192.672 204.932L192.365 203.528C192.251 203.551 192.041 203.602 191.768 203.602C191.217 203.602 190.723 203.42 190.723 202.438V197.636H192.513V196.273ZM199.92 201.381C199.926 202.864 198.824 203.568 197.869 203.568C196.818 203.568 196.091 202.807 196.091 201.619V196.273H194.392V201.824C194.392 203.989 195.58 205.114 197.256 205.114C198.568 205.114 199.46 204.42 199.864 203.489H199.955V205H201.625V196.273H199.92V201.381ZM207.175 205.17C208.766 205.17 209.391 204.199 209.697 203.642H209.839V205H211.499V193.364H209.8V197.688H209.697C209.391 197.148 208.811 196.159 207.186 196.159C205.078 196.159 203.527 197.824 203.527 200.653C203.527 203.477 205.055 205.17 207.175 205.17ZM207.55 203.722C206.033 203.722 205.243 202.386 205.243 200.636C205.243 198.903 206.016 197.602 207.55 197.602C209.033 197.602 209.828 198.812 209.828 200.636C209.828 202.472 209.016 203.722 207.55 203.722ZM217.685 205.176C219.588 205.176 220.935 204.239 221.321 202.818L219.713 202.528C219.406 203.352 218.668 203.773 217.702 203.773C216.247 203.773 215.27 202.83 215.224 201.148H221.429V200.545C221.429 197.392 219.543 196.159 217.565 196.159C215.134 196.159 213.531 198.011 213.531 200.693C213.531 203.403 215.111 205.176 217.685 205.176ZM215.23 199.875C215.298 198.636 216.196 197.562 217.577 197.562C218.895 197.562 219.759 198.54 219.764 199.875H215.23ZM225.013 199.818C225.013 198.426 225.865 197.631 227.047 197.631C228.2 197.631 228.899 198.386 228.899 199.653V205H230.598V199.449C230.598 197.29 229.411 196.159 227.626 196.159C226.314 196.159 225.456 196.767 225.053 197.693H224.945V196.273H223.314V205H225.013V199.818ZM236.95 196.273H235.161V194.182H233.462V196.273H232.183V197.636H233.462V202.79C233.456 204.375 234.666 205.142 236.007 205.114C236.547 205.108 236.911 205.006 237.109 204.932L236.803 203.528C236.689 203.551 236.479 203.602 236.206 203.602C235.655 203.602 235.161 203.42 235.161 202.438V197.636H236.95V196.273ZM245.229 198.403C244.876 197.045 243.814 196.159 241.928 196.159C239.956 196.159 238.558 197.199 238.558 198.744C238.558 199.983 239.308 200.807 240.945 201.17L242.422 201.494C243.263 201.682 243.655 202.057 243.655 202.602C243.655 203.278 242.933 203.807 241.82 203.807C240.803 203.807 240.149 203.369 239.945 202.511L238.303 202.761C238.587 204.307 239.871 205.176 241.831 205.176C243.939 205.176 245.399 204.057 245.399 202.477C245.399 201.244 244.615 200.483 243.013 200.114L241.626 199.795C240.666 199.568 240.251 199.244 240.257 198.653C240.251 197.983 240.979 197.506 241.945 197.506C243.001 197.506 243.49 198.091 243.689 198.676L245.229 198.403Z" fill="#5EC69D"/>
<path d="M296.278 193.364V205H297.949V196.574H298.057L301.489 204.983H302.875L306.307 196.58H306.415V205H308.085V193.364H305.955L302.25 202.409H302.114L298.409 193.364H296.278ZM314.263 205.176C316.166 205.176 317.513 204.239 317.899 202.818L316.291 202.528C315.984 203.352 315.246 203.773 314.28 203.773C312.825 203.773 311.848 202.83 311.803 201.148H318.007V200.545C318.007 197.392 316.121 196.159 314.143 196.159C311.712 196.159 310.109 198.011 310.109 200.693C310.109 203.403 311.689 205.176 314.263 205.176ZM311.808 199.875C311.876 198.636 312.774 197.562 314.155 197.562C315.473 197.562 316.337 198.54 316.342 199.875H311.808ZM321.591 199.818C321.591 198.426 322.443 197.631 323.625 197.631C324.778 197.631 325.477 198.386 325.477 199.653V205H327.176V199.449C327.176 197.29 325.989 196.159 324.205 196.159C322.892 196.159 322.034 196.767 321.631 197.693H321.523V196.273H319.892V205H321.591V199.818ZM333.528 196.273H331.739V194.182H330.04V196.273H328.761V197.636H330.04V202.79C330.034 204.375 331.244 205.142 332.585 205.114C333.125 205.108 333.489 205.006 333.688 204.932L333.381 203.528C333.267 203.551 333.057 203.602 332.784 203.602C332.233 203.602 331.739 203.42 331.739 202.438V197.636H333.528V196.273ZM338.99 205.176C341.45 205.176 343.058 203.375 343.058 200.676C343.058 197.96 341.45 196.159 338.99 196.159C336.53 196.159 334.922 197.96 334.922 200.676C334.922 203.375 336.53 205.176 338.99 205.176ZM338.996 203.75C337.388 203.75 336.638 202.347 336.638 200.67C336.638 199 337.388 197.58 338.996 197.58C340.592 197.58 341.342 199 341.342 200.67C341.342 202.347 340.592 203.75 338.996 203.75ZM344.955 205H346.653V199.67C346.653 198.528 347.534 197.705 348.739 197.705C349.091 197.705 349.489 197.767 349.625 197.807V196.182C349.455 196.159 349.119 196.142 348.903 196.142C347.881 196.142 347.006 196.722 346.688 197.659H346.597V196.273H344.955V205ZM357.635 198.403C357.283 197.045 356.22 196.159 354.334 196.159C352.362 196.159 350.964 197.199 350.964 198.744C350.964 199.983 351.714 200.807 353.351 201.17L354.828 201.494C355.669 201.682 356.061 202.057 356.061 202.602C356.061 203.278 355.339 203.807 354.226 203.807C353.209 203.807 352.555 203.369 352.351 202.511L350.709 202.761C350.993 204.307 352.277 205.176 354.237 205.176C356.345 205.176 357.805 204.057 357.805 202.477C357.805 201.244 357.021 200.483 355.419 200.114L354.033 199.795C353.072 199.568 352.658 199.244 352.663 198.653C352.658 197.983 353.385 197.506 354.351 197.506C355.408 197.506 355.896 198.091 356.095 198.676L357.635 198.403Z" fill="#667085"/>
<rect x="149.5" y="167.5" width="237" height="63" rx="9.5" stroke="#E2EEF8"/>
</svg>
