<svg width="49" height="49" viewBox="0 0 49 49" fill="none" xmlns="http://www.w3.org/2000/svg">
<rect x="0.5" y="0.17041" width="48" height="48" rx="24" fill="#5EC69D" fill-opacity="0.1"/>
<path fill-rule="evenodd" clip-rule="evenodd" d="M17.4998 25.3504V28.1604C17.4998 28.8904 17.8998 29.5704 18.5398 29.9204L23.5398 32.6504C24.1398 32.9804 24.8598 32.9804 25.4598 32.6504L30.4598 29.9204C31.0998 29.5704 31.4998 28.8904 31.4998 28.1604V25.3504L25.4598 28.6504C24.8598 28.9804 24.1398 28.9804 23.5398 28.6504L17.4998 25.3504ZM23.5398 15.6904L15.1098 20.2904C14.4198 20.6704 14.4198 21.6704 15.1098 22.0504L23.5398 26.6504C24.1398 26.9804 24.8598 26.9804 25.4598 26.6504L33.4998 22.2604V28.1704C33.4998 28.7204 33.9498 29.1704 34.4998 29.1704C35.0498 29.1704 35.4998 28.7204 35.4998 28.1704V21.7604C35.4998 21.3904 35.2998 21.0604 34.9798 20.8804L25.4598 15.6904C24.8598 15.3704 24.1398 15.3704 23.5398 15.6904Z" fill="#5EC69D"/>
</svg>
