<svg width="11" height="12" viewBox="0 0 11 12" fill="none" xmlns="http://www.w3.org/2000/svg">
<path d="M6.4398 6.00012L10.6398 1.80679C10.7653 1.68125 10.8359 1.51099 10.8359 1.33346C10.8359 1.15592 10.7653 0.985659 10.6398 0.860124C10.5143 0.734588 10.344 0.664062 10.1665 0.664062C9.98893 0.664062 9.81867 0.734588 9.69313 0.860124L5.4998 5.06012L1.30646 0.860124C1.18093 0.734588 1.01066 0.664063 0.83313 0.664063C0.655595 0.664063 0.485332 0.734588 0.359797 0.860124C0.234261 0.985659 0.163736 1.15592 0.163736 1.33346C0.163736 1.51099 0.234261 1.68125 0.359797 1.80679L4.5598 6.00012L0.359797 10.1935C0.297311 10.2554 0.247715 10.3292 0.213869 10.4104C0.180023 10.4916 0.162598 10.5788 0.162598 10.6668C0.162598 10.7548 0.180023 10.8419 0.213869 10.9232C0.247715 11.0044 0.297311 11.0781 0.359797 11.1401C0.421772 11.2026 0.495506 11.2522 0.576745 11.2861C0.657985 11.3199 0.745122 11.3373 0.83313 11.3373C0.921138 11.3373 1.00827 11.3199 1.08951 11.2861C1.17075 11.2522 1.24449 11.2026 1.30646 11.1401L5.4998 6.94012L9.69313 11.1401C9.75511 11.2026 9.82884 11.2522 9.91008 11.2861C9.99132 11.3199 10.0785 11.3373 10.1665 11.3373C10.2545 11.3373 10.3416 11.3199 10.4228 11.2861C10.5041 11.2522 10.5778 11.2026 10.6398 11.1401C10.7023 11.0781 10.7519 11.0044 10.7857 10.9232C10.8196 10.8419 10.837 10.7548 10.837 10.6668C10.837 10.5788 10.8196 10.4916 10.7857 10.4104C10.7519 10.3292 10.7023 10.2554 10.6398 10.1935L6.4398 6.00012Z" fill="white"/>
</svg>
