<svg width="1128" height="250" viewBox="0 0 1128 250" fill="none" xmlns="http://www.w3.org/2000/svg">
<rect x="0.512695" y="10" width="48" height="48" rx="24" fill="#5EC69D" fill-opacity="0.1"/>
<path d="M28.0128 36H27.2228L26.9428 35.73C28.1428 34.33 28.7628 32.42 28.4228 30.39C27.9528 27.61 25.6328 25.39 22.8328 25.05C18.6028 24.53 15.0428 28.09 15.5628 32.32C15.9028 35.12 18.1228 37.44 20.9028 37.91C22.9328 38.25 24.8428 37.63 26.2428 36.43L26.5128 36.71V37.5L30.7628 41.75C31.1728 42.16 31.8428 42.16 32.2528 41.75C32.6628 41.34 32.6628 40.67 32.2528 40.26L28.0128 36ZM22.0128 36C19.5228 36 17.5128 33.99 17.5128 31.5C17.5128 29.01 19.5228 27 22.0128 27C24.5028 27 26.5128 29.01 26.5128 31.5C26.5128 33.99 24.5028 36 22.0128 36Z" fill="#5EC69D"/>
<path d="M13.8281 105.507C13.8281 104.569 13.4961 103.847 12.832 103.339C12.1777 102.831 10.9912 102.318 9.27246 101.801C7.55371 101.283 6.18652 100.707 5.1709 100.072C3.22754 98.8516 2.25586 97.2598 2.25586 95.2969C2.25586 93.5781 2.9541 92.1621 4.35059 91.0488C5.75684 89.9355 7.57812 89.3789 9.81445 89.3789C11.2988 89.3789 12.6221 89.6523 13.7842 90.1992C14.9463 90.7461 15.8594 91.5273 16.5234 92.543C17.1875 93.5488 17.5195 94.667 17.5195 95.8975H13.8281C13.8281 94.7842 13.4766 93.915 12.7734 93.29C12.0801 92.6553 11.084 92.3379 9.78516 92.3379C8.57422 92.3379 7.63184 92.5967 6.95801 93.1143C6.29395 93.6318 5.96191 94.3545 5.96191 95.2822C5.96191 96.0635 6.32324 96.7178 7.0459 97.2451C7.76855 97.7627 8.95996 98.2705 10.6201 98.7686C12.2803 99.2568 13.6133 99.8184 14.6191 100.453C15.625 101.078 16.3623 101.801 16.8311 102.621C17.2998 103.432 17.5342 104.384 17.5342 105.478C17.5342 107.255 16.8506 108.671 15.4834 109.726C14.126 110.771 12.2803 111.293 9.94629 111.293C8.40332 111.293 6.98242 111.01 5.68359 110.443C4.39453 109.867 3.38867 109.076 2.66602 108.07C1.95312 107.064 1.59668 105.893 1.59668 104.555H5.30273C5.30273 105.766 5.70312 106.703 6.50391 107.367C7.30469 108.031 8.45215 108.363 9.94629 108.363C11.2354 108.363 12.2021 108.104 12.8467 107.587C13.501 107.06 13.8281 106.366 13.8281 105.507ZM27.4219 111.293C25.166 111.293 23.335 110.585 21.9287 109.169C20.5322 107.743 19.834 105.849 19.834 103.485V103.046C19.834 101.464 20.1367 100.053 20.7422 98.8125C21.3574 97.5625 22.2168 96.5908 23.3203 95.8975C24.4238 95.2041 25.6543 94.8574 27.0117 94.8574C29.1699 94.8574 30.835 95.5459 32.0068 96.9229C33.1885 98.2998 33.7793 100.248 33.7793 102.768V104.203H23.4229C23.5303 105.512 23.9648 106.547 24.7266 107.309C25.498 108.07 26.4648 108.451 27.627 108.451C29.2578 108.451 30.5859 107.792 31.6113 106.474L33.5303 108.305C32.8955 109.252 32.0459 109.989 30.9814 110.517C29.9268 111.034 28.7402 111.293 27.4219 111.293ZM26.9971 97.7139C26.0205 97.7139 25.2295 98.0557 24.624 98.7393C24.0283 99.4229 23.6475 100.375 23.4814 101.596H30.2637V101.332C30.1855 100.141 29.8682 99.2422 29.3115 98.6367C28.7549 98.0215 27.9834 97.7139 26.9971 97.7139ZM46.0254 111C45.8691 110.697 45.7324 110.204 45.6152 109.521C44.4824 110.702 43.0957 111.293 41.4551 111.293C39.8633 111.293 38.5645 110.839 37.5586 109.931C36.5527 109.022 36.0498 107.899 36.0498 106.562C36.0498 104.872 36.6748 103.578 37.9248 102.68C39.1846 101.771 40.9814 101.317 43.3154 101.317H45.498V100.277C45.498 99.457 45.2686 98.8027 44.8096 98.3145C44.3506 97.8164 43.6523 97.5674 42.7148 97.5674C41.9043 97.5674 41.2402 97.7725 40.7227 98.1826C40.2051 98.583 39.9463 99.0957 39.9463 99.7207H36.3867C36.3867 98.8516 36.6748 98.041 37.251 97.2891C37.8271 96.5273 38.6084 95.9316 39.5947 95.502C40.5908 95.0723 41.6992 94.8574 42.9199 94.8574C44.7754 94.8574 46.2549 95.3262 47.3584 96.2637C48.4619 97.1914 49.0283 98.5 49.0576 100.189V107.338C49.0576 108.764 49.2578 109.901 49.6582 110.751V111H46.0254ZM42.1143 108.437C42.8174 108.437 43.4766 108.266 44.0918 107.924C44.7168 107.582 45.1855 107.123 45.498 106.547V103.559H43.5791C42.2607 103.559 41.2695 103.788 40.6055 104.247C39.9414 104.706 39.6094 105.355 39.6094 106.195C39.6094 106.879 39.834 107.426 40.2832 107.836C40.7422 108.236 41.3525 108.437 42.1143 108.437ZM61.084 98.4023C60.6152 98.3242 60.1318 98.2852 59.6338 98.2852C58.0029 98.2852 56.9043 98.9102 56.3379 100.16V111H52.7783V95.1504H56.1768L56.2646 96.9229C57.124 95.5459 58.3154 94.8574 59.8389 94.8574C60.3467 94.8574 60.7666 94.9258 61.0986 95.0625L61.084 98.4023ZM69.5508 108.451C70.4395 108.451 71.1768 108.192 71.7627 107.675C72.3486 107.157 72.6611 106.518 72.7002 105.756H76.0547C76.0156 106.742 75.708 107.665 75.1318 108.524C74.5557 109.374 73.7744 110.048 72.7881 110.546C71.8018 111.044 70.7373 111.293 69.5947 111.293C67.3779 111.293 65.6201 110.575 64.3213 109.14C63.0225 107.704 62.373 105.722 62.373 103.192V102.826C62.373 100.414 63.0176 98.4854 64.3066 97.04C65.5957 95.585 67.3535 94.8574 69.5801 94.8574C71.4648 94.8574 72.998 95.4092 74.1797 96.5127C75.3711 97.6064 75.9961 99.0469 76.0547 100.834H72.7002C72.6611 99.9258 72.3486 99.1787 71.7627 98.5928C71.1865 98.0068 70.4492 97.7139 69.5508 97.7139C68.3984 97.7139 67.5098 98.1338 66.8848 98.9736C66.2598 99.8037 65.9424 101.068 65.9326 102.768V103.339C65.9326 105.058 66.2402 106.342 66.8555 107.191C67.4805 108.031 68.3789 108.451 69.5508 108.451ZM82.251 96.8789C83.4131 95.5312 84.8828 94.8574 86.6602 94.8574C90.0391 94.8574 91.7529 96.7861 91.8018 100.644V111H88.2422V100.775C88.2422 99.6816 88.0029 98.9102 87.5244 98.4609C87.0557 98.002 86.3623 97.7725 85.4443 97.7725C84.0186 97.7725 82.9541 98.4072 82.251 99.6768V111H78.6914V88.5H82.251V96.8789ZM104.136 111V97.7871H101.719V95.1504H104.136V93.7002C104.136 91.9424 104.624 90.585 105.601 89.6279C106.577 88.6709 107.944 88.1924 109.702 88.1924C110.327 88.1924 110.991 88.2803 111.694 88.4561L111.606 91.2393C111.216 91.1611 110.762 91.1221 110.244 91.1221C108.545 91.1221 107.695 91.9961 107.695 93.7441V95.1504H110.918V97.7871H107.695V111H104.136ZM112.852 102.929C112.852 101.376 113.159 99.9795 113.774 98.7393C114.39 97.4893 115.254 96.5322 116.367 95.8682C117.48 95.1943 118.76 94.8574 120.205 94.8574C122.344 94.8574 124.077 95.5459 125.405 96.9229C126.743 98.2998 127.466 100.126 127.573 102.401L127.588 103.236C127.588 104.799 127.285 106.195 126.68 107.426C126.084 108.656 125.225 109.608 124.102 110.282C122.988 110.956 121.699 111.293 120.234 111.293C117.998 111.293 116.206 110.551 114.858 109.066C113.521 107.572 112.852 105.585 112.852 103.104V102.929ZM116.411 103.236C116.411 104.867 116.748 106.146 117.422 107.074C118.096 107.992 119.033 108.451 120.234 108.451C121.436 108.451 122.368 107.982 123.032 107.045C123.706 106.107 124.043 104.735 124.043 102.929C124.043 101.327 123.696 100.058 123.003 99.1201C122.319 98.1826 121.387 97.7139 120.205 97.7139C119.043 97.7139 118.12 98.1777 117.437 99.1055C116.753 100.023 116.411 101.4 116.411 103.236ZM138.896 98.4023C138.428 98.3242 137.944 98.2852 137.446 98.2852C135.815 98.2852 134.717 98.9102 134.15 100.16V111H130.591V95.1504H133.989L134.077 96.9229C134.937 95.5459 136.128 94.8574 137.651 94.8574C138.159 94.8574 138.579 94.9258 138.911 95.0625L138.896 98.4023ZM154.16 105.902L157.383 95.1504H161.177L154.878 113.402C153.911 116.068 152.271 117.401 149.956 117.401C149.438 117.401 148.867 117.313 148.242 117.138V114.384L148.916 114.428C149.814 114.428 150.488 114.262 150.938 113.93C151.396 113.607 151.758 113.061 152.021 112.289L152.534 110.927L146.968 95.1504H150.806L154.16 105.902ZM162.334 102.929C162.334 101.376 162.642 99.9795 163.257 98.7393C163.872 97.4893 164.736 96.5322 165.85 95.8682C166.963 95.1943 168.242 94.8574 169.688 94.8574C171.826 94.8574 173.56 95.5459 174.888 96.9229C176.226 98.2998 176.948 100.126 177.056 102.401L177.07 103.236C177.07 104.799 176.768 106.195 176.162 107.426C175.566 108.656 174.707 109.608 173.584 110.282C172.471 110.956 171.182 111.293 169.717 111.293C167.48 111.293 165.688 110.551 164.341 109.066C163.003 107.572 162.334 105.585 162.334 103.104V102.929ZM165.894 103.236C165.894 104.867 166.23 106.146 166.904 107.074C167.578 107.992 168.516 108.451 169.717 108.451C170.918 108.451 171.851 107.982 172.515 107.045C173.188 106.107 173.525 104.735 173.525 102.929C173.525 101.327 173.179 100.058 172.485 99.1201C171.802 98.1826 170.869 97.7139 169.688 97.7139C168.525 97.7139 167.603 98.1777 166.919 99.1055C166.235 100.023 165.894 101.4 165.894 103.236ZM189.683 109.447C188.638 110.678 187.153 111.293 185.229 111.293C183.511 111.293 182.207 110.79 181.318 109.784C180.439 108.778 180 107.323 180 105.419V95.1504H183.56V105.375C183.56 107.387 184.395 108.393 186.064 108.393C187.793 108.393 188.96 107.772 189.565 106.532V95.1504H193.125V111H189.771L189.683 109.447ZM205.049 98.4023C204.58 98.3242 204.097 98.2852 203.599 98.2852C201.968 98.2852 200.869 98.9102 200.303 100.16V111H196.743V95.1504H200.142L200.229 96.9229C201.089 95.5459 202.28 94.8574 203.804 94.8574C204.312 94.8574 204.731 94.9258 205.063 95.0625L205.049 98.4023ZM221.279 108.451C222.168 108.451 222.905 108.192 223.491 107.675C224.077 107.157 224.39 106.518 224.429 105.756H227.783C227.744 106.742 227.437 107.665 226.86 108.524C226.284 109.374 225.503 110.048 224.517 110.546C223.53 111.044 222.466 111.293 221.323 111.293C219.106 111.293 217.349 110.575 216.05 109.14C214.751 107.704 214.102 105.722 214.102 103.192V102.826C214.102 100.414 214.746 98.4854 216.035 97.04C217.324 95.585 219.082 94.8574 221.309 94.8574C223.193 94.8574 224.727 95.4092 225.908 96.5127C227.1 97.6064 227.725 99.0469 227.783 100.834H224.429C224.39 99.9258 224.077 99.1787 223.491 98.5928C222.915 98.0068 222.178 97.7139 221.279 97.7139C220.127 97.7139 219.238 98.1338 218.613 98.9736C217.988 99.8037 217.671 101.068 217.661 102.768V103.339C217.661 105.058 217.969 106.342 218.584 107.191C219.209 108.031 220.107 108.451 221.279 108.451ZM229.805 102.929C229.805 101.376 230.112 99.9795 230.728 98.7393C231.343 97.4893 232.207 96.5322 233.32 95.8682C234.434 95.1943 235.713 94.8574 237.158 94.8574C239.297 94.8574 241.03 95.5459 242.358 96.9229C243.696 98.2998 244.419 100.126 244.526 102.401L244.541 103.236C244.541 104.799 244.238 106.195 243.633 107.426C243.037 108.656 242.178 109.608 241.055 110.282C239.941 110.956 238.652 111.293 237.188 111.293C234.951 111.293 233.159 110.551 231.812 109.066C230.474 107.572 229.805 105.585 229.805 103.104V102.929ZM233.364 103.236C233.364 104.867 233.701 106.146 234.375 107.074C235.049 107.992 235.986 108.451 237.188 108.451C238.389 108.451 239.321 107.982 239.985 107.045C240.659 106.107 240.996 104.735 240.996 102.929C240.996 101.327 240.649 100.058 239.956 99.1201C239.272 98.1826 238.34 97.7139 237.158 97.7139C235.996 97.7139 235.073 98.1777 234.39 99.1055C233.706 100.023 233.364 101.4 233.364 103.236ZM257.153 109.447C256.108 110.678 254.624 111.293 252.7 111.293C250.981 111.293 249.678 110.79 248.789 109.784C247.91 108.778 247.471 107.323 247.471 105.419V95.1504H251.03V105.375C251.03 107.387 251.865 108.393 253.535 108.393C255.264 108.393 256.431 107.772 257.036 106.532V95.1504H260.596V111H257.241L257.153 109.447ZM272.52 98.4023C272.051 98.3242 271.567 98.2852 271.069 98.2852C269.438 98.2852 268.34 98.9102 267.773 100.16V111H264.214V95.1504H267.612L267.7 96.9229C268.56 95.5459 269.751 94.8574 271.274 94.8574C271.782 94.8574 272.202 94.9258 272.534 95.0625L272.52 98.4023ZM283.652 106.693C283.652 106.059 283.389 105.575 282.861 105.243C282.344 104.911 281.479 104.618 280.269 104.364C279.058 104.11 278.047 103.788 277.236 103.397C275.459 102.538 274.57 101.293 274.57 99.6621C274.57 98.2949 275.146 97.1523 276.299 96.2344C277.451 95.3164 278.916 94.8574 280.693 94.8574C282.588 94.8574 284.116 95.3262 285.278 96.2637C286.45 97.2012 287.036 98.417 287.036 99.9111H283.477C283.477 99.2275 283.223 98.6611 282.715 98.2119C282.207 97.7529 281.533 97.5234 280.693 97.5234C279.912 97.5234 279.272 97.7041 278.774 98.0654C278.286 98.4268 278.042 98.9102 278.042 99.5156C278.042 100.062 278.271 100.487 278.73 100.79C279.189 101.093 280.117 101.4 281.514 101.713C282.91 102.016 284.004 102.382 284.795 102.812C285.596 103.231 286.187 103.739 286.567 104.335C286.958 104.931 287.153 105.653 287.153 106.503C287.153 107.929 286.562 109.086 285.381 109.975C284.199 110.854 282.651 111.293 280.737 111.293C279.438 111.293 278.281 111.059 277.266 110.59C276.25 110.121 275.459 109.477 274.893 108.656C274.326 107.836 274.043 106.952 274.043 106.005H277.5C277.549 106.845 277.866 107.494 278.452 107.953C279.038 108.402 279.814 108.627 280.781 108.627C281.719 108.627 282.432 108.451 282.92 108.1C283.408 107.738 283.652 107.27 283.652 106.693ZM297.246 111.293C294.99 111.293 293.159 110.585 291.753 109.169C290.356 107.743 289.658 105.849 289.658 103.485V103.046C289.658 101.464 289.961 100.053 290.566 98.8125C291.182 97.5625 292.041 96.5908 293.145 95.8975C294.248 95.2041 295.479 94.8574 296.836 94.8574C298.994 94.8574 300.659 95.5459 301.831 96.9229C303.013 98.2998 303.604 100.248 303.604 102.768V104.203H293.247C293.354 105.512 293.789 106.547 294.551 107.309C295.322 108.07 296.289 108.451 297.451 108.451C299.082 108.451 300.41 107.792 301.436 106.474L303.354 108.305C302.72 109.252 301.87 109.989 300.806 110.517C299.751 111.034 298.564 111.293 297.246 111.293ZM296.821 97.7139C295.845 97.7139 295.054 98.0557 294.448 98.7393C293.853 99.4229 293.472 100.375 293.306 101.596H300.088V101.332C300.01 100.141 299.692 99.2422 299.136 98.6367C298.579 98.0215 297.808 97.7139 296.821 97.7139Z" fill="#101828"/>
<path d="M9.25701 147.182H10.7911C10.7208 145.207 8.89906 143.73 6.36781 143.73C3.86213 143.73 1.89338 145.188 1.89338 147.386C1.89338 149.151 3.17179 150.199 5.21724 150.787L6.82804 151.247C8.20872 151.631 9.43599 152.116 9.43599 153.42C9.43599 154.852 8.05531 155.798 6.23997 155.798C4.68031 155.798 3.29963 155.108 3.17179 153.625H1.53542C1.68883 155.773 3.42747 157.23 6.23997 157.23C9.25701 157.23 10.9701 155.568 10.9701 153.446C10.9701 150.991 8.64338 150.199 7.28826 149.841L5.95872 149.483C4.98713 149.227 3.42747 148.716 3.42747 147.31C3.42747 146.057 4.57804 145.136 6.31667 145.136C7.9019 145.136 9.1036 145.891 9.25701 147.182ZM17.3605 157.205C19.5338 157.205 20.9656 155.875 21.2213 154.136H19.7128C19.4316 155.21 18.5367 155.849 17.3605 155.849C15.5708 155.849 14.4202 154.366 14.4202 152.091C14.4202 149.866 15.5963 148.409 17.3605 148.409C18.6901 148.409 19.4827 149.227 19.7128 150.122H21.2213C20.9656 148.281 19.406 147.054 17.335 147.054C14.6759 147.054 12.9117 149.151 12.9117 152.142C12.9117 155.082 14.5992 157.205 17.3605 157.205ZM24.9351 151.094C24.9351 149.381 26.0281 148.409 27.5175 148.409C28.9365 148.409 29.7931 149.304 29.7931 150.864V157H31.3016V150.761C31.3016 148.237 29.9593 147.054 27.9521 147.054C26.4053 147.054 25.5232 147.7 25.0629 148.716H24.9351V143.909H23.4266V157H24.9351V151.094ZM38.1778 157.205C40.1721 157.205 41.6295 156.207 42.0898 154.724L40.6324 154.315C40.2488 155.338 39.3604 155.849 38.1778 155.849C36.4072 155.849 35.1863 154.705 35.116 152.602H42.2432V151.963C42.2432 148.307 40.0699 147.054 38.0244 147.054C35.3653 147.054 33.6011 149.151 33.6011 152.168C33.6011 155.185 35.3398 157.205 38.1778 157.205ZM35.116 151.298C35.2183 149.771 36.2986 148.409 38.0244 148.409C39.6608 148.409 40.7091 149.636 40.7091 151.298H35.116ZM48.2453 157.205C50.1373 157.205 50.7765 156.028 51.1089 155.491H51.2879V157H52.7453V143.909H51.2368V148.741H51.1089C50.7765 148.23 50.1885 147.054 48.2709 147.054C45.7907 147.054 44.0777 149.023 44.0777 152.116C44.0777 155.236 45.7907 157.205 48.2453 157.205ZM48.4498 155.849C46.5578 155.849 45.5862 154.188 45.5862 152.091C45.5862 150.02 46.5322 148.409 48.4498 148.409C50.2907 148.409 51.2623 149.892 51.2623 152.091C51.2623 154.315 50.2652 155.849 48.4498 155.849ZM61.9051 152.986C61.9051 154.827 60.4988 155.67 59.3738 155.67C58.121 155.67 57.2261 154.75 57.2261 153.318V147.182H55.7176V153.42C55.7176 155.926 57.0471 157.128 58.8881 157.128C60.371 157.128 61.3426 156.335 61.8028 155.338H61.9051V157H63.4136V147.182H61.9051V152.986ZM67.6851 143.909H66.1766V157H67.6851V143.909ZM74.5645 157.205C76.5589 157.205 78.0162 156.207 78.4765 154.724L77.0191 154.315C76.6356 155.338 75.7471 155.849 74.5645 155.849C72.7939 155.849 71.5731 154.705 71.5028 152.602H78.6299V151.963C78.6299 148.307 76.4566 147.054 74.4111 147.054C71.752 147.054 69.9878 149.151 69.9878 152.168C69.9878 155.185 71.7265 157.205 74.5645 157.205ZM71.5028 151.298C71.605 149.771 72.6853 148.409 74.4111 148.409C76.0475 148.409 77.0958 149.636 77.0958 151.298H71.5028ZM92.9417 149.381C92.4687 147.987 91.4076 147.054 89.4644 147.054C87.3934 147.054 85.8593 148.23 85.8593 149.892C85.8593 151.247 86.6647 152.155 88.4672 152.577L90.1036 152.96C91.0944 153.19 91.561 153.663 91.561 154.341C91.561 155.185 90.6661 155.875 89.2599 155.875C88.0262 155.875 87.2528 155.344 86.9843 154.29L85.5525 154.648C85.904 156.316 87.2783 157.205 89.2854 157.205C91.5674 157.205 93.1207 155.958 93.1207 154.264C93.1207 152.896 92.2641 152.033 90.5127 151.605L89.0553 151.247C87.892 150.96 87.3678 150.57 87.3678 149.815C87.3678 148.972 88.2627 148.358 89.4644 148.358C90.7812 148.358 91.3245 149.087 91.5866 149.764L92.9417 149.381ZM99.5079 157.205C101.502 157.205 102.96 156.207 103.42 154.724L101.962 154.315C101.579 155.338 100.69 155.849 99.5079 155.849C97.7373 155.849 96.5164 154.705 96.4461 152.602H103.573V151.963C103.573 148.307 101.4 147.054 99.3545 147.054C96.6954 147.054 94.9312 149.151 94.9312 152.168C94.9312 155.185 96.6698 157.205 99.5079 157.205ZM96.4461 151.298C96.5484 149.771 97.6286 148.409 99.3545 148.409C100.991 148.409 102.039 149.636 102.039 151.298H96.4461ZM112.823 149.381C112.35 147.987 111.288 147.054 109.345 147.054C107.274 147.054 105.74 148.23 105.74 149.892C105.74 151.247 106.546 152.155 108.348 152.577L109.984 152.96C110.975 153.19 111.442 153.663 111.442 154.341C111.442 155.185 110.547 155.875 109.141 155.875C107.907 155.875 107.134 155.344 106.865 154.29L105.433 154.648C105.785 156.316 107.159 157.205 109.166 157.205C111.448 157.205 113.002 155.958 113.002 154.264C113.002 152.896 112.145 152.033 110.394 151.605L108.936 151.247C107.773 150.96 107.249 150.57 107.249 149.815C107.249 148.972 108.144 148.358 109.345 148.358C110.662 148.358 111.205 149.087 111.467 149.764L112.823 149.381ZM122.227 149.381C121.754 147.987 120.693 147.054 118.75 147.054C116.679 147.054 115.144 148.23 115.144 149.892C115.144 151.247 115.95 152.155 117.752 152.577L119.389 152.96C120.38 153.19 120.846 153.663 120.846 154.341C120.846 155.185 119.951 155.875 118.545 155.875C117.311 155.875 116.538 155.344 116.269 154.29L114.838 154.648C115.189 156.316 116.563 157.205 118.571 157.205C120.853 157.205 122.406 155.958 122.406 154.264C122.406 152.896 121.549 152.033 119.798 151.605L118.34 151.247C117.177 150.96 116.653 150.57 116.653 149.815C116.653 148.972 117.548 148.358 118.75 148.358C120.066 148.358 120.61 149.087 120.872 149.764L122.227 149.381ZM124.677 157H126.185V147.182H124.677V157ZM125.444 145.545C126.032 145.545 126.517 145.085 126.517 144.523C126.517 143.96 126.032 143.5 125.444 143.5C124.856 143.5 124.37 143.96 124.37 144.523C124.37 145.085 124.856 145.545 125.444 145.545ZM132.937 157.205C135.596 157.205 137.386 155.185 137.386 152.142C137.386 149.074 135.596 147.054 132.937 147.054C130.278 147.054 128.488 149.074 128.488 152.142C128.488 155.185 130.278 157.205 132.937 157.205ZM132.937 155.849C130.917 155.849 129.996 154.111 129.996 152.142C129.996 150.173 130.917 148.409 132.937 148.409C134.957 148.409 135.877 150.173 135.877 152.142C135.877 154.111 134.957 155.849 132.937 155.849ZM141.197 151.094C141.197 149.381 142.258 148.409 143.703 148.409C145.102 148.409 145.953 149.323 145.953 150.864V157H147.461V150.761C147.461 148.256 146.125 147.054 144.137 147.054C142.654 147.054 141.734 147.719 141.274 148.716H141.146V147.182H139.688V157H141.197V151.094ZM157.172 149.381C156.699 147.987 155.638 147.054 153.695 147.054C151.624 147.054 150.09 148.23 150.09 149.892C150.09 151.247 150.895 152.155 152.698 152.577L154.334 152.96C155.325 153.19 155.791 153.663 155.791 154.341C155.791 155.185 154.897 155.875 153.49 155.875C152.257 155.875 151.483 155.344 151.215 154.29L149.783 154.648C150.134 156.316 151.509 157.205 153.516 157.205C155.798 157.205 157.351 155.958 157.351 154.264C157.351 152.896 156.495 152.033 154.743 151.605L153.286 151.247C152.122 150.96 151.598 150.57 151.598 149.815C151.598 148.972 152.493 148.358 153.695 148.358C155.012 148.358 155.555 149.087 155.817 149.764L157.172 149.381ZM166.909 157H168.392L170.54 149.457H170.693L172.841 157H174.324L177.315 147.182H175.73L173.608 154.673H173.505L171.434 147.182H169.824L167.727 154.699H167.625L165.503 147.182H163.917L166.909 157ZM180.818 151.094C180.818 149.381 181.911 148.409 183.4 148.409C184.819 148.409 185.676 149.304 185.676 150.864V157H187.184V150.761C187.184 148.237 185.842 147.054 183.835 147.054C182.288 147.054 181.406 147.7 180.946 148.716H180.818V143.909H179.309V157H180.818V151.094ZM194.061 157.205C196.055 157.205 197.512 156.207 197.973 154.724L196.515 154.315C196.132 155.338 195.243 155.849 194.061 155.849C192.29 155.849 191.069 154.705 190.999 152.602H198.126V151.963C198.126 148.307 195.953 147.054 193.907 147.054C191.248 147.054 189.484 149.151 189.484 152.168C189.484 155.185 191.223 157.205 194.061 157.205ZM190.999 151.298C191.101 149.771 192.181 148.409 193.907 148.409C195.544 148.409 196.592 149.636 196.592 151.298H190.999ZM201.929 151.094C201.929 149.381 202.99 148.409 204.435 148.409C205.835 148.409 206.685 149.323 206.685 150.864V157H208.193V150.761C208.193 148.256 206.858 147.054 204.87 147.054C203.387 147.054 202.466 147.719 202.006 148.716H201.878V147.182H200.421V157H201.929V151.094ZM216.984 160.682C218.346 160.682 219.304 159.96 219.873 158.432L224.054 147.207L222.405 147.182L219.694 155.006H219.592L216.882 147.182H215.245L218.876 157.051L218.595 157.818C218.045 159.314 217.368 159.455 216.268 159.173L215.885 160.503C216.038 160.58 216.473 160.682 216.984 160.682ZM229.687 157.205C232.346 157.205 234.136 155.185 234.136 152.142C234.136 149.074 232.346 147.054 229.687 147.054C227.028 147.054 225.238 149.074 225.238 152.142C225.238 155.185 227.028 157.205 229.687 157.205ZM229.687 155.849C227.667 155.849 226.746 154.111 226.746 152.142C226.746 150.173 227.667 148.409 229.687 148.409C231.707 148.409 232.627 150.173 232.627 152.142C232.627 154.111 231.707 155.849 229.687 155.849ZM242.626 152.986C242.626 154.827 241.22 155.67 240.095 155.67C238.842 155.67 237.947 154.75 237.947 153.318V147.182H236.438V153.42C236.438 155.926 237.768 157.128 239.609 157.128C241.092 157.128 242.063 156.335 242.524 155.338H242.626V157H244.134V147.182H242.626V152.986ZM253.468 151.094C253.468 149.381 254.529 148.409 255.974 148.409C257.374 148.409 258.224 149.323 258.224 150.864V157H259.733V150.761C259.733 148.256 258.397 147.054 256.409 147.054C254.926 147.054 254.005 147.719 253.545 148.716H253.417V147.182H251.96V157H253.468V151.094ZM266.606 157.205C268.6 157.205 270.057 156.207 270.517 154.724L269.06 154.315C268.677 155.338 267.788 155.849 266.606 155.849C264.835 155.849 263.614 154.705 263.544 152.602H270.671V151.963C270.671 148.307 268.498 147.054 266.452 147.054C263.793 147.054 262.029 149.151 262.029 152.168C262.029 155.185 263.767 157.205 266.606 157.205ZM263.544 151.298C263.646 149.771 264.726 148.409 266.452 148.409C268.089 148.409 269.137 149.636 269.137 151.298H263.544ZM277.082 157.205C279.076 157.205 280.534 156.207 280.994 154.724L279.537 154.315C279.153 155.338 278.265 155.849 277.082 155.849C275.312 155.849 274.091 154.705 274.02 152.602H281.147V151.963C281.147 148.307 278.974 147.054 276.929 147.054C274.27 147.054 272.505 149.151 272.505 152.168C272.505 155.185 274.244 157.205 277.082 157.205ZM274.02 151.298C274.123 149.771 275.203 148.409 276.929 148.409C278.565 148.409 279.613 149.636 279.613 151.298H274.02ZM287.15 157.205C289.042 157.205 289.681 156.028 290.013 155.491H290.192V157H291.65V143.909H290.141V148.741H290.013C289.681 148.23 289.093 147.054 287.175 147.054C284.695 147.054 282.982 149.023 282.982 152.116C282.982 155.236 284.695 157.205 287.15 157.205ZM287.354 155.849C285.462 155.849 284.491 154.188 284.491 152.091C284.491 150.02 285.437 148.409 287.354 148.409C289.195 148.409 290.167 149.892 290.167 152.091C290.167 154.315 289.169 155.849 287.354 155.849ZM303.954 147.182H301.858V144.83H300.349V147.182H298.866V148.46H300.349V154.597C300.349 156.31 301.73 157.128 303.008 157.128C303.571 157.128 303.929 157.026 304.133 156.949L303.826 155.594C303.699 155.619 303.494 155.67 303.162 155.67C302.497 155.67 301.858 155.466 301.858 154.188V148.46H303.954V147.182ZM307.943 151.094C307.943 149.381 309.036 148.409 310.525 148.409C311.944 148.409 312.801 149.304 312.801 150.864V157H314.309V150.761C314.309 148.237 312.967 147.054 310.96 147.054C309.413 147.054 308.531 147.7 308.071 148.716H307.943V143.909H306.434V157H307.943V151.094ZM321.186 157.205C323.18 157.205 324.637 156.207 325.098 154.724L323.64 154.315C323.257 155.338 322.368 155.849 321.186 155.849C319.415 155.849 318.194 154.705 318.124 152.602H325.251V151.963C325.251 148.307 323.078 147.054 321.032 147.054C318.373 147.054 316.609 149.151 316.609 152.168C316.609 155.185 318.348 157.205 321.186 157.205ZM318.124 151.298C318.226 149.771 319.306 148.409 321.032 148.409C322.669 148.409 323.717 149.636 323.717 151.298H318.124ZM327.546 157H329.054V150.864C329.054 149.425 330.103 148.409 331.279 148.409C332.423 148.409 333.222 149.157 333.222 150.276V157H334.756V150.608C334.756 149.342 335.549 148.409 336.929 148.409C338.003 148.409 338.924 148.978 338.924 150.429V157H340.432V150.429C340.432 148.121 339.192 147.054 337.441 147.054C336.034 147.054 335.005 147.7 334.5 148.716H334.398C333.912 147.668 333.056 147.054 331.764 147.054C330.486 147.054 329.54 147.668 329.131 148.716H329.003V147.182H327.546V157ZM345.44 155.21H343.804L343.727 155.926C343.542 157.658 343.177 159.384 343.011 160.196H344.162C344.469 159.327 345.121 157.358 345.338 155.901L345.44 155.21ZM355.522 157H357.005L359.153 149.457H359.306L361.454 157H362.937L365.928 147.182H364.343L362.221 154.673H362.119L360.048 147.182H358.437L356.34 154.699H356.238L354.116 147.182H352.531L355.522 157ZM369.431 151.094C369.431 149.381 370.524 148.409 372.014 148.409C373.433 148.409 374.289 149.304 374.289 150.864V157H375.798V150.761C375.798 148.237 374.455 147.054 372.448 147.054C370.901 147.054 370.019 147.7 369.559 148.716H369.431V143.909H367.923V157H369.431V151.094ZM382.674 157.205C384.668 157.205 386.126 156.207 386.586 154.724L385.128 154.315C384.745 155.338 383.856 155.849 382.674 155.849C380.903 155.849 379.682 154.705 379.612 152.602H386.739V151.963C386.739 148.307 384.566 147.054 382.521 147.054C379.861 147.054 378.097 149.151 378.097 152.168C378.097 155.185 379.836 157.205 382.674 157.205ZM379.612 151.298C379.714 149.771 380.795 148.409 382.521 148.409C384.157 148.409 385.205 149.636 385.205 151.298H379.612ZM389.034 157H390.543V150.787C390.543 149.457 391.591 148.486 393.023 148.486C393.425 148.486 393.841 148.562 393.943 148.588V147.054C393.771 147.041 393.374 147.028 393.15 147.028C391.974 147.028 390.952 147.693 390.594 148.665H390.491V147.182H389.034V157ZM399.549 157.205C401.543 157.205 403.001 156.207 403.461 154.724L402.003 154.315C401.62 155.338 400.731 155.849 399.549 155.849C397.778 155.849 396.557 154.705 396.487 152.602H403.614V151.963C403.614 148.307 401.441 147.054 399.396 147.054C396.736 147.054 394.972 149.151 394.972 152.168C394.972 155.185 396.711 157.205 399.549 157.205ZM396.487 151.298C396.589 149.771 397.67 148.409 399.396 148.409C401.032 148.409 402.08 149.636 402.08 151.298H396.487ZM413.639 147.182H412.002L409.292 155.006H409.19L406.479 147.182H404.843L408.474 157H410.008L413.639 147.182ZM419.395 157.205C421.389 157.205 422.846 156.207 423.307 154.724L421.849 154.315C421.466 155.338 420.577 155.849 419.395 155.849C417.624 155.849 416.403 154.705 416.333 152.602H423.46V151.963C423.46 148.307 421.287 147.054 419.241 147.054C416.582 147.054 414.818 149.151 414.818 152.168C414.818 155.185 416.557 157.205 419.395 157.205ZM416.333 151.298C416.435 149.771 417.515 148.409 419.241 148.409C420.878 148.409 421.926 149.636 421.926 151.298H416.333ZM425.755 157H427.263V150.787C427.263 149.457 428.312 148.486 429.743 148.486C430.146 148.486 430.562 148.562 430.664 148.588V147.054C430.491 147.041 430.095 147.028 429.871 147.028C428.695 147.028 427.672 147.693 427.314 148.665H427.212V147.182H425.755V157ZM438.486 160.682C439.848 160.682 440.806 159.96 441.375 158.432L445.556 147.207L443.907 147.182L441.196 155.006H441.094L438.384 147.182H436.747L440.378 157.051L440.097 157.818C439.547 159.314 438.87 159.455 437.77 159.173L437.387 160.503C437.54 160.58 437.975 160.682 438.486 160.682ZM451.189 157.205C453.848 157.205 455.638 155.185 455.638 152.142C455.638 149.074 453.848 147.054 451.189 147.054C448.53 147.054 446.74 149.074 446.74 152.142C446.74 155.185 448.53 157.205 451.189 157.205ZM451.189 155.849C449.169 155.849 448.248 154.111 448.248 152.142C448.248 150.173 449.169 148.409 451.189 148.409C453.209 148.409 454.129 150.173 454.129 152.142C454.129 154.111 453.209 155.849 451.189 155.849ZM464.128 152.986C464.128 154.827 462.722 155.67 461.597 155.67C460.344 155.67 459.449 154.75 459.449 153.318V147.182H457.94V153.42C457.94 155.926 459.27 157.128 461.111 157.128C462.594 157.128 463.565 156.335 464.025 155.338H464.128V157H465.636V147.182H464.128V152.986ZM4.11781 185H5.60076L7.74849 177.457H7.9019L10.0496 185H11.5326L14.5241 175.182H12.9388L10.8167 182.673H10.7144L8.64338 175.182H7.03258L4.93599 182.699H4.83372L2.71156 175.182H1.12633L4.11781 185ZM19.4076 185.23C21.1207 185.23 22.0155 184.31 22.3224 183.67H22.3991V185H23.9076V178.531C23.9076 175.412 21.5297 175.054 20.2769 175.054C18.7939 175.054 17.1064 175.565 16.3394 177.355L17.7712 177.866C18.1036 177.151 18.8898 176.384 20.328 176.384C21.7151 176.384 22.3991 177.119 22.3991 178.378V178.429C22.3991 179.158 21.6576 179.094 19.8678 179.324C18.0461 179.56 16.0581 179.963 16.0581 182.213C16.0581 184.131 17.5411 185.23 19.4076 185.23ZM19.6377 183.875C18.436 183.875 17.5667 183.338 17.5667 182.29C17.5667 181.139 18.615 180.781 19.7911 180.628C20.4303 180.551 22.1434 180.372 22.3991 180.065V181.446C22.3991 182.673 21.4275 183.875 19.6377 183.875ZM28.1695 179.094C28.1695 177.381 29.2306 176.409 30.6752 176.409C32.075 176.409 32.9252 177.323 32.9252 178.864V185H34.4337V178.761C34.4337 176.256 33.0977 175.054 31.1098 175.054C29.6269 175.054 28.7064 175.719 28.2462 176.716H28.1183V175.182H26.661V185H28.1695V179.094ZM41.4601 175.182H39.3635V172.83H37.855V175.182H36.3721V176.46H37.855V182.597C37.855 184.31 39.2357 185.128 40.5141 185.128C41.0766 185.128 41.4346 185.026 41.6391 184.949L41.3323 183.594C41.2045 183.619 40.9999 183.67 40.6675 183.67C40.0028 183.67 39.3635 183.466 39.3635 182.188V176.46H41.4601V175.182ZM53.0617 175.182H50.9651V172.83H49.4566V175.182H47.9736V176.46H49.4566V182.597C49.4566 184.31 50.8373 185.128 52.1157 185.128C52.6782 185.128 53.0361 185.026 53.2407 184.949L52.9339 183.594C52.806 183.619 52.6015 183.67 52.2691 183.67C51.6043 183.67 50.9651 183.466 50.9651 182.188V176.46H53.0617V175.182ZM59.214 185.205C61.8731 185.205 63.6629 183.185 63.6629 180.142C63.6629 177.074 61.8731 175.054 59.214 175.054C56.555 175.054 54.7652 177.074 54.7652 180.142C54.7652 183.185 56.555 185.205 59.214 185.205ZM59.214 183.849C57.1942 183.849 56.2737 182.111 56.2737 180.142C56.2737 178.173 57.1942 176.409 59.214 176.409C61.2339 176.409 62.1544 178.173 62.1544 180.142C62.1544 182.111 61.2339 183.849 59.214 183.849ZM72.5367 179.094C72.5367 177.381 73.6297 176.409 75.1191 176.409C76.5381 176.409 77.3946 177.304 77.3946 178.864V185H78.9031V178.761C78.9031 176.237 77.5608 175.054 75.5537 175.054C74.0068 175.054 73.1247 175.7 72.6645 176.716H72.5367V171.909H71.0281V185H72.5367V179.094ZM84.5521 185.23C86.2652 185.23 87.1601 184.31 87.4669 183.67H87.5436V185H89.0521V178.531C89.0521 175.412 86.6743 175.054 85.4214 175.054C83.9385 175.054 82.251 175.565 81.4839 177.355L82.9157 177.866C83.2481 177.151 84.0344 176.384 85.4726 176.384C86.8596 176.384 87.5436 177.119 87.5436 178.378V178.429C87.5436 179.158 86.8021 179.094 85.0123 179.324C83.1906 179.56 81.2027 179.963 81.2027 182.213C81.2027 184.131 82.6856 185.23 84.5521 185.23ZM84.7822 183.875C83.5805 183.875 82.7112 183.338 82.7112 182.29C82.7112 181.139 83.7595 180.781 84.9356 180.628C85.5748 180.551 87.2879 180.372 87.5436 180.065V181.446C87.5436 182.673 86.572 183.875 84.7822 183.875ZM99.4823 175.182H97.846L95.1357 183.006H95.0335L92.3232 175.182H90.6869L94.3176 185H95.8517L99.4823 175.182ZM105.238 185.205C107.233 185.205 108.69 184.207 109.15 182.724L107.693 182.315C107.309 183.338 106.421 183.849 105.238 183.849C103.468 183.849 102.247 182.705 102.177 180.602H109.304V179.963C109.304 176.307 107.13 175.054 105.085 175.054C102.426 175.054 100.662 177.151 100.662 180.168C100.662 183.185 102.4 185.205 105.238 185.205ZM102.177 179.298C102.279 177.771 103.359 176.409 105.085 176.409C106.721 176.409 107.77 177.636 107.77 179.298H102.177ZM120.931 175.182H118.834V172.83H117.326V175.182H115.843V176.46H117.326V182.597C117.326 184.31 118.706 185.128 119.985 185.128C120.547 185.128 120.905 185.026 121.11 184.949L120.803 183.594C120.675 183.619 120.471 183.67 120.138 183.67C119.473 183.67 118.834 183.466 118.834 182.188V176.46H120.931V175.182ZM124.919 179.094C124.919 177.381 126.013 176.409 127.502 176.409C128.921 176.409 129.777 177.304 129.777 178.864V185H131.286V178.761C131.286 176.237 129.944 175.054 127.937 175.054C126.39 175.054 125.508 175.7 125.047 176.716H124.919V171.909H123.411V185H124.919V179.094ZM138.162 185.205C140.157 185.205 141.614 184.207 142.074 182.724L140.617 182.315C140.233 183.338 139.345 183.849 138.162 183.849C136.392 183.849 135.171 182.705 135.1 180.602H142.228V179.963C142.228 176.307 140.054 175.054 138.009 175.054C135.35 175.054 133.585 177.151 133.585 180.168C133.585 183.185 135.324 185.205 138.162 185.205ZM135.1 179.298C135.203 177.771 136.283 176.409 138.009 176.409C139.645 176.409 140.693 177.636 140.693 179.298H135.1ZM144.522 185H146.031V178.864C146.031 177.425 147.079 176.409 148.255 176.409C149.399 176.409 150.198 177.157 150.198 178.276V185H151.733V178.608C151.733 177.342 152.525 176.409 153.906 176.409C154.98 176.409 155.9 176.978 155.9 178.429V185H157.409V178.429C157.409 176.121 156.169 175.054 154.417 175.054C153.011 175.054 151.982 175.7 151.477 176.716H151.375C150.889 175.668 150.032 175.054 148.741 175.054C147.463 175.054 146.517 175.668 146.108 176.716H145.98V175.182H144.522V185Z" fill="#667085"/>
<g filter="url(#filter0_d_2_39838)">
<g filter="url(#filter1_d_2_39838)">
<rect x="550.513" y="80.3206" width="473.041" height="41.3587" rx="6.4623" fill="#5EC69D"/>
</g>
<ellipse cx="575.111" cy="101" rx="5.21192" ry="5.50472" fill="#FF5959"/>
<ellipse cx="592.485" cy="101" rx="5.21192" ry="5.50472" fill="#FFCE22"/>
<ellipse cx="609.858" cy="101" rx="5.21192" ry="5.50472" fill="#37D400"/>
<rect x="666.768" y="86.7829" width="292.096" height="28.4341" rx="4.16954" fill="#F0F0F0"/>
<rect x="682.36" y="98.8271" width="99.7908" height="5.66772" rx="2.83386" fill="#5EC69D"/>
</g>
<defs>
<filter id="filter0_d_2_39838" x="530.513" y="65.3206" width="513.041" height="81.3588" filterUnits="userSpaceOnUse" color-interpolation-filters="sRGB">
<feFlood flood-opacity="0" result="BackgroundImageFix"/>
<feColorMatrix in="SourceAlpha" type="matrix" values="0 0 0 0 0 0 0 0 0 0 0 0 0 0 0 0 0 0 127 0" result="hardAlpha"/>
<feMorphology radius="4" operator="dilate" in="SourceAlpha" result="effect1_dropShadow_2_39838"/>
<feOffset dy="5"/>
<feGaussianBlur stdDeviation="8"/>
<feColorMatrix type="matrix" values="0 0 0 0 0.439216 0 0 0 0 0.564706 0 0 0 0 0.690196 0 0 0 0.1 0"/>
<feBlend mode="normal" in2="BackgroundImageFix" result="effect1_dropShadow_2_39838"/>
<feBlend mode="normal" in="SourceGraphic" in2="effect1_dropShadow_2_39838" result="shape"/>
</filter>
<filter id="filter1_d_2_39838" x="446.513" y="0.320618" width="681.041" height="249.359" filterUnits="userSpaceOnUse" color-interpolation-filters="sRGB">
<feFlood flood-opacity="0" result="BackgroundImageFix"/>
<feColorMatrix in="SourceAlpha" type="matrix" values="0 0 0 0 0 0 0 0 0 0 0 0 0 0 0 0 0 0 127 0" result="hardAlpha"/>
<feMorphology radius="20" operator="erode" in="SourceAlpha" result="effect1_dropShadow_2_39838"/>
<feOffset dy="24"/>
<feGaussianBlur stdDeviation="62"/>
<feComposite in2="hardAlpha" operator="out"/>
<feColorMatrix type="matrix" values="0 0 0 0 0.478431 0 0 0 0 0.537255 0 0 0 0 0.580392 0 0 0 0.27 0"/>
<feBlend mode="normal" in2="BackgroundImageFix" result="effect1_dropShadow_2_39838"/>
<feBlend mode="normal" in="SourceGraphic" in2="effect1_dropShadow_2_39838" result="shape"/>
</filter>
</defs>
</svg>
