<svg width="48" height="49" viewBox="0 0 48 49" fill="none" xmlns="http://www.w3.org/2000/svg">
<rect y="0.17041" width="48" height="48" rx="24" fill="#5EC69D" fill-opacity="0.1"/>
<path d="M27.5001 26.1704H26.7101L26.4301 25.9004C27.6301 24.5004 28.2501 22.5904 27.9101 20.5604C27.4401 17.7804 25.1201 15.5604 22.3201 15.2204C18.0901 14.7004 14.5301 18.2604 15.0501 22.4904C15.3901 25.2904 17.6101 27.6104 20.3901 28.0804C22.4201 28.4204 24.3301 27.8004 25.7301 26.6004L26.0001 26.8804V27.6704L30.2501 31.9204C30.6601 32.3304 31.3301 32.3304 31.7401 31.9204C32.1501 31.5104 32.1501 30.8404 31.7401 30.4304L27.5001 26.1704ZM21.5001 26.1704C19.0101 26.1704 17.0001 24.1604 17.0001 21.6704C17.0001 19.1804 19.0101 17.1704 21.5001 17.1704C23.9901 17.1704 26.0001 19.1804 26.0001 21.6704C26.0001 24.1604 23.9901 26.1704 21.5001 26.1704Z" fill="#5EC69D"/>
</svg>
